<svg xmlns="http://www.w3.org/2000/svg" xmlns:xlink="http://www.w3.org/1999/xlink" width="92.809" height="92.81" viewBox="0 0 92.809 92.81">
  <defs>
    <filter id="Trazado_896985" x="0" y="0" width="92.809" height="92.81" filterUnits="userSpaceOnUse">
      <feOffset dy="3" input="SourceAlpha"/>
      <feGaussianBlur stdDeviation="3" result="blur"/>
      <feFlood flood-opacity="0.161"/>
      <feComposite operator="in" in2="blur"/>
      <feComposite in="SourceGraphic"/>
    </filter>
  </defs>
  <g id="Grupo_1108198" data-name="Grupo 1108198" transform="translate(9 6)">
    <g id="Grupo_1098742" data-name="Grupo 1098742" transform="translate(0)">
      <g transform="matrix(1, 0, 0, 1, -9, -6)" filter="url(#Trazado_896985)">
        <g id="Trazado_896985-2" data-name="Trazado 896985" transform="translate(9 6)" fill="#f6d530" opacity="0.859">
          <path d="M 37.40473556518555 73.3095703125 C 32.55696868896484 73.3095703125 27.85500144958496 72.36046600341797 23.42944717407227 70.48861694335938 C 19.15412521362305 68.68030548095703 15.31416893005371 66.09123229980469 12.01625823974609 62.79331970214844 C 8.71834659576416 59.49540710449219 6.129269123077393 55.65545272827148 4.320957660675049 51.38013076782227 C 2.449113368988037 46.95457458496094 1.500002264976501 42.25260925292969 1.500002264976501 37.40484237670898 C 1.500002264976501 32.55704116821289 2.449113368988037 27.85506248474121 4.320957660675049 23.42949676513672 C 6.129269123077393 19.15415191650391 8.71834659576416 15.31418514251709 12.01625823974609 12.01626300811768 C 15.31416893005371 8.718351364135742 19.15412521362305 6.129273891448975 23.42945861816406 4.32095193862915 C 27.85500144958496 2.44910740852356 32.55696868896484 1.499996304512024 37.40473556518555 1.499996304512024 C 42.25250244140625 1.499996304512024 46.9544677734375 2.44910740852356 51.38001251220703 4.32095193862915 C 55.65534591674805 6.129262924194336 59.49530410766602 8.718340873718262 62.793212890625 12.01625156402588 C 66.09112548828125 15.31416320800781 68.68019866943359 19.15411758422852 70.48851013183594 23.42945098876953 C 72.36035919189453 27.85500717163086 73.30947113037109 32.55697250366211 73.30947113037109 37.40473937988281 C 73.30947113037109 42.25252914428711 72.36035919189453 46.95451736450195 70.48851013183594 51.38008499145508 C 68.68019866943359 55.65542984008789 66.09112548828125 59.49539566040039 62.793212890625 62.79330825805664 C 59.49530410766602 66.09123229980469 55.65534591674805 68.68030548095703 51.38001251220703 70.48861694335938 C 46.9544677734375 72.36046600341797 42.25250244140625 73.3095703125 37.40473556518555 73.3095703125 Z" stroke="none"/>
          <path d="M 37.40473556518555 3 C 32.75879669189453 3 28.25343704223633 3.909233093261719 24.01378631591797 5.702461242675781 C 19.9172477722168 7.435150146484375 16.2375602722168 9.916282653808594 13.07691192626953 13.07692337036133 C 9.916275024414062 16.23757171630859 7.435150146484375 19.91727447509766 5.702461242675781 24.01382446289062 C 3.909233093261719 28.25348663330078 3 32.75888442993164 3 37.40483474731445 C 3 42.05075836181641 3.909233093261719 46.55613708496094 5.702461242675781 50.79578399658203 C 7.435150146484375 54.8923225402832 9.916275024414062 58.572021484375 13.07691192626953 61.73265838623047 C 16.237548828125 64.89329528808594 19.9172477722168 67.37442016601562 24.01378631591797 69.10710906982422 C 28.25343704223633 70.90033721923828 32.75881195068359 71.8095703125 37.40473556518555 71.8095703125 C 42.05067443847656 71.8095703125 46.55603790283203 70.90033721923828 50.79568481445312 69.10710906982422 C 54.8922233581543 67.37442016601562 58.5719108581543 64.89328765869141 61.73255920410156 61.73264694213867 C 64.89319610595703 58.57199859619141 67.37432098388672 54.89229583740234 69.10700988769531 50.79574584960938 C 70.90023803710938 46.55608367919922 71.80947113037109 42.05068588256836 71.80947113037109 37.40473556518555 C 71.80947113037109 32.75881195068359 70.90023803710938 28.25343704223633 69.10700988769531 24.01378631591797 C 67.37432098388672 19.9172477722168 64.89319610595703 16.237548828125 61.73255920410156 13.07691192626953 C 58.57192230224609 9.916275024414062 54.8922233581543 7.435150146484375 50.79568481445312 5.702461242675781 C 46.55603790283203 3.909233093261719 42.0506591796875 3 37.40473556518555 3 M 37.40473556518555 0 C 58.06279754638672 0 74.80947113037109 16.74667358398438 74.80947113037109 37.40473556518555 L 74.80947113037109 37.40483474731445 C 74.80947113037109 58.06289672851562 58.06279754638672 74.8095703125 37.40473556518555 74.8095703125 C 16.74667358398438 74.8095703125 0 58.06289672851562 0 37.40483474731445 L 0 37.40473556518555 C 0 16.74667358398438 16.74667358398438 0 37.40473556518555 0 Z" stroke="none" fill="#fff"/>
        </g>
      </g>
      <g id="Rectángulo_400907" data-name="Rectángulo 400907" fill="none" stroke="#fff" stroke-width="3">
        <rect width="75" height="75" rx="37.5" stroke="none"/>
        <rect x="1.5" y="1.5" width="72" height="72" rx="36" fill="none"/>
      </g>
    </g>
    <g id="g12333" transform="translate(14.06 12.021)">
      <g id="g12335" transform="translate(0 0)">
        <g id="Grupo_1107830" data-name="Grupo 1107830">
          <g id="g12343" transform="translate(32.498 22.18)">
            <path id="path12345" d="M-112.076-38.919c-1.317-2.015-2.221-3.229-4.628-3.229h-2.756a4.693,4.693,0,0,0,.327,6.613,5.1,5.1,0,0,0,3.929,1.526c-.2,1.249.628,3.317,2.2,3.659l-8.376,6.576.985,4.822,12.884-9.075a2.72,2.72,0,0,0,.624-3.837Z" transform="translate(121.374 42.148)" fill="#fed2a4"/>
          </g>
          <g id="g12347" transform="translate(33.201 22.18)">
            <path id="path12349" d="M-65.9-98.1a3.6,3.6,0,0,0,1.769,3.513l1.44-1.13a.511.511,0,0,0-.044-.833,3.724,3.724,0,0,1-1.51-2.858.508.508,0,0,0-.489-.492,5.151,5.151,0,0,1-3.413-1.533,4.983,4.983,0,0,1-1.376-4.8h-.633a4.694,4.694,0,0,0,.327,6.613A5.1,5.1,0,0,0-65.9-98.1" transform="translate(71.372 106.241)" fill="#ffbd86"/>
          </g>
          <g id="g12351" transform="translate(32.498 22.18)">
            <path id="path12353" d="M-108.038-32.818c-1.15-1.71-2.1-2.723-4.293-2.723h-2.756a4.694,4.694,0,0,0,.327,6.613,5.1,5.1,0,0,0,3.929,1.526c-.2,1.249.628,3.317,2.2,3.659L-117-17.167l.986,4.822,12.884-9.075a2.72,2.72,0,0,0,.624-3.837l-3.434-4.664" transform="translate(117.002 35.541)" fill="none" stroke="#000" stroke-linecap="round" stroke-linejoin="round" stroke-miterlimit="10" stroke-width="1.5"/>
          </g>
          <g id="g12355" transform="translate(11.128 22.18)">
            <path id="path12357" d="M-91.211-45.605a3.8,3.8,0,0,0-3.784-3.784,3.8,3.8,0,0,0-3.784,3.784v1.135a3.765,3.765,0,0,0,.934,2.481,3.764,3.764,0,0,0-.934,2.481v8.169A3.845,3.845,0,0,0-94.995-27.5a3.845,3.845,0,0,0,3.784-3.842v-8.169a3.764,3.764,0,0,0-.934-2.481,3.765,3.765,0,0,0,.934-2.481Z" transform="translate(98.778 49.389)" fill="#fed2a4"/>
          </g>
          <g id="g12359" transform="translate(11.128 22.18)">
            <path id="path12361" d="M-1.636-107.028a1,1,0,0,1,.087.151.989.989,0,0,1,.9-.579.99.99,0,0,1,.9.579.991.991,0,0,1,.137-.217,3.793,3.793,0,0,1,.779-1.415,3.765,3.765,0,0,1-.934-2.481v-1.135a3.8,3.8,0,0,1,2.784-3.648,3.755,3.755,0,0,0-1-.136,3.8,3.8,0,0,0-3.784,3.784v1.135a3.765,3.765,0,0,0,.934,2.481,3.791,3.791,0,0,0-.8,1.48" transform="translate(1.772 115.908)" fill="#ffbd86"/>
          </g>
          <g id="g12363" transform="translate(11.128 22.18)">
            <path id="path12365" d="M-91.211-45.605a3.8,3.8,0,0,0-3.784-3.784,3.8,3.8,0,0,0-3.784,3.784v1.135a3.765,3.765,0,0,0,.934,2.481,3.764,3.764,0,0,0-.934,2.481v8.169A3.845,3.845,0,0,0-94.995-27.5a3.845,3.845,0,0,0,3.784-3.842v-8.169a3.764,3.764,0,0,0-.934-2.481,3.765,3.765,0,0,0,.934-2.481Z" transform="translate(98.778 49.389)" fill="none" stroke="#000" stroke-linecap="round" stroke-linejoin="round" stroke-miterlimit="10" stroke-width="1.5"/>
          </g>
          <g id="g12367" transform="translate(16.782 46.101)">
            <path id="path12369" d="M-6.334-56.262H10.9a.526.526,0,0,0,.526-.526v-4.143H-6.86v4.143a.526.526,0,0,0,.526.526" transform="translate(6.86 60.931)" fill="#53469c"/>
          </g>
          <g id="g12371" transform="translate(16.782 46.101)">
            <path id="path12373" d="M-52.1-49.929v-4.143h-4.323v4.143a.526.526,0,0,0,.526.526h4.323a.526.526,0,0,1-.526-.526" transform="translate(56.425 54.072)" fill="#463a84"/>
          </g>
          <g id="g12375" transform="translate(16.782 45.202)">
            <path id="path12377" d="M0-10.837v4.143a.526.526,0,0,0,.526.525H17.758a.525.525,0,0,0,.525-.525v-5.042" transform="translate(0 11.736)" fill="none" stroke="#000" stroke-linecap="round" stroke-linejoin="round" stroke-miterlimit="10" stroke-width="1.5"/>
          </g>
          <g id="g12379" transform="translate(15.518 21.422)">
            <path id="path12381" d="M-6.334,0A.526.526,0,0,0-6.86.526V9.443a6.135,6.135,0,0,0,1.046,3.39l.156.236v11.61H12.625V13.069l.1-.136a6.18,6.18,0,0,0,1.227-3.652V.526A.526.526,0,0,0,13.426,0Z" transform="translate(6.86 0)" fill="#8bc727"/>
          </g>
          <g id="g12383" transform="translate(15.518 21.422)">
            <path id="path12385" d="M-65.163-154.676a6.134,6.134,0,0,1-1.046-3.39v-8.918a.526.526,0,0,1,.525-.526h-4.361a.526.526,0,0,0-.526.526v8.918a6.135,6.135,0,0,0,1.046,3.39l.156.236v11.61h4.361v-11.61Z" transform="translate(70.569 167.509)" fill="#81b823"/>
          </g>
          <g id="g12387" transform="translate(15.518 21.422)">
            <path id="path12389" d="M-127.662-297.444h8.893v-11.61l.1-.136a6.181,6.181,0,0,0,1.227-3.652V-321.6a.526.526,0,0,0-.525-.526h-19.76a.526.526,0,0,0-.525.526v8.918a6.134,6.134,0,0,0,1.046,3.39l.156.236v11.61h5.816" transform="translate(138.254 322.123)" fill="none" stroke="#000" stroke-linecap="round" stroke-linejoin="round" stroke-miterlimit="10" stroke-width="1.5"/>
          </g>
          <g id="g12391" transform="translate(23.58 19.588)">
            <path id="path12393" d="M-49.634-.462h-3.549A4.4,4.4,0,0,1-53.752-.5V2.535a2.344,2.344,0,0,0,2.344,2.344,2.344,2.344,0,0,0,2.344-2.344V-.5a4.4,4.4,0,0,1-.569.038" transform="translate(53.752 0.5)" fill="#ffbd86"/>
          </g>
          <g id="g12395" transform="translate(23.58 19.588)">
            <path id="path12397" d="M-26.8-36.577v-3h-1.654a4.4,4.4,0,0,1-.569-.038v3.035a2.344,2.344,0,0,0,2.344,2.344,2.334,2.334,0,0,0,1.112-.28A2.343,2.343,0,0,1-26.8-36.577" transform="translate(29.027 39.612)" fill="#f6a96c"/>
          </g>
          <g id="g12399" transform="translate(23.58 19.588)">
            <path id="path12401" d="M-49.634-.462h-3.549A4.4,4.4,0,0,1-53.752-.5V2.535a2.344,2.344,0,0,0,2.344,2.344,2.344,2.344,0,0,0,2.344-2.344V-.5A4.4,4.4,0,0,1-49.634-.462Z" transform="translate(53.752 0.5)" fill="none" stroke="#000" stroke-linecap="round" stroke-linejoin="round" stroke-miterlimit="10" stroke-width="1.5"/>
          </g>
          <g id="g12403" transform="translate(17.191 0)">
            <path id="path12405" d="M-210.49-143.2h-17.464v-8.766a3.115,3.115,0,0,1,3.115-3.115h7.6a6.749,6.749,0,0,1,6.749,6.749Z" transform="translate(227.954 155.084)" fill="#bb5d4c"/>
          </g>
          <g id="g12407" transform="translate(17.191 0)">
            <path id="path12409" d="M-78.6,0H-82a3.115,3.115,0,0,0-3.115,3.115v8.766h3.406V3.115A3.115,3.115,0,0,1-78.6,0" transform="translate(85.117)" fill="#a44f3e"/>
          </g>
          <g id="g12411" transform="translate(17.191)">
            <path id="path12413" d="M-170.026-11.031a6.715,6.715,0,0,0-3.392-.915h-7.6a3.115,3.115,0,0,0-3.115,3.115V-.065h17.464V-5.2a6.716,6.716,0,0,0-.852-3.283" transform="translate(184.133 11.947)" fill="none" stroke="#000" stroke-linecap="round" stroke-linejoin="round" stroke-miterlimit="10" stroke-width="1.5"/>
          </g>
          <g id="g12415" transform="translate(24.924 4.793)">
            <path id="path12417" d="M0,0,2.734,2.734" fill="none" stroke="#000" stroke-linecap="round" stroke-linejoin="round" stroke-miterlimit="10" stroke-width="1.5"/>
          </g>
          <g id="g12419" transform="translate(21.185 4.793)">
            <path id="path12421" d="M0,0,2.734,2.734" fill="none" stroke="#000" stroke-linecap="round" stroke-linejoin="round" stroke-miterlimit="10" stroke-width="1.5"/>
          </g>
          <g id="g12423" transform="translate(16.065 10.101)">
            <path id="path12425" d="M-209.228-56.828h-15a2.357,2.357,0,0,1-2.358-2.357,2.358,2.358,0,0,1,2.358-2.358h15a2.358,2.358,0,0,1,2.358,2.358,2.357,2.357,0,0,1-2.358,2.357" transform="translate(226.587 61.543)" fill="#fed2a4"/>
          </g>
          <g id="g12427" transform="translate(16.065 10.101)">
            <path id="path12429" d="M-209.228-56.828h-15a2.357,2.357,0,0,1-2.358-2.357,2.358,2.358,0,0,1,2.358-2.358h15a2.358,2.358,0,0,1,2.358,2.358A2.357,2.357,0,0,1-209.228-56.828Z" transform="translate(226.587 61.543)" fill="none" stroke="#000" stroke-linecap="round" stroke-linejoin="round" stroke-miterlimit="10" stroke-width="1.5"/>
          </g>
          <g id="g12431" transform="translate(19.685 7.471)">
            <path id="path12433" d="M0-20.178v6.119A4.464,4.464,0,0,0,4.464-9.6H8.013a4.464,4.464,0,0,0,4.464-4.464v-6.119A1.674,1.674,0,0,0,10.8-21.852H1.674A1.674,1.674,0,0,0,0-20.178" transform="translate(0 21.852)" fill="#fed2a4"/>
          </g>
          <g id="g12435" transform="translate(19.685 7.471)">
            <path id="path12437" d="M-31.707-93.922v-6.118a1.674,1.674,0,0,1,1.674-1.674h-2.631a1.674,1.674,0,0,0-1.674,1.674v6.118a4.464,4.464,0,0,0,4.464,4.464h2.631a4.464,4.464,0,0,1-4.464-4.464" transform="translate(34.337 101.714)" fill="#ffbd86"/>
          </g>
          <g id="g12439" transform="translate(19.685 7.471)">
            <path id="path12441" d="M0-20.178v6.119A4.464,4.464,0,0,0,4.464-9.6H8.013a4.464,4.464,0,0,0,4.464-4.464v-6.119A1.674,1.674,0,0,0,10.8-21.852H1.674A1.674,1.674,0,0,0,0-20.178Z" transform="translate(0 21.852)" fill="none" stroke="#000" stroke-linecap="round" stroke-linejoin="round" stroke-miterlimit="10" stroke-width="1.5"/>
          </g>
          <path id="path12459" d="M127.344-250.487H113.669v-2.6h13.675Z" transform="translate(-107.351 285.229)" fill="#c2bce0" stroke="#000" stroke-linecap="round" stroke-linejoin="round" stroke-miterlimit="10" stroke-width="1.5"/>
          <g id="g12461" transform="translate(0 30.157)">
            <path id="path12463" d="M-46.713-79.22h-2.318a1.557,1.557,0,0,1-1.557-1.558v-3.458a1.558,1.558,0,0,1,1.557-1.558h2.318a1.558,1.558,0,0,1,1.558,1.558v3.458a1.557,1.557,0,0,1-1.558,1.558" transform="translate(50.589 85.793)" fill="#01d0fb"/>
          </g>
          <g id="g12465" transform="translate(0 30.157)">
            <path id="path12467" d="M-46.713-79.22h-2.318a1.557,1.557,0,0,1-1.557-1.558v-3.458a1.558,1.558,0,0,1,1.557-1.558h2.318a1.558,1.558,0,0,1,1.558,1.558v3.458A1.557,1.557,0,0,1-46.713-79.22Z" transform="translate(50.589 85.793)" fill="none" stroke="#000" stroke-linecap="round" stroke-linejoin="round" stroke-miterlimit="10" stroke-width="1.5"/>
          </g>
          <g id="g12469" transform="translate(20.807 30.157)">
            <path id="path12471" d="M-46.866-79.22H-49.2a1.557,1.557,0,0,1-1.557-1.558v-3.458A1.558,1.558,0,0,1-49.2-85.793h2.331a1.558,1.558,0,0,1,1.558,1.558v3.458a1.558,1.558,0,0,1-1.558,1.558" transform="translate(50.755 85.793)" fill="#01d0fb"/>
          </g>
          <g id="g12473" transform="translate(20.807 30.157)">
            <path id="path12475" d="M-46.866-79.22H-49.2a1.557,1.557,0,0,1-1.557-1.558v-3.458A1.558,1.558,0,0,1-49.2-85.793h2.331a1.558,1.558,0,0,1,1.558,1.558v3.458A1.558,1.558,0,0,1-46.866-79.22Z" transform="translate(50.755 85.793)" fill="none" stroke="#000" stroke-linecap="round" stroke-linejoin="round" stroke-miterlimit="10" stroke-width="1.5"/>
          </g>
          <g id="g12477" transform="translate(3.058 27.249)">
            <path id="path12479" d="M-47.681-149.306h-3.437a.519.519,0,0,1-.519-.519v-11.349a.519.519,0,0,1,.519-.519h3.437a.519.519,0,0,1,.519.519v11.349a.519.519,0,0,1-.519.519" transform="translate(51.637 161.694)" fill="#fd4755"/>
          </g>
          <g id="g12481" transform="translate(3.058 27.249)">
            <path id="path12483" d="M-25.676-143.048V-154.4a.519.519,0,0,1,.519-.519h-2.13a.519.519,0,0,0-.519.519v11.349a.519.519,0,0,0,.519.519h2.13a.519.519,0,0,1-.519-.519" transform="translate(27.807 154.917)" fill="#fb2b3a"/>
          </g>
          <g id="g12485" transform="translate(3.058 27.249)">
            <path id="path12487" d="M-47.681-149.306h-3.437a.519.519,0,0,1-.519-.519v-11.349a.519.519,0,0,1,.519-.519h3.437a.519.519,0,0,1,.519.519v11.349A.519.519,0,0,1-47.681-149.306Z" transform="translate(51.637 161.694)" fill="none" stroke="#000" stroke-linecap="round" stroke-linejoin="round" stroke-miterlimit="10" stroke-width="1.5"/>
          </g>
          <g id="g12489" transform="translate(18.748 27.249)">
            <path id="path12491" d="M-47.805-149.306h-3.447a.519.519,0,0,1-.519-.519v-11.349a.519.519,0,0,1,.519-.519h3.447a.519.519,0,0,1,.519.519v11.349a.519.519,0,0,1-.519.519" transform="translate(51.772 161.694)" fill="#fd4755"/>
          </g>
          <g id="g12493" transform="translate(18.748 27.249)">
            <path id="path12495" d="M-25.677-143.048V-154.4a.519.519,0,0,1,.519-.519h-2.13a.519.519,0,0,0-.519.519v11.349a.519.519,0,0,0,.519.519h2.13a.519.519,0,0,1-.519-.519" transform="translate(27.808 154.917)" fill="#fb2b3a"/>
          </g>
          <g id="g12497" transform="translate(18.748 27.249)">
            <path id="path12499" d="M-47.805-149.306h-3.447a.519.519,0,0,1-.519-.519v-11.349a.519.519,0,0,1,.519-.519h3.447a.519.519,0,0,1,.519.519v11.349A.519.519,0,0,1-47.805-149.306Z" transform="translate(51.772 161.694)" fill="none" stroke="#000" stroke-linecap="round" stroke-linejoin="round" stroke-miterlimit="10" stroke-width="1.5"/>
          </g>
          <g id="g12501" transform="translate(10.979 35.66)">
            <path id="path12503" d="M-26.117-122.648h0a2.167,2.167,0,0,1-2.167-2.167v-8.009h4.334v8.009a2.167,2.167,0,0,1-2.167,2.167" transform="translate(28.284 132.824)" fill="#fed2a4"/>
          </g>
          <g id="g12505" transform="translate(10.979 35.66)">
            <path id="path12507" d="M-20.561-96.533v-8.009h-1.706v8.009A2.167,2.167,0,0,0-20.1-94.366a2.159,2.159,0,0,0,.853-.175,2.167,2.167,0,0,1-1.314-1.992" transform="translate(22.267 104.542)" fill="#ffbd86"/>
          </g>
          <g id="g12509" transform="translate(10.979 35.66)">
            <path id="path12511" d="M-26.117-122.648h0a2.167,2.167,0,0,1-2.167-2.167v-8.009h4.334v8.009A2.167,2.167,0,0,1-26.117-122.648Z" transform="translate(28.284 132.824)" fill="none" stroke="#000" stroke-linecap="round" stroke-linejoin="round" stroke-miterlimit="10" stroke-width="1.5"/>
          </g>
          <g id="g12513" transform="translate(10.979 35.66)">
            <path id="path12515" d="M-26.117-122.648h0a2.167,2.167,0,0,1-2.167-2.167v-8.009h4.334v8.009A2.167,2.167,0,0,1-26.117-122.648Z" transform="translate(28.284 132.824)" fill="none" stroke="#000" stroke-linecap="round" stroke-linejoin="round" stroke-miterlimit="10" stroke-width="1.5"/>
          </g>
          <g id="g12517" transform="translate(9.467 30.632)">
            <path id="path12519" d="M-33.524,0a.989.989,0,0,0-.9.579A.988.988,0,0,0-35.379,0a1,1,0,0,0-.926,1.013V4.167A1.455,1.455,0,0,0-34.85,5.623H-30.4a1.455,1.455,0,0,0,1.455-1.455V1.014A1,1,0,0,0-29.874,0a.988.988,0,0,0-.958.577.99.99,0,0,0-.9-.579.99.99,0,0,0-.9.579.989.989,0,0,0-.9-.579" transform="translate(36.305)" fill="#ffbd86"/>
          </g>
          <g id="g12521" transform="translate(9.467 30.632)">
            <path id="path12523" d="M-31.888-50.227V-53.38a1.023,1.023,0,0,1,.562-.916.974.974,0,0,0-.426-.1.989.989,0,0,0-.9.579.989.989,0,0,0-.958-.577,1,1,0,0,0-.926,1.013v3.153a1.455,1.455,0,0,0,1.455,1.455h2.646a1.455,1.455,0,0,1-1.455-1.455" transform="translate(34.533 54.395)" fill="#f6a96c"/>
          </g>
          <g id="g12525" transform="translate(9.467 30.632)">
            <path id="path12527" d="M-33.524,0a.989.989,0,0,0-.9.579A.988.988,0,0,0-35.379,0a1,1,0,0,0-.926,1.013V4.167A1.455,1.455,0,0,0-34.85,5.623H-30.4a1.455,1.455,0,0,0,1.455-1.455V1.014A1,1,0,0,0-29.874,0a.988.988,0,0,0-.958.577.99.99,0,0,0-.9-.579.99.99,0,0,0-.9.579A.989.989,0,0,0-33.524,0Z" transform="translate(36.305)" fill="none" stroke="#000" stroke-linecap="round" stroke-linejoin="round" stroke-miterlimit="10" stroke-width="1.5"/>
          </g>
          <g id="g12529" transform="translate(28.986 28.184)">
            <path id="path12531" d="M-47.558-23.778A1.973,1.973,0,0,1-49.531-21.8,1.973,1.973,0,0,1-51.5-23.778a1.973,1.973,0,0,1,1.973-1.973,1.973,1.973,0,0,1,1.973,1.973" transform="translate(51.504 25.751)" fill="#fff"/>
          </g>
          <g id="g12533" transform="translate(28.986 28.184)">
            <path id="path12535" d="M-47.558-23.778A1.973,1.973,0,0,1-49.531-21.8,1.973,1.973,0,0,1-51.5-23.778a1.973,1.973,0,0,1,1.973-1.973A1.973,1.973,0,0,1-47.558-23.778Z" transform="translate(51.504 25.751)" fill="none" stroke="#000" stroke-linecap="round" stroke-linejoin="round" stroke-miterlimit="10" stroke-width="1.5"/>
          </g>
        </g>
      </g>
    </g>
  </g>
</svg>
