<svg xmlns="http://www.w3.org/2000/svg" xmlns:xlink="http://www.w3.org/1999/xlink" width="70.859" height="70.859" viewBox="0 0 70.859 70.859">
  <defs>
    <filter id="Trazado_874925" x="0" y="0" width="70.859" height="70.859" filterUnits="userSpaceOnUse">
      <feOffset dy="3" input="SourceAlpha"/>
      <feGaussianBlur stdDeviation="3" result="blur"/>
      <feFlood flood-opacity="0.161"/>
      <feComposite operator="in" in2="blur"/>
      <feComposite in="SourceGraphic"/>
    </filter>
  </defs>
  <g id="Grupo_1108321" data-name="Grupo 1108321" transform="translate(9 6)">
    <g transform="matrix(1, 0, 0, 1, -9, -6)" filter="url(#Trazado_874925)">
      <g id="Trazado_874925-2" data-name="Trazado 874925" transform="translate(9 6)" fill="#97d8f6" opacity="0.859">
        <path d="M 26.42959976196289 51.35950088500977 C 23.0634593963623 51.35950088500977 19.79880905151367 50.7005729675293 16.7263298034668 49.40102386474609 C 13.75790977478027 48.14549255371094 11.09167957305908 46.34777069091797 8.80171012878418 44.05779266357422 C 6.511729717254639 41.767822265625 4.714009761810303 39.10159301757812 3.458479642868042 36.13317108154297 C 2.158929824829102 33.06069183349609 1.499999761581421 29.79604148864746 1.499999761581421 26.42990303039551 C 1.499999761581421 23.06346321105957 2.158929824829102 19.79881286621094 3.458479642868042 16.72633171081543 C 4.714009761810303 13.75791263580322 6.511729717254639 11.09168243408203 8.80171012878418 8.801712036132812 C 11.09167957305908 6.511732578277588 13.75790977478027 4.714012145996094 16.7263298034668 3.458482265472412 C 19.79880905151367 2.158932447433472 23.0634593963623 1.500002384185791 26.42959976196289 1.500002384185791 C 29.79574012756348 1.500002384185791 33.06039047241211 2.158932447433472 36.13286972045898 3.458482265472412 C 39.10129165649414 4.714012145996094 41.76752090454102 6.511732578277588 44.05749130249023 8.801712036132812 C 46.34746932983398 11.09168243408203 48.14519119262695 13.75791263580322 49.40071868896484 16.72633171081543 C 50.70027160644531 19.79881286621094 51.35919952392578 23.06346321105957 51.35919952392578 26.42960166931152 C 51.35919952392578 29.79604148864746 50.70027160644531 33.06069183349609 49.40071868896484 36.13317108154297 C 48.14519119262695 39.10159301757812 46.34746932983398 41.767822265625 44.05749130249023 44.05779266357422 C 41.76752090454102 46.34777069091797 39.10129165649414 48.14549255371094 36.13286972045898 49.40102386474609 C 33.06039047241211 50.7005729675293 29.79574012756348 51.35950088500977 26.42959976196289 51.35950088500977 Z" stroke="none"/>
        <path d="M 26.42959976196289 3.000003814697266 C 23.26529884338379 3.000003814697266 20.19725036621094 3.619060516357422 17.31066131591797 4.839981079101562 C 14.52103805541992 6.019893646240234 12.01506805419922 7.709671020507812 9.862369537353516 9.862373352050781 C 7.709671020507812 12.01507186889648 6.019889831542969 14.52104187011719 4.839981079101562 17.31066131591797 C 3.619060516357422 20.1972541809082 3 23.26530265808105 3 26.42990303039551 C 3 29.59420204162598 3.619060516357422 32.66225433349609 4.839981079101562 35.54884338378906 C 6.019889831542969 38.33846282958984 7.709671020507812 40.84443283081055 9.862369537353516 42.99713134765625 C 12.01506805419922 45.14983367919922 14.52103805541992 46.8396110534668 17.31066131591797 48.01952362060547 C 20.19725036621094 49.24044036865234 23.26529884338379 49.85950088500977 26.42959976196289 49.85950088500977 C 29.59390068054199 49.85950088500977 32.66194915771484 49.24044036865234 35.54853820800781 48.01952362060547 C 38.33815765380859 46.8396110534668 40.84413146972656 45.14983367919922 42.99682998657227 42.99713134765625 C 45.14952850341797 40.84443283081055 46.83930969238281 38.33846282958984 48.01921844482422 35.54884338378906 C 49.24013900756836 32.66225433349609 49.85919952392578 29.59420204162598 49.85919952392578 26.42960166931152 C 49.85919952392578 23.26530265808105 49.24013900756836 20.1972541809082 48.01921844482422 17.31066131591797 C 46.83930969238281 14.52104187011719 45.14952850341797 12.01507186889648 42.99682998657227 9.862373352050781 C 40.84413146972656 7.709671020507812 38.33815765380859 6.019893646240234 35.54853820800781 4.839981079101562 C 32.66194915771484 3.619060516357422 29.59390068054199 3.000003814697266 26.42959976196289 3.000003814697266 M 26.42959976196289 3.814697265625e-06 C 41.02626037597656 3.814697265625e-06 52.85919952392578 11.83293151855469 52.85919952392578 26.42960166931152 L 52.85919952392578 26.42990303039551 C 52.85919952392578 41.02657318115234 41.02626037597656 52.85950088500977 26.42959976196289 52.85950088500977 C 11.83293151855469 52.85950088500977 0 41.02657318115234 0 26.42990303039551 L 0 26.42960166931152 C 0 11.83293151855469 11.83293151855469 3.814697265625e-06 26.42959976196289 3.814697265625e-06 Z" stroke="none" fill="#fff"/>
      </g>
    </g>
    <g id="Trazado_874923" data-name="Trazado 874923" fill="none">
      <path d="M26.43,0a26.43,26.43,0,0,1,26.43,26.43h0A26.43,26.43,0,1,1,0,26.43H0A26.43,26.43,0,0,1,26.43,0Z" stroke="none"/>
      <path d="M 26.42959976196289 3.000003814697266 C 23.26529884338379 3.000003814697266 20.19725036621094 3.619060516357422 17.31066131591797 4.839981079101562 C 14.52103805541992 6.019893646240234 12.01506805419922 7.709671020507812 9.862369537353516 9.862373352050781 C 7.709671020507812 12.01507186889648 6.019889831542969 14.52104187011719 4.839981079101562 17.31066131591797 C 3.619060516357422 20.1972541809082 3 23.26530265808105 3 26.42990303039551 C 3 29.59420204162598 3.619060516357422 32.66225433349609 4.839981079101562 35.54884338378906 C 6.019889831542969 38.33846282958984 7.709671020507812 40.84443283081055 9.862369537353516 42.99713134765625 C 12.01506805419922 45.14983367919922 14.52103805541992 46.8396110534668 17.31066131591797 48.01952362060547 C 20.19725036621094 49.24044036865234 23.26529884338379 49.85950088500977 26.42959976196289 49.85950088500977 C 29.59390068054199 49.85950088500977 32.66194915771484 49.24044036865234 35.54853820800781 48.01952362060547 C 38.33815765380859 46.8396110534668 40.84413146972656 45.14983367919922 42.99682998657227 42.99713134765625 C 45.14952850341797 40.84443283081055 46.83930969238281 38.33846282958984 48.01921844482422 35.54884338378906 C 49.24013900756836 32.66225433349609 49.85919952392578 29.59420204162598 49.85919952392578 26.42960166931152 C 49.85919952392578 23.26530265808105 49.24013900756836 20.1972541809082 48.01921844482422 17.31066131591797 C 46.83930969238281 14.52104187011719 45.14952850341797 12.01507186889648 42.99682998657227 9.862373352050781 C 40.84413146972656 7.709671020507812 38.33815765380859 6.019893646240234 35.54853820800781 4.839981079101562 C 32.66194915771484 3.619060516357422 29.59390068054199 3.000003814697266 26.42959976196289 3.000003814697266 M 26.42959976196289 3.814697265625e-06 C 41.02626037597656 3.814697265625e-06 52.85919952392578 11.83293151855469 52.85919952392578 26.42960166931152 L 52.85919952392578 26.42990303039551 C 52.85919952392578 41.02657318115234 41.02626037597656 52.85950088500977 26.42959976196289 52.85950088500977 C 11.83293151855469 52.85950088500977 0 41.02657318115234 0 26.42990303039551 L 0 26.42960166931152 C 0 11.83293151855469 11.83293151855469 3.814697265625e-06 26.42959976196289 3.814697265625e-06 Z" stroke="none" fill="#fff"/>
    </g>
    <g id="hurdles-race_10393633" transform="translate(10.283 5.735)">
      <g id="Grupo_1108269" data-name="Grupo 1108269" transform="translate(0 3.663)">
        <path id="Trazado_902641" data-name="Trazado 902641" d="M42.63,305.192l.313.739a1.574,1.574,0,0,1-.8,2.075l-.021.009a.72.72,0,0,1-.937-.4l-1.075-2.538a.719.719,0,0,1,.367-.949l1.448-.613.826.768Z" transform="translate(-37.52 -284.606)" fill="#dff8ff"/>
        <path id="Trazado_902642" data-name="Trazado 902642" d="M172.037,233.362l-.9.419-.453.645-.71.558-1.224-1.06-.1-1.472a.786.786,0,0,0,.656-.357l.144-.227.7-.476.773-1.842Z" transform="translate(-158.013 -215.301)" fill="#42e8b4"/>
        <path id="Trazado_902643" data-name="Trazado 902643" d="M77.332,277.614l-.061.048a1.922,1.922,0,0,1-1.05.422l-5.742.435-.708-1.673,3-1.294a6.666,6.666,0,0,1,2.538-.5c.207,0,.414.009.621.029a.74.74,0,0,0,.074,0Z" transform="translate(-65.369 -257.932)" fill="#db8d65"/>
        <path id="Trazado_902644" data-name="Trazado 902644" d="M292.464,174.379l.754.267.586.844.185.153a.781.781,0,0,0,.658.171l4.447-.879a.592.592,0,0,1,.217,0l.508.1a1.922,1.922,0,0,0,1.566-.39l.03-.024a1.029,1.029,0,0,0,.328-1.156l-.015-.042a1.021,1.021,0,0,0-.881-.669l-.023,0a2.84,2.84,0,0,0-1.576.336l-.283.154a.591.591,0,0,1-.244.071l-3.568.235a.388.388,0,0,1-.107-.014c-.088-.024-.281.016-.312-.074l-.451-1.716Z" transform="translate(-274.017 -161.141)" fill="#db8d65"/>
        <ellipse id="Elipse_14900" data-name="Elipse 14900" cx="1.554" cy="1.297" rx="1.554" ry="1.297" transform="translate(14.29 3.042) rotate(-78.206)" fill="#626272"/>
        <path id="Trazado_902645" data-name="Trazado 902645" d="M270.064,25.19a3.852,3.852,0,0,0,.442-1.377l.01-.433a3.047,3.047,0,0,0-.22-.769l.376-.913V21a1.922,1.922,0,0,1,1.909-1.923h0a1.809,1.809,0,0,1,1.821,1.794c0,.291,0,.54.005.676a.417.417,0,0,0,.055.2l.227.4a.524.524,0,0,1-.124.667l-.188.153,0,.678a.82.82,0,0,1-.936.814l-.806-.115a.234.234,0,0,0-.261.176l-.062.254a.681.681,0,0,0,.142.6l.011.013a4.551,4.551,0,0,1,.893,1.66h0l-1.32.9Z" transform="translate(-253.03 -18.109)" fill="#db8d65"/>
        <path id="Trazado_902646" data-name="Trazado 902646" d="M205.964,211.214l-.151,1.473-.681.967-5.05,0a3.226,3.226,0,0,1-3.053-2.178,3.444,3.444,0,0,1,.179-2.679l.049-.1a3.436,3.436,0,0,1,.7-.945,4.847,4.847,0,0,0,.544-.612l2.459.462,1.732,1.3-.233.494-.479.374.067.5Z" transform="translate(-184.424 -194.315)" fill="#89efb7"/>
        <path id="Trazado_902647" data-name="Trazado 902647" d="M259.267,9.83l.01,1.553a1.511,1.511,0,0,0,1.119,1.311h0a2.912,2.912,0,0,0,.4-1.471V11.1a.478.478,0,0,1,.475-.481h0A1.593,1.593,0,0,0,262.6,9.9l.23-.355a.126.126,0,0,1,.2-.01l.2.25a.8.8,0,0,0,.634.3l.73,0a.315.315,0,0,0,.313-.318V9.549A2.063,2.063,0,0,0,262.83,7.5l-1.273.009A2.305,2.305,0,0,0,259.267,9.83Z" transform="translate(-242.914 -7.258)" fill="#73737f"/>
        <path id="Trazado_902648" data-name="Trazado 902648" d="M295.04,173.529a3.7,3.7,0,0,1-.447.487,1.17,1.17,0,0,0-.272.367l-.522,1.1-1.34-1.111,1.817-2.636.588,1.616A.28.28,0,0,0,295.04,173.529Z" transform="translate(-274.013 -161.139)" fill="#cc795c"/>
        <path id="Trazado_902649" data-name="Trazado 902649" d="M228.159,184.535l-.727,1.539-4.191-1.767a4.866,4.866,0,0,0,.773-1.538l2.2.486Z" transform="translate(-209.159 -171.473)" fill="#db8d65"/>
        <path id="Trazado_902650" data-name="Trazado 902650" d="M226.513,114.994a2.144,2.144,0,0,1-.857,1.628,2.432,2.432,0,0,0-.563.761l-.169.357-3.586-1.666c.039-.132-.112-.309-.085-.445l0-1.093-.6.129-.735-2.225,2.037-.637a1.774,1.774,0,0,1,2.167,1l.148.352a1.368,1.368,0,0,0,.324.465,1.528,1.528,0,0,0,1.783.227l.083.648A2.454,2.454,0,0,1,226.513,114.994Z" transform="translate(-206.049 -104.905)" fill="#89efb7"/>
        <path id="Trazado_902651" data-name="Trazado 902651" d="M240.459,143.077a2.437,2.437,0,0,1-.8,1.8,2.431,2.431,0,0,0-.563.761l-.169.357-4.146-1.765c.039-.132.073-.267.1-.4l.086-.429,3.384,1.429a.414.414,0,0,0,.535-.2h0a2.437,2.437,0,0,1,.568-.761,2.427,2.427,0,0,0,.8-1.8c0-.059,0-.119-.006-.178l.006,0,.146.7A2.455,2.455,0,0,1,240.459,143.077Z" transform="translate(-219.975 -133.162)" fill="#42e8b4"/>
        <path id="Trazado_902652" data-name="Trazado 902652" d="M118.745,125.345l-1.537.331a.681.681,0,0,0-.286.136l-2.936,2.365a.555.555,0,0,0-.149.188l-.135.275a2.7,2.7,0,0,1-1.036,1.126,1,1,0,0,1-1.478-1.132,1.881,1.881,0,0,1,1.028-1.2l.422-.192a.56.56,0,0,0,.168-.118l3.053-3.13a1.593,1.593,0,0,1,.667-.409l1.484-.464Z" transform="translate(-104.139 -115.585)" fill="#db8d65"/>
        <path id="Trazado_902653" data-name="Trazado 902653" d="M334.7,275.59l.124,1.043-1.182.506-2.809-1.231a4.389,4.389,0,0,1-2.522-1.887l.832-2.441.791.189a2.1,2.1,0,0,1,.888.455Z" transform="translate(-307.602 -254.681)" fill="#db8d65"/>
        <path id="Trazado_902654" data-name="Trazado 902654" d="M240.113,348.069v-8.091a.294.294,0,0,1,.315-.267H241.8a.294.294,0,0,1,.315.267v8.091h-2Z" transform="translate(-224.968 -318.516)" fill="#73737f"/>
        <path id="Trazado_902655" data-name="Trazado 902655" d="M31.979,470.894H.315a.315.315,0,0,0-.315.315v1.962a.315.315,0,0,0,.315.315H31.979a.315.315,0,0,0,.315-.315v-1.962A.315.315,0,0,0,31.979,470.894Z" transform="translate(0 -441.424)" fill="#fd8087"/>
        <path id="Trazado_902656" data-name="Trazado 902656" d="M412.832,318.2l1.125.858a.72.72,0,0,0,1.008-.137l1.7-2.167a.72.72,0,0,0-.106-1.012l-.018-.014a1.574,1.574,0,0,0-2.205.3l-.449.623Z" transform="translate(-386.793 -295.744)" fill="#dff8ff"/>
      </g>
      <g id="Grupo_1108270" data-name="Grupo 1108270" transform="translate(0.473 3.905)">
        <path id="Trazado_902657" data-name="Trazado 902657" d="M232.653,10.482a1.136,1.136,0,0,1-.7.082A1.443,1.443,0,0,1,231,8.779a1.443,1.443,0,0,1,1.587-1.256,1.186,1.186,0,0,1,.782.592" transform="translate(-216.864 -7.5)" fill="none" stroke="#000" stroke-linecap="round" stroke-linejoin="round" stroke-miterlimit="10" stroke-width="1"/>
        <path id="Trazado_902658" data-name="Trazado 902658" d="M307.568,50.487c0,.209,0,.384,0,.489a.416.416,0,0,0,.055.2l.227.4a.524.524,0,0,1-.124.667l-.188.153,0,.674a.82.82,0,0,1-.931.815l-.811-.111a.234.234,0,0,0-.261.176l-.062.254a.681.681,0,0,0,.142.6l.011.013a4.552,4.552,0,0,1,.893,1.66h0" transform="translate(-286.667 -47.776)" fill="none" stroke="#000" stroke-linecap="round" stroke-linejoin="round" stroke-miterlimit="10" stroke-width="1"/>
        <path id="Trazado_902659" data-name="Trazado 902659" d="M272.386,91.556a2.478,2.478,0,0,0,.3-1.119l0-.246" transform="translate(-255.678 -84.975)" fill="none" stroke="#000" stroke-linecap="round" stroke-linejoin="round" stroke-miterlimit="10" stroke-width="1"/>
        <path id="Trazado_902660" data-name="Trazado 902660" d="M259.267,9.83l.01,1.553a1.511,1.511,0,0,0,1.119,1.311h0a2.912,2.912,0,0,0,.4-1.471V11.1a.478.478,0,0,1,.475-.481h0A1.593,1.593,0,0,0,262.6,9.9l.326-.5.307.388a.8.8,0,0,0,.634.3l.73,0a.315.315,0,0,0,.313-.318V9.549A2.063,2.063,0,0,0,262.83,7.5l-1.273.009A2.305,2.305,0,0,0,259.267,9.83Z" transform="translate(-243.387 -7.5)" fill="none" stroke="#000" stroke-linecap="round" stroke-linejoin="round" stroke-miterlimit="10" stroke-width="1"/>
        <line id="Línea_593" data-name="Línea 593" y1="1.317" x2="0.979" transform="translate(25.645 20.667)" fill="none" stroke="#000" stroke-linecap="round" stroke-linejoin="round" stroke-miterlimit="10" stroke-width="1"/>
        <path id="Trazado_902661" data-name="Trazado 902661" d="M263.415,255.975h1.441a4.39,4.39,0,0,0,2.521,1.887l2.81,1.231,1.125.858a.719.719,0,0,0,1.008-.137l1.7-2.167a.72.72,0,0,0-.106-1.012l-.018-.014a1.574,1.574,0,0,0-2.205.3l-.449.623-3.878-3.366a2.1,2.1,0,0,0-.888-.455l-5.895-1.4" transform="translate(-244.621 -236.876)" fill="none" stroke="#000" stroke-linecap="round" stroke-linejoin="round" stroke-miterlimit="10" stroke-width="1"/>
        <path id="Trazado_902662" data-name="Trazado 902662" d="M199.617,157.634l-.242,1.182a4.865,4.865,0,0,1-1.418,2.552h0a3.441,3.441,0,0,0-.7.945l-.048.1a3.441,3.441,0,0,0-.179,2.679h0a3.225,3.225,0,0,0,3.053,2.178h1.4" transform="translate(-184.893 -148.164)" fill="none" stroke="#000" stroke-linecap="round" stroke-linejoin="round" stroke-miterlimit="10" stroke-width="1"/>
        <path id="Trazado_902663" data-name="Trazado 902663" d="M176.625,113.91l.579-.594a1.6,1.6,0,0,1,.668-.41l3.521-1.1a1.774,1.774,0,0,1,2.167,1l.148.352a1.371,1.371,0,0,0,.324.466h0a1.529,1.529,0,0,0,1.783.227h0l.146.7a2.435,2.435,0,0,1-.745,2.3h0a2.436,2.436,0,0,0-.563.761l-1.506,3.185" transform="translate(-165.958 -105.15)" fill="none" stroke="#000" stroke-linecap="round" stroke-linejoin="round" stroke-miterlimit="10" stroke-width="1"/>
        <path id="Trazado_902664" data-name="Trazado 902664" d="M120.5,152.435l-3.288.707a.685.685,0,0,0-.285.136l-2.936,2.364a.562.562,0,0,0-.15.188l-.135.275a2.694,2.694,0,0,1-1.036,1.126h0a1,1,0,0,1-1.084-.036h0a1,1,0,0,1-.394-1.1h0a1.878,1.878,0,0,1,1.028-1.2l.422-.193a.562.562,0,0,0,.168-.118l.932-.956" transform="translate(-104.616 -143.293)" fill="none" stroke="#000" stroke-linecap="round" stroke-linejoin="round" stroke-miterlimit="10" stroke-width="1"/>
        <line id="Línea_594" data-name="Línea 594" x2="3.868" y2="1.63" transform="translate(13.82 12.682)" fill="none" stroke="#000" stroke-linecap="round" stroke-linejoin="round" stroke-miterlimit="10" stroke-width="1"/>
        <line id="Línea_595" data-name="Línea 595" x2="3.948" y2="1.682" transform="translate(14.462 11.089)" fill="none" stroke="#000" stroke-linecap="round" stroke-linejoin="round" stroke-miterlimit="10" stroke-width="1"/>
        <line id="Línea_596" data-name="Línea 596" y1="2.189" x2="0.774" transform="translate(20.235 16.782)" fill="none" stroke="#000" stroke-linecap="round" stroke-linejoin="round" stroke-miterlimit="10" stroke-width="1"/>
        <line id="Línea_597" data-name="Línea 597" x1="0.593" y1="1.795" transform="translate(13.523 7.672)" fill="none" stroke="#000" stroke-linecap="round" stroke-linejoin="round" stroke-miterlimit="10" stroke-width="1"/>
        <path id="Trazado_902665" data-name="Trazado 902665" d="M82.32,299.948l5.659-.428a1.925,1.925,0,0,0,1.05-.422l1.444-1.169" transform="translate(-77.601 -279.61)" fill="none" stroke="#000" stroke-linecap="round" stroke-linejoin="round" stroke-miterlimit="10" stroke-width="1"/>
        <line id="Línea_598" data-name="Línea 598" x2="1.224" y2="2.338" transform="translate(10.227 17.026)" fill="none" stroke="#000" stroke-linecap="round" stroke-linejoin="round" stroke-miterlimit="10" stroke-width="1"/>
        <path id="Trazado_902666" data-name="Trazado 902666" d="M129.353,232.666a6.667,6.667,0,0,1,2.4-.214h0a.783.783,0,0,0,.73-.354l1.617-2.545" transform="translate(-121.667 -215.547)" fill="none" stroke="#000" stroke-linecap="round" stroke-linejoin="round" stroke-miterlimit="10" stroke-width="1"/>
        <path id="Trazado_902667" data-name="Trazado 902667" d="M42.017,292.82,42.942,295a1.574,1.574,0,0,1-.8,2.075l-.021.009a.72.72,0,0,1-.937-.4l-1.075-2.538a.719.719,0,0,1,.367-.949l1.448-.613,1.708-.736" transform="translate(-37.993 -273.921)" fill="none" stroke="#000" stroke-linecap="round" stroke-linejoin="round" stroke-miterlimit="10" stroke-width="1"/>
        <path id="Trazado_902668" data-name="Trazado 902668" d="M326.945,181.558l1.666-.329a.592.592,0,0,1,.217,0l.508.1a1.922,1.922,0,0,0,1.566-.39l.03-.024a1.03,1.03,0,0,0,.328-1.156l-.015-.042a1.021,1.021,0,0,0-.881-.669l-.023,0a2.841,2.841,0,0,0-1.576.336l-.283.154a.591.591,0,0,1-.244.071l-3.568.235a.281.281,0,0,1-.283-.187l-.417-1.192" transform="translate(-304.008 -167.677)" fill="none" stroke="#000" stroke-linecap="round" stroke-linejoin="round" stroke-miterlimit="10" stroke-width="1"/>
        <path id="Trazado_902669" data-name="Trazado 902669" d="M299.379,218.882l1.089.926a.781.781,0,0,0,.658.171l.615-.122" transform="translate(-280.969 -205.549)" fill="none" stroke="#000" stroke-linecap="round" stroke-linejoin="round" stroke-miterlimit="10" stroke-width="1"/>
        <path id="Trazado_902670" data-name="Trazado 902670" d="M240.113,348.069v-8.091a.294.294,0,0,1,.315-.267H241.8a.294.294,0,0,1,.315.267v8.091" transform="translate(-225.441 -318.758)" fill="none" stroke="#000" stroke-linecap="round" stroke-linejoin="round" stroke-miterlimit="10" stroke-width="1"/>
        <line id="Línea_599" data-name="Línea 599" x1="31.348" transform="translate(0 31.348)" fill="none" stroke="#000" stroke-linecap="round" stroke-linejoin="round" stroke-miterlimit="10" stroke-width="1"/>
        <line id="Línea_600" data-name="Línea 600" x2="31.348" transform="translate(0 29.396)" fill="none" stroke="#000" stroke-linecap="round" stroke-linejoin="round" stroke-miterlimit="10" stroke-width="1"/>
        <line id="Línea_601" data-name="Línea 601" x1="2.698" y2="2.698" transform="translate(11.891 26.61)" fill="none" stroke="#000" stroke-linecap="round" stroke-linejoin="round" stroke-miterlimit="10" stroke-width="1"/>
        <line id="Línea_602" data-name="Línea 602" x2="2.618" y2="2.618" transform="translate(16.759 26.61)" fill="none" stroke="#000" stroke-linecap="round" stroke-linejoin="round" stroke-miterlimit="10" stroke-width="1"/>
      </g>
    </g>
  </g>
</svg>
