<svg xmlns="http://www.w3.org/2000/svg" xmlns:xlink="http://www.w3.org/1999/xlink" width="70.859" height="70.859" viewBox="0 0 70.859 70.859">
  <defs>
    <filter id="Trazado_874925" x="0" y="0" width="70.859" height="70.859" filterUnits="userSpaceOnUse">
      <feOffset dy="3" input="SourceAlpha"/>
      <feGaussianBlur stdDeviation="3" result="blur"/>
      <feFlood flood-opacity="0.161"/>
      <feComposite operator="in" in2="blur"/>
      <feComposite in="SourceGraphic"/>
    </filter>
  </defs>
  <g id="Grupo_1108324" data-name="Grupo 1108324" transform="translate(9 6)">
    <g transform="matrix(1, 0, 0, 1, -9, -6)" filter="url(#Trazado_874925)">
      <g id="Trazado_874925-2" data-name="Trazado 874925" transform="translate(9 6)" fill="#97d8f6" opacity="0.859">
        <path d="M 26.42959976196289 51.35950088500977 C 23.0634593963623 51.35950088500977 19.79880905151367 50.7005729675293 16.7263298034668 49.40102386474609 C 13.75790977478027 48.14549255371094 11.09167957305908 46.34777069091797 8.80171012878418 44.05779266357422 C 6.511729717254639 41.767822265625 4.714009761810303 39.10159301757812 3.458479642868042 36.13317108154297 C 2.158929824829102 33.06069183349609 1.499999761581421 29.79604148864746 1.499999761581421 26.42990303039551 C 1.499999761581421 23.06346321105957 2.158929824829102 19.79881286621094 3.458479642868042 16.72633171081543 C 4.714009761810303 13.75791263580322 6.511729717254639 11.09168243408203 8.80171012878418 8.801712036132812 C 11.09167957305908 6.511732578277588 13.75790977478027 4.714012145996094 16.7263298034668 3.458482265472412 C 19.79880905151367 2.158932447433472 23.0634593963623 1.500002384185791 26.42959976196289 1.500002384185791 C 29.79574012756348 1.500002384185791 33.06039047241211 2.158932447433472 36.13286972045898 3.458482265472412 C 39.10129165649414 4.714012145996094 41.76752090454102 6.511732578277588 44.05749130249023 8.801712036132812 C 46.34746932983398 11.09168243408203 48.14519119262695 13.75791263580322 49.40071868896484 16.72633171081543 C 50.70027160644531 19.79881286621094 51.35919952392578 23.06346321105957 51.35919952392578 26.42960166931152 C 51.35919952392578 29.79604148864746 50.70027160644531 33.06069183349609 49.40071868896484 36.13317108154297 C 48.14519119262695 39.10159301757812 46.34746932983398 41.767822265625 44.05749130249023 44.05779266357422 C 41.76752090454102 46.34777069091797 39.10129165649414 48.14549255371094 36.13286972045898 49.40102386474609 C 33.06039047241211 50.7005729675293 29.79574012756348 51.35950088500977 26.42959976196289 51.35950088500977 Z" stroke="none"/>
        <path d="M 26.42959976196289 3.000003814697266 C 23.26529884338379 3.000003814697266 20.19725036621094 3.619060516357422 17.31066131591797 4.839981079101562 C 14.52103805541992 6.019893646240234 12.01506805419922 7.709671020507812 9.862369537353516 9.862373352050781 C 7.709671020507812 12.01507186889648 6.019889831542969 14.52104187011719 4.839981079101562 17.31066131591797 C 3.619060516357422 20.1972541809082 3 23.26530265808105 3 26.42990303039551 C 3 29.59420204162598 3.619060516357422 32.66225433349609 4.839981079101562 35.54884338378906 C 6.019889831542969 38.33846282958984 7.709671020507812 40.84443283081055 9.862369537353516 42.99713134765625 C 12.01506805419922 45.14983367919922 14.52103805541992 46.8396110534668 17.31066131591797 48.01952362060547 C 20.19725036621094 49.24044036865234 23.26529884338379 49.85950088500977 26.42959976196289 49.85950088500977 C 29.59390068054199 49.85950088500977 32.66194915771484 49.24044036865234 35.54853820800781 48.01952362060547 C 38.33815765380859 46.8396110534668 40.84413146972656 45.14983367919922 42.99682998657227 42.99713134765625 C 45.14952850341797 40.84443283081055 46.83930969238281 38.33846282958984 48.01921844482422 35.54884338378906 C 49.24013900756836 32.66225433349609 49.85919952392578 29.59420204162598 49.85919952392578 26.42960166931152 C 49.85919952392578 23.26530265808105 49.24013900756836 20.1972541809082 48.01921844482422 17.31066131591797 C 46.83930969238281 14.52104187011719 45.14952850341797 12.01507186889648 42.99682998657227 9.862373352050781 C 40.84413146972656 7.709671020507812 38.33815765380859 6.019893646240234 35.54853820800781 4.839981079101562 C 32.66194915771484 3.619060516357422 29.59390068054199 3.000003814697266 26.42959976196289 3.000003814697266 M 26.42959976196289 3.814697265625e-06 C 41.02626037597656 3.814697265625e-06 52.85919952392578 11.83293151855469 52.85919952392578 26.42960166931152 L 52.85919952392578 26.42990303039551 C 52.85919952392578 41.02657318115234 41.02626037597656 52.85950088500977 26.42959976196289 52.85950088500977 C 11.83293151855469 52.85950088500977 0 41.02657318115234 0 26.42990303039551 L 0 26.42960166931152 C 0 11.83293151855469 11.83293151855469 3.814697265625e-06 26.42959976196289 3.814697265625e-06 Z" stroke="none" fill="#fff"/>
      </g>
    </g>
    <g id="Trazado_874923" data-name="Trazado 874923" fill="none">
      <path d="M26.43,0a26.43,26.43,0,0,1,26.43,26.43h0A26.43,26.43,0,1,1,0,26.43H0A26.43,26.43,0,0,1,26.43,0Z" stroke="none"/>
      <path d="M 26.42959976196289 3.000003814697266 C 23.26529884338379 3.000003814697266 20.19725036621094 3.619060516357422 17.31066131591797 4.839981079101562 C 14.52103805541992 6.019893646240234 12.01506805419922 7.709671020507812 9.862369537353516 9.862373352050781 C 7.709671020507812 12.01507186889648 6.019889831542969 14.52104187011719 4.839981079101562 17.31066131591797 C 3.619060516357422 20.1972541809082 3 23.26530265808105 3 26.42990303039551 C 3 29.59420204162598 3.619060516357422 32.66225433349609 4.839981079101562 35.54884338378906 C 6.019889831542969 38.33846282958984 7.709671020507812 40.84443283081055 9.862369537353516 42.99713134765625 C 12.01506805419922 45.14983367919922 14.52103805541992 46.8396110534668 17.31066131591797 48.01952362060547 C 20.19725036621094 49.24044036865234 23.26529884338379 49.85950088500977 26.42959976196289 49.85950088500977 C 29.59390068054199 49.85950088500977 32.66194915771484 49.24044036865234 35.54853820800781 48.01952362060547 C 38.33815765380859 46.8396110534668 40.84413146972656 45.14983367919922 42.99682998657227 42.99713134765625 C 45.14952850341797 40.84443283081055 46.83930969238281 38.33846282958984 48.01921844482422 35.54884338378906 C 49.24013900756836 32.66225433349609 49.85919952392578 29.59420204162598 49.85919952392578 26.42960166931152 C 49.85919952392578 23.26530265808105 49.24013900756836 20.1972541809082 48.01921844482422 17.31066131591797 C 46.83930969238281 14.52104187011719 45.14952850341797 12.01507186889648 42.99682998657227 9.862373352050781 C 40.84413146972656 7.709671020507812 38.33815765380859 6.019893646240234 35.54853820800781 4.839981079101562 C 32.66194915771484 3.619060516357422 29.59390068054199 3.000003814697266 26.42959976196289 3.000003814697266 M 26.42959976196289 3.814697265625e-06 C 41.02626037597656 3.814697265625e-06 52.85919952392578 11.83293151855469 52.85919952392578 26.42960166931152 L 52.85919952392578 26.42990303039551 C 52.85919952392578 41.02657318115234 41.02626037597656 52.85950088500977 26.42959976196289 52.85950088500977 C 11.83293151855469 52.85950088500977 0 41.02657318115234 0 26.42990303039551 L 0 26.42960166931152 C 0 11.83293151855469 11.83293151855469 3.814697265625e-06 26.42959976196289 3.814697265625e-06 Z" stroke="none" fill="#fff"/>
    </g>
    <g id="winner_2464920" transform="translate(8.907 8.906)">
      <g id="Grupo_1108294" data-name="Grupo 1108294" transform="translate(4.731 1.533)">
        <g id="Grupo_1108276" data-name="Grupo 1108276" transform="translate(17.056 18.122)">
          <path id="Trazado_902702" data-name="Trazado 902702" d="M42.132,36.853V40.8a.535.535,0,0,1-.533.533H40.533A.535.535,0,0,1,40,40.8V36.853L41.066,36Z" transform="translate(-40 -36)" fill="#a0d468"/>
        </g>
        <g id="Grupo_1108277" data-name="Grupo 1108277" transform="translate(7.462 16.161)">
          <path id="Trazado_902703" data-name="Trazado 902703" d="M28.972,32.32,30,36.413l1.6-1.279v3.944a.535.535,0,0,0,.533.533h1.066a.535.535,0,0,0,.533-.533V35.134l1.6,1.279,1.023-4.093,1.279.144a6.4,6.4,0,0,1,5.693,6.359v5.053H25.2a2.132,2.132,0,0,0-1.86,1.087,3.149,3.149,0,0,0-1.215-.853V44.1l.943-3.427L22,38.546l1.482-1.482a5.716,5.716,0,0,0,1.183-1.716H25.6a2.826,2.826,0,0,0,1.253-.293,2.8,2.8,0,0,0,1.54-2.5v-.171Z" transform="translate(-22 -32.32)" fill="#b4dd7f"/>
        </g>
        <g id="Grupo_1108278" data-name="Grupo 1108278" transform="translate(14.434 15.99)">
          <path id="Trazado_902704" data-name="Trazado 902704" d="M38.768,34.132l-1.066.853-1.6,1.279L35.08,32.171,36.636,32Z" transform="translate(-35.08 -32)" fill="#a0d468"/>
        </g>
        <g id="Grupo_1108279" data-name="Grupo 1108279" transform="translate(18.122 15.99)">
          <path id="Trazado_902705" data-name="Trazado 902705" d="M45.688,32.171l-1.023,4.093-1.6-1.279L42,34.132,44.132,32Z" transform="translate(-42 -32)" fill="#a0d468"/>
        </g>
        <g id="Grupo_1108280" data-name="Grupo 1108280" transform="translate(17.589 3.198)">
          <path id="Trazado_902706" data-name="Trazado 902706" d="M48.084,8.613a1.65,1.65,0,0,1,.432,2.638c-.005.005-.016.016-.021.016a1.625,1.625,0,0,1-1.146.464,11.607,11.607,0,0,1-1.551-.107A11.462,11.462,0,0,1,43.313,11L41,10.132l2.686-.975L46.863,8Z" transform="translate(-41 -8)" fill="#aab2bd"/>
        </g>
        <g id="Grupo_1108281" data-name="Grupo 1108281" transform="translate(11.726)">
          <path id="Trazado_902707" data-name="Trazado 902707" d="M35.863,2l-.949,1.423A7.029,7.029,0,0,0,33.731,7.33H30A5.332,5.332,0,0,1,35.33,2Z" transform="translate(-30 -2)" fill="#ccd1d9"/>
        </g>
        <g id="Grupo_1108282" data-name="Grupo 1108282" transform="translate(17.589 0)">
          <path id="Trazado_902708" data-name="Trazado 902708" d="M46.57,4.756l.293.442L43.686,6.355a8.255,8.255,0,0,0-2.175-3.843L41,2h.416A6.214,6.214,0,0,1,46.57,4.756Z" transform="translate(-41 -2)" fill="#ccd1d9"/>
        </g>
        <g id="Grupo_1108283" data-name="Grupo 1108283" transform="translate(15.457 0)">
          <path id="Trazado_902709" data-name="Trazado 902709" d="M41.818,6.355l-2.686.975H37a7.029,7.029,0,0,1,1.183-3.907L39.132,2l.512.512A8.255,8.255,0,0,1,41.818,6.355Z" transform="translate(-37 -2)" fill="#ff826e"/>
        </g>
        <g id="Grupo_1108284" data-name="Grupo 1108284" transform="translate(10.66 5.33)">
          <path id="Trazado_902710" data-name="Trazado 902710" d="M32.8,12h1.6l-.112.224A3.463,3.463,0,0,1,31.2,14.132v2.132a4.314,4.314,0,0,0,.309,1.6h-.181a3.433,3.433,0,0,1-2.766-1.386A2.816,2.816,0,0,1,28,14.793a2.778,2.778,0,0,1,.3-1.253L29.066,12Z" transform="translate(-28 -12)" fill="#b27946"/>
        </g>
        <g id="Grupo_1108285" data-name="Grupo 1108285" transform="translate(22.077 6.465)">
          <path id="Trazado_902711" data-name="Trazado 902711" d="M51.147,18.5a3.487,3.487,0,0,1-1.546.362H49.42a4.314,4.314,0,0,0,.309-1.6V14.487a11.607,11.607,0,0,0,1.551.107,1.625,1.625,0,0,0,1.146-.464l.2.405a2.778,2.778,0,0,1,.3,1.253,2.816,2.816,0,0,1-.56,1.684A3.47,3.47,0,0,1,51.147,18.5Z" transform="translate(-49.42 -14.13)" fill="#b27946"/>
        </g>
        <g id="Grupo_1108286" data-name="Grupo 1108286" transform="translate(1.066 27.716)">
          <path id="Trazado_902712" data-name="Trazado 902712" d="M17.462,56.132A2.124,2.124,0,0,0,18.48,57.95a.529.529,0,0,1-.485.314H10.533A.535.535,0,0,1,10,57.731V57.2a3.2,3.2,0,0,1,2.009-2.969A3.147,3.147,0,0,1,13.2,54H15.33a3.051,3.051,0,0,1,1.189.235,3.149,3.149,0,0,1,1.215.853,2.162,2.162,0,0,0-.272,1.045Z" transform="translate(-10 -54)" fill="#fcd770"/>
        </g>
        <g id="Grupo_1108287" data-name="Grupo 1108287" transform="translate(2.132 22.386)">
          <path id="Trazado_902713" data-name="Trazado 902713" d="M17.33,44H13.066L12,46.132l.943,3.427a3.147,3.147,0,0,1,1.189-.229h2.132a3.051,3.051,0,0,1,1.189.235v-.005l.943-3.427Z" transform="translate(-12 -44)" fill="#ffeaa7"/>
        </g>
        <g id="Grupo_1108288" data-name="Grupo 1108288" transform="translate(0 10.66)">
          <path id="Trazado_902714" data-name="Trazado 902714" d="M18.66,24.132V28.1a5.935,5.935,0,0,1-1.716,4.147l-1.482,1.482H11.2L9.716,32.244A5.935,5.935,0,0,1,8,28.1V22.533A.535.535,0,0,1,8.533,22h9.594a.535.535,0,0,1,.533.533Z" transform="translate(-8 -22)" fill="#fcd770"/>
        </g>
        <g id="Grupo_1108289" data-name="Grupo 1108289" transform="translate(2.132 8.528)">
          <path id="Trazado_902715" data-name="Trazado 902715" d="M18.4,18.533v1.6H12v-1.6A.535.535,0,0,1,12.533,18h5.33A.535.535,0,0,1,18.4,18.533Z" transform="translate(-12 -18)" fill="#ffc729"/>
        </g>
        <g id="Grupo_1108290" data-name="Grupo 1108290" transform="translate(2.132 2.132)">
          <path id="Trazado_902716" data-name="Trazado 902716" d="M15.2,6A3.2,3.2,0,1,1,12,9.2,3.2,3.2,0,0,1,15.2,6Z" transform="translate(-12 -6)" fill="#e6e9ed"/>
        </g>
        <g id="Grupo_1108291" data-name="Grupo 1108291" transform="translate(8.528 27.716)">
          <path id="Trazado_902717" data-name="Trazado 902717" d="M43.188,54v1.066a3.2,3.2,0,0,1-3.2,3.2H26.132a2.151,2.151,0,0,1-1.114-.314A2.124,2.124,0,0,1,24,56.132a2.162,2.162,0,0,1,.272-1.045A2.132,2.132,0,0,1,26.132,54H43.188Z" transform="translate(-24 -54)" fill="#f0d0b4"/>
        </g>
        <g id="Grupo_1108292" data-name="Grupo 1108292" transform="translate(15.99 13.533)">
          <path id="Trazado_902718" data-name="Trazado 902718" d="M41.774,27.39l.49,2.457-2.132,2.132L38,29.847l.49-2.457a4.307,4.307,0,0,0,3.283,0Z" transform="translate(-38 -27.39)" fill="#f0d0b4"/>
        </g>
        <g id="Grupo_1108293" data-name="Grupo 1108293" transform="translate(13.858 5.33)">
          <path id="Trazado_902719" data-name="Trazado 902719" d="M37.731,12l2.313.869a11.462,11.462,0,0,0,2.484.624v2.772A4.271,4.271,0,0,1,36.622,20.2l-1.375-.922a4.387,4.387,0,0,1-.938-1.418,4.314,4.314,0,0,1-.309-1.6V14.132a3.463,3.463,0,0,0,3.086-1.908L37.2,12Z" transform="translate(-34 -12)" fill="#f0d0b4"/>
        </g>
      </g>
      <g id="Grupo_1108295" data-name="Grupo 1108295" transform="translate(1 1)">
        <circle id="Elipse_14903" data-name="Elipse 14903" cx="0.5" cy="0.5" r="0.5" transform="translate(10 5.046)"/>
        <circle id="Elipse_14904" data-name="Elipse 14904" cx="0.5" cy="0.5" r="0.5" transform="translate(8 4.046)"/>
        <path id="Trazado_902720" data-name="Trazado 902720" d="M31.626,18.935a6.9,6.9,0,0,0-3.745-1.626l-2.45-.272L25.1,15.363a4.822,4.822,0,0,0,2.052-2.114,4.005,4.005,0,0,0,3.031-1.587,3.338,3.338,0,0,0,.316-3.5l-.049-.1a2.171,2.171,0,0,0-.8-3.2l-1.1-.547L28.333,4a6.727,6.727,0,0,0-5.6-3h-.95a5.867,5.867,0,0,0-5.856,5.723L15.21,8.164a3.344,3.344,0,0,0,.316,3.5,4.007,4.007,0,0,0,3.032,1.587,4.824,4.824,0,0,0,2.052,2.114l-.335,1.673-1.152.128V14.858a1.067,1.067,0,0,0-1.066-1.066H15.924V12.726a1.067,1.067,0,0,0-1.066-1.066H13.792V10.594a1.067,1.067,0,0,0-1.066-1.066h-.059a3.731,3.731,0,1,0-5.213,0H7.4A1.067,1.067,0,0,0,6.33,10.594V11.66H5.264A1.067,1.067,0,0,0,4.2,12.726v1.066H2.066A1.067,1.067,0,0,0,1,14.858V17.93A3.306,3.306,0,0,0,2.838,20.9a3.343,3.343,0,0,0,1.486.351h.6a6.4,6.4,0,0,0,1.147,1.561l1.209,1.209L6.3,26l.881,3.2a3.731,3.731,0,0,0-1.912,3.254v.533A1.067,1.067,0,0,0,6.33,34.046h7.462a1.061,1.061,0,0,0,.607-.2,2.637,2.637,0,0,0,.992.2H29.249a3.735,3.735,0,0,0,3.731-3.731v-.533h1.066V24.2a6.923,6.923,0,0,0-2.42-5.262Zm-9.571.676L20.5,20.852l-.673-2.694.7-.077Zm.265,1.153.533-.426.533.426v3.688H22.32Zm1.331-1.153,1.53-1.53.7.077L25.2,20.852Zm5.676-8.588a2.936,2.936,0,0,1-1.786,1.112,4.8,4.8,0,0,0,.109-1.008V8.95c.337.028.677.045,1.018.045a2.16,2.16,0,0,0,.933-.217,2.257,2.257,0,0,1-.274,2.246ZM28.15,5.31l1.016.508a1.114,1.114,0,0,1-.5,2.11,10.9,10.9,0,0,1-3.848-.7l-.961-.36ZM21.814,3.253,22.4,2.37l.053.053a7.734,7.734,0,0,1,1.9,3.131l-2.132.776H20.745A6.48,6.48,0,0,1,21.814,3.253Zm5.547,1.21-2,.727a8.8,8.8,0,0,0-1.709-3.04,5.6,5.6,0,0,1,3.708,2.313ZM21.308,2.091l-.381.571A7.535,7.535,0,0,0,19.675,6.33H17.02a4.8,4.8,0,0,1,4.288-4.239Zm-4.929,8.932a2.274,2.274,0,0,1-.215-2.383L16.787,7.4h4.05a2.9,2.9,0,0,1-2.247,1.066h-.533v2.665a4.8,4.8,0,0,0,.109,1.008A2.936,2.936,0,0,1,16.379,11.023Zm2.743.1V9.493a3.956,3.956,0,0,0,2.989-2.1h.112l2.223.833a11.97,11.97,0,0,0,2.138.582v2.316a3.731,3.731,0,1,1-7.462,0Zm3.731,4.8a4.769,4.769,0,0,0,1.235-.167l.318,1.591L22.853,18.9,21.3,17.348l.318-1.591A4.776,4.776,0,0,0,22.853,15.924Zm-4.8-1.066V17.93a2.246,2.246,0,0,1-1.248,2.02,2.276,2.276,0,0,1-1.01.238h-.16a6.417,6.417,0,0,0,.286-1.9V14.858Zm-10.66-8a2.665,2.665,0,1,1,2.665,2.665A2.668,2.668,0,0,1,7.4,6.863Zm0,3.731h5.33V11.66H7.4ZM4.324,20.188a2.272,2.272,0,0,1-1.01-.238,2.245,2.245,0,0,1-1.248-2.02V14.858H4.2v3.435a6.417,6.417,0,0,0,.286,1.9Zm.94-1.9V12.726h9.594v5.567A5.3,5.3,0,0,1,13.3,22.062l-1.325,1.325H8.15L6.825,22.062a5.3,5.3,0,0,1-1.561-3.769Zm6.6,6.159.533,1.066H7.725l.533-1.066Zm-4.3,2.132h5l-.613,2.225a3.724,3.724,0,0,0-.82-.093H9a3.736,3.736,0,0,0-.819.093ZM6.33,32.447A2.668,2.668,0,0,1,9,29.782h2.132a2.663,2.663,0,0,1,1.773.678,2.582,2.582,0,0,0,.373,2.52H6.33Zm25.584-2.132a2.668,2.668,0,0,1-2.665,2.665H15.391a1.6,1.6,0,0,1,0-3.2H31.914Zm1.066-1.6H29.249V25.7l1.492-1.99-.853-.64-1.706,2.274v3.376H17.523V25.341l-1.706-2.274-.853.64,1.492,1.99v3.021H15.391a2.653,2.653,0,0,0-1.925.831,3.686,3.686,0,0,0-.521-.354l.881-3.2-.986-1.972,1.209-1.209A6.4,6.4,0,0,0,15.2,21.253h.6a3.349,3.349,0,0,0,1.487-.351A3.3,3.3,0,0,0,18.942,19l.931,3.725,1.382-1.1v2.836a1.067,1.067,0,0,0,1.066,1.066h1.066a1.067,1.067,0,0,0,1.066-1.066V21.617l1.382,1.105,1.111-4.445.819.091A5.865,5.865,0,0,1,32.98,24.2Z" transform="translate(-1 -1)"/>
      </g>
    </g>
  </g>
</svg>
