<svg id="Grupo_1108317" data-name="Grupo 1108317" xmlns="http://www.w3.org/2000/svg" width="52.859" height="52.859" viewBox="0 0 52.859 52.859">
  <g id="Trazado_874925" data-name="Trazado 874925" transform="translate(0)" fill="#f6d530" opacity="0.859">
    <path d="M 26.42959976196289 51.35950088500977 C 23.0634593963623 51.35950088500977 19.79880905151367 50.7005729675293 16.7263298034668 49.40102386474609 C 13.75790977478027 48.14549255371094 11.09167957305908 46.34777069091797 8.80171012878418 44.05779266357422 C 6.511729717254639 41.767822265625 4.714009761810303 39.10159301757812 3.458479642868042 36.13317108154297 C 2.158929824829102 33.06069183349609 1.499999761581421 29.79604148864746 1.499999761581421 26.42990303039551 C 1.499999761581421 23.06346321105957 2.158929824829102 19.79881286621094 3.458479642868042 16.72633171081543 C 4.714009761810303 13.75791263580322 6.511729717254639 11.09168243408203 8.80171012878418 8.801712036132812 C 11.09167957305908 6.511732578277588 13.75790977478027 4.714012145996094 16.7263298034668 3.458482265472412 C 19.79880905151367 2.158932447433472 23.0634593963623 1.500002384185791 26.42959976196289 1.500002384185791 C 29.79574012756348 1.500002384185791 33.06039047241211 2.158932447433472 36.13286972045898 3.458482265472412 C 39.10129165649414 4.714012145996094 41.76752090454102 6.511732578277588 44.05749130249023 8.801712036132812 C 46.34746932983398 11.09168243408203 48.14519119262695 13.75791263580322 49.40071868896484 16.72633171081543 C 50.70027160644531 19.79881286621094 51.35919952392578 23.06346321105957 51.35919952392578 26.42960166931152 C 51.35919952392578 29.79604148864746 50.70027160644531 33.06069183349609 49.40071868896484 36.13317108154297 C 48.14519119262695 39.10159301757812 46.34746932983398 41.767822265625 44.05749130249023 44.05779266357422 C 41.76752090454102 46.34777069091797 39.10129165649414 48.14549255371094 36.13286972045898 49.40102386474609 C 33.06039047241211 50.7005729675293 29.79574012756348 51.35950088500977 26.42959976196289 51.35950088500977 Z" stroke="none"/>
    <path d="M 26.42959976196289 3.000003814697266 C 23.26529884338379 3.000003814697266 20.19725036621094 3.619060516357422 17.31066131591797 4.839981079101562 C 14.52103805541992 6.019893646240234 12.01506805419922 7.709671020507812 9.862369537353516 9.862373352050781 C 7.709671020507812 12.01507186889648 6.019889831542969 14.52104187011719 4.839981079101562 17.31066131591797 C 3.619060516357422 20.1972541809082 3 23.26530265808105 3 26.42990303039551 C 3 29.59420204162598 3.619060516357422 32.66225433349609 4.839981079101562 35.54884338378906 C 6.019889831542969 38.33846282958984 7.709671020507812 40.84443283081055 9.862369537353516 42.99713134765625 C 12.01506805419922 45.14983367919922 14.52103805541992 46.8396110534668 17.31066131591797 48.01952362060547 C 20.19725036621094 49.24044036865234 23.26529884338379 49.85950088500977 26.42959976196289 49.85950088500977 C 29.59390068054199 49.85950088500977 32.66194915771484 49.24044036865234 35.54853820800781 48.01952362060547 C 38.33815765380859 46.8396110534668 40.84413146972656 45.14983367919922 42.99682998657227 42.99713134765625 C 45.14952850341797 40.84443283081055 46.83930969238281 38.33846282958984 48.01921844482422 35.54884338378906 C 49.24013900756836 32.66225433349609 49.85919952392578 29.59420204162598 49.85919952392578 26.42960166931152 C 49.85919952392578 23.26530265808105 49.24013900756836 20.1972541809082 48.01921844482422 17.31066131591797 C 46.83930969238281 14.52104187011719 45.14952850341797 12.01507186889648 42.99682998657227 9.862373352050781 C 40.84413146972656 7.709671020507812 38.33815765380859 6.019893646240234 35.54853820800781 4.839981079101562 C 32.66194915771484 3.619060516357422 29.59390068054199 3.000003814697266 26.42959976196289 3.000003814697266 M 26.42959976196289 3.814697265625e-06 C 41.02626037597656 3.814697265625e-06 52.85919952392578 11.83293151855469 52.85919952392578 26.42960166931152 L 52.85919952392578 26.42990303039551 C 52.85919952392578 41.02657318115234 41.02626037597656 52.85950088500977 26.42959976196289 52.85950088500977 C 11.83293151855469 52.85950088500977 0 41.02657318115234 0 26.42990303039551 L 0 26.42960166931152 C 0 11.83293151855469 11.83293151855469 3.814697265625e-06 26.42959976196289 3.814697265625e-06 Z" stroke="none" fill="#fff"/>
  </g>
  <g id="Trazado_874923" data-name="Trazado 874923" fill="none">
    <path d="M26.43,0a26.43,26.43,0,0,1,26.43,26.43h0A26.43,26.43,0,1,1,0,26.43H0A26.43,26.43,0,0,1,26.43,0Z" stroke="none"/>
    <path d="M 26.42959976196289 3.000003814697266 C 23.26529884338379 3.000003814697266 20.19725036621094 3.619060516357422 17.31066131591797 4.839981079101562 C 14.52103805541992 6.019893646240234 12.01506805419922 7.709671020507812 9.862369537353516 9.862373352050781 C 7.709671020507812 12.01507186889648 6.019889831542969 14.52104187011719 4.839981079101562 17.31066131591797 C 3.619060516357422 20.1972541809082 3 23.26530265808105 3 26.42990303039551 C 3 29.59420204162598 3.619060516357422 32.66225433349609 4.839981079101562 35.54884338378906 C 6.019889831542969 38.33846282958984 7.709671020507812 40.84443283081055 9.862369537353516 42.99713134765625 C 12.01506805419922 45.14983367919922 14.52103805541992 46.8396110534668 17.31066131591797 48.01952362060547 C 20.19725036621094 49.24044036865234 23.26529884338379 49.85950088500977 26.42959976196289 49.85950088500977 C 29.59390068054199 49.85950088500977 32.66194915771484 49.24044036865234 35.54853820800781 48.01952362060547 C 38.33815765380859 46.8396110534668 40.84413146972656 45.14983367919922 42.99682998657227 42.99713134765625 C 45.14952850341797 40.84443283081055 46.83930969238281 38.33846282958984 48.01921844482422 35.54884338378906 C 49.24013900756836 32.66225433349609 49.85919952392578 29.59420204162598 49.85919952392578 26.42960166931152 C 49.85919952392578 23.26530265808105 49.24013900756836 20.1972541809082 48.01921844482422 17.31066131591797 C 46.83930969238281 14.52104187011719 45.14952850341797 12.01507186889648 42.99682998657227 9.862373352050781 C 40.84413146972656 7.709671020507812 38.33815765380859 6.019893646240234 35.54853820800781 4.839981079101562 C 32.66194915771484 3.619060516357422 29.59390068054199 3.000003814697266 26.42959976196289 3.000003814697266 M 26.42959976196289 3.814697265625e-06 C 41.02626037597656 3.814697265625e-06 52.85919952392578 11.83293151855469 52.85919952392578 26.42960166931152 L 52.85919952392578 26.42990303039551 C 52.85919952392578 41.02657318115234 41.02626037597656 52.85950088500977 26.42959976196289 52.85950088500977 C 11.83293151855469 52.85950088500977 0 41.02657318115234 0 26.42990303039551 L 0 26.42960166931152 C 0 11.83293151855469 11.83293151855469 3.814697265625e-06 26.42959976196289 3.814697265625e-06 Z" stroke="none" fill="#fff"/>
  </g>
  <g id="family_437491" transform="translate(10.311 -9.761)">
    <path id="Trazado_904057" data-name="Trazado 904057" d="M288.181,63.2h0a5.935,5.935,0,0,1,5.935,5.935h0a61.22,61.22,0,0,0,.54,7.554,19.059,19.059,0,0,1-6.475,2.158,19.059,19.059,0,0,1-6.475-2.158,61.223,61.223,0,0,0,.54-7.554h0a5.935,5.935,0,0,1,5.935-5.935Z" transform="translate(-263.968 -39.145)" fill="#d59f63"/>
    <path id="Trazado_904058" data-name="Trazado 904058" d="M286.023,68.593V66.974a3.777,3.777,0,0,1,3.041-3.7,5.952,5.952,0,0,0-.883-.073h0a5.935,5.935,0,0,0-5.935,5.935,61.224,61.224,0,0,1-.54,7.554,19.059,19.059,0,0,0,6.475,2.158V70.751Z" transform="translate(-263.968 -39.146)" fill="#cd915a"/>
    <path id="Trazado_904059" data-name="Trazado 904059" d="M278.66,273.3l-3.7-1.48a1.079,1.079,0,0,1-.678-1v-1.967h-4.317v1.967a1.079,1.079,0,0,1-.678,1l-3.7,1.48a1.619,1.619,0,0,0-1.017,1.5v2.142a.539.539,0,0,0,.54.54h0v4.856h14.029v-4.856h.54V274.8A1.619,1.619,0,0,0,278.66,273.3Z" transform="translate(-247.911 -231.851)" fill="#fad7a5"/>
    <g id="Grupo_1142935" data-name="Grupo 1142935" transform="translate(17.199 37)">
      <path id="Trazado_904060" data-name="Trazado 904060" d="M351.593,271.549a6.448,6.448,0,0,0,2.214-.4,1.073,1.073,0,0,1-.055-.334v-1.967h-4.317v1.967a1.071,1.071,0,0,1-.055.334A6.448,6.448,0,0,0,351.593,271.549Z" transform="translate(-344.578 -268.851)" fill="#f0c891"/>
      <path id="Trazado_904061" data-name="Trazado 904061" d="M273.138,397.386V399h.54a.54.54,0,0,1,.54.54v3.237h1.619v-5.4Z" transform="translate(-273.138 -389.292)" fill="#f0c891"/>
    </g>
    <path id="Trazado_904062" data-name="Trazado 904062" d="M320.3,152.821h0c-2.682,0-4.317-2.174-4.317-4.856v-2.158c1.552,0,1.728-1.116,2.007-1.743a.318.318,0,0,1,.484-.126c2.286,1.725,6.681.434,6.681,4.028h0A4.856,4.856,0,0,1,320.3,152.821Z" transform="translate(-296.086 -114.742)" fill="#ffe1b4"/>
    <path id="Trazado_904063" data-name="Trazado 904063" d="M318.141,148.58v-4.051a.31.31,0,0,0-.151.15c-.279.627-.454,1.743-2.007,1.743v1.986c0,2.23.9,4.267,3.048,4.856a4.773,4.773,0,0,0,2.617-.021A4.855,4.855,0,0,1,318.141,148.58Z" transform="translate(-296.086 -115.357)" fill="#fad098"/>
    <path id="Trazado_904064" data-name="Trazado 904064" d="M278.66,325.808l-2.3-.921a4.315,4.315,0,0,1-8.47,0l-2.3.921a1.619,1.619,0,0,0-1.017,1.5v7.537h12.41v-4.856h2.7v-2.681A1.619,1.619,0,0,0,278.66,325.808Z" transform="translate(-247.911 -284.358)" fill="#ff507d"/>
    <g id="Grupo_1142936" data-name="Grupo 1142936" transform="translate(18.461 40.529)">
      <path id="Trazado_904065" data-name="Trazado 904065" d="M461.654,352.323l2.452-2.452a1.613,1.613,0,0,1,.245.85V353.4h-2.7v-1.079Z" transform="translate(-451.045 -348.298)" fill="#d23c69"/>
      <path id="Trazado_904066" data-name="Trazado 904066" d="M303.164,324.888a4.315,4.315,0,0,1-8.47,0l-1.518.607a5.928,5.928,0,0,0,11.505,0Z" transform="translate(-293.177 -324.888)" fill="#d23c69"/>
    </g>
    <rect id="Rectángulo_404726" data-name="Rectángulo 404726" width="3.237" height="5.935" transform="translate(1.012 44.554)" fill="#b48764"/>
    <path id="Trazado_904067" data-name="Trazado 904067" d="M22.494,261.575l-4.742-1.293H13.435l-4.742,1.293A1.619,1.619,0,0,0,7.5,263.137v5.238h3.237v5.935h12.95V263.137A1.619,1.619,0,0,0,22.494,261.575Z" transform="translate(-7.028 -223.821)" fill="#00aaf0"/>
    <path id="Trazado_904068" data-name="Trazado 904068" d="M69.446,261l-2.639-.72H62.491l-2.639.72a4.85,4.85,0,0,0,9.594,0Z" transform="translate(-56.083 -223.821)" fill="#0096dc"/>
    <path id="Trazado_904069" data-name="Trazado 904069" d="M93.19,230.291v1.888a2.7,2.7,0,1,0,5.4,0v-1.888Z" transform="translate(-87.322 -195.719)" fill="#b48764"/>
    <path id="Trazado_904070" data-name="Trazado 904070" d="M93.19,232.125a6.42,6.42,0,0,0,5.4,0v-1.834h-5.4Z" transform="translate(-87.322 -195.719)" fill="#966d50"/>
    <path id="Trazado_904071" data-name="Trazado 904071" d="M52.567,83.571V80.334H42.855v3.237a1.079,1.079,0,1,0,0,2.158,4.856,4.856,0,1,0,9.712,0,1.079,1.079,0,1,0,0-2.158Z" transform="translate(-39.145 -55.204)" fill="#c39772"/>
    <path id="Trazado_904072" data-name="Trazado 904072" d="M45.553,85.73v-5.4h-2.7v3.237a1.079,1.079,0,1,0,0,2.158,4.848,4.848,0,0,0,6.205,4.662A4.855,4.855,0,0,1,45.553,85.73Z" transform="translate(-39.145 -55.204)" fill="#b48764"/>
    <path id="Trazado_904073" data-name="Trazado 904073" d="M59.942,35.621a1.054,1.054,0,0,1,1.194-.077V32.157a2.149,2.149,0,0,0-1.1-1.873,1.615,1.615,0,0,0-1.593-1.365H54.122A3.777,3.777,0,0,0,50.345,32.7v2.848a1.068,1.068,0,0,1,.54-.15,1.045,1.045,0,0,1,.2.02,1,1,0,0,0,1.183-.706h0l.133-.531a.537.537,0,0,1,.506-.408c1.124-.03,4.312-.194,6.069-1.072l.314,1.885A1.61,1.61,0,0,0,59.942,35.621Z" transform="translate(-47.175 -7.028)" fill="#64463c"/>
    <path id="Trazado_904074" data-name="Trazado 904074" d="M53.582,32.157A3.237,3.237,0,0,1,56.82,28.92h-2.7A3.777,3.777,0,0,0,50.345,32.7v2.848a1.068,1.068,0,0,1,.54-.15,1.041,1.041,0,0,1,.467.11.575.575,0,0,0,.821-.406l.23-.921a.537.537,0,0,1,.506-.408c.177,0,.408-.013.674-.027V32.157Z" transform="translate(-47.175 -7.028)" fill="#553732"/>
    <path id="Trazado_904075" data-name="Trazado 904075" d="M7.5,289.541v5.238h3.237v-1.772a2.7,2.7,0,0,0-.568-1.656L7.921,288.46A1.612,1.612,0,0,0,7.5,289.541Z" transform="translate(-7.028 -250.225)" fill="#0096dc"/>
    <path id="Trazado_904076" data-name="Trazado 904076" d="M196.053,399.715l-1.762-.587a.54.54,0,0,1-.369-.512v-1.23h-3.237v1.23a.54.54,0,0,1-.369.512l-1.762.587a1.619,1.619,0,0,0-1.107,1.536v1.531h9.712v-1.531A1.619,1.619,0,0,0,196.053,399.715Z" transform="translate(-175.645 -352.292)" fill="#e6af78"/>
    <path id="Trazado_904077" data-name="Trazado 904077" d="M234.269,399.544a5.376,5.376,0,0,0,2.036-.4l-.048-.016a.54.54,0,0,1-.369-.512v-1.23H232.65v1.23a.54.54,0,0,1-.369.512l-.048.016A5.377,5.377,0,0,0,234.269,399.544Z" transform="translate(-217.61 -352.292)" fill="#d29b6e"/>
    <path id="Trazado_904078" data-name="Trazado 904078" d="M192.3,217.438h0a4.856,4.856,0,0,0-4.856,4.856v1.619h9.712v-1.619A4.856,4.856,0,0,0,192.3,217.438Z" transform="translate(-175.645 -183.675)" fill="#64463c"/>
    <path id="Trazado_904079" data-name="Trazado 904079" d="M193.923,217.72a4.845,4.845,0,0,0-6.475,4.574v1.619h3.237v-1.619A4.854,4.854,0,0,1,193.923,217.72Z" transform="translate(-175.645 -183.675)" fill="#553732"/>
    <path id="Trazado_904080" data-name="Trazado 904080" d="M188.57,281.713h-.037a1.02,1.02,0,0,1-1.02-1.02h0a.419.419,0,0,0-.56-.395,21.466,21.466,0,0,1-6.455,1.415h-.517a1.093,1.093,0,0,0-1.09.922,1.08,1.08,0,0,0,1.068,1.236h.54v.483a3.777,3.777,0,1,0,7.554.056v-.54h.54a1.08,1.08,0,0,0,1.068-1.236A1.093,1.093,0,0,0,188.57,281.713Z" transform="translate(-167.617 -242.555)" fill="#f0c087"/>
    <path id="Trazado_904081" data-name="Trazado 904081" d="M219.63,200.3l-3.237,1.387-3.237-1.387v3.237l3.237-1.387,3.237,1.387Z" transform="translate(-199.733 -167.616)" fill="#ffdc64"/>
    <path id="Trazado_904082" data-name="Trazado 904082" d="M182.656,302.469v-2.923a14.2,14.2,0,0,1-2.158.225h-.54a1.079,1.079,0,1,0,0,2.158h.54v.381a3.882,3.882,0,0,0,3.661,3.934,3.78,3.78,0,0,0,1.2-.157A3.777,3.777,0,0,1,182.656,302.469Z" transform="translate(-167.615 -260.613)" fill="#e6af78"/>
    <path id="Trazado_904083" data-name="Trazado 904083" d="M196.053,430.007l-.88-.293a3.235,3.235,0,0,1-5.739,0l-.88.293a1.619,1.619,0,0,0-1.107,1.536v1.531h9.712v-1.531A1.619,1.619,0,0,0,196.053,430.007Z" transform="translate(-175.645 -382.585)" fill="#ffdc64"/>
    <path id="Trazado_904090" data-name="Trazado 904090" d="M30.925,41.011l-3.7-1.48a.619.619,0,0,1-.057-.028,9.772,9.772,0,0,0,3.819-1.6.472.472,0,0,0,.168-.432,61.181,61.181,0,0,1-.535-7.487,6.407,6.407,0,1,0-12.815,0c0,.968-.044,2.152-.115,3.273l-1.031.516-3.026-1.513-.027-.011a5.29,5.29,0,0,0,.273-1.321,1.55,1.55,0,0,0,.555-2.657V25.13a2.628,2.628,0,0,0-1.158-2.168,2.076,2.076,0,0,0-2.012-1.542H6.947A4.254,4.254,0,0,0,2.7,25.669v2.6a1.55,1.55,0,0,0,.555,2.657A5.326,5.326,0,0,0,5.4,34.8v1.305L1.49,37.281a2.078,2.078,0,0,0-1.49,2v5.27a.472.472,0,0,0,.472.472H.54v5.463a.472.472,0,1,0,.945,0V45.026H3.237v5.463a.472.472,0,1,0,.945,0V42.346a2.084,2.084,0,0,0-.351-1.16l-.807-1.211a.472.472,0,1,0-.786.524l.807,1.211a1.143,1.143,0,0,1,.193.636v1.735H.945v-4.8a1.139,1.139,0,0,1,.817-1.1L3.383,37.7a5.329,5.329,0,0,0,7.708,3.453,1.55,1.55,0,0,0,1.252.636h.067v.067a4.251,4.251,0,0,0,2.158,3.7v.77a.067.067,0,0,1-.046.064l-1.762.587a2.088,2.088,0,0,0-1.43,1.984v1.531a.472.472,0,1,0,.945,0V48.958a1.145,1.145,0,0,1,.784-1.088l.518-.173a3.71,3.71,0,0,0,6.164,0l.518.173a1.145,1.145,0,0,1,.784,1.088v1.531a.472.472,0,1,0,.945,0V48.958a2.088,2.088,0,0,0-1.43-1.984L18.8,46.387a.067.067,0,0,1-.046-.064v-.77a4.266,4.266,0,0,0,2-2.549,4.788,4.788,0,0,0,8.022-1.838l1.8.721a1.141,1.141,0,0,1,.721,1.064v2.209H29.541v-.607a.472.472,0,1,0-.945,0v5.935a.472.472,0,0,0,.945,0V46.106h1.214v4.384a.472.472,0,0,0,.945,0V46.106h.067a.472.472,0,0,0,.472-.472V42.952A2.08,2.08,0,0,0,30.925,41.011ZM18.75,29.986a5.463,5.463,0,1,1,10.926,0,62,62,0,0,0,.506,7.334,10.11,10.11,0,0,1-3.338,1.287v-.752a5.288,5.288,0,0,0,.717-.487,5.316,5.316,0,0,0,1.981-4.146c0-2.669-1.93-3.052-3.8-3.423a7.576,7.576,0,0,1-3.394-1.262.472.472,0,0,0-.767.369c0,.013-.021,1.255-1.8,1.7a.472.472,0,0,0,.229.916,3.125,3.125,0,0,0,2.345-1.836,9.891,9.891,0,0,0,3.2,1.04c2,.4,3.037.687,3.037,2.5a4.372,4.372,0,0,1-1.63,3.411,4.383,4.383,0,0,1-5.3.153,5.336,5.336,0,0,0-1.293-1.993V32.684a.472.472,0,0,0-.683-.422l-1.02.51C18.722,31.788,18.75,30.853,18.75,29.986Zm.674,3.462v1.709L17.715,34.3Zm-5.53,0L15.6,34.3l-1.709.855Zm-.945,1.347a5.336,5.336,0,0,0-1.217,1.8c0-.044,0-.087,0-.131V34.8a5.371,5.371,0,0,0,1.214-1.255ZM4.182,30.525a.472.472,0,0,0-.472-.472.607.607,0,1,1,0-1.214H4.789a.472.472,0,0,0,.448-.323l.433-1.3c1.085-.024,4.45-.177,6.344-1.124a.472.472,0,1,0-.422-.845c-2.033,1.016-6.222,1.029-6.264,1.029a.472.472,0,0,0-.448.323l-.432,1.3H3.71l-.067,0V25.669a3.308,3.308,0,0,1,3.3-3.3h4.317a1.138,1.138,0,0,1,1.127.966.472.472,0,0,0,.234.337,1.686,1.686,0,0,1,.864,1.461V27.9l-.067,0h-.54a.472.472,0,0,0,0,.945h.54a.607.607,0,0,1,0,1.214.472.472,0,0,0-.472.472,4.384,4.384,0,0,1-8.768,0Zm4.384,5.328a5.3,5.3,0,0,0,2.226-.488v1.095a2.226,2.226,0,0,1-4.451.006s0,0,0-.007V35.366A5.3,5.3,0,0,0,8.566,35.854ZM4.29,37.427l1.167-.35a3.169,3.169,0,0,0,5.92.846,5.31,5.31,0,0,0-.046.7v.449a1.551,1.551,0,0,0-.54,1.17,4.384,4.384,0,0,1-6.5-2.81ZM18.5,47.283l.3.1a2.763,2.763,0,0,1-4.279,0l.3-.1a1.011,1.011,0,0,0,.692-.96v-.376a4.227,4.227,0,0,0,2.293,0v.376A1.01,1.01,0,0,0,18.5,47.283Zm-1.838-2.122a3.308,3.308,0,0,1-3.3-3.3v-.54a.472.472,0,0,0-.472-.472h-.54a.608.608,0,0,1-.607-.607.6.6,0,0,1,.3-.521.469.469,0,0,0,.112-.092c1.167-.034,4.952-.254,7.439-1.675a.472.472,0,1,0-.469-.82c-2.179,1.245-5.6,1.494-6.847,1.544v-.055a4.388,4.388,0,0,1,.748-2.446.471.471,0,0,0,.61.171l3.026-1.513,3.026,1.513a.47.47,0,0,0,.61-.171,4.388,4.388,0,0,1,.748,2.446v.689a.472.472,0,0,0,.235.408.6.6,0,0,1,.3.521.608.608,0,0,1-.607.607h-.54a.472.472,0,0,0-.472.472v.47s0,.008,0,.012v.058A3.309,3.309,0,0,1,16.659,45.161Zm7.554-1.619a3.849,3.849,0,0,1-3.227-1.754,1.547,1.547,0,0,0,1-2.721v-.449a5.31,5.31,0,0,0-.03-.566,5.325,5.325,0,0,0,3.942.223v.692a1.544,1.544,0,0,0,.975,1.44l1.018.407A3.842,3.842,0,0,1,24.213,43.542Z"/>
  </g>
</svg>
