<svg xmlns="http://www.w3.org/2000/svg" xmlns:xlink="http://www.w3.org/1999/xlink" width="294.602" height="291.04" viewBox="0 0 294.602 291.04">
  <defs>
    <clipPath id="clip-path">
      <path id="AdobeStock_808388261" d="M14,0H280.5a14,14,0,0,1,14,14V291.04a0,0,0,0,1,0,0H0a0,0,0,0,1,0,0V14A14,14,0,0,1,14,0Z" transform="translate(1131.051 5429.994)" fill="#c7f2d8"/>
    </clipPath>
    <clipPath id="clip-path-2">
      <rect id="Rectángulo_404662" data-name="Rectángulo 404662" width="284.152" height="282.853" fill="none"/>
    </clipPath>
    <clipPath id="clip-path-4">
      <rect id="Rectángulo_404642" data-name="Rectángulo 404642" width="25.086" height="2.341" fill="none"/>
    </clipPath>
    <clipPath id="clip-path-6">
      <rect id="Rectángulo_404646" data-name="Rectángulo 404646" width="17.227" height="2.342" fill="none"/>
    </clipPath>
    <clipPath id="clip-path-7">
      <rect id="Rectángulo_404648" data-name="Rectángulo 404648" width="31.17" height="2.342" fill="none"/>
    </clipPath>
    <clipPath id="clip-path-8">
      <rect id="Rectángulo_404650" data-name="Rectángulo 404650" width="25.086" height="2.342" fill="none"/>
    </clipPath>
  </defs>
  <g id="Grupo_1142954" data-name="Grupo 1142954" transform="translate(-1125.449 -5429.994)">
    <path id="AdobeStock_808388261-2" data-name="AdobeStock_808388261" d="M14,0H280.5a14,14,0,0,1,14,14V291.04a0,0,0,0,1,0,0H0a0,0,0,0,1,0,0V14A14,14,0,0,1,14,0Z" transform="translate(1125.449 5429.994)" fill="#cafcfc"/>
    <g id="Enmascarar_grupo_1099713" data-name="Enmascarar grupo 1099713" transform="translate(-5.5)" clip-path="url(#clip-path)">
      <g id="Grupo_1108428" data-name="Grupo 1108428" transform="translate(1134.051 5438.181)">
        <g id="Grupo_1108427" data-name="Grupo 1108427" clip-path="url(#clip-path-2)">
          <rect id="Rectángulo_404636" data-name="Rectángulo 404636" width="52.688" height="33.664" transform="translate(57.078 0)" fill="#fff"/>
          <rect id="Rectángulo_404637" data-name="Rectángulo 404637" width="50.05" height="33.664" transform="translate(4.389 0)" fill="#fff"/>
          <rect id="Rectángulo_404638" data-name="Rectángulo 404638" width="52.689" height="34.536" transform="translate(57.078 36.303)" fill="#fff"/>
          <rect id="Rectángulo_404639" data-name="Rectángulo 404639" width="50.05" height="34.536" transform="translate(4.389 36.303)" fill="#fff"/>
          <rect id="Rectángulo_404640" data-name="Rectángulo 404640" width="99.151" height="64.847" transform="translate(140.228 24.2)" fill="#fff"/>
          <path id="Trazado_903140" data-name="Trazado 903140" d="M235.782,120.193l-7.989,4.03H287.16l-4.2-4.03Z" transform="translate(-80.758 -42.611)" fill="#473c3b"/>
          <g id="Grupo_1108426" data-name="Grupo 1108426">
            <g id="Grupo_1108425" data-name="Grupo 1108425" clip-path="url(#clip-path-2)">
              <path id="Trazado_903141" data-name="Trazado 903141" d="M257.409,104.764q-.218.427-.429.855a1.513,1.513,0,0,0-.221.778c.043.493.574.669,1,.67.553,0,.948-.644,1.313-1.014a38.794,38.794,0,0,0,2.848-3.139,18.48,18.48,0,0,0,1.809-2.705c.484-.9.771-1.849,1.177-2.774,1.423-3.243,4.189-5.754,5.6-9a6.1,6.1,0,0,0,.365-3.238,3.95,3.95,0,0,0-1.317-2.489,6.256,6.256,0,0,0-1.77-.9.5.5,0,0,0-.4-.035c-.15.076-.183.27-.2.437a17.609,17.609,0,0,1-.994,4.309,15.8,15.8,0,0,1-.95,1.893c-.347.659-.662,1.334-1,2q-.962,1.9-1.922,3.8a21.044,21.044,0,0,0-1,1.986c-.162.43-.181.883-.353,1.312-.994,2.476-2.35,4.87-3.57,7.264" transform="translate(-91.026 -28.979)" fill="#5b5fbf"/>
              <path id="Trazado_903142" data-name="Trazado 903142" d="M250.461,120.828a2.689,2.689,0,0,0-.851.309.776.776,0,0,0-.374.769.791.791,0,0,0,.767.535,3.23,3.23,0,0,0,.982-.2,5.471,5.471,0,0,1,2.947.005c.431.121.937.284,1.288.007a1.159,1.159,0,0,0,.343-.644,6.387,6.387,0,0,0,.191-1.173,2.5,2.5,0,0,0-.076-.924,1.137,1.137,0,0,0-.572-.7c-.7-.326-1.572.661-2.133.986a9.918,9.918,0,0,1-2.513,1.029" transform="translate(-88.355 -42.099)" fill="#fe9685"/>
              <path id="Trazado_903143" data-name="Trazado 903143" d="M270.933,86.071a7.431,7.431,0,0,1-.44,1.013.7.7,0,0,0-.122.5c.062.209.3.3.5.374,2.447.867,3.586,2.938,5.1,4.869,1.593,2.03,3.264,4,4.831,6.049a41.857,41.857,0,0,1,3.963,6.059c.049.094.1.188.145.283.236.467.757,2.021,1.488,1.767a.8.8,0,0,0,.477-.585,2.2,2.2,0,0,0,0-.784,24.931,24.931,0,0,0-3.7-9.714c-1.077-1.807-2.362-3.491-3.326-5.361s-1.912-3.773-2.985-5.6c-.415-.7-.863-1.815-1.6-2.213a8.013,8.013,0,0,0-2.685-.966.965.965,0,0,0-.669.08,1.042,1.042,0,0,0-.338.78,16.345,16.345,0,0,1-.653,3.444" transform="translate(-95.848 -28.98)" fill="#797fff"/>
              <path id="Trazado_903144" data-name="Trazado 903144" d="M293.23,121.582c0,.031-.006.063-.008.094a.6.6,0,0,0,.037.344.534.534,0,0,0,.33.214,5.573,5.573,0,0,0,1.838.017.785.785,0,0,0,.568-.164.5.5,0,0,0,.1-.3,3.968,3.968,0,0,0-.646-2.688,1.591,1.591,0,0,0-.915-.652.971.971,0,0,0-1.013.372.783.783,0,0,0-.123.516,3.839,3.839,0,0,1-.024.7l-.139,1.549" transform="translate(-103.951 -41.984)" fill="#fe9685"/>
              <path id="Trazado_903145" data-name="Trazado 903145" d="M265.235,105.165a2.369,2.369,0,0,0,1.324-2.435" transform="translate(-94.032 -36.42)" fill="none" stroke="#473c3b" stroke-linecap="round" stroke-miterlimit="10" stroke-width="0.256"/>
              <path id="Trazado_903146" data-name="Trazado 903146" d="M283.456,101.677a1.874,1.874,0,0,1,1.237,1.663" transform="translate(-100.492 -36.047)" fill="none" stroke="#473c3b" stroke-linecap="round" stroke-miterlimit="10" stroke-width="0.256"/>
              <path id="Trazado_903147" data-name="Trazado 903147" d="M253.61,82.222a.49.49,0,0,1,.292.008c.145.068.184.254.2.413a6.634,6.634,0,0,1-.271,2.592c-.809-.363-1.816.038-2.612-.354a1.331,1.331,0,0,1-.745-1.2,1.162,1.162,0,0,1,.634-.975,2.5,2.5,0,0,1,.66-.147l.868-.157.976-.177" transform="translate(-88.798 -29.143)" fill="#fe9685"/>
              <path id="Trazado_903148" data-name="Trazado 903148" d="M251.706,83.757a3.541,3.541,0,0,1,1.4.634,2.014,2.014,0,0,1,.511.612,1.457,1.457,0,0,1,.145.368c.009.04.016.338.016.338a1.556,1.556,0,0,0-.74-.065.523.523,0,0,1-.256.005c-.168-.059-.14-.445-.2-.6a3.4,3.4,0,0,0-.365-.7,3.44,3.44,0,0,0-.249-.323c-.042-.048-.2-.274-.267-.274" transform="translate(-89.236 -29.694)" fill="#fe6685"/>
              <path id="Trazado_903149" data-name="Trazado 903149" d="M250.027,89.461a1.526,1.526,0,0,1,.565.238c.083.073.141.168.219.245a.322.322,0,0,0,.3.106.263.263,0,0,0,.169-.179.507.507,0,0,0,0-.254,1.077,1.077,0,0,0-.543-.719,1.113,1.113,0,0,0-1.035-.034c-.332.229.109.527.326.6" transform="translate(-88.483 -31.464)" fill="#fe6685"/>
              <path id="Trazado_903150" data-name="Trazado 903150" d="M255.394,72.709c.644-2.285,1.206-4.61,1.7-6.952s.911-4.706,1.244-7.08l1.891.141c-.032,2.448-.154,4.895-.35,7.339s-.469,4.887-.834,7.332Z" transform="translate(-90.543 -20.802)" fill="#fe9685"/>
              <path id="Trazado_903151" data-name="Trazado 903151" d="M246.282,85.979a2.974,2.974,0,0,0,1.73,1.062,4.218,4.218,0,0,0,2.049-.1,1.7,1.7,0,0,0,.618-.284,1.3,1.3,0,0,0,.433-.812,2.852,2.852,0,0,0-.038-.936,3.041,3.041,0,0,0-.48-1.287,2.427,2.427,0,0,0-1.527-.893,4.918,4.918,0,0,0-1.8.06,1.672,1.672,0,0,0-1.383,1.155,2.3,2.3,0,0,0,.4,2.032" transform="translate(-87.139 -29.309)" fill="#fe9685"/>
              <path id="Trazado_903152" data-name="Trazado 903152" d="M265.447,80.682c-1.452-.2-2.912-.376-4.34-.695-1.531-.342-3.072-.935-4.666-.74a2.138,2.138,0,0,0-.873.267c-.66.407-.554,1.276-.474,1.946a5.748,5.748,0,0,1,.066,1.866c-.14.664-.572,1.318-.381,1.969a1.843,1.843,0,0,0,.891.977,3.8,3.8,0,0,0,2.751.238,23.726,23.726,0,0,1,3.678-.3,3.683,3.683,0,0,1,1.486.159c.477.2.984.3,1.456.527a.659.659,0,0,0,.509.095.588.588,0,0,0,.264-.283,8.35,8.35,0,0,0,.842-2.4q.135-.639.23-1.286a6.508,6.508,0,0,0,.1-1.169,1.121,1.121,0,0,0-.391-.9,1.378,1.378,0,0,0-.605-.185l-.545-.076" transform="translate(-90.308 -28.082)" fill="#fe9685"/>
              <path id="Trazado_903153" data-name="Trazado 903153" d="M257.4,88.726c-1.093,5.524-2.253,10.251-3.662,15.682l-1.7-.33c.722-5.53,1.339-11.072,1.736-16.615a2.207,2.207,0,0,1,2.448-.884,1.787,1.787,0,0,1,1.179,2.146" transform="translate(-89.355 -30.66)" fill="#fe9685"/>
              <path id="Trazado_903154" data-name="Trazado 903154" d="M258.748,56.214a.717.717,0,0,1,0-.294.315.315,0,0,1,.183-.219.453.453,0,0,1,.4.118,2.725,2.725,0,0,1,.607.625,1.519,1.519,0,0,1,.278.625.811.811,0,0,1-.16.649.545.545,0,0,1-.505.2c-.138-.051-.228-.3-.3-.42a3.568,3.568,0,0,1-.513-1.282" transform="translate(-91.728 -19.741)" fill="#fe9685"/>
              <path id="Trazado_903155" data-name="Trazado 903155" d="M260.736,54.618c.083-.28.2-.6.473-.7a.726.726,0,0,1,.64.137,1.32,1.32,0,0,1,.551.707,2.583,2.583,0,0,1,.007,1.02,7.287,7.287,0,0,1-.353,1.193.569.569,0,0,1-.194.307.511.511,0,0,1-.3.054,2.574,2.574,0,0,1-.688-.127.973.973,0,0,1-.477-.367c-.271-.334-.143-.59-.035-.958q.188-.634.375-1.269" transform="translate(-92.259 -19.105)" fill="#fe9685"/>
              <path id="Trazado_903156" data-name="Trazado 903156" d="M250.293,113.5c-.119.094-.251.212-.243.364a.315.315,0,0,0,.26.267.741.741,0,0,0,.392-.048,2.493,2.493,0,0,0,.893-.54.988.988,0,0,0,.3-.445.456.456,0,0,0-.149-.488c-.245-.17-.428.074-.592.214-.276.237-.575.451-.862.676" transform="translate(-88.649 -39.901)" fill="#fe9685"/>
              <path id="Trazado_903157" data-name="Trazado 903157" d="M253.407,112.919a.247.247,0,0,1,.215.011.241.241,0,0,1,.061.191,5.3,5.3,0,0,1-.489,2.3,1.25,1.25,0,0,1-.471.6,1.129,1.129,0,0,1-.915.005.691.691,0,0,1-.452-.353.848.848,0,0,1,.1-.6,5.4,5.4,0,0,0,.281-.923,2.258,2.258,0,0,1,.154-.706.743.743,0,0,1,.492-.254l1.028-.269" transform="translate(-89.102 -40.026)" fill="#fe9685"/>
              <path id="Trazado_903158" data-name="Trazado 903158" d="M249.871,88.026a.452.452,0,0,0,.36-.179.346.346,0,0,0,.01-.39c-.074-.105-.207-.152-.3-.237" transform="translate(-88.585 -30.922)" fill="none" stroke="#473c3b" stroke-linecap="round" stroke-miterlimit="10" stroke-width="0.256"/>
              <path id="Trazado_903159" data-name="Trazado 903159" d="M248.888,87.786a.688.688,0,0,1,.293-1.091" transform="translate(-88.179 -30.735)" fill="none" stroke="#473c3b" stroke-linecap="round" stroke-miterlimit="10" stroke-width="0.256"/>
              <path id="Trazado_903160" data-name="Trazado 903160" d="M250.99,86.574a.379.379,0,0,0,.185.241.4.4,0,1,0-.185-.241" transform="translate(-88.978 -30.514)" fill="#fe6685"/>
              <path id="Trazado_903161" data-name="Trazado 903161" d="M251.976,88.783a.85.85,0,0,0-.438-1.033" transform="translate(-89.176 -31.109)" fill="none" stroke="#473c3b" stroke-linecap="round" stroke-miterlimit="10" stroke-width="0.256"/>
              <path id="Trazado_903162" data-name="Trazado 903162" d="M256.267,98.776a2.4,2.4,0,0,0-.345,1.857" transform="translate(-90.709 -35.018)" fill="none" stroke="#473c3b" stroke-linecap="round" stroke-miterlimit="10" stroke-width="0.256"/>
              <path id="Trazado_903163" data-name="Trazado 903163" d="M261.807,53.932a2.912,2.912,0,0,1-.146,1.3" transform="translate(-92.765 -19.12)" fill="none" stroke="#473c3b" stroke-linecap="round" stroke-miterlimit="10" stroke-width="0.256"/>
              <path id="Trazado_903164" data-name="Trazado 903164" d="M262.611,54.246a9.021,9.021,0,0,1-.256,1.336" transform="translate(-93.011 -19.231)" fill="none" stroke="#473c3b" stroke-linecap="round" stroke-miterlimit="10" stroke-width="0.256"/>
              <path id="Trazado_903165" data-name="Trazado 903165" d="M263.306,55.1a2.878,2.878,0,0,1-.321,1.232" transform="translate(-93.234 -19.536)" fill="none" stroke="#473c3b" stroke-linecap="round" stroke-miterlimit="10" stroke-width="0.256"/>
              <path id="Trazado_903166" data-name="Trazado 903166" d="M260.8,68.8a.988.988,0,0,1-.263,1.532" transform="translate(-92.368 -24.391)" fill="none" stroke="#473c3b" stroke-linecap="round" stroke-miterlimit="10" stroke-width="0.256"/>
              <path id="Trazado_903167" data-name="Trazado 903167" d="M258.479,83.8a4.483,4.483,0,0,1,1.538.239,2.608,2.608,0,0,1,.891.58" transform="translate(-91.637 -29.709)" fill="none" stroke="#473c3b" stroke-linecap="round" stroke-miterlimit="10" stroke-width="0.256"/>
              <path id="Trazado_903168" data-name="Trazado 903168" d="M259.064,81.94a7.8,7.8,0,0,0,4.045.438" transform="translate(-91.844 -29.05)" fill="none" stroke="#473c3b" stroke-linecap="round" stroke-miterlimit="10" stroke-width="0.256"/>
              <path id="Trazado_903169" data-name="Trazado 903169" d="M250.607,81.174a1.281,1.281,0,0,0-.966-.713,2.841,2.841,0,0,0-.8.025c-.333.041-.667.083-1,.146a.841.841,0,0,0-.386.147c-.233.19-.072.55.034.769a1.151,1.151,0,0,0,.631.578,2.029,2.029,0,0,0,.789.078c.357-.016.713-.052,1.069-.087a1.227,1.227,0,0,0,.463-.108.619.619,0,0,0,.165-.835" transform="translate(-87.686 -28.518)" fill="#473c3b"/>
              <path id="Trazado_903170" data-name="Trazado 903170" d="M243.916,81.971a2.4,2.4,0,0,0-.173,1.153c.019.392.079.783.068,1.176a3.254,3.254,0,0,1-.518,1.663,1.465,1.465,0,0,0-.359.824.877.877,0,0,0,.651.7,1.984,1.984,0,0,0,1.88-.477,4.012,4.012,0,0,0,1.043-1.717c.224-.639.37-1.3.61-1.937a1.548,1.548,0,0,0,.653.437.531.531,0,0,0,.647-.308.538.538,0,0,0-.085-.413c-.214-.341-.636-.494-.9-.8a7.222,7.222,0,0,1-.405-.665,1.568,1.568,0,0,0-1.078-.667,1.817,1.817,0,0,0-1.167.314c-.366.2-.678.314-.87.719" transform="translate(-86.126 -28.69)" fill="#473c3b"/>
              <path id="Trazado_903171" data-name="Trazado 903171" d="M249.171,81.654a.625.625,0,0,1,.389-.307,1.081,1.081,0,0,1,.833.111,1.808,1.808,0,0,1,.61.6c.1.157.189.37.079.522a.461.461,0,0,1-.29.151,1.666,1.666,0,0,1-1.208-.1c-.274-.209-.584-.614-.412-.971" transform="translate(-88.32 -28.825)" fill="#fe9685"/>
              <path id="Trazado_903172" data-name="Trazado 903172" d="M250.238,82.408a.22.22,0,0,1-.141-.3.321.321,0,0,1,.3-.178.625.625,0,0,1,.345.132.949.949,0,0,1,.348.438" transform="translate(-88.66 -29.047)" fill="none" stroke="#473c3b" stroke-linecap="round" stroke-miterlimit="10" stroke-width="0.256"/>
              <path id="Trazado_903173" data-name="Trazado 903173" d="M255.054,85.707a5.928,5.928,0,0,0,.591-2" transform="translate(-90.423 -29.678)" fill="none" stroke="#473c3b" stroke-linecap="round" stroke-miterlimit="10" stroke-width="0.256"/>
              <path id="Trazado_903174" data-name="Trazado 903174" d="M255.194,82.181l.464-.205" transform="translate(-90.472 -29.062)" fill="none" stroke="#473c3b" stroke-linecap="round" stroke-miterlimit="10" stroke-width="0.256"/>
              <path id="Trazado_903175" data-name="Trazado 903175" d="M214.4,104.047H317.111v-70.5H214.4ZM313.581,99.5h-95.65v-61.4h95.65Z" transform="translate(-76.01 -11.893)" fill="#473c3b"/>
              <path id="Trazado_903176" data-name="Trazado 903176" d="M233.375,47.844a4.091,4.091,0,1,1-4.092-4.092,4.092,4.092,0,0,1,4.092,4.092" transform="translate(-79.836 -15.511)" fill="#fe3f1f"/>
              <g id="Grupo_1108403" data-name="Grupo 1108403" transform="translate(206.347 35.472)" opacity="0.54">
                <g id="Grupo_1108402" data-name="Grupo 1108402">
                  <g id="Grupo_1108401" data-name="Grupo 1108401" clip-path="url(#clip-path-4)">
                    <rect id="Rectángulo_404641" data-name="Rectángulo 404641" width="25.087" height="2.342" transform="translate(-0.001 -0.001)" fill="#b5b1b1"/>
                  </g>
                </g>
              </g>
              <g id="Grupo_1108406" data-name="Grupo 1108406" transform="translate(206.347 45.517)" opacity="0.54">
                <g id="Grupo_1108405" data-name="Grupo 1108405">
                  <g id="Grupo_1108404" data-name="Grupo 1108404" clip-path="url(#clip-path-4)">
                    <rect id="Rectángulo_404643" data-name="Rectángulo 404643" width="25.087" height="2.342" transform="translate(-0.001 -0.001)" fill="#b5b1b1"/>
                  </g>
                </g>
              </g>
              <g id="Grupo_1108409" data-name="Grupo 1108409" transform="translate(214.206 51.292)" opacity="0.54">
                <g id="Grupo_1108408" data-name="Grupo 1108408">
                  <g id="Grupo_1108407" data-name="Grupo 1108407" clip-path="url(#clip-path-6)">
                    <rect id="Rectángulo_404645" data-name="Rectángulo 404645" width="17.227" height="2.342" fill="#918a89"/>
                  </g>
                </g>
              </g>
              <g id="Grupo_1108412" data-name="Grupo 1108412" transform="translate(200.263 40.595)" opacity="0.54">
                <g id="Grupo_1108411" data-name="Grupo 1108411">
                  <g id="Grupo_1108410" data-name="Grupo 1108410" clip-path="url(#clip-path-7)">
                    <rect id="Rectángulo_404647" data-name="Rectángulo 404647" width="31.17" height="2.342" transform="translate(0)" fill="#918a89"/>
                  </g>
                </g>
              </g>
              <g id="Grupo_1108415" data-name="Grupo 1108415" transform="translate(206.347 56.444)" opacity="0.54">
                <g id="Grupo_1108414" data-name="Grupo 1108414">
                  <g id="Grupo_1108413" data-name="Grupo 1108413" clip-path="url(#clip-path-8)">
                    <rect id="Rectángulo_404649" data-name="Rectángulo 404649" width="25.087" height="2.342" transform="translate(-0.001)" fill="#b5b1b1"/>
                  </g>
                </g>
              </g>
              <g id="Grupo_1108418" data-name="Grupo 1108418" transform="translate(206.347 66.491)" opacity="0.54">
                <g id="Grupo_1108417" data-name="Grupo 1108417">
                  <g id="Grupo_1108416" data-name="Grupo 1108416" clip-path="url(#clip-path-4)">
                    <rect id="Rectángulo_404651" data-name="Rectángulo 404651" width="25.087" height="2.342" transform="translate(-0.001 -0.001)" fill="#b5b1b1"/>
                  </g>
                </g>
              </g>
              <g id="Grupo_1108421" data-name="Grupo 1108421" transform="translate(214.206 72.265)" opacity="0.54">
                <g id="Grupo_1108420" data-name="Grupo 1108420">
                  <g id="Grupo_1108419" data-name="Grupo 1108419" clip-path="url(#clip-path-6)">
                    <rect id="Rectángulo_404653" data-name="Rectángulo 404653" width="17.227" height="2.342" transform="translate(0 0)" fill="#918a89"/>
                  </g>
                </g>
              </g>
              <g id="Grupo_1108424" data-name="Grupo 1108424" transform="translate(200.263 61.568)" opacity="0.54">
                <g id="Grupo_1108423" data-name="Grupo 1108423">
                  <g id="Grupo_1108422" data-name="Grupo 1108422" clip-path="url(#clip-path-7)">
                    <rect id="Rectángulo_404655" data-name="Rectángulo 404655" width="31.17" height="2.342" transform="translate(0)" fill="#918a89"/>
                  </g>
                </g>
              </g>
              <path id="Trazado_903177" data-name="Trazado 903177" d="M221.272,148.72a18.281,18.281,0,0,1,5.9-.058,60.877,60.877,0,0,0,1.909-7.391c-.02.111-2.876-.134-3.186-.056-.718.181-.91.53-1.275,1.153-1.2,2.06-2.236,4.241-3.349,6.351" transform="translate(-78.446 -50.059)" fill="#473c3b"/>
              <path id="Trazado_903178" data-name="Trazado 903178" d="M360.307,148.72a18.281,18.281,0,0,0-5.9-.058,60.882,60.882,0,0,1-1.909-7.391c.02.111,2.876-.134,3.186-.056.718.181.91.53,1.275,1.153,1.2,2.06,2.236,4.241,3.349,6.351" transform="translate(-124.968 -50.059)" fill="#473c3b"/>
              <rect id="Rectángulo_404657" data-name="Rectángulo 404657" width="141.41" height="10.58" transform="translate(114.258 97.59)" fill="#797fff"/>
              <rect id="Rectángulo_404658" data-name="Rectángulo 404658" width="141.41" height="10.58" transform="translate(114.258 142.936)" fill="#797fff"/>
              <rect id="Rectángulo_404659" data-name="Rectángulo 404659" width="13.773" height="102.613" transform="translate(126.386 100.851)" fill="#797fff"/>
              <rect id="Rectángulo_404660" data-name="Rectángulo 404660" width="13.773" height="102.613" transform="translate(231.033 100.851)" fill="#797fff"/>
              <path id="Trazado_903179" data-name="Trazado 903179" d="M40.125,391.431,9.137,421.624H239.409l-16.3-30.193Z" transform="translate(-3.239 -138.771)" fill="#797fff"/>
              <path id="Trazado_903180" data-name="Trazado 903180" d="M75.1,413.845c8.182-.08,16.194,2.193,24.338,2.989,18.968,1.853,37.872-4.336,56.927-3.979,20.844.391,41.718,8.583,62.1,4.18a18.068,18.068,0,0,0,7.977-3.406c2.233-1.883,3.678-4.939,2.947-7.768-.928-3.586-4.976-5.581-8.68-5.574s-7.215,1.5-10.745,2.622c-19.06,6.053-39.6,1.4-59.463-.957-31.391-3.726-63.978-2.283-95.377.849-6.072.605-9.346,5.03-12.2,10.146,8.447,6.15,22.71.99,32.184.9" transform="translate(-15.216 -141.716)" fill="#5b5fbf"/>
              <path id="Trazado_903181" data-name="Trazado 903181" d="M95.393,313.065q-1.195,2.345-2.353,4.69a8.327,8.327,0,0,0-1.212,4.269c.234,2.7,3.148,3.668,5.481,3.673,3.032.006,5.2-3.532,7.2-5.56a212.675,212.675,0,0,0,15.623-17.217,101.653,101.653,0,0,0,9.92-14.837c2.655-4.919,4.228-10.143,6.457-15.22,7.807-17.785,22.973-31.557,30.734-49.362a33.409,33.409,0,0,0,2-17.759c-.784-5.208-3.14-10.321-7.22-13.652-2.827-2.308-6.3-3.648-9.709-4.951a2.758,2.758,0,0,0-2.173-.195c-.82.412-1,1.482-1.092,2.4A96.7,96.7,0,0,1,143.6,212.97c-1.377,3.741-3.362,6.869-5.21,10.38-1.9,3.615-3.628,7.319-5.476,10.962q-5.278,10.408-10.543,20.823c-1.8,3.566-4.05,7.156-5.458,10.9-.888,2.359-.995,4.842-1.938,7.193-5.454,13.583-12.891,26.713-19.581,39.841" transform="translate(-32.549 -66.219)" fill="#473c3b"/>
              <path id="Trazado_903182" data-name="Trazado 903182" d="M138.317,315.269a12.993,12.993,0,0,0,7.26-13.358" transform="translate(-49.037 -107.035)" fill="none" stroke="#fff" stroke-linecap="round" stroke-miterlimit="10" stroke-width="1"/>
              <path id="Trazado_903183" data-name="Trazado 903183" d="M57.281,401.175a14.756,14.756,0,0,0-4.666,1.7,4.265,4.265,0,0,0-2.055,4.22c.4,1.8,2.37,2.863,4.21,2.937a17.718,17.718,0,0,0,5.387-1.088,30.014,30.014,0,0,1,16.162.026c2.361.669,5.135,1.559,7.064.043a6.347,6.347,0,0,0,1.885-3.532,34.82,34.82,0,0,0,1.047-6.432,13.7,13.7,0,0,0-.416-5.068,6.251,6.251,0,0,0-3.138-3.853c-3.855-1.787-8.624,3.627-11.7,5.409a54.5,54.5,0,0,1-13.782,5.642" transform="translate(-17.898 -138.181)" fill="#fe9685"/>
              <path id="Trazado_903184" data-name="Trazado 903184" d="M50.694,414.426a5.48,5.48,0,0,1,2.645-2.887,16.271,16.271,0,0,1,3.771-1.32" transform="translate(-17.972 -145.432)" fill="none" stroke="#473c3b" stroke-linecap="round" stroke-miterlimit="10" stroke-width="1"/>
              <path id="Trazado_903185" data-name="Trazado 903185" d="M53.241,409.8a7.174,7.174,0,0,1,3.072-.937,2.126,2.126,0,0,0,1.373-.374" transform="translate(-18.875 -144.82)" fill="none" stroke="#473c3b" stroke-linecap="round" stroke-miterlimit="10" stroke-width="1"/>
              <path id="Trazado_903186" data-name="Trazado 903186" d="M89.295,399.46a4.8,4.8,0,0,0,6.265-1.835" transform="translate(-31.657 -140.967)" fill="none" stroke="#473c3b" stroke-linecap="round" stroke-miterlimit="10" stroke-width="1"/>
              <path id="Trazado_903187" data-name="Trazado 903187" d="M176.74,211.93a42.388,42.388,0,0,0,4.38,8.555c20.158,32.78,49.706,59.31,67.5,93.53q.4.773.793,1.548c1.292,2.559,4.151,11.087,8.158,9.7a4.415,4.415,0,0,0,2.615-3.214,12.075,12.075,0,0,0,.023-4.3c-2.346-19.337-10.426-36.737-20.277-53.278-5.905-9.915-12.953-19.151-18.243-29.406-5.2-10.087-7.557-22.261-13.9-31.592a38.445,38.445,0,0,0-25.969-16.542,5.287,5.287,0,0,0-3.671.441c-1.336.889-1.654,2.683-1.854,4.275-.913,7.289-1.926,13.23.442,20.285" transform="translate(-62.141 -66.228)" fill="#5f504e"/>
              <path id="Trazado_903188" data-name="Trazado 903188" d="M238.252,296.135a10.288,10.288,0,0,1,6.787,9.121" transform="translate(-84.466 -104.987)" fill="none" stroke="#fff" stroke-linecap="round" stroke-miterlimit="10" stroke-width="1"/>
              <path id="Trazado_903189" data-name="Trazado 903189" d="M291.867,405.312l-.046.514a3.257,3.257,0,0,0,.207,1.885,2.926,2.926,0,0,0,1.807,1.177c3.382,1.03,6.656.179,10.081.094,1.138-.028,2.441-.125,3.114-.9a2.71,2.71,0,0,0,.523-1.649c.4-5.205-.418-10.444-3.542-14.747a8.738,8.738,0,0,0-5.019-3.577,5.325,5.325,0,0,0-5.558,2.043,4.3,4.3,0,0,0-.672,2.829,20.955,20.955,0,0,1-.132,3.832q-.382,4.248-.764,8.5" transform="translate(-103.442 -137.549)" fill="#fe9685"/>
              <path id="Trazado_903190" data-name="Trazado 903190" d="M296.763,413.163a5.4,5.4,0,0,1,1.379,4.5" transform="translate(-105.209 -146.476)" fill="none" stroke="#473c3b" stroke-linecap="round" stroke-miterlimit="10" stroke-width="0.844"/>
              <path id="Trazado_903191" data-name="Trazado 903191" d="M303.607,413.7a40.466,40.466,0,0,1,.291,4.607" transform="translate(-107.636 -146.667)" fill="none" stroke="#473c3b" stroke-linecap="round" stroke-miterlimit="10" stroke-width="0.844"/>
              <path id="Trazado_903192" data-name="Trazado 903192" d="M307.627,414.141a24.251,24.251,0,0,1,.8,4.288" transform="translate(-109.061 -146.823)" fill="none" stroke="#473c3b" stroke-linecap="round" stroke-miterlimit="10" stroke-width="0.844"/>
              <path id="Trazado_903193" data-name="Trazado 903193" d="M312.007,413.535a24.333,24.333,0,0,1,.377,4.644" transform="translate(-110.614 -146.608)" fill="none" stroke="#473c3b" stroke-linecap="round" stroke-miterlimit="10" stroke-width="0.844"/>
              <path id="Trazado_903194" data-name="Trazado 903194" d="M294.048,395.441a5.168,5.168,0,0,1-.325,3.32" transform="translate(-104.132 -140.193)" fill="none" stroke="#473c3b" stroke-linecap="round" stroke-miterlimit="10" stroke-width="0.844"/>
              <path id="Trazado_903195" data-name="Trazado 903195" d="M102.732,46.778a4,4,0,0,1,.022-1.616,1.736,1.736,0,0,1,1-1.2,2.49,2.49,0,0,1,2.221.649,15.005,15.005,0,0,1,3.333,3.429,8.335,8.335,0,0,1,1.519,3.428,4.452,4.452,0,0,1-.877,3.559c-.564.661-1.857,1.43-2.772,1.091-.758-.281-1.249-1.65-1.638-2.306a19.511,19.511,0,0,1-2.811-7.031" transform="translate(-36.395 -15.554)" fill="#fe9685"/>
              <path id="Trazado_903196" data-name="Trazado 903196" d="M113.638,38.018c.454-1.536,1.09-3.276,2.594-3.826a3.98,3.98,0,0,1,3.51.751,7.244,7.244,0,0,1,3.018,3.883,14.144,14.144,0,0,1,.041,5.592,39.835,39.835,0,0,1-1.938,6.544,3.115,3.115,0,0,1-1.064,1.681,2.8,2.8,0,0,1-1.637.3,13.992,13.992,0,0,1-3.774-.694,5.308,5.308,0,0,1-2.615-2.015c-1.488-1.829-.786-3.236-.191-5.252q1.028-3.481,2.056-6.961" transform="translate(-39.311 -12.064)" fill="#fe9685"/>
              <path id="Trazado_903197" data-name="Trazado 903197" d="M119.509,34.26a15.924,15.924,0,0,1-.8,7.114" transform="translate(-42.084 -12.146)" fill="none" stroke="#473c3b" stroke-linecap="round" stroke-miterlimit="10" stroke-width="1"/>
              <path id="Trazado_903198" data-name="Trazado 903198" d="M123.921,35.982a49.368,49.368,0,0,1-1.406,7.329" transform="translate(-43.434 -12.756)" fill="none" stroke="#473c3b" stroke-linecap="round" stroke-miterlimit="10" stroke-width="1"/>
              <path id="Trazado_903199" data-name="Trazado 903199" d="M127.739,40.69a15.788,15.788,0,0,1-1.762,6.759" transform="translate(-44.662 -14.426)" fill="none" stroke="#473c3b" stroke-linecap="round" stroke-miterlimit="10" stroke-width="1"/>
              <path id="Trazado_903200" data-name="Trazado 903200" d="M84.339,137.247c3.532-12.534,6.612-25.284,9.31-38.131s5-25.807,6.823-38.833l10.368.777c-.172,13.427-.845,26.844-1.92,40.252s-2.572,26.805-4.576,40.216Z" transform="translate(-29.9 -21.372)" fill="#fe9685"/>
              <path id="Trazado_903201" data-name="Trazado 903201" d="M114,115.805a5.417,5.417,0,0,1-1.442,8.405" transform="translate(-39.905 -41.056)" fill="none" stroke="#473c3b" stroke-linecap="round" stroke-miterlimit="10" stroke-width="1"/>
              <path id="Trazado_903202" data-name="Trazado 903202" d="M74.552,189.423a2.661,2.661,0,0,1,1.6.043c.8.374,1.01,1.391,1.091,2.266a36.384,36.384,0,0,1-1.489,14.217c-4.437-1.993-9.963.208-14.326-1.944a7.3,7.3,0,0,1-4.087-6.6,6.367,6.367,0,0,1,3.477-5.348,13.645,13.645,0,0,1,3.618-.8l4.758-.862,5.354-.969" transform="translate(-20.328 -67.118)" fill="#fe9685"/>
              <path id="Trazado_903203" data-name="Trazado 903203" d="M64.108,197.844a19.444,19.444,0,0,1,7.7,3.476,11.082,11.082,0,0,1,2.805,3.356,8.038,8.038,0,0,1,.8,2.02c.048.219.087,1.855.086,1.854a8.533,8.533,0,0,0-4.058-.353,2.885,2.885,0,0,1-1.4.026c-.92-.326-.769-2.438-1.089-3.269a18.92,18.92,0,0,0-2-3.836,18.712,18.712,0,0,0-1.364-1.773c-.229-.262-1.122-1.5-1.465-1.5" transform="translate(-22.728 -70.14)" fill="#fe6685"/>
              <path id="Trazado_903204" data-name="Trazado 903204" d="M54.9,229.135a8.348,8.348,0,0,1,3.1,1.307c.451.4.774.922,1.205,1.342a1.765,1.765,0,0,0,1.622.579,1.441,1.441,0,0,0,.929-.98,2.821,2.821,0,0,0,.014-1.394,5.918,5.918,0,0,0-2.981-3.945c-1.519-.819-4.149-1.241-5.674-.188-1.82,1.256.6,2.892,1.786,3.278" transform="translate(-18.598 -79.849)" fill="#fe6685"/>
              <path id="Trazado_903205" data-name="Trazado 903205" d="M34.358,210.036a16.325,16.325,0,0,0,9.489,5.827,23.177,23.177,0,0,0,11.242-.533,9.344,9.344,0,0,0,3.385-1.561,7.122,7.122,0,0,0,2.378-4.452,15.662,15.662,0,0,0-.21-5.134,16.664,16.664,0,0,0-2.631-7.059,13.294,13.294,0,0,0-8.375-4.9,26.967,26.967,0,0,0-9.876.329c-3.641.684-6.477,2.739-7.588,6.338a12.592,12.592,0,0,0,2.188,11.145" transform="translate(-11.23 -68.034)" fill="#fe9685"/>
              <path id="Trazado_903206" data-name="Trazado 903206" d="M5.425,193.554a5.468,5.468,0,0,1-4.966-2.747c-.939-1.917-.3-4.241.709-6.119A9.464,9.464,0,0,1,5.349,180.4a5.15,5.15,0,0,1,5.679.766,9.437,9.437,0,0,1,9.363-13.606,9.636,9.636,0,0,1,7.745,5.65,6.446,6.446,0,0,1,2.6-5.082,11.777,11.777,0,0,1,5.448-2.158,7.24,7.24,0,0,1,4.347.357,5.626,5.626,0,0,1,2.84,4.316,11.97,11.97,0,0,1-.69,5.286c1.266-1.075,3.429-.332,4.17,1.155a4.88,4.88,0,0,1-.592,4.722A10.883,10.883,0,0,1,39.7,185.98a69.438,69.438,0,0,1-7.877,1.113,40.277,40.277,0,0,0-15,5.212,7.137,7.137,0,0,1-3.353,1.329c-1.525.028-1.966-1.732-3.065-1.578A19.16,19.16,0,0,0,8,193.119a8.668,8.668,0,0,1-2.574.434" transform="translate(0 -58.781)" fill="#473c3b"/>
              <path id="Trazado_903207" data-name="Trazado 903207" d="M4.063,203.748c2.093-5.219,5.813-8.379,9.829-12.047a56.863,56.863,0,0,1,14-9.393,13.351,13.351,0,0,1,5.134-1.538,5.359,5.359,0,0,1,4.7,2.127c1.2,1.826.7,4.365-.6,6.12,1.4.816,4.418,2.712,3.788,4.724a2.6,2.6,0,0,1-1.794,1.481,7.291,7.291,0,0,1-5.82-.579,3.311,3.311,0,0,1,.549,4.076,4.445,4.445,0,0,1-3.755,2.035,6.871,6.871,0,0,1-4.13-1.475c3.92,6.186,7.324,13.146,6.975,20.461-.081,1.7-.6,3.7-2.2,4.287a4.127,4.127,0,0,1-3.41-.656,12.232,12.232,0,0,1-4.179-4.1,4.267,4.267,0,0,1-1.075,5.661,5.368,5.368,0,0,1-6-.029,7.3,7.3,0,0,1-3.025-5.389,11.594,11.594,0,0,1,1.312-6.168,16.793,16.793,0,0,1-3.5,2.428,6.118,6.118,0,0,1-4.145.534,6.066,6.066,0,0,1-4.034-4.993,14.086,14.086,0,0,1,.9-6.657c.569-1.706,1.434-3.568,3.138-4.142" transform="translate(-0.912 -64.086)" fill="#473c3b"/>
              <path id="Trazado_903208" data-name="Trazado 903208" d="M54.045,221.261a2.485,2.485,0,0,0,1.971-.98,1.9,1.9,0,0,0,.056-2.14c-.41-.578-1.135-.831-1.669-1.3" transform="translate(-19.16 -76.876)" fill="none" stroke="#473c3b" stroke-linecap="round" stroke-miterlimit="10" stroke-width="1"/>
              <path id="Trazado_903209" data-name="Trazado 903209" d="M48.652,219.944a3.779,3.779,0,0,1,1.607-5.985" transform="translate(-16.936 -75.853)" fill="none" stroke="#473c3b" stroke-linecap="round" stroke-miterlimit="10" stroke-width="1"/>
              <path id="Trazado_903210" data-name="Trazado 903210" d="M60.18,213.3a2.08,2.08,0,0,0,1.015,1.317,2.177,2.177,0,1,0,1.405-4.053A2.207,2.207,0,0,0,60.18,213.3" transform="translate(-21.313 -74.639)" fill="#fe6685"/>
              <path id="Trazado_903211" data-name="Trazado 903211" d="M65.594,225.417a4.662,4.662,0,0,0-2.4-5.669" transform="translate(-22.402 -77.906)" fill="none" stroke="#473c3b" stroke-linecap="round" stroke-miterlimit="10" stroke-width="1"/>
              <path id="Trazado_903212" data-name="Trazado 903212" d="M50.2,186.312a3.436,3.436,0,0,1,2.133-1.687,5.934,5.934,0,0,1,4.565.611,9.925,9.925,0,0,1,3.347,3.283c.567.858,1.036,2.027.434,2.861a2.54,2.54,0,0,1-1.589.832c-1.874.407-4.991.679-6.628-.57-1.507-1.15-3.2-3.372-2.262-5.33" transform="translate(-17.703 -65.376)" fill="#fe9685"/>
              <path id="Trazado_903213" data-name="Trazado 903213" d="M56.056,190.448a1.209,1.209,0,0,1-.773-1.621,1.772,1.772,0,0,1,1.672-.98,3.436,3.436,0,0,1,1.891.727,5.2,5.2,0,0,1,1.911,2.4" transform="translate(-19.568 -66.596)" fill="none" stroke="#473c3b" stroke-linecap="round" stroke-miterlimit="10" stroke-width="1"/>
              <path id="Trazado_903214" data-name="Trazado 903214" d="M139.475,180.978c-7.965-1.09-15.974-2.062-23.8-3.81-8.4-1.876-16.851-5.125-25.6-4.058a11.748,11.748,0,0,0-4.787,1.464c-3.62,2.233-3.04,7-2.6,10.676.407,3.406,1.074,6.876.365,10.233-.769,3.644-3.137,7.229-2.09,10.8.7,2.376,2.77,4.079,4.891,5.357,4.821,2.906,9.769,2.164,15.09,1.3a129.962,129.962,0,0,1,20.172-1.669c2.8-.013,5.558-.215,8.15.874,2.615,1.1,5.4,1.669,7.983,2.9a3.618,3.618,0,0,0,2.79.518,3.249,3.249,0,0,0,1.446-1.552,45.756,45.756,0,0,0,4.62-13.176c.492-2.334.914-4.691,1.263-7.052a35.815,35.815,0,0,0,.56-6.413c-.07-1.869-.607-3.9-2.146-4.963a7.607,7.607,0,0,0-3.322-1.012q-1.493-.213-2.989-.417" transform="translate(-28.611 -61.297)" fill="#fe3f1f"/>
              <path id="Trazado_903215" data-name="Trazado 903215" d="M56.36,360.959c-.656.514-1.377,1.164-1.333,2a1.736,1.736,0,0,0,1.427,1.467,4.083,4.083,0,0,0,2.156-.269A13.617,13.617,0,0,0,63.5,361.2a5.414,5.414,0,0,0,1.647-2.442,2.5,2.5,0,0,0-.816-2.678c-1.345-.931-2.349.4-3.247,1.177-1.514,1.3-3.156,2.475-4.727,3.707" transform="translate(-19.508 -126.124)" fill="#fe9685"/>
              <path id="Trazado_903216" data-name="Trazado 903216" d="M73.435,357.8a1.346,1.346,0,0,1,1.178.062,1.315,1.315,0,0,1,.338,1.044,29.147,29.147,0,0,1-2.683,12.611,6.876,6.876,0,0,1-2.582,3.289,6.2,6.2,0,0,1-5.022.025,3.784,3.784,0,0,1-2.477-1.935c-.4-1.068.094-2.24.523-3.3a29.682,29.682,0,0,0,1.543-5.063c.252-1.2.181-2.793.846-3.87.574-.929,1.716-1.135,2.7-1.392q2.818-.74,5.638-1.472" transform="translate(-21.994 -126.811)" fill="#fe9685"/>
              <path id="Trazado_903217" data-name="Trazado 903217" d="M63.577,379.57a15.652,15.652,0,0,0,3.144-5.721" transform="translate(-22.54 -132.538)" fill="none" stroke="#473c3b" stroke-linecap="round" stroke-miterlimit="10" stroke-width="1"/>
              <path id="Trazado_903218" data-name="Trazado 903218" d="M66.891,381.583a8.734,8.734,0,0,0,2.7-5.4" transform="translate(-23.714 -133.367)" fill="none" stroke="#473c3b" stroke-linecap="round" stroke-miterlimit="10" stroke-width="1"/>
              <path id="Trazado_903219" data-name="Trazado 903219" d="M74.409,376.619a8.358,8.358,0,0,1-1.9,5.246" transform="translate(-25.705 -133.52)" fill="none" stroke="#473c3b" stroke-linecap="round" stroke-miterlimit="10" stroke-width="1"/>
              <path id="Trazado_903220" data-name="Trazado 903220" d="M95.366,225.1c-5.995,30.3-12.361,56.227-20.085,86.018L65.957,309.3c3.957-30.334,7.346-60.728,9.519-91.132A12.108,12.108,0,0,1,88.9,213.326c5.287,1.746,7.458,6.724,6.464,11.772" transform="translate(-23.383 -75.439)" fill="#fe9685"/>
              <path id="Trazado_903221" data-name="Trazado 903221" d="M89.125,280.225a13.169,13.169,0,0,0-1.9,10.187" transform="translate(-30.811 -99.346)" fill="none" stroke="#473c3b" stroke-linecap="round" stroke-miterlimit="10" stroke-width="1"/>
              <path id="Trazado_903222" data-name="Trazado 903222" d="M101.259,198.089a24.619,24.619,0,0,1,8.433,1.31,14.31,14.31,0,0,1,4.891,3.182" transform="translate(-35.899 -70.227)" fill="none" stroke="#fff" stroke-linecap="round" stroke-miterlimit="10" stroke-width="1"/>
              <path id="Trazado_903223" data-name="Trazado 903223" d="M104.465,187.883a42.775,42.775,0,0,0,22.185,2.4" transform="translate(-37.035 -66.609)" fill="none" stroke="#fff" stroke-linecap="round" stroke-miterlimit="10" stroke-width="1"/>
              <path id="Trazado_903224" data-name="Trazado 903224" d="M359.517,235.258c.828,4.66,3.459,8.789,6.282,12.589s5.924,7.458,7.935,11.742c3.806,8.112,3.305,17.472,3.485,26.432s1.457,18.663,7.743,25.049c3.378,3.431,8.868,5.554,13.037,3.145,3.149-1.819,4.558-5.6,5.313-9.154a47.561,47.561,0,0,0-7.349-36.5c-5.072-7.312-12.262-13.261-15.738-21.452-2.084-4.911-2.688-10.33-4.575-15.32-1.459-3.861-5.625-11.2-10.758-9.854-4.937,1.291-6.1,9.237-5.374,13.325" transform="translate(-127.387 -78.623)" fill="#9ebf51"/>
              <path id="Trazado_903225" data-name="Trazado 903225" d="M375.582,244.777a228.209,228.209,0,0,1,26.25,94.65" transform="translate(-133.153 -86.779)" fill="none" stroke="#473c3b" stroke-linecap="round" stroke-miterlimit="10" stroke-width="1"/>
              <path id="Trazado_903226" data-name="Trazado 903226" d="M405.185,238.718c-1.093,12.013-6.119,24.04-3.342,35.779,1.135,4.793,3.752,9.455,8.011,11.929s10.287,2.171,13.558-1.511c3.034-3.417,3.024-8.483,2.845-13.049q-1.5-38.249-3-76.5c-.166-4.214-.978-9.367-4.942-10.8-9.548-3.46-14.457,11.3-14.633,17.713-.333,12.179,2.616,24.256,1.507,36.442" transform="translate(-142.17 -65.248)" fill="#d2ff6c"/>
              <path id="Trazado_903227" data-name="Trazado 903227" d="M416.367,322.75A476.176,476.176,0,0,0,421.3,208.792" transform="translate(-147.612 -74.022)" fill="none" stroke="#473c3b" stroke-linecap="round" stroke-miterlimit="10" stroke-width="1"/>
              <path id="Trazado_903228" data-name="Trazado 903228" d="M422.718,383.442a53.688,53.688,0,0,1,.353,11.238,18.023,18.023,0,0,1-4.2,10.253,10.949,10.949,0,0,1-10.129,3.613c-3.682-.816-6.47-3.861-8.38-7.112a30.255,30.255,0,0,1-3.6-20.764c8.485.464,17.463,2.308,25.948,2.772" transform="translate(-140.481 -134.956)" fill="#fe3f1f"/>
            </g>
          </g>
        </g>
      </g>
    </g>
  </g>
</svg>
