<svg id="exercise_2933531" xmlns="http://www.w3.org/2000/svg" width="78.959" height="78.959" viewBox="0 0 78.959 78.959">
  <g id="Grupo_1107827" data-name="Grupo 1107827" transform="translate(0 0)">
    <path id="Trazado_897932" data-name="Trazado 897932" d="M126.58,254.06l2.632-11.844L120,214.58,137.108,208h10.528l14.476,6.58-6.58,27.636,2.632,11.844Z" transform="translate(-102.892 -176.416)" fill="#c85aed"/>
    <path id="Trazado_897933" data-name="Trazado 897933" d="M0,0H2.82V2.632H0Z" transform="translate(29.785 31.86) rotate(-21.046)"/>
    <path id="Trazado_897934" data-name="Trazado 897934" d="M159.9,427.71h-6.58a1.316,1.316,0,0,1-1.285-1.6l2.632-11.844,2.569.571-2.276,10.242H159.9Z" transform="translate(-129.628 -348.75)"/>
    <path id="Trazado_897935" data-name="Trazado 897935" d="M238.372,427.71H216v-2.632h20.731l-2.276-10.242,2.569-.571,2.632,11.844a1.316,1.316,0,0,1-1.285,1.6Z" transform="translate(-183.1 -348.75)"/>
    <path id="Trazado_897936" data-name="Trazado 897936" d="M0,0H2.632V2.891H0Z" transform="matrix(0.414, -0.91, 0.91, 0.414, 45.512, 33.404)"/>
    <g id="Grupo_1107826" data-name="Grupo 1107826" transform="translate(30.268 10.528)">
      <path id="Trazado_897937" data-name="Trazado 897937" d="M229.16,182.58l-6.58,6.58L216,182.58l1.316-6.58h10.528Z" transform="translate(-213.368 -160.208)" fill="#ffd4cf"/>
      <path id="Trazado_897938" data-name="Trazado 897938" d="M230.907,176H220.38l-.713,3.564,3.039,1.737a5.923,5.923,0,0,0,5.876,0l3.039-1.736Z" transform="translate(-216.432 -160.208)" fill="#fbb8b0"/>
      <path id="Trazado_897939" data-name="Trazado 897939" d="M218.424,80H200V92.567a3.29,3.29,0,0,0,1.658,2.857l5.922,3.384a3.29,3.29,0,0,0,3.265,0l5.922-3.384a3.29,3.29,0,0,0,1.658-2.857Z" transform="translate(-200 -80)" fill="#ffd4cf"/>
    </g>
    <rect id="Rectángulo_402626" data-name="Rectángulo 402626" width="6.909" height="13.818" rx="3.454" transform="translate(1.481 31.419)" fill="#fed672"/>
    <path id="Trazado_897940" data-name="Trazado 897940" d="M22.251,215.792h-3.29A2.964,2.964,0,0,1,16,212.831v-9.87A2.964,2.964,0,0,1,18.961,200h3.29a2.964,2.964,0,0,1,2.961,2.961v9.87a2.964,2.964,0,0,1-2.961,2.961Zm-3.29-13.16a.329.329,0,0,0-.329.329v9.87a.329.329,0,0,0,.329.329h3.29a.329.329,0,0,0,.329-.329v-9.87a.329.329,0,0,0-.329-.329Z" transform="translate(-16 -169.732)"/>
    <rect id="Rectángulo_402627" data-name="Rectángulo 402627" width="6.909" height="13.818" rx="3.454" transform="translate(23.359 31.419)" fill="#fed672"/>
    <path id="Trazado_897941" data-name="Trazado 897941" d="M158.251,215.792h-3.29A2.964,2.964,0,0,1,152,212.831v-9.87A2.964,2.964,0,0,1,154.961,200h3.29a2.964,2.964,0,0,1,2.961,2.961v9.87a2.964,2.964,0,0,1-2.961,2.961Zm-3.29-13.16a.329.329,0,0,0-.329.329v9.87a.329.329,0,0,0,.329.329h3.29a.329.329,0,0,0,.329-.329v-9.87a.329.329,0,0,0-.329-.329Z" transform="translate(-129.628 -169.732)"/>
    <path id="Trazado_897942" data-name="Trazado 897942" d="M64,232h3.948v5.264H64Z" transform="translate(-56.104 -196.468)" fill="#fed672"/>
    <path id="Trazado_897943" data-name="Trazado 897943" d="M61.264,231.9H57.316A1.316,1.316,0,0,1,56,230.58v-5.264A1.316,1.316,0,0,1,57.316,224h3.948a1.316,1.316,0,0,1,1.316,1.316v5.264A1.316,1.316,0,0,1,61.264,231.9Zm-2.632-2.632h1.316v-2.632H58.632Z" transform="translate(-49.42 -189.784)"/>
    <path id="Trazado_897944" data-name="Trazado 897944" d="M136,232h3.948v5.264H136Z" transform="translate(-116.26 -196.468)" fill="#fed672"/>
    <path id="Trazado_897945" data-name="Trazado 897945" d="M139.948,231.9h-2.632v-2.632h1.316v-2.632H136V224h3.948a1.316,1.316,0,0,1,1.316,1.316v5.264A1.316,1.316,0,0,1,139.948,231.9Z" transform="translate(-116.26 -189.784)"/>
    <path id="Trazado_897946" data-name="Trazado 897946" d="M88,224v7.9l3.948,3.948-1.316,17.108,3.826,3.826a3.29,3.29,0,0,0,3.367.795l5.967-1.989-5.264-15.792L95.9,224Z" transform="translate(-76.156 -189.784)" fill="#ffd4cf"/>
    <path id="Trazado_897947" data-name="Trazado 897947" d="M90.09,252.376a4.58,4.58,0,0,1-3.246-1.352L83.017,247.2a1.316,1.316,0,0,1-.382-1.031l1.27-16.5-3.52-3.52a1.316,1.316,0,0,1-.385-.931v-7.9A1.316,1.316,0,0,1,81.316,216h7.9a1.316,1.316,0,0,1,1.3,1.1l2.615,15.69,5.231,15.694a1.316,1.316,0,0,1-.832,1.665l-5.967,1.989A4.638,4.638,0,0,1,90.09,252.376Zm-4.783-6.611,3.4,3.4a1.964,1.964,0,0,0,2.02.477l4.719-1.573L90.6,233.524a1.317,1.317,0,0,1-.05-.2L88.1,218.632H82.632v6.035l3.563,3.563a1.316,1.316,0,0,1,.382,1.032Z" transform="translate(-69.472 -183.1)"/>
    <rect id="Rectángulo_402628" data-name="Rectángulo 402628" width="6.909" height="13.818" rx="3.454" transform="translate(77.478 45.237) rotate(180)" fill="#fed672"/>
    <path id="Trazado_897948" data-name="Trazado 897948" d="M446.251,215.792h-3.29A2.964,2.964,0,0,1,440,212.831v-9.87A2.964,2.964,0,0,1,442.961,200h3.29a2.964,2.964,0,0,1,2.961,2.961v9.87a2.964,2.964,0,0,1-2.961,2.961Zm-3.29-13.16a.329.329,0,0,0-.329.329v9.87a.329.329,0,0,0,.329.329h3.29a.329.329,0,0,0,.329-.329v-9.87a.329.329,0,0,0-.329-.329Z" transform="translate(-370.252 -169.732)"/>
    <rect id="Rectángulo_402629" data-name="Rectángulo 402629" width="6.909" height="13.818" rx="3.454" transform="translate(55.6 45.237) rotate(180)" fill="#fed672"/>
    <path id="Trazado_897949" data-name="Trazado 897949" d="M310.251,215.792h-3.29A2.964,2.964,0,0,1,304,212.831v-9.87A2.964,2.964,0,0,1,306.961,200h3.29a2.964,2.964,0,0,1,2.961,2.961v9.87a2.964,2.964,0,0,1-2.961,2.961Zm-3.29-13.16a.329.329,0,0,0-.329.329v9.87a.329.329,0,0,0,.329.329h3.29a.329.329,0,0,0,.329-.329v-9.87a.329.329,0,0,0-.329-.329Z" transform="translate(-256.624 -169.732)"/>
    <path id="Trazado_897950" data-name="Trazado 897950" d="M424,232h3.948v5.264H424Z" transform="translate(-356.884 -196.468)" fill="#fed672"/>
    <path id="Trazado_897951" data-name="Trazado 897951" d="M421.264,231.9h-3.948A1.316,1.316,0,0,1,416,230.58v-5.264A1.316,1.316,0,0,1,417.316,224h3.948a1.316,1.316,0,0,1,1.316,1.316v5.264A1.316,1.316,0,0,1,421.264,231.9Zm-2.632-2.632h1.316v-2.632h-1.316Z" transform="translate(-350.2 -189.784)"/>
    <path id="Trazado_897952" data-name="Trazado 897952" d="M352,232h3.948v5.264H352Z" transform="translate(-296.728 -196.468)" fill="#fed672"/>
    <path id="Trazado_897953" data-name="Trazado 897953" d="M347.948,231.9h-2.632A1.316,1.316,0,0,1,344,230.58v-5.264A1.316,1.316,0,0,1,345.316,224h3.948v2.632h-2.632v2.632h1.316Z" transform="translate(-290.044 -189.784)"/>
    <path id="Trazado_897954" data-name="Trazado 897954" d="M343.792,224v7.9l-3.948,3.948,1.316,17.108-3.826,3.826a3.29,3.29,0,0,1-3.367.795L328,255.584l5.264-15.792L335.9,224Z" transform="translate(-276.676 -189.784)" fill="#ffd4cf"/>
    <path id="Trazado_897955" data-name="Trazado 897955" d="M328.332,252.376a4.632,4.632,0,0,1-1.467-.239l-5.967-1.989a1.316,1.316,0,0,1-.832-1.665L325.3,232.79l2.615-15.69a1.316,1.316,0,0,1,1.3-1.1h7.9a1.316,1.316,0,0,1,1.316,1.316v7.9a1.316,1.316,0,0,1-.385.931l-3.52,3.52.662,8.608-2.624.2-.709-9.212a1.316,1.316,0,0,1,.382-1.032l3.562-3.563v-6.035h-5.465l-2.449,14.692a1.322,1.322,0,0,1-.05.2l-4.848,14.543,4.719,1.573a1.964,1.964,0,0,0,2.02-.477l3.4-3.4-.359-4.66,2.624-.2.4,5.264a1.316,1.316,0,0,1-.382,1.031l-3.826,3.826A4.581,4.581,0,0,1,328.332,252.376Z" transform="translate(-269.99 -183.1)"/>
    <path id="Trazado_897956" data-name="Trazado 897956" d="M248,24h8.225a4.935,4.935,0,0,1,4.935,4.935V37.16h-8.225A4.935,4.935,0,0,1,248,32.225Z" transform="translate(-209.836 -22.684)" fill="#fa5d3f"/>
    <path id="Trazado_897957" data-name="Trazado 897957" d="M195.29,24h5.922v9.212h-7.567A1.645,1.645,0,0,1,192,31.567V27.29A3.29,3.29,0,0,1,195.29,24Z" transform="translate(-163.048 -22.684)" fill="#d3463d"/>
    <path id="Trazado_897958" data-name="Trazado 897958" d="M202.753,16H188.606A4.611,4.611,0,0,0,184,20.606v4.277a2.964,2.964,0,0,0,2.961,2.961h6.691a6.261,6.261,0,0,0,5.811,3.948h4.277v7.3a1.978,1.978,0,0,1-.995,1.714l-5.922,3.384a1.983,1.983,0,0,1-1.959,0l-5.922-3.384a1.978,1.978,0,0,1-.995-1.714V30.476h-2.632v8.619a4.616,4.616,0,0,0,2.321,4l1.3.742-.961,4.806a1.316,1.316,0,0,0,.36,1.189l6.58,6.58a1.316,1.316,0,0,0,1.861,0l6.58-6.58a1.316,1.316,0,0,0,.36-1.189l-.961-4.806,1.3-.742a4.616,4.616,0,0,0,2.321-4v-7.3h1.316A1.316,1.316,0,0,0,209,30.476V22.251A6.258,6.258,0,0,0,202.753,16ZM201,48.467l-5.151,5.151-5.151-5.151.651-3.255,2.215,1.266a4.625,4.625,0,0,0,4.57,0l2.215-1.266ZM186.632,24.883V20.606a1.976,1.976,0,0,1,1.974-1.974h4.606v6.58h-6.251A.329.329,0,0,1,186.632,24.883Zm19.74,4.277h-6.909a3.623,3.623,0,0,1-3.619-3.619V18.632h6.909a3.623,3.623,0,0,1,3.619,3.619Z" transform="translate(-156.364 -16)"/>
  </g>
  <path id="Trazado_897959" data-name="Trazado 897959" d="M196.266,364.62l-2.581-.516,1.247-6.237-2.521-7.564,2.5-.832,2.632,7.9a1.316,1.316,0,0,1,.042.674Z" transform="translate(-163.392 -294.615)"/>
  <path id="Trazado_897960" data-name="Trazado 897960" d="M0,0H6.58V2.632H0Z" transform="matrix(0.6, -0.8, 0.8, 0.6, 45.007, 55.799)"/>
  <path id="Trazado_897961" data-name="Trazado 897961" d="M0,0H2.632V7.087H0Z" transform="translate(43.473 66.274) rotate(-21.791)"/>
</svg>
