<svg xmlns="http://www.w3.org/2000/svg" xmlns:xlink="http://www.w3.org/1999/xlink" width="295" height="236" viewBox="0 0 295 236">
  <defs>
    <clipPath id="clip-path">
      <rect id="Rectángulo_404557" data-name="Rectángulo 404557" width="295" height="236" transform="translate(705 497)" fill="#ffeed2" opacity="0.51"/>
    </clipPath>
    <clipPath id="clip-path-2">
      <rect id="Rectángulo_404505" data-name="Rectángulo 404505" width="295" height="236" transform="translate(706.967 3093)" fill="#ffeed2" opacity="0.51"/>
    </clipPath>
    <clipPath id="clip-path-3">
      <rect id="Rectángulo_404556" data-name="Rectángulo 404556" width="312.946" height="239.806" fill="none"/>
    </clipPath>
    <clipPath id="clip-path-4">
      <rect id="Rectángulo_404555" data-name="Rectángulo 404555" width="312.945" height="239.806" fill="none"/>
    </clipPath>
    <clipPath id="clip-path-5">
      <rect id="Rectángulo_404537" data-name="Rectángulo 404537" width="203.718" height="146.643" fill="none"/>
    </clipPath>
    <clipPath id="clip-path-6">
      <rect id="Rectángulo_404527" data-name="Rectángulo 404527" width="17.98" height="20.799" fill="none"/>
    </clipPath>
    <clipPath id="clip-path-7">
      <rect id="Rectángulo_404528" data-name="Rectángulo 404528" width="10.88" height="61.491" fill="none"/>
    </clipPath>
    <clipPath id="clip-path-8">
      <rect id="Rectángulo_404529" data-name="Rectángulo 404529" width="203.718" height="10.479" fill="none"/>
    </clipPath>
    <clipPath id="clip-path-9">
      <rect id="Rectángulo_404530" data-name="Rectángulo 404530" width="115.69" height="22.573" fill="none"/>
    </clipPath>
    <clipPath id="clip-path-10">
      <rect id="Rectángulo_404531" data-name="Rectángulo 404531" width="9.499" height="38.955" fill="none"/>
    </clipPath>
    <clipPath id="clip-path-11">
      <rect id="Rectángulo_404532" data-name="Rectángulo 404532" width="13.074" height="26.68" fill="none"/>
    </clipPath>
    <clipPath id="clip-path-12">
      <rect id="Rectángulo_404533" data-name="Rectángulo 404533" width="37.797" height="19.693" fill="none"/>
    </clipPath>
    <clipPath id="clip-path-13">
      <rect id="Rectángulo_404534" data-name="Rectángulo 404534" width="75.569" height="37.233" fill="none"/>
    </clipPath>
    <clipPath id="clip-path-14">
      <rect id="Rectángulo_404535" data-name="Rectángulo 404535" width="80.845" height="32.968" fill="none"/>
    </clipPath>
    <clipPath id="clip-path-15">
      <rect id="Rectángulo_404536" data-name="Rectángulo 404536" width="27.197" height="10.234" fill="none"/>
    </clipPath>
    <clipPath id="clip-path-16">
      <rect id="Rectángulo_404538" data-name="Rectángulo 404538" width="216.999" height="35.693" fill="none"/>
    </clipPath>
    <clipPath id="clip-path-17">
      <rect id="Rectángulo_404539" data-name="Rectángulo 404539" width="122.73" height="114.195" fill="none"/>
    </clipPath>
    <clipPath id="clip-path-18">
      <rect id="Rectángulo_404540" data-name="Rectángulo 404540" width="9.935" height="19.158" fill="none"/>
    </clipPath>
    <clipPath id="clip-path-19">
      <rect id="Rectángulo_404541" data-name="Rectángulo 404541" width="10.37" height="16.064" fill="none"/>
    </clipPath>
    <clipPath id="clip-path-20">
      <rect id="Rectángulo_404542" data-name="Rectángulo 404542" width="16.128" height="15.047" fill="none"/>
    </clipPath>
    <clipPath id="clip-path-21">
      <rect id="Rectángulo_404543" data-name="Rectángulo 404543" width="104.837" height="67.217" fill="none"/>
    </clipPath>
    <clipPath id="clip-path-22">
      <rect id="Rectángulo_404544" data-name="Rectángulo 404544" width="108.857" height="44.648" fill="none"/>
    </clipPath>
    <clipPath id="clip-path-23">
      <rect id="Rectángulo_404545" data-name="Rectángulo 404545" width="40.521" height="56.478" fill="none"/>
    </clipPath>
    <clipPath id="clip-path-24">
      <rect id="Rectángulo_404546" data-name="Rectángulo 404546" width="14.974" height="6.71" fill="none"/>
    </clipPath>
    <clipPath id="clip-path-25">
      <rect id="Rectángulo_404547" data-name="Rectángulo 404547" width="46.196" height="41.434" fill="none"/>
    </clipPath>
    <clipPath id="clip-path-26">
      <rect id="Rectángulo_404548" data-name="Rectángulo 404548" width="38.418" height="28.757" fill="none"/>
    </clipPath>
    <clipPath id="clip-path-27">
      <rect id="Rectángulo_404549" data-name="Rectángulo 404549" width="53.473" height="53.892" fill="none"/>
    </clipPath>
    <clipPath id="clip-path-28">
      <rect id="Rectángulo_404550" data-name="Rectángulo 404550" width="24.192" height="75.202" fill="none"/>
    </clipPath>
    <clipPath id="clip-path-29">
      <rect id="Rectángulo_404551" data-name="Rectángulo 404551" width="37.101" height="73.817" fill="none"/>
    </clipPath>
    <clipPath id="clip-path-30">
      <rect id="Rectángulo_404552" data-name="Rectángulo 404552" width="21.406" height="27.705" fill="none"/>
    </clipPath>
    <clipPath id="clip-path-31">
      <rect id="Rectángulo_404553" data-name="Rectángulo 404553" width="8.411" height="9.097" fill="none"/>
    </clipPath>
    <clipPath id="clip-path-32">
      <rect id="Rectángulo_404554" data-name="Rectángulo 404554" width="32.459" height="22.473" fill="none"/>
    </clipPath>
  </defs>
  <g id="Enmascarar_grupo_1099707" data-name="Enmascarar grupo 1099707" transform="translate(-705 -497)" clip-path="url(#clip-path)">
    <g id="Enmascarar_grupo_1099703" data-name="Enmascarar grupo 1099703" transform="translate(-1.967 -2596)" clip-path="url(#clip-path-2)">
      <g id="Grupo_1107906" data-name="Grupo 1107906" transform="translate(129.797 2668.74)">
        <g id="Grupo_1107905" data-name="Grupo 1107905" transform="translate(557.17 416.521)">
          <rect id="Rectángulo_404501" data-name="Rectángulo 404501" width="337.776" height="251.48" transform="translate(3.157)" fill="#f4fafe"/>
          <rect id="Rectángulo_404502" data-name="Rectángulo 404502" width="344.09" height="115.938" transform="translate(0 135.542)" fill="#c2d4ff"/>
          <path id="Trazado_899407" data-name="Trazado 899407" d="M162.53,269.489,105.15,385.427H269.288L221.929,269.489Z" transform="translate(-17.454 -133.947)" fill="#abc7ff"/>
          <path id="Trazado_899408" data-name="Trazado 899408" d="M258.331,299.34,238.687,400.013h38.149L262.218,298.836Z" transform="translate(-83.828 -148.534)" fill="#c2d4ff"/>
        </g>
      </g>
    </g>
    <g id="Grupo_1108116" data-name="Grupo 1108116" transform="translate(672.808 493.194)">
      <g id="Grupo_1108115" data-name="Grupo 1108115" clip-path="url(#clip-path-3)">
        <g id="Grupo_1108114" data-name="Grupo 1108114">
          <g id="Grupo_1108113" data-name="Grupo 1108113" clip-path="url(#clip-path-4)">
            <g id="Grupo_1108061" data-name="Grupo 1108061" transform="translate(102.47 33.919)" opacity="0.6" style="mix-blend-mode: multiply;isolation: isolate">
              <g id="Grupo_1108060" data-name="Grupo 1108060">
                <g id="Grupo_1108059" data-name="Grupo 1108059" clip-path="url(#clip-path-5)">
                  <path id="Trazado_902259" data-name="Trazado 902259" d="M838.761,165.263c-3.493,30.8,10.162,106.382,12.7,112.1s-13.27,3.493-13.27,3.493-6.1-17.358-8.006-57.583,0-61.819,0-61.819Z" transform="translate(-696.719 -149.604)" fill="#6989b9"/>
                  <path id="Trazado_902260" data-name="Trazado 902260" d="M847.025,167.984c.226,45.613,1.8,90.321,11.4,117.976" transform="translate(-709.391 -154.285)" fill="none" stroke="#b3cbee" stroke-linecap="round" stroke-linejoin="round" stroke-width="1"/>
                  <g id="Grupo_1108031" data-name="Grupo 1108031" transform="translate(137.041 110.876)" opacity="0.48" style="mix-blend-mode: multiply;isolation: isolate">
                    <g id="Grupo_1108030" data-name="Grupo 1108030">
                      <g id="Grupo_1108029" data-name="Grupo 1108029" clip-path="url(#clip-path-6)">
                        <path id="Trazado_902261" data-name="Trazado 902261" d="M859.247,512.918l-.058.014a18.488,18.488,0,0,1-13.542-1.7c-.243-.14-.481-.288-.715-.439,2.191,13.99,4.433,20.374,4.433,20.374s15.811,2.223,13.271-3.493c-.614-1.381-1.876-6.84-3.389-14.759" transform="translate(-844.932 -510.797)" fill="#6989b9"/>
                      </g>
                    </g>
                  </g>
                  <g id="Grupo_1108034" data-name="Grupo 1108034" transform="translate(132.622 11.848)" opacity="0.48" style="mix-blend-mode: multiply;isolation: isolate">
                    <g id="Grupo_1108033" data-name="Grupo 1108033">
                      <g id="Grupo_1108032" data-name="Grupo 1108032" clip-path="url(#clip-path-7)">
                        <path id="Trazado_902262" data-name="Trazado 902262" d="M838.592,210.767a14.681,14.681,0,0,1,1.63-1.272c-1.791-16.96-2.69-33.377-1.459-44.233l-8.574-3.811s-1.894,21.478-.015,61.491a37.734,37.734,0,0,1,8.419-12.176" transform="translate(-829.342 -161.452)" fill="#6989b9"/>
                      </g>
                    </g>
                  </g>
                  <path id="Trazado_902263" data-name="Trazado 902263" d="M564.5,563.3c1.588,3.811,0,10.479,0,10.479H389.845c-17.783,0-29.533-4.763-28.263-10.479s36.847-7.973,77.8-8.892c40.645-.912,84.153-3.493,88.916-3.176S564.5,563.3,564.5,563.3" transform="translate(-361.488 -428.877)" fill="#91b9e8"/>
                  <g id="Grupo_1108037" data-name="Grupo 1108037" transform="translate(0 134.425)" opacity="0.28" style="mix-blend-mode: screen;isolation: isolate">
                    <g id="Grupo_1108036" data-name="Grupo 1108036">
                      <g id="Grupo_1108035" data-name="Grupo 1108035" clip-path="url(#clip-path-8)">
                        <path id="Trazado_902264" data-name="Trazado 902264" d="M389.845,604.352H564.5s1.544-6.491.059-10.324c-29.157,1.823-194.071,11.932-202.979-.155-1.27,5.716,10.479,10.479,28.263,10.479" transform="translate(-361.488 -593.873)" fill="#91b9e8"/>
                      </g>
                    </g>
                  </g>
                  <path id="Trazado_902265" data-name="Trazado 902265" d="M379.3,572.6l179.8-6.489c-6.225-2.276-16.5-5.971-23.593-8.2l-2.321.22L373.9,563.348c-7.384,1.234-11.884,2.792-12.321,4.758-1.046,4.706,6.738,8.763,19.443,10.052Z" transform="translate(-361.488 -433.681)" fill="#6989b9"/>
                  <g id="Grupo_1108040" data-name="Grupo 1108040" transform="translate(88.028 122.331)" opacity="0.25" style="mix-blend-mode: multiply;isolation: isolate">
                    <g id="Grupo_1108039" data-name="Grupo 1108039">
                      <g id="Grupo_1108038" data-name="Grupo 1108038" clip-path="url(#clip-path-9)">
                        <path id="Trazado_902266" data-name="Trazado 902266" d="M787.012,563.3s-31.438-11.75-36.2-12.067c-4.369-.291-41.332,1.856-78.784,2.917a152.1,152.1,0,0,1,21.734,4.308,137.6,137.6,0,0,1,18.914,6.758,41.031,41.031,0,0,1,7.351,4.108,44.179,44.179,0,0,1,5.336,4.456h61.651s1.588-6.669,0-10.479" transform="translate(-672.026 -551.208)" fill="#91b9e8"/>
                      </g>
                    </g>
                  </g>
                  <path id="Trazado_902267" data-name="Trazado 902267" d="M939.531,219.044c-3.493,30.8,10.379,107.862,12.932,113.573,1.161,2.6-12.811,2.651-14,.428,0,0-5.605-15.768-7.51-55.993s0-61.819,0-61.819Z" transform="translate(-768.924 -188.14)" fill="#6989b9"/>
                  <path id="Trazado_902268" data-name="Trazado 902268" d="M950,223.373c-1.765,27.179.425,97.168,9.715,117.1" transform="translate(-782.774 -193.973)" fill="none" stroke="#b3cbee" stroke-linecap="round" stroke-linejoin="round" stroke-width="1"/>
                  <g id="Grupo_1108043" data-name="Grupo 1108043" transform="translate(161.187 27.093)" opacity="0.48" style="mix-blend-mode: multiply;isolation: isolate">
                    <g id="Grupo_1108042" data-name="Grupo 1108042">
                      <g id="Grupo_1108041" data-name="Grupo 1108041" clip-path="url(#clip-path-10)">
                        <path id="Trazado_902269" data-name="Trazado 902269" d="M930.618,253.428l1.95-2.524a11.853,11.853,0,0,1,7.044-3.478c-.756-11.031-.912-21.026-.078-28.382l-8.574-3.811s-1.188,13.474-.749,38.955q.19-.384.408-.76" transform="translate(-930.113 -215.233)" fill="#6989b9"/>
                      </g>
                    </g>
                  </g>
                  <g id="Grupo_1108046" data-name="Grupo 1108046" transform="translate(164.633 119.823)" opacity="0.48" style="mix-blend-mode: multiply;isolation: isolate">
                    <g id="Grupo_1108045" data-name="Grupo 1108045">
                      <g id="Grupo_1108044" data-name="Grupo 1108044" clip-path="url(#clip-path-11)">
                        <path id="Trazado_902270" data-name="Trazado 902270" d="M954.389,567.693a91.761,91.761,0,0,1-9.422-17.948q-1.505-3.636-2.7-7.385c2.272,17.656,4.911,25.082,4.911,25.082.608,1.142,4.59,1.683,8.162,1.587q-.481-.665-.953-1.336" transform="translate(-942.268 -542.359)" fill="#6989b9"/>
                      </g>
                    </g>
                  </g>
                  <path id="Trazado_902271" data-name="Trazado 902271" d="M718.32,216.418c-.385-8.448-7.063-11.7-23.153-9.439s-27.38,11.573-31.262,15.948c0,0-4.869-3.528-1.058-9.033s14.96-14.537,30.062-16.654a53.027,53.027,0,0,1,26.534,2.964l4.516,12.843Z" transform="translate(-576.378 -174.878)" fill="#6989b9"/>
                  <g id="Grupo_1108049" data-name="Grupo 1108049" transform="translate(109.785 21.846)" opacity="0.59" style="mix-blend-mode: multiply;isolation: isolate">
                    <g id="Grupo_1108048" data-name="Grupo 1108048">
                      <g id="Grupo_1108047" data-name="Grupo 1108047" clip-path="url(#clip-path-12)">
                        <path id="Trazado_902272" data-name="Trazado 902272" d="M782.061,200.2a53.027,53.027,0,0,0-26.534-2.964c-.8.112-1.578.247-2.352.395l-4.4,3.515,1.284,7.52h0a52.421,52.421,0,0,1,7.719-1.692c16.09-2.258,22.768.991,23.153,9.439l5.64-3.37Z" transform="translate(-748.78 -196.725)" fill="#6989b9"/>
                      </g>
                    </g>
                  </g>
                  <path id="Trazado_902273" data-name="Trazado 902273" d="M764.515,128.752c2.066,5.608-1.482,17.995-4.869,22.017s-26.463,16.09-40.859,20.112-27.31,2.329-28.792,1.27,0-4.446,0-4.446a56.688,56.688,0,0,0,16.513-4.658c9.2-4.062,14.567-7.83,11.2-11.96s-14.164-10.269-32.37-5.612-24.205,15.1-24.487,18.066c-.274,2.88.565,4.164.565,4.164s-5.716-2.329-2.54-10.162,44.246-35.355,51.656-37.26,51.021.424,53.985,8.468" transform="translate(-573.886 -119.657)" fill="#91b9e8"/>
                  <g id="Grupo_1108052" data-name="Grupo 1108052" transform="translate(115.45 16.536)" opacity="0.63" style="mix-blend-mode: multiply;isolation: isolate">
                    <g id="Grupo_1108051" data-name="Grupo 1108051">
                      <g id="Grupo_1108050" data-name="Grupo 1108050" clip-path="url(#clip-path-13)">
                        <path id="Trazado_902274" data-name="Trazado 902274" d="M825.435,197.289a77.83,77.83,0,0,1-25.662,11.494,70.624,70.624,0,0,1-29.819,1.066c-.208-.038-.413-.085-.616-.139-.291.746-1.18,3.339.083,4.241,1.482,1.059,14.4,2.752,28.792-1.27s37.472-16.089,40.859-20.112c2.24-2.661,4.55-8.98,5.26-14.577-4.691,7.777-11.5,14.123-18.9,19.3" transform="translate(-768.763 -177.991)" fill="#91b9e8"/>
                      </g>
                    </g>
                  </g>
                  <g id="Grupo_1108055" data-name="Grupo 1108055" transform="translate(109.785)" opacity="0.59" style="mix-blend-mode: multiply;isolation: isolate">
                    <g id="Grupo_1108054" data-name="Grupo 1108054">
                      <g id="Grupo_1108053" data-name="Grupo 1108053" clip-path="url(#clip-path-14)">
                        <path id="Trazado_902275" data-name="Trazado 902275" d="M748.781,145.929q.816-.234,1.666-.452c18.207-4.658,29,1.482,32.37,5.612a4.607,4.607,0,0,1,.863,1.536l45.944-23.873c-2.964-8.045-46.575-10.374-53.985-8.468Z" transform="translate(-748.781 -119.657)" fill="#6989b9"/>
                      </g>
                    </g>
                  </g>
                  <path id="Trazado_902276" data-name="Trazado 902276" d="M771.087,197.654c39.66,1.694,68.714-28.792,75.075-36.2" transform="translate(-654.979 -149.604)" fill="none" stroke="#b3cbee" stroke-linecap="round" stroke-linejoin="round" stroke-width="1"/>
                  <path id="Trazado_902277" data-name="Trazado 902277" d="M868.851,179.112c17.889-4.355,46.807-27.369,46.807-27.369" transform="translate(-725.03 -142.648)" fill="none" stroke="#b3cbee" stroke-linecap="round" stroke-linejoin="round" stroke-width="1"/>
                  <path id="Trazado_902278" data-name="Trazado 902278" d="M735.521,148.737c6.567-10.085,30.617-26.868,30.617-26.868" transform="translate(-629.495 -121.242)" fill="none" stroke="#b3cbee" stroke-linecap="round" stroke-linejoin="round" stroke-width="1"/>
                  <path id="Trazado_902279" data-name="Trazado 902279" d="M817.943,132.3c21.1-3.105,42.409,4.561,42.409,5.549s-25.334,14.314-25.334,14.314c-7.574-5.62-18.912-9.375-28.58-7.49Z" transform="translate(-680.309 -128.189)" fill="#91b9e8"/>
                  <g id="Grupo_1108058" data-name="Grupo 1108058" transform="translate(141.422 10.642)" opacity="0.45" style="mix-blend-mode: multiply;isolation: isolate">
                    <g id="Grupo_1108057" data-name="Grupo 1108057">
                      <g id="Grupo_1108056" data-name="Grupo 1108056" clip-path="url(#clip-path-15)">
                        <path id="Trazado_902280" data-name="Trazado 902280" d="M864.836,157.637c11.06-1.628,22.75,1.776,22.75,2.294s-13.28,7.5-13.28,7.5a27.087,27.087,0,0,0-13.917-5.63Z" transform="translate(-860.388 -157.199)" fill="#91b9e8"/>
                      </g>
                    </g>
                  </g>
                  <path id="Trazado_902281" data-name="Trazado 902281" d="M798.783,185.917c.069.463-.673.956-1.656,1.1s-1.835-.111-1.9-.573.673-.956,1.656-1.1,1.836.111,1.9.573" transform="translate(-672.27 -166.695)" fill="#7d9dcd"/>
                  <path id="Trazado_902282" data-name="Trazado 902282" d="M828.592,187.9c-.034.466-.866.785-1.857.712s-1.767-.51-1.732-.977.866-.785,1.857-.712,1.767.51,1.733.977" transform="translate(-693.61 -167.846)" fill="#7d9dcd"/>
                  <path id="Trazado_902283" data-name="Trazado 902283" d="M855.188,194.809c-.14.446-1.021.568-1.97.272s-1.6-.9-1.465-1.345,1.021-.568,1.97-.272,1.6.9,1.465,1.345" transform="translate(-712.765 -172.427)" fill="#7d9dcd"/>
                  <path id="Trazado_902284" data-name="Trazado 902284" d="M878.95,208.364c-.378.378-1.337.033-2.141-.771s-1.149-1.762-.771-2.141,1.337-.033,2.141.771,1.149,1.762.771,2.141" transform="translate(-730.07 -181.022)" fill="#7d9dcd"/>
                </g>
              </g>
            </g>
            <g id="Grupo_1108064" data-name="Grupo 1108064" transform="translate(61.303 201.113)" opacity="0.67" style="mix-blend-mode: multiply;isolation: isolate">
              <g id="Grupo_1108063" data-name="Grupo 1108063">
                <g id="Grupo_1108062" data-name="Grupo 1108062" clip-path="url(#clip-path-16)">
                  <path id="Trazado_902285" data-name="Trazado 902285" d="M433.258,737.9c0,9.856-48.577,17.847-108.5,17.847s-108.5-7.99-108.5-17.847,48.577-17.847,108.5-17.847,108.5,7.99,108.5,17.847" transform="translate(-216.259 -720.056)" fill="#b3cbee"/>
                </g>
              </g>
            </g>
            <path id="Trazado_902286" data-name="Trazado 902286" d="M502.364,373.069c9.093,19.79-5.081,73.812-5.349,74.882s-9.36,0-9.36,0-8.023-54.022-4.547-67.394-17.383-37.708-17.383-37.708l-25.941-1.337s-10.7,20.058-19.523,28.616A157.79,157.79,0,0,1,402.076,385.1s8.291,9.9,9.093,26.744-.267,33.162-.267,33.162l-10.163-.8s-21.93-57.766-17.651-69.266,32.895-44.127,32.895-44.127l63.917,2.942Z" transform="translate(-274.098 -237.039)" fill="#f77958"/>
            <g id="Grupo_1108067" data-name="Grupo 1108067" transform="translate(108.437 93.775)" opacity="0.46" style="mix-blend-mode: multiply;isolation: isolate">
              <g id="Grupo_1108066" data-name="Grupo 1108066">
                <g id="Grupo_1108065" data-name="Grupo 1108065" clip-path="url(#clip-path-17)">
                  <path id="Trazado_902287" data-name="Trazado 902287" d="M483.109,380.557c-1.454,5.59-.9,18.286.243,31.168,2.489-9.761,7.647-18.437,17.1-23.835a6.7,6.7,0,0,1,4.81-.74c-.318-5.508-1.2-10.39-2.9-14.081L479.9,333.756l-63.917-2.942s-28.616,32.627-32.895,44.127c-.86,2.312-.66,6.5.207,11.7a7.436,7.436,0,0,1,4.707,1.99,46.689,46.689,0,0,1,9.879,10.929c8.727,13.288,9.26,29.825,10,45.207l3.02.238s1.07-16.314.267-33.162-9.093-26.744-9.093-26.744a157.79,157.79,0,0,0,18.186-14.976c8.826-8.558,19.523-28.616,19.523-28.616l25.941,1.337s20.86,24.337,17.383,37.708" transform="translate(-382.535 -330.814)" fill="#f77958"/>
                </g>
              </g>
            </g>
            <path id="Trazado_902288" data-name="Trazado 902288" d="M760.246,668.413c-7.488-4.457-16.566-.109-16.566-.109l2.748,20.108h9.895Z" transform="translate(-532.87 -477.499)" fill="#ead93a"/>
            <path id="Trazado_902289" data-name="Trazado 902289" d="M424.3,665.706c6.782-2.14,17.09.474,17.09.474.083,5.635-.142,11.757-.562,18.186l-10.163-.8c-2.442-6.222-4.63-12.23-6.366-17.858" transform="translate(-304.022 -476.396)" fill="#ead93a"/>
            <g id="Grupo_1108070" data-name="Grupo 1108070" transform="translate(127.447 188.812)" style="mix-blend-mode: multiply;isolation: isolate">
              <g id="Grupo_1108069" data-name="Grupo 1108069">
                <g id="Grupo_1108068" data-name="Grupo 1108068" clip-path="url(#clip-path-18)">
                  <path id="Trazado_902290" data-name="Trazado 902290" d="M459.518,667.05a49.26,49.26,0,0,0-5.435-.972,5.291,5.291,0,0,1-.034.57,68.229,68.229,0,0,1-3.345,14.891q-.529,1.488-1.1,2.959l9.356.738c.42-6.43.645-12.551.562-18.186" transform="translate(-449.6 -666.078)" fill="#ead93a"/>
                </g>
              </g>
            </g>
            <path id="Trazado_902291" data-name="Trazado 902291" d="M736.205,712.843s-3.06-2,1.2-3.858,8.382.266,8.781,1.2-.532,2.661-.532,2.661a23.053,23.053,0,0,1,3.592,3.991c1.314,2.047,2.528,6.985,1.331,8.315a60.74,60.74,0,0,1-21.953,0,11.609,11.609,0,0,1,2.1-7.683,16.77,16.77,0,0,1,5.488-4.623" transform="translate(-522.053 -507.479)" fill="#324766"/>
            <path id="Trazado_902292" data-name="Trazado 902292" d="M728.622,756.9a12.2,12.2,0,0,1,.171-3.215c2.215,1.29,7.213,2.218,7.213,2.218s1.863-3.659,4.324-3.326a4.463,4.463,0,0,1,3.326,2.86s4.34.143,7.313-1.7c.188,1.375.116,2.6-.394,3.167a60.743,60.743,0,0,1-21.953,0" transform="translate(-522.054 -539.227)" fill="#fff"/>
            <g id="Grupo_1108073" data-name="Grupo 1108073" transform="translate(206.53 202.397)" opacity="0.63" style="mix-blend-mode: multiply;isolation: isolate">
              <g id="Grupo_1108072" data-name="Grupo 1108072">
                <g id="Grupo_1108071" data-name="Grupo 1108071" clip-path="url(#clip-path-19)">
                  <path id="Trazado_902293" data-name="Trazado 902293" d="M734.8,728.122a10.59,10.59,0,0,1,4.149-8.616,11.925,11.925,0,0,1-3.069-5.5c-1.839,1.556.322,2.966.322,2.966a16.765,16.765,0,0,0-5.488,4.623,11.609,11.609,0,0,0-2.1,7.683q3.292.548,6.427.791a12.444,12.444,0,0,1-.245-1.947" transform="translate(-728.583 -714.005)" fill="#324766"/>
                </g>
              </g>
            </g>
            <path id="Trazado_902294" data-name="Trazado 902294" d="M765.653,700.73h-1.875l2.274-1.347-3.043-.449,4.291-1.447-5.139-.848,4.091-.848s-1.3-11.575,3.942-9.729-3.942,9.729-3.942,9.729" transform="translate(-546.113 -491.442)" fill="none" stroke="#fff" stroke-linecap="round" stroke-linejoin="round" stroke-width="1"/>
            <path id="Trazado_902295" data-name="Trazado 902295" d="M758.607,702.781s-8-2.163-7.035-5.588C752.8,692.838,757.717,698.44,758.607,702.781Z" transform="translate(-538.468 -498.432)" fill="none" stroke="#fff" stroke-linecap="round" stroke-linejoin="round" stroke-width="1"/>
            <path id="Trazado_902296" data-name="Trazado 902296" d="M395.7,694.311s-5.125-6.656-2.384-6.775,6.069,6.775,6.069,6.775h10.809c1.485-2.383,2.786-.733,3.811,7.013,0,0,3.447,4.279-1.189,6.181s-28.051,0-29.715,0-2.652-3.922-1.623-5.705,14.223-7.488,14.223-7.488" transform="translate(-273.038 -492.64)" fill="#324766"/>
            <path id="Trazado_902297" data-name="Trazado 902297" d="M412.813,742c-4.636,1.9-28.051,0-29.715,0s-2.652-3.922-1.623-5.705a2.525,2.525,0,0,1,.617-.618,18.155,18.155,0,0,1,.873,3.976s22.688,1.6,31.038-3.833c0,0,3.447,4.279-1.188,6.181" transform="translate(-273.038 -527.136)" fill="#fff"/>
            <g id="Grupo_1108076" data-name="Grupo 1108076" transform="translate(126.067 200.663)" opacity="0.63" style="mix-blend-mode: multiply;isolation: isolate">
              <g id="Grupo_1108075" data-name="Grupo 1108075">
                <g id="Grupo_1108074" data-name="Grupo 1108074" clip-path="url(#clip-path-20)">
                  <path id="Trazado_902298" data-name="Trazado 902298" d="M459.628,715.905c-1.024-7.745-2.326-9.4-3.811-7.013h-3.164a11.833,11.833,0,0,1-1.46,4.568,11.619,11.619,0,0,1-6.461,5.075,12.427,12.427,0,0,1,.306,2.24,9.43,9.43,0,0,1-.144,2.1c5.849.149,11.509.048,13.546-.788,4.636-1.9,1.189-6.181,1.189-6.181" transform="translate(-444.732 -707.884)" fill="#324766"/>
                </g>
              </g>
            </g>
            <path id="Trazado_902299" data-name="Trazado 902299" d="M398.537,724.642l1.812.769.433-1.9" transform="translate(-285.565 -518.421)" fill="none" stroke="#fff" stroke-linecap="round" stroke-linejoin="round" stroke-width="1"/>
            <path id="Trazado_902300" data-name="Trazado 902300" d="M410.2,718.883l2.117,1.25.265-2.367" transform="translate(-293.92 -514.302)" fill="none" stroke="#fff" stroke-linecap="round" stroke-linejoin="round" stroke-width="1"/>
            <path id="Trazado_902301" data-name="Trazado 902301" d="M412.525,697.778h3.023s-.357-8.174-6.106-6.7,6.106,6.7,6.106,6.7" transform="translate(-292.251 -495.05)" fill="none" stroke="#fff" stroke-linecap="round" stroke-linejoin="round" stroke-width="1"/>
            <path id="Trazado_902302" data-name="Trazado 902302" d="M499.21,354.431c-11.5,13.372-35.836,7.221-35.836,7.221l-21.662-33.964s-5.349,10.965-19.79,21.662-23.8,12.57-23.8,12.57c-12.459,1.514-22.884-2.578-31.558-11.5,0,0,23.89-37.173,33.473-42.79s46.49-13.372,63.071-11.5,29.685,36.371,32.627,43.859a55.947,55.947,0,0,1,3.477,14.442" transform="translate(-262.653 -211.982)" fill="#ead93a"/>
            <g id="Grupo_1108079" data-name="Grupo 1108079" transform="translate(115.798 83.863)" style="mix-blend-mode: multiply;isolation: isolate">
              <g id="Grupo_1108078" data-name="Grupo 1108078">
                <g id="Grupo_1108077" data-name="Grupo 1108077" clip-path="url(#clip-path-21)">
                  <path id="Trazado_902303" data-name="Trazado 902303" d="M510.266,347.105a151.748,151.748,0,0,1-1.693-21.278,126.669,126.669,0,0,1,1.24-17.218c-4.848-6.615-10.511-11.786-16.652-12.479-14.9-1.683-46.227,4.413-59.37,9.742a13.625,13.625,0,0,1,.658,3.608,46.956,46.956,0,0,1-2.541,17.563,69.864,69.864,0,0,1-17.665,26.865q-2.754,2.672-5.736,5.14a35.634,35.634,0,0,0,19.668,2.87s9.36-1.872,23.8-12.569,19.79-21.662,19.79-21.662l21.662,33.964a55.958,55.958,0,0,0,19.915.866,125.549,125.549,0,0,1-3.077-15.412" transform="translate(-408.505 -295.845)" fill="#ead93a"/>
                </g>
              </g>
            </g>
            <path id="Trazado_902304" data-name="Trazado 902304" d="M366.562,414.389s2.106-3.278,5.319-8.034c7.7,7.174,19.6,10.708,19.6,10.708s15.731-10.64,24.021-23.639,13.1-6.848,13.1-6.848a66.436,66.436,0,0,1-11.767,17.651,143.886,143.886,0,0,1-17.859,16.225,28.6,28.6,0,0,0,7.685,2.221,41.255,41.255,0,0,1-8.546,3.217c-12.459,1.514-22.884-2.578-31.557-11.5" transform="translate(-262.653 -275.952)" fill="#324766"/>
            <path id="Trazado_902305" data-name="Trazado 902305" d="M664.77,378.2c8.2,7.817,17.845,31.942,17.845,31.942,7.5,1.5,19.119-2.917,23.861-8.384a54.561,54.561,0,0,1,1.887,9.721c-11.5,13.372-35.836,7.221-35.836,7.221l-5.562-8.721c2.3.437,4.536.765,7.256,1.084a205.651,205.651,0,0,0-15.511-29.27s-2.139-11.41,6.062-3.594" transform="translate(-471.805 -269.033)" fill="#324766"/>
            <g id="Grupo_1108082" data-name="Grupo 1108082" transform="translate(113.313 106.432)" opacity="0.63" style="mix-blend-mode: multiply;isolation: isolate">
              <g id="Grupo_1108081" data-name="Grupo 1108081">
                <g id="Grupo_1108080" data-name="Grupo 1108080" clip-path="url(#clip-path-22)">
                  <path id="Trazado_902306" data-name="Trazado 902306" d="M439.274,393.423c-8.291,13-24.021,23.639-24.021,23.639s-1.738-.517-4.315-1.555a78.723,78.723,0,0,1-11.2,6.238,35.294,35.294,0,0,0,22.153,4.143,41.249,41.249,0,0,0,8.546-3.217,28.6,28.6,0,0,1-7.685-2.221,143.871,143.871,0,0,0,17.859-16.224,66.437,66.437,0,0,0,11.767-17.651s-4.814-6.151-13.1,6.849" transform="translate(-399.738 -382.383)" fill="#324766"/>
                  <path id="Trazado_902307" data-name="Trazado 902307" d="M690.99,409.866a21.526,21.526,0,0,1-8.375.277s-9.643-24.125-17.845-31.942-6.062,3.594-6.062,3.594a205.626,205.626,0,0,1,15.511,29.269c-2.72-.319-4.954-.646-7.255-1.083l5.562,8.72s10.826,2.735,21.449.59a85.007,85.007,0,0,1-2.985-9.425" transform="translate(-585.118 -375.464)" fill="#324766"/>
                </g>
              </g>
            </g>
            <path id="Trazado_902308" data-name="Trazado 902308" d="M542.1,648.34s-5.416-11.207-1.492-17.356c5.877-9.208,18.882-8.656,18.882-8.656s13.005.552,18.081,10.226c3.389,6.459-2.958,17.167-2.958,17.167,5.25,5.559,8.106,14.994,2.142,22.236s-19.662,6.839-19.662,6.839-13.682-.759-19.011-8.48-1.683-16.88,4.018-21.974m7.411-4.967,2.941-.267a46.412,46.412,0,0,1,12.29.521l2.908.515s3.473-5.082,2.847-8.142c-.321-1.567-3.286-3.083-6.1-4.189a16.248,16.248,0,0,0-10.593-.45c-2.9.863-5.984,2.122-6.436,3.656-.883,3,2.146,8.355,2.146,8.355" transform="translate(-383.694 -445.913)" fill="#324766"/>
            <g id="Grupo_1108085" data-name="Grupo 1108085" transform="translate(155.876 176.409)" opacity="0.63" style="mix-blend-mode: multiply;isolation: isolate">
              <g id="Grupo_1108084" data-name="Grupo 1108084">
                <g id="Grupo_1108083" data-name="Grupo 1108083" clip-path="url(#clip-path-23)">
                  <path id="Trazado_902309" data-name="Trazado 902309" d="M584.935,649.722s6.346-10.708,2.958-17.167c-5.075-9.673-18.081-10.225-18.081-10.225s-13.005-.552-18.882,8.656a8,8,0,0,0-.671,1.321,11.345,11.345,0,0,1,7.154,7.17c.243.006.485.011.726.022a8.149,8.149,0,0,1-.453-4.479c.452-1.534,3.536-2.794,6.436-3.657a16.248,16.248,0,0,1,10.593.45c2.817,1.106,5.782,2.621,6.1,4.189.626,3.06-2.847,8.143-2.847,8.143l-2.908-.515q-.753-.134-1.509-.242a17.868,17.868,0,0,1,7.943,9.682c2.445,7.26-1.544,15.08-8.092,18.558a27.6,27.6,0,0,1-17.711,2.665,16.073,16.073,0,0,1-5.8-2.2c6.019,6.06,17.524,6.7,17.524,6.7s13.7.4,19.662-6.839,3.108-16.676-2.142-22.236" transform="translate(-549.89 -622.323)" fill="#324766"/>
                </g>
              </g>
            </g>
            <g id="Grupo_1108088" data-name="Grupo 1108088" transform="translate(160.231 199.966)" opacity="0.56" style="mix-blend-mode: screen;isolation: isolate">
              <g id="Grupo_1108087" data-name="Grupo 1108087">
                <g id="Grupo_1108086" data-name="Grupo 1108086" clip-path="url(#clip-path-24)">
                  <path id="Trazado_902310" data-name="Trazado 902310" d="M565.286,710.951c.392,1.9,4,1.167,8.117.234s7.18-1.713,6.789-3.613-4.046-2.684-8.162-1.751-7.135,3.23-6.744,5.13" transform="translate(-565.251 -705.428)" fill="#324766"/>
                </g>
              </g>
            </g>
            <path id="Trazado_902311" data-name="Trazado 902311" d="M505.836,275.034c-21.93,12.3-55.583-9.36-55.583-9.36-5.394.609-11.551-.1-18.9-2.85,0,0-6.552-31.382,8.424-41.544s38.243-12.837,60.173-2.14,18.914,45.2,18.914,45.2-.729,2.14-7.682,3.209-5.349,7.488-5.349,7.488" transform="translate(-308.057 -152.108)" fill="#324766"/>
            <g id="Grupo_1108091" data-name="Grupo 1108091" transform="translate(137.941 85.269)" opacity="0.63" style="mix-blend-mode: multiply;isolation: isolate">
              <g id="Grupo_1108090" data-name="Grupo 1108090">
                <g id="Grupo_1108089" data-name="Grupo 1108089" clip-path="url(#clip-path-25)">
                  <path id="Trazado_902312" data-name="Trazado 902312" d="M530.774,335.768c.6-11.63,1.407-23.333.507-34.96a40.4,40.4,0,0,1-4.451,9.587,33.514,33.514,0,0,1-6.573,7.748,37.161,37.161,0,0,1-11.626,6.626,41.936,41.936,0,0,1-22.012,1.217,31.375,31.375,0,0,0,5.232,3.72c4.455,2.679,23.456,13.393,40.964,12.481a10.127,10.127,0,0,1-2.041-6.419" transform="translate(-486.618 -300.808)" fill="#324766"/>
                </g>
              </g>
            </g>
            <g id="Grupo_1108094" data-name="Grupo 1108094" transform="translate(124.53 60.178)" opacity="0.63" style="mix-blend-mode: multiply;isolation: isolate">
              <g id="Grupo_1108093" data-name="Grupo 1108093">
                <g id="Grupo_1108092" data-name="Grupo 1108092" clip-path="url(#clip-path-26)">
                  <path id="Trazado_902313" data-name="Trazado 902313" d="M444.274,233.692c.789.806,1.615,1.566,2.473,2.291a37.362,37.362,0,0,0,5.5,3.187,37.773,37.773,0,0,0,6.341,1.745,34.06,34.06,0,0,0,5.719.028,30.016,30.016,0,0,0,4.452-1.2,22.707,22.707,0,0,0,2.333-1.36,24.139,24.139,0,0,0,2.075-2.1,29.873,29.873,0,0,0,2.248-3.923,42.428,42.428,0,0,0,2.018-7.7,56.263,56.263,0,0,0-.028-11.7c-.037-.226-.082-.451-.122-.677-11.709.052-22.512,3.379-30.785,8.993a19.968,19.968,0,0,0-7.192,9.578,10.788,10.788,0,0,1,4.967,2.828" transform="translate(-439.307 -212.293)" fill="#324766"/>
                </g>
              </g>
            </g>
            <g id="Grupo_1108097" data-name="Grupo 1108097" transform="translate(128.722 63.686)" style="mix-blend-mode: multiply;isolation: isolate">
              <g id="Grupo_1108096" data-name="Grupo 1108096">
                <g id="Grupo_1108095" data-name="Grupo 1108095" clip-path="url(#clip-path-27)">
                  <path id="Trazado_902314" data-name="Trazado 902314" d="M542.534,225.043c-.594,19.374-10.46,30.428-19.255,21.751" transform="translate(-503.668 -224.937)" fill="none" stroke="#1b2735" stroke-linecap="round" stroke-linejoin="round" stroke-width="0.75"/>
                  <path id="Trazado_902315" data-name="Trazado 902315" d="M467.84,372.912c-10.777-7.424-13.368-10.965-13.368-10.965" transform="translate(-454.366 -323.033)" fill="none" stroke="#1b2735" stroke-linecap="round" stroke-linejoin="round" stroke-width="0.75"/>
                  <line id="Línea_592" data-name="Línea 592" y1="8.302" transform="translate(53.367 45.483)" fill="none" stroke="#1b2735" stroke-linecap="round" stroke-linejoin="round" stroke-width="0.75"/>
                </g>
              </g>
            </g>
            <path id="Trazado_902316" data-name="Trazado 902316" d="M648.953,405.055c-2.3,20.764-8.892,46.438-14.954,57.314,0,0,1.467,6.994.778,11.654s-5.473,6.235-6.364,6.235a2.423,2.423,0,0,1-2.347-1.555c-1.337-.008-2.174-.457-2.5-1.358a2.593,2.593,0,0,1-2.941-1.426s-2.377.891-2.615-2.05,3.061-10.519,3.061-10.519l3.833-55.643c8.765-.17,16.982-.862,24.047-2.652" transform="translate(-442.817 -290.235)" fill="#f77958"/>
            <g id="Grupo_1108100" data-name="Grupo 1108100" transform="translate(181.944 114.82)" opacity="0.27" style="mix-blend-mode: multiply;isolation: isolate">
              <g id="Grupo_1108099" data-name="Grupo 1108099">
                <g id="Grupo_1108098" data-name="Grupo 1108098" clip-path="url(#clip-path-28)">
                  <path id="Trazado_902317" data-name="Trazado 902317" d="M666.043,405.055c-7.065,1.79-15.282,2.482-24.047,2.652l-.145,2.1a22.609,22.609,0,0,1,3.454,4.33,47.04,47.04,0,0,1,6.771,21.6c.694,5.7-.2,11.535-1.2,17.14-1.451,8.179-4.682,15.891-7.271,23.745q-.3,1.061-.69,2.067c.079,0,.155.011.239.012a2.423,2.423,0,0,0,2.347,1.555c.891,0,5.676-1.575,6.364-6.235s-.778-11.654-.778-11.654c6.062-10.876,12.659-36.549,14.954-57.314" transform="translate(-641.851 -405.055)" fill="#f77958"/>
                </g>
              </g>
            </g>
            <path id="Trazado_902318" data-name="Trazado 902318" d="M476,402.968c9.076,30.348,11.572,46.75,11.572,46.75,4.894,2.5,8.822,5.515,9.624,10.173l-4.09.446s1.256,6.908,2.14,8.04a13.382,13.382,0,0,1,1.831-.136c-.188,1.167-1.688,1.831-3.621,1.669a3.224,3.224,0,0,1-2.942,1.159,2.027,2.027,0,0,1-1.783,1.6s.045,2.095-2.9.446-8.736-13.243-8.736-13.243l-26.874-64.265a39.036,39.036,0,0,0,14.571,1.422A110.375,110.375,0,0,0,476,402.968" transform="translate(-322.601 -283.468)" fill="#f77958"/>
            <g id="Grupo_1108103" data-name="Grupo 1108103" transform="translate(137.497 113.565)" opacity="0.27" style="mix-blend-mode: multiply;isolation: isolate">
              <g id="Grupo_1108102" data-name="Grupo 1108102">
                <g id="Grupo_1108101" data-name="Grupo 1108101" clip-path="url(#clip-path-29)">
                  <path id="Trazado_902319" data-name="Trazado 902319" d="M518.062,463.933l4.09-.446c-.8-4.659-4.729-7.67-9.624-10.173,0,0-2.5-16.4-11.571-46.75a110.35,110.35,0,0,1-11.206-5.935,34.244,34.244,0,0,1-4.7.158q.271.438.519.9,4.471,9.5,8.919,19.012c5.9,12.662,11.8,25.339,17.162,38.244a125.839,125.839,0,0,1,5.5,15.505,2.948,2.948,0,0,0,1.261-.94c1.933.162,3.434-.5,3.621-1.668a13.328,13.328,0,0,0-1.831.136c-.884-1.132-2.14-8.04-2.14-8.04" transform="translate(-485.051 -400.629)" fill="#f77958"/>
                </g>
              </g>
            </g>
            <path id="Trazado_902320" data-name="Trazado 902320" d="M511.334,194.585c-.694,19.818-10.46,24.6-16.878,15.927s-8.914-20.444-8.914-20.444l19.731-6.538a52.7,52.7,0,0,0,6.062,11.054" transform="translate(-347.906 -131.506)" fill="#f77958"/>
            <g id="Grupo_1108106" data-name="Grupo 1108106" transform="translate(137.635 52.025)" opacity="0.46" style="mix-blend-mode: multiply;isolation: isolate">
              <g id="Grupo_1108105" data-name="Grupo 1108105">
                <g id="Grupo_1108104" data-name="Grupo 1108104" clip-path="url(#clip-path-30)">
                  <path id="Trazado_902321" data-name="Trazado 902321" d="M503.922,206.736a16.07,16.07,0,0,0,3.024-9.408c.011-3.4-.237-6.794-.534-10.183-.034-.386-.049-.77-.049-1.155q-.554-1.193-1.092-2.458l-19.731,6.537s2.5,11.767,8.914,20.444c.854,1.153,5.577,1.567,9.467-3.777" transform="translate(-485.541 -183.532)" fill="#f77958"/>
                </g>
              </g>
            </g>
            <path id="Trazado_902322" data-name="Trazado 902322" d="M456.158,141.433c.119,10.341-5.468,22.252-17.829,19.03s-20.444-29.965-17.354-38.048,28.527-3.447,28.527-3.447l5.586,5.586Z" transform="translate(-301.169 -84.297)" fill="#f77958"/>
            <path id="Trazado_902323" data-name="Trazado 902323" d="M426.495,162.873c1.536,2.947-5.143,5.183-6.062,3.344-.981-1.961,4.4-6.537,6.062-3.344" transform="translate(-301.168 -115.915)" fill="#324766"/>
            <path id="Trazado_902324" data-name="Trazado 902324" d="M484.992,154.94c.212-3.335,8.705-2.938,9.278.685s-9.488,2.623-9.278-.685" transform="translate(-347.51 -109.384)" fill="#324766"/>
            <path id="Trazado_902325" data-name="Trazado 902325" d="M480.929,182.787c.773-5.824,4.636-7.488,9.39-6-1.254,4.632-3.99,7.186-9.39,6" transform="translate(-344.601 -126.304)" fill="#fff"/>
            <path id="Trazado_902326" data-name="Trazado 902326" d="M482.986,180.357a5.75,5.75,0,0,1,5.625-4.075,3.473,3.473,0,1,1-5.625,4.075" transform="translate(-346.075 -126.312)" fill="#1b2735"/>
            <path id="Trazado_902327" data-name="Trazado 902327" d="M480.929,182.787c.773-5.824,4.636-7.488,9.39-6" transform="translate(-344.601 -126.304)" fill="none" stroke="#1b2735" stroke-linecap="round" stroke-linejoin="round" stroke-width="0.75"/>
            <path id="Trazado_902328" data-name="Trazado 902328" d="M436.063,187.641c-.739-5.385-4.433-6.923-8.979-5.55,1.2,4.283,3.815,6.644,8.979,5.55" transform="translate(-306.019 -130.134)" fill="#fff"/>
            <path id="Trazado_902329" data-name="Trazado 902329" d="M432,181.72c2.77-.413,5.078.429,6.367,2.772A3.474,3.474,0,1,1,432,181.72" transform="translate(-309.298 -130.136)" fill="#1b2735"/>
            <path id="Trazado_902330" data-name="Trazado 902330" d="M436.063,187.641c-.739-5.385-4.433-6.923-8.979-5.55" transform="translate(-306.019 -130.134)" fill="none" stroke="#1b2735" stroke-linecap="round" stroke-linejoin="round" stroke-width="0.75"/>
            <path id="Trazado_902331" data-name="Trazado 902331" d="M460.825,163.483a9.49,9.49,0,0,0-4.636.357" transform="translate(-326.874 -117.044)" fill="none" stroke="#1b2735" stroke-linecap="round" stroke-linejoin="round" stroke-width="0.75"/>
            <path id="Trazado_902332" data-name="Trazado 902332" d="M460.022,155.4a7.127,7.127,0,0,0-3.833.357" transform="translate(-326.874 -111.274)" fill="none" stroke="#1b2735" stroke-linecap="round" stroke-linejoin="round" stroke-width="0.75"/>
            <path id="Trazado_902333" data-name="Trazado 902333" d="M461.648,185.3c.261,2.229-3.038,1.694-3.038,1.694-2.852,2.184-5.126-.4-4.724-1.783s2.273-1.471,2.273-1.471-1.337-8.469-3.744-10.162" transform="translate(-324.17 -124.371)" fill="none" stroke="#1b2735" stroke-linecap="round" stroke-linejoin="round" stroke-width="0.75"/>
            <g id="Grupo_1108109" data-name="Grupo 1108109" transform="translate(137.479 60.176)" style="mix-blend-mode: multiply;isolation: isolate">
              <g id="Grupo_1108108" data-name="Grupo 1108108">
                <g id="Grupo_1108107" data-name="Grupo 1108107" clip-path="url(#clip-path-31)">
                  <path id="Trazado_902334" data-name="Trazado 902334" d="M492.158,212.284l-7.169,7.412a5.021,5.021,0,0,0,6.635.692c3.655-2.585.535-8.1.535-8.1" transform="translate(-484.988 -212.284)" fill="#f77958"/>
                </g>
              </g>
            </g>
            <path id="Trazado_902335" data-name="Trazado 902335" d="M493.459,212.284a9.741,9.741,0,0,1,.437.919c-.77,1.105-2.125,3.01-3.4,4.6-1.61,2-2.774,2.108-3.69,1.361Z" transform="translate(-348.811 -152.108)" fill="#fff"/>
            <path id="Trazado_902336" data-name="Trazado 902336" d="M504.587,222.619c.36,1.733.277,3.842-1.606,5.174a5.236,5.236,0,0,1-2.141.927,10.772,10.772,0,0,1,3.747-6.1" transform="translate(-358.868 -159.514)" fill="#f7a990"/>
            <path id="Trazado_902337" data-name="Trazado 902337" d="M425.218,76.374c-3.209,10.1-10.816,3.354-10.816,3.354s-1.783,4.49-8.2,4.015-18.6-4.459-11.116-10.878c-1.607-12.362,10.847-16.988,22.289-12.3,0,0,5.845-9.033,15.462-2.021s7.478,18.9,7.478,18.9,3.167-.9,4.547,1.545c1.894,3.351-.03,7.488-.03,7.488s3.112-1.519,2.982,1.974-8.806,2.424-10.114,1.473-2.853-5.111-2.853-5.111c-3.943-.057-7.216-2.633-9.628-8.439" transform="translate(-281.401 -40.038)" fill="#324766"/>
            <path id="Trazado_902338" data-name="Trazado 902338" d="M392.561,115.807c-7.15,4.269-2.881,12.248,12.913,10.446" transform="translate(-278.879 -82.979)" fill="none" stroke="#324766" stroke-linecap="round" stroke-linejoin="round" stroke-width="1"/>
            <path id="Trazado_902339" data-name="Trazado 902339" d="M491.333,57.743c-6.51-7.9-15.063-7.684-18.79,0" transform="translate(-338.592 -37.188)" fill="none" stroke="#324766" stroke-linecap="round" stroke-linejoin="round" stroke-width="1"/>
            <path id="Trazado_902340" data-name="Trazado 902340" d="M555.428,127.773c8.968-3.842,6.367,7.817,6.367,7.817" transform="translate(-397.982 -90.997)" fill="none" stroke="#324766" stroke-linecap="round" stroke-linejoin="round" stroke-width="1"/>
            <g id="Grupo_1108112" data-name="Grupo 1108112" transform="translate(132.87 28.345)" opacity="0.62" style="mix-blend-mode: multiply;isolation: isolate">
              <g id="Grupo_1108111" data-name="Grupo 1108111">
                <g id="Grupo_1108110" data-name="Grupo 1108110" clip-path="url(#clip-path-32)">
                  <path id="Trazado_902341" data-name="Trazado 902341" d="M468.86,140.016l-.13.27c.089-.169.13-.27.13-.27" transform="translate(-468.73 -128.671)" fill="#324766"/>
                  <path id="Trazado_902342" data-name="Trazado 902342" d="M499.616,118.089a10.9,10.9,0,0,0,.834-3.354c-1.391-2.637-3.812-4.374-5.221-4.415-2.8-.08-2.994-3.442-2.994-3.442s-2.128,5.03-6.294,2.066-7.557-8.949-7.557-8.949-3.008,11.685-9.2,11.345c0,0,7.607,6.749,10.816-3.354,2.412,5.806,5.684,8.382,9.628,8.439,0,0,1.545,4.16,2.853,5.111.954.694,5.829,1.449,8.446.45a8.439,8.439,0,0,0,.514-4.175,3.181,3.181,0,0,0-1.829.278" transform="translate(-469.058 -99.995)" fill="#324766"/>
                </g>
              </g>
            </g>
            <path id="Trazado_902343" data-name="Trazado 902343" d="M537.773,157.462c8.439-2.258,10.222-11.411,6.894-15.452s-8.439-1.664-10.1,4.636,3.209,10.816,3.209,10.816" transform="translate(-382.784 -100.326)" fill="#f77958"/>
            <path id="Trazado_902344" data-name="Trazado 902344" d="M549.88,151.882c-2.258-3.15-5.23-2.47-6.894,4.054,0,0,1.624-3.073,4.041-1.856,3.685,1.856-.375,8.79-3.447,5.765" transform="translate(-389.067 -107.523)" fill="none" stroke="#1b2735" stroke-linecap="round" stroke-linejoin="round" stroke-width="0.75"/>
            <path id="Trazado_902345" data-name="Trazado 902345" d="M1022.047,750.383a14.2,14.2,0,0,0-8.839-9.962c4.611-1.837,7.754-4.984,8.839-9.962,1.245,5,4.014,8.5,8.84,9.962q-6.891,2.287-8.84,9.962" transform="translate(-725.996 -523.397)" fill="#fff"/>
            <path id="Trazado_902346" data-name="Trazado 902346" d="M8.839,19.924A14.2,14.2,0,0,0,0,9.962C4.611,8.124,7.754,4.978,8.839,0c1.245,5,4.014,8.5,8.84,9.962q-6.892,2.286-8.84,9.962" transform="translate(51.294 32.827)" fill="#ead93a"/>
            <path id="Trazado_902347" data-name="Trazado 902347" d="M1065.665,690.146a10.168,10.168,0,0,0-6.329-7.132,9.6,9.6,0,0,0,6.329-7.132c.891,3.58,2.874,6.083,6.329,7.132a9.374,9.374,0,0,0-6.329,7.132" transform="translate(-759.048 -484.291)" fill="#fff"/>
            <path id="Trazado_902348" data-name="Trazado 902348" d="M200.262,674.966a10.168,10.168,0,0,0-6.329-7.132,9.6,9.6,0,0,0,6.329-7.132c.891,3.58,2.874,6.083,6.329,7.132a9.375,9.375,0,0,0-6.329,7.132" transform="translate(-138.959 -473.413)" fill="#fff"/>
            <path id="Trazado_902349" data-name="Trazado 902349" d="M656.6,41a10.168,10.168,0,0,0-6.329-7.132A9.6,9.6,0,0,0,656.6,26.74c.891,3.58,2.874,6.083,6.329,7.132A9.374,9.374,0,0,0,656.6,41" transform="translate(-465.939 -19.16)" fill="#324766"/>
            <path id="Trazado_902511" data-name="Trazado 902511" d="M654.887,37.147a7.418,7.418,0,0,0-4.617-5.2,7,7,0,0,0,4.617-5.2,6.638,6.638,0,0,0,4.617,5.2,6.839,6.839,0,0,0-4.617,5.2" transform="translate(-365.165 70.094)" fill="#324766"/>
            <path id="Trazado_902512" data-name="Trazado 902512" d="M654.887,37.147a7.418,7.418,0,0,0-4.617-5.2,7,7,0,0,0,4.617-5.2,6.638,6.638,0,0,0,4.617,5.2,6.839,6.839,0,0,0-4.617,5.2" transform="translate(-374.4 -14.31)" fill="#324766"/>
            <path id="Trazado_902350" data-name="Trazado 902350" d="M122.644,66.165a10.168,10.168,0,0,0-6.329-7.132,9.6,9.6,0,0,0,6.329-7.132c.891,3.58,2.874,6.083,6.329,7.132a9.374,9.374,0,0,0-6.329,7.132" transform="translate(-32.049 -4.361)" fill="#ead93a"/>
            <path id="Trazado_902513" data-name="Trazado 902513" d="M122.644,66.165a10.168,10.168,0,0,0-6.329-7.132,9.6,9.6,0,0,0,6.329-7.132c.891,3.58,2.874,6.083,6.329,7.132a9.374,9.374,0,0,0-6.329,7.132" transform="translate(-50.049 46.45)" fill="#ead93a"/>
          </g>
        </g>
      </g>
    </g>
  </g>
</svg>
