<svg xmlns="http://www.w3.org/2000/svg" xmlns:xlink="http://www.w3.org/1999/xlink" width="93.622" height="93.622" viewBox="0 0 93.622 93.622">
  <defs>
    <clipPath id="clip-path">
      <path id="path6108" d="M0-682.665H93.622v93.622H0Z" transform="translate(0 682.665)"/>
    </clipPath>
  </defs>
  <g id="g6102" transform="translate(0 682.665)">
    <g id="g6104" transform="translate(0 -682.665)">
      <g id="g6106" clip-path="url(#clip-path)">
        <g id="g6112" transform="translate(11.38 1.371)">
          <path id="path6114" d="M-398.787-225.439a6.073,6.073,0,0,1-4.6-4.24c-.215.119-.432.234-.653.342a2.226,2.226,0,0,0-.965.9l-4.565,8.091a.9.9,0,0,1-1.567,0l-4.565-8.091a2.227,2.227,0,0,0-.967-.9,14.44,14.44,0,0,1-7.846-10.25,5.793,5.793,0,0,0-.984.721c-5.188,5.1-4.077-1.243-7.262-.182s-3.861-2.8-4.247-4.633-2.8-2.8-6.949-2.123-3.957-6.274-4.826-7.721-3.378.676-5.212-3.378c-1.045-2.31-3.909-3.609-6.179-4.3a1.538,1.538,0,0,0-1.922,1.928c1.188,3.718,1.493,8.444,6.653,13.759,6.466,6.66,14.188,4.729,15.056,7.432s4.633,2.027,7.142,5.115-1.448,5.308-2.22,10.713,4.15,7.432,8.2,10.038,4.636,6.08,3.768,8.783-.386,7.142.193,11.1a30.929,30.929,0,0,1-1.158,11.678c-.772,2.51.386,8.493,4.922,9.927s6.177-2.11,3.475-2.978-2.51-5.115-1.834-10.424,5.887-2.123,8.107-9.169,8.011-3.571,9.941-11.582,7.239-9.652,8.3-13.9-.772-5.212-7.239-6.66" transform="translate(462.17 261.27)" fill="#43cb8e"/>
        </g>
        <g id="g6116" transform="translate(11.38 1.371)">
          <path id="path6118" d="M-290.088-550.926c-2.146-.69-2.465-3.511-2.168-7.3a8.546,8.546,0,0,1-.174-4.464,30.934,30.934,0,0,0,1.158-11.678c-.579-3.957-1.061-8.4-.193-11.1s.282-6.177-3.768-8.783-8.972-4.633-8.2-10.038c.753-5.272,4.533-7.514,2.39-10.487-3.474,2.467-2.914-2.433-5.743-1.49-3.185,1.062-3.861-2.8-4.247-4.633s-2.8-2.8-6.949-2.123-3.957-6.274-4.826-7.721-3.378.676-5.212-3.378c-1.045-2.31-3.909-3.609-6.179-4.3a1.538,1.538,0,0,0-1.922,1.928c1.188,3.718,1.492,8.444,6.653,13.759,6.466,6.66,14.188,4.729,15.056,7.432s4.633,2.027,7.142,5.115-1.448,5.308-2.22,10.713,4.15,7.432,8.2,10.037,4.636,6.081,3.768,8.783-.386,7.142.193,11.1a30.929,30.929,0,0,1-1.158,11.678c-.772,2.509.386,8.493,4.922,9.927s6.177-2.11,3.474-2.978" transform="translate(336.194 638.489)" fill="#00ba66"/>
        </g>
        <g id="g6120" transform="translate(34.758 5.92)">
          <path id="path6122" d="M-91.563-66.017A14.333,14.333,0,0,1-87.987-72.2a2.04,2.04,0,0,1-1.22-.341c-1.787-1.261-7.62,1.366-12.612-2.47s-4.94.63-3.311,3.1c0,0,.42,1.1,3.626,1.314s3.153,3.153,5.045,3.521c1.258.245,2.68,1.139,4.9,1.062" transform="translate(106.115 76.51)" fill="#00ba66"/>
        </g>
        <g id="g6124" transform="translate(48.706 5.828)">
          <path id="path6126" d="M-89.028-.025a14.429,14.429,0,0,0-14.146,14.842,14.492,14.492,0,0,0,8.14,12.674,2.238,2.238,0,0,1,.971.909l4.588,8.131a.9.9,0,0,0,1.575,0l4.588-8.131a2.237,2.237,0,0,1,.97-.908A14.49,14.49,0,0,0-74.2,14.463,14.491,14.491,0,0,0-89.028-.025" transform="translate(103.178 0.029)" fill="#ff8188"/>
        </g>
        <g id="g6128" transform="translate(48.706 5.828)">
          <path id="path6130" d="M-96.693-178.868a2.239,2.239,0,0,0-.971-.91,14.49,14.49,0,0,1-8.14-12.674,14.424,14.424,0,0,1,11.345-14.507,14.551,14.551,0,0,0-3.452-.335,14.429,14.429,0,0,0-14.146,14.842,14.491,14.491,0,0,0,8.14,12.674,2.238,2.238,0,0,1,.972.91l4.588,8.131a.9.9,0,0,0,1.575,0l2.339-4.145Z" transform="translate(112.061 207.297)" fill="#ff656f"/>
        </g>
        <g id="g6132" transform="translate(54.958 12.081)">
          <path id="path6134" d="M-51.836-103.67a8.239,8.239,0,0,1-8.239-8.239,8.239,8.239,0,0,1,8.239-8.239,8.239,8.239,0,0,1,8.239,8.239,8.239,8.239,0,0,1-8.239,8.239" transform="translate(60.075 120.148)" fill="#ff656f"/>
        </g>
        <g id="g6136" transform="translate(54.958 12.081)">
          <path id="path6138" d="M-39.338-51.836a8.24,8.24,0,0,1,5.112-7.623,8.21,8.21,0,0,0-3.126-.616,8.239,8.239,0,0,0-8.239,8.239A8.239,8.239,0,0,0-37.352-43.6a8.21,8.21,0,0,0,3.126-.616,8.24,8.24,0,0,1-5.112-7.623" transform="translate(45.591 60.075)" fill="#ff4756"/>
        </g>
        <g id="g6140" transform="translate(34.738 5.92)">
          <path id="path6142" d="M-91.562-66.017A14.333,14.333,0,0,1-87.987-72.2a2.04,2.04,0,0,1-1.22-.341c-1.787-1.261-7.62,1.366-12.612-2.47s-4.94.63-3.311,3.1c0,0,.42,1.1,3.626,1.314s3.153,3.153,5.045,3.521C-95.2-66.835-93.779-65.941-91.562-66.017Z" transform="translate(106.115 76.51)" fill="none" stroke="#000" stroke-linecap="round" stroke-linejoin="round" stroke-miterlimit="10" stroke-width="2"/>
        </g>
        <g id="g6144" transform="translate(11.359 1.371)">
          <path id="path6146" d="M-386.569-370.436a11.491,11.491,0,0,0,.88-2.488c1.93-8.011,7.239-9.652,8.3-13.9s-.772-5.212-7.239-6.66a6.073,6.073,0,0,1-4.6-4.24c-.215.119-.432.234-.653.342a2.226,2.226,0,0,0-.965.9l-4.565,8.091a.9.9,0,0,1-1.567,0l-4.565-8.09a2.228,2.228,0,0,0-.967-.9,14.439,14.439,0,0,1-7.847-10.25,5.785,5.785,0,0,0-.983.721c-5.188,5.1-4.077-1.243-7.262-.182s-3.861-2.8-4.247-4.633-2.8-2.8-6.949-2.123-3.957-6.274-4.826-7.721-3.378.676-5.212-3.378c-1.045-2.31-3.909-3.609-6.179-4.3a1.538,1.538,0,0,0-1.922,1.928c1.188,3.718,1.493,8.444,6.653,13.759,6.466,6.66,14.188,4.729,15.056,7.432s4.633,2.027,7.142,5.115-1.448,5.308-2.22,10.713,4.15,7.432,8.2,10.037,4.637,6.081,3.768,8.783-.386,7.142.193,11.1A30.934,30.934,0,0,1-410.3-348.7c-.772,2.51.386,8.493,4.922,9.927s6.177-2.11,3.475-2.978-2.51-5.115-1.834-10.424,5.888-2.123,8.107-9.169a7.606,7.606,0,0,1,4.162-4.954" transform="translate(448.01 429.313)" fill="none" stroke="#000" stroke-linecap="round" stroke-linejoin="round" stroke-miterlimit="10" stroke-width="2"/>
        </g>
        <g id="g6148" transform="translate(48.757 5.92)">
          <path id="path6150" d="M-90.724-142.3a8.2,8.2,0,0,1-8.2-8.2,8.2,8.2,0,0,1,8.2-8.2,8.2,8.2,0,0,1,8.2,8.2A8.2,8.2,0,0,1-90.724-142.3Zm14.194-10.723a14.421,14.421,0,0,0-14.534-11.89,14.358,14.358,0,0,0-14.076,14.769,14.419,14.419,0,0,0,8.1,12.611,2.227,2.227,0,0,1,.967.9l4.565,8.09a.9.9,0,0,0,1.567,0l4.565-8.091a2.226,2.226,0,0,1,.965-.9,14.453,14.453,0,0,0,7.576-9.091" transform="translate(105.143 164.92)" fill="none" stroke="#000" stroke-linecap="round" stroke-linejoin="round" stroke-miterlimit="10" stroke-width="2"/>
        </g>
      </g>
    </g>
  </g>
</svg>
