<svg xmlns="http://www.w3.org/2000/svg" width="41.24" height="41.271" viewBox="0 0 41.24 41.271">
  <g id="Fill_out_line" data-name="Fill out line" transform="translate(-15.999 -15.998)">
    <g id="Grupo_1108195" data-name="Grupo 1108195" transform="translate(16.686 16.686)">
      <path id="Trazado_902547" data-name="Trazado 902547" d="M422.812,333.584a19.857,19.857,0,0,1-1.318,2.453.689.689,0,0,1-1.011.176l-1.629-1.289a.69.69,0,0,1-.156-.9,16.494,16.494,0,0,0,.9-1.683.69.69,0,0,1,.851-.366l1.96.677a.69.69,0,0,1,.4.937Z" transform="translate(-384.667 -305.457)" fill="#537ec2"/>
      <path id="Trazado_902548" data-name="Trazado 902548" d="M446.406,275.329a19.774,19.774,0,0,1-.436,2.376.689.689,0,0,1-.893.486l-1.96-.677a.69.69,0,0,1-.443-.814,16.336,16.336,0,0,0,.3-1.609.69.69,0,0,1,.7-.6l2.071.068a.689.689,0,0,1,.661.773Z" transform="translate(-406.658 -252.951)" fill="#537ec2"/>
      <path id="Trazado_902549" data-name="Trazado 902549" d="M450.38,236.1l-2.216-.073a.529.529,0,0,1-.51-.5v-.01a.529.529,0,0,1,.459-.554l2.2-.29a.689.689,0,0,1,.777.642l0,.055a.689.689,0,0,1-.71.727Z" transform="translate(-411.227 -216.552)" fill="#537ec2"/>
      <path id="Trazado_902550" data-name="Trazado 902550" d="M55.57,55.666A16.507,16.507,0,1,1,53.382,30.4l-.088.075a1.032,1.032,0,0,0,.491,1.8l3.595.646a1.032,1.032,0,0,0,1.214-1.045l-.1-3.651a1.032,1.032,0,0,0-1.7-.753l-.728.627a19.947,19.947,0,1,0,2.11,29.837.689.689,0,0,0-.062-1.024l-1.628-1.289a.685.685,0,0,0-.907.047Z" transform="translate(-23.999 -23.997)" fill="#537ec2"/>
    </g>
    <rect id="Rect치ngulo_404603" data-name="Rect치ngulo 404603" width="1.945" height="17.509" rx="0.973" transform="translate(38.006 22.879) rotate(-45)" fill="#f57a08"/>
    <rect id="Rect치ngulo_404604" data-name="Rect치ngulo 404604" width="1.945" height="17.509" rx="0.973" transform="translate(21.498 39.384) rotate(-45)" fill="#f57a08"/>
    <path id="Trazado_902551" data-name="Trazado 902551" d="M130.138,115.005l-2.779,2.779a3.436,3.436,0,0,1-3.205.919l-3.867-.892a2.064,2.064,0,0,0-2.475,2.475l.892,3.867a3.436,3.436,0,0,1-.919,3.205l-2.779,2.779L104,119.132l2.779-2.779a3.436,3.436,0,0,1,3.205-.919l3.867.892a2.064,2.064,0,0,0,2.475-2.475l-.892-3.867a3.436,3.436,0,0,1,.919-3.205L119.132,104l7.323,7.323.487.487Z" transform="translate(-80.435 -80.435)" fill="#e7f2da"/>
    <path id="Trazado_902552" data-name="Trazado 902552" d="M247.6,162.359l.3,1.312a3.417,3.417,0,0,1-.657,2.911,2.341,2.341,0,0,0-.56,2.679,3.434,3.434,0,0,1,4.145-2.661l3.867.892a2.063,2.063,0,0,0,1.923-.552l2.779-2.779-5.218-5.218C251.065,158.535,246.83,159.331,247.6,162.359Z" transform="translate(-210.669 -130.564)" fill="#f3b73f"/>
    <path id="Trazado_902553" data-name="Trazado 902553" d="M152,328l5.906,5.906,2.779-2.779a2.05,2.05,0,0,0,.584-1.751c-.556.8-2.319.788-1.975-1.376C157.918,329.376,155.439,331.439,152,328Z" transform="translate(-124.308 -285.176)" fill="#f3b73f"/>
    <circle id="Elipse_14890" data-name="Elipse 14890" cx="0.468" cy="0.468" r="0.468" transform="translate(34.91 40.377)" fill="#f3b73f"/>
    <path id="Trazado_902554" data-name="Trazado 902554" d="M229.032,292a1.032,1.032,0,1,0,1.032,1.032A1.032,1.032,0,0,0,229.032,292Zm0,1.376a.344.344,0,1,1,.344-.344A.344.344,0,0,1,229.032,293.376Z" transform="translate(-193.774 -252.271)"/>
    <path id="Trazado_902555" data-name="Trazado 902555" d="M415.329,324.676,413.37,324a1.375,1.375,0,0,0-1.7.727,15.851,15.851,0,0,1-.865,1.613,1.38,1.38,0,0,0,.316,1.8l1.629,1.289a1.377,1.377,0,0,0,2.02-.348,20.618,20.618,0,0,0,1.364-2.538,1.378,1.378,0,0,0-.8-1.869Zm-.138,1.446a19.581,19.581,0,0,1-1.3,2.41.35.35,0,0,1-.237.159.344.344,0,0,1-.27-.069l-1.629-1.289a.347.347,0,0,1-.077-.454,16.885,16.885,0,0,0,.921-1.718.349.349,0,0,1,.316-.2.34.34,0,0,1,.111.019l1.959.677a.343.343,0,0,1,.2.188A.352.352,0,0,1,415.192,326.122Z" transform="translate(-360.674 -281.45)"/>
    <path id="Trazado_902556" data-name="Trazado 902556" d="M438.448,266.554l-2.071-.068a1.372,1.372,0,0,0-1.409,1.2,15.668,15.668,0,0,1-.283,1.541,1.375,1.375,0,0,0,.888,1.622l1.96.677a1.377,1.377,0,0,0,1.786-.971,20.541,20.541,0,0,0,.451-2.459,1.377,1.377,0,0,0-1.321-1.543Zm.3,1.419a19.535,19.535,0,0,1-.429,2.335.345.345,0,0,1-.447.244l-1.96-.677a.346.346,0,0,1-.221-.41c.127-.54.229-1.092.3-1.643a.342.342,0,0,1,.341-.3h.012l2.071.068a.344.344,0,0,1,.25.12A.349.349,0,0,1,438.744,267.973Z" transform="translate(-382.652 -228.95)"/>
    <path id="Trazado_902557" data-name="Trazado 902557" d="M439.658,228.253a1.21,1.21,0,0,0,1.175,1.146l2.214.072h.046a1.377,1.377,0,0,0,1.374-1.455l0-.055a1.376,1.376,0,0,0-1.554-1.284l-2.2.29a1.219,1.219,0,0,0-1.056,1.269Zm1.19-.263,2.2-.29a.331.331,0,0,1,.044,0,.345.345,0,0,1,.343.325l0,.054a.345.345,0,0,1-.344.365l-2.227-.073a.18.18,0,0,1-.178-.168v-.017A.187.187,0,0,1,440.848,227.99Z" transform="translate(-387.231 -192.554)"/>
    <path id="Trazado_902558" data-name="Trazado 902558" d="M51.22,49.057l-1.629-1.289a1.373,1.373,0,0,0-1.818.1,15.719,15.719,0,0,1-11.137,4.587l-.259,0a15.82,15.82,0,1,1,8.7-29.2,1.724,1.724,0,0,0,1.273,2.384l3.6.646a1.72,1.72,0,0,0,2.023-1.742l-.1-3.651a1.72,1.72,0,0,0-2.841-1.254l-.311.268A20.448,20.448,0,0,0,36.626,16H36.47A20.635,20.635,0,1,0,51.345,51.1a1.377,1.377,0,0,0-.125-2.046Zm-.61,1.322A19.612,19.612,0,1,1,36.478,17.031h.148a19.434,19.434,0,0,1,11.8,3.944.516.516,0,0,0,.647-.021l.623-.536a.688.688,0,0,1,1.136.5l.1,3.651a.688.688,0,0,1-.809.7l-3.6-.646a.688.688,0,0,1-.372-1.156.516.516,0,0,0-.079-.788A16.853,16.853,0,1,0,48.5,48.6a.341.341,0,0,1,.451-.021l1.628,1.289a.344.344,0,0,1,.13.248.348.348,0,0,1-.1.265Z" transform="translate(0 0)"/>
    <path id="Trazado_902559" data-name="Trazado 902559" d="M95.171,93.533l3.867.892a4.1,4.1,0,0,0,3.846-1.1l2.4-2.4a1.661,1.661,0,0,0,1.757-2.73L96.034,77.189a1.662,1.662,0,0,0-2.73,1.757l-2.4,2.4a4.1,4.1,0,0,0-1.1,3.846l.893,3.868a1.376,1.376,0,0,1-1.65,1.65l-3.868-.892a4.105,4.105,0,0,0-3.846,1.1l-2.4,2.4a1.661,1.661,0,0,0-1.757,2.73l11.005,11.005a1.662,1.662,0,0,0,2.73-1.757l2.4-2.4a4.1,4.1,0,0,0,1.1-3.846l-.893-3.868a1.376,1.376,0,0,1,1.65-1.65Zm-2.655,1.882.892,3.867a3.078,3.078,0,0,1-.827,2.885L90.045,104.7l-.486-.486,2.536-2.536a2.384,2.384,0,0,0,.681-2.043.344.344,0,0,0-.623-.147.837.837,0,0,1-.937.292c-.383-.154-.534-.671-.415-1.418a.344.344,0,0,0-.583-.3c-1.683,1.683-3.808,3-6.808,0l-3.884-3.884,2.536-2.536a3.078,3.078,0,0,1,2.885-.827l3.867.892A2.407,2.407,0,0,0,91.7,88.826l-.892-3.867a3.078,3.078,0,0,1,.827-2.885l2.536-2.536,3.9,3.9c-2.094-.108-4.4.3-5.483,1.519a2.529,2.529,0,0,0-.522,2.4l.3,1.312a3.075,3.075,0,0,1-.579,2.6,2.666,2.666,0,0,0-.621,3.037.344.344,0,0,0,.318.215h.032a.344.344,0,0,0,.305-.274,3.1,3.1,0,0,1,3.026-2.476,3.136,3.136,0,0,1,.7.081l3.867.892a2.407,2.407,0,0,0,2.244-.643L104.2,89.57l.486.486-2.536,2.536a3.077,3.077,0,0,1-2.885.827L95.4,92.527a2.407,2.407,0,0,0-2.887,2.887ZM89.8,106.321a.629.629,0,0,1-.889,0L77.907,95.316a.629.629,0,0,1,.889-.889L89.8,105.432A.629.629,0,0,1,89.8,106.321Zm-4.1-5.96a3.909,3.909,0,0,0,1.955.092,5.513,5.513,0,0,0,2.429-1.32,1.452,1.452,0,0,0,.871,1.289,1.483,1.483,0,0,0,1.1-.022,1.713,1.713,0,0,1-.454.8l-2.536,2.536ZM106.31,89.813a.629.629,0,0,1-.889,0L94.415,78.808a.629.629,0,0,1,.889-.889L106.31,88.924A.629.629,0,0,1,106.31,89.813Zm-13.268-1.3-.3-1.32a1.829,1.829,0,0,1,.367-1.782c.746-.84,2.849-1.571,5.723-1.221l2.42,2.42c-3.145,2.96-5.592,1.737-6.922,1.072a.344.344,0,1,0-.308.615,6.939,6.939,0,0,0,3.169.9,6.576,6.576,0,0,0,4.547-2.1l1.984,1.984-2.536,2.536a1.719,1.719,0,0,1-1.6.46l-3.867-.892a3.772,3.772,0,0,0-4.043,1.656,2.11,2.11,0,0,1,.623-1.093.348.348,0,0,0,.027-.03A3.76,3.76,0,0,0,93.042,88.516Z" transform="translate(-55.475 -55.487)"/>
    <path id="Trazado_902560" data-name="Trazado 902560" d="M184.067,253.26a3.826,3.826,0,0,1-.859-.1l-2.638-.609a.344.344,0,1,1,.155-.67l2.638.609a3.137,3.137,0,0,0,.7.081.344.344,0,1,1,0,.688Z" transform="translate(-150.177 -215.595)"/>
    <path id="Trazado_902561" data-name="Trazado 902561" d="M143.98,249.252a.344.344,0,0,1-.243-.587,2.407,2.407,0,0,1,2.244-.643.344.344,0,1,1-.155.67,1.719,1.719,0,0,0-1.6.46.343.343,0,0,1-.243.1Z" transform="translate(-116.664 -212.017)"/>
  </g>
</svg>
