<svg xmlns="http://www.w3.org/2000/svg" width="43.017" height="40.497" viewBox="0 0 43.017 40.497">
  <g id="fitness_11011186" transform="translate(0.5 0.511)">
    <rect id="Rectángulo_402625" data-name="Rectángulo 402625" width="10.248" height="3.758" transform="translate(27.268 11.458)" fill="#7491aa"/>
    <path id="Trazado_897908" data-name="Trazado 897908" d="M451.543,135.378h0a2.251,2.251,0,0,0-2.251,2.251v3.29a2.251,2.251,0,0,0,2.251,2.251h0a2.251,2.251,0,0,0,2.251-2.251v-3.29A2.251,2.251,0,0,0,451.543,135.378Z" transform="translate(-411.776 -125.936)" fill="#7491aa"/>
    <path id="Trazado_897909" data-name="Trazado 897909" d="M278.834,135.378h0a2.251,2.251,0,0,0-2.251,2.251v3.29a2.251,2.251,0,0,0,2.251,2.251h0a2.251,2.251,0,0,0,2.251-2.251v-3.29A2.251,2.251,0,0,0,278.834,135.378Z" transform="translate(-253.817 -125.936)" fill="#7491aa"/>
    <g id="Grupo_1107821" data-name="Grupo 1107821" transform="translate(1.314 0)">
      <path id="Trazado_897910" data-name="Trazado 897910" d="M35.524,37.682a5.152,5.152,0,0,1-10.14-.349,5.151,5.151,0,0,0,3.526-6.147A5.151,5.151,0,1,1,38.922,28.76Z" transform="translate(-25.384 -24.821)" fill="#f8ce7d"/>
    </g>
    <g id="Grupo_1107823" data-name="Grupo 1107823" transform="translate(0 15.216)">
      <g id="Grupo_1107822" data-name="Grupo 1107822" transform="translate(10.617 5.223)">
        <path id="Trazado_897911" data-name="Trazado 897911" d="M141.149,264.513v-.359h-4.791v.359a2.16,2.16,0,0,1-2.034,2.156v2.64a4.429,4.429,0,0,0,4.429,4.429h0a4.429,4.429,0,0,0,4.429-4.429v-2.64A2.16,2.16,0,0,1,141.149,264.513Z" transform="translate(-134.324 -264.154)" fill="#f8d2c9"/>
      </g>
      <path id="Trazado_897912" data-name="Trazado 897912" d="M293.268,202.993v7.743h-6.822v4.507a3.438,3.438,0,0,0,.6,1.909h0l6.093-.829a5.134,5.134,0,0,0,4.442-5.088v-8.242h-4.309Z" transform="translate(-262.837 -202.993)" fill="#f8d2c9"/>
      <path id="Trazado_897913" data-name="Trazado 897913" d="M15.054,304.528h0a4.929,4.929,0,0,1,.834-2.751,3.437,3.437,0,0,0,.6-1.909V295.52A8.088,8.088,0,0,0,10,303.447v8.441h4.612l.954-5.168h0A4.933,4.933,0,0,1,15.054,304.528Z" transform="translate(-10 -287.618)" fill="#f8d2c9"/>
    </g>
    <path id="Trazado_897914" data-name="Trazado 897914" d="M70.614,293.661v4.507a3.438,3.438,0,0,1-.6,1.909,4.93,4.93,0,0,0-.834,2.751h0a4.934,4.934,0,0,0,1.126,3.145,6.712,6.712,0,0,1,1.524,4.215H86.519a6.712,6.712,0,0,1,1.524-4.215,4.934,4.934,0,0,0,1.126-3.145h0a4.929,4.929,0,0,0-.834-2.751,3.438,3.438,0,0,1-.6-1.909v-4.507H83.605V296.3a4.429,4.429,0,0,1-4.429,4.429h0a4.429,4.429,0,0,1-4.429-4.429v-2.636Z" transform="translate(-64.13 -270.702)" fill="#f18798"/>
    <path id="Trazado_897915" data-name="Trazado 897915" d="M361.527,129.006h-2.033a1.671,1.671,0,0,1-1.671-1.671h0a1.745,1.745,0,0,1,1.745-1.745h1.884a1.745,1.745,0,0,1,1.745,1.745h0A1.671,1.671,0,0,1,361.527,129.006Z" transform="translate(-328.119 -116.984)" fill="#f8d2c9"/>
    <path id="Trazado_897916" data-name="Trazado 897916" d="M117.265,69.426h0a6.436,6.436,0,0,0-6.436,6.436V80a6.436,6.436,0,0,0,6.436,6.436h0A6.436,6.436,0,0,0,123.7,80V75.862A6.436,6.436,0,0,0,117.265,69.426Z" transform="translate(-102.218 -65.617)" fill="#f8d2c9"/>
    <path id="Trazado_897917" data-name="Trazado 897917" d="M119.233,73.415h0a21.612,21.612,0,0,1,6.252.919h0a6.437,6.437,0,0,0-6.252-4.909h0a6.437,6.437,0,0,0-6.252,4.909h0A21.612,21.612,0,0,1,119.233,73.415Z" transform="translate(-104.186 -65.617)" fill="#f8ce7d"/>
    <path id="Trazado_897918" data-name="Trazado 897918" d="M117.265,116.141a21.613,21.613,0,0,0-6.252.919,6.447,6.447,0,0,0-.184,1.527v1.949a21.609,21.609,0,0,1,6.436-.974h0a21.609,21.609,0,0,1,6.436.974v-1.949a6.448,6.448,0,0,0-.184-1.527,21.614,21.614,0,0,0-6.252-.919Z" transform="translate(-102.218 -108.342)" fill="#f18798"/>
    <g id="Grupo_1107824" data-name="Grupo 1107824" transform="translate(1.314)">
      <path id="Trazado_897919" data-name="Trazado 897919" d="M73.153,27.383a5.151,5.151,0,0,1,9.422,1.233" transform="translate(-69.073 -24.821)" fill="none" stroke="#000" stroke-linecap="round" stroke-linejoin="round" stroke-miterlimit="10" stroke-width="1"/>
      <path id="Trazado_897920" data-name="Trazado 897920" d="M32.931,150.035a5.153,5.153,0,0,1-7.548-3.809,5.136,5.136,0,0,0,2.972-2.345" transform="translate(-25.383 -133.713)" fill="none" stroke="#000" stroke-linecap="round" stroke-linejoin="round" stroke-miterlimit="10" stroke-width="1"/>
    </g>
    <path id="Trazado_897921" data-name="Trazado 897921" d="M451.543,135.378h0a2.251,2.251,0,0,0-2.251,2.251v3.29a2.251,2.251,0,0,0,2.251,2.251h0a2.251,2.251,0,0,0,2.251-2.251v-3.29A2.251,2.251,0,0,0,451.543,135.378Z" transform="translate(-411.776 -125.936)" fill="none" stroke="#000" stroke-linecap="round" stroke-linejoin="round" stroke-miterlimit="10" stroke-width="1"/>
    <path id="Trazado_897922" data-name="Trazado 897922" d="M278.834,135.378h0a2.251,2.251,0,0,0-2.251,2.251v3.29a2.251,2.251,0,0,0,2.251,2.251h0a2.251,2.251,0,0,0,2.251-2.251v-3.29A2.251,2.251,0,0,0,278.834,135.378Z" transform="translate(-253.817 -125.936)" fill="none" stroke="#000" stroke-linecap="round" stroke-linejoin="round" stroke-miterlimit="10" stroke-width="1"/>
    <line id="Línea_587" data-name="Línea 587" x2="10.028" transform="translate(27.378 15.216)" fill="none" stroke="#000" stroke-linecap="round" stroke-linejoin="round" stroke-miterlimit="10" stroke-width="1"/>
    <line id="Línea_588" data-name="Línea 588" x1="2.523" transform="translate(27.378 11.458)" fill="none" stroke="#000" stroke-linecap="round" stroke-linejoin="round" stroke-miterlimit="10" stroke-width="1"/>
    <line id="Línea_589" data-name="Línea 589" x1="2.524" transform="translate(34.762 11.458)" fill="none" stroke="#000" stroke-linecap="round" stroke-linejoin="round" stroke-miterlimit="10" stroke-width="1"/>
    <path id="Trazado_897923" data-name="Trazado 897923" d="M361.527,129.006h-2.033a1.671,1.671,0,0,1-1.671-1.671h0a1.745,1.745,0,0,1,1.745-1.745h1.884a1.745,1.745,0,0,1,1.745,1.745h0A1.671,1.671,0,0,1,361.527,129.006Z" transform="translate(-328.119 -116.984)" fill="none" stroke="#000" stroke-linecap="round" stroke-linejoin="round" stroke-miterlimit="10" stroke-width="1"/>
    <path id="Trazado_897924" data-name="Trazado 897924" d="M227.226,205.59v7.521H216.4a2.161,2.161,0,0,1-2.161-2.161v-.359" transform="translate(-196.796 -190.152)" fill="none" stroke="#000" stroke-linecap="round" stroke-linejoin="round" stroke-miterlimit="10" stroke-width="1"/>
    <path id="Trazado_897925" data-name="Trazado 897925" d="M293.429,219.527l6.093-.829a5.134,5.134,0,0,0,4.442-5.088V205.59" transform="translate(-269.224 -190.152)" fill="none" stroke="#000" stroke-linecap="round" stroke-linejoin="round" stroke-miterlimit="10" stroke-width="1"/>
    <path id="Trazado_897926" data-name="Trazado 897926" d="M117.265,69.426h0a6.436,6.436,0,0,0-6.436,6.436V80a6.436,6.436,0,0,0,6.436,6.436h0A6.436,6.436,0,0,0,123.7,80V75.862A6.436,6.436,0,0,0,117.265,69.426Z" transform="translate(-102.218 -65.617)" fill="none" stroke="#000" stroke-linecap="round" stroke-linejoin="round" stroke-miterlimit="10" stroke-width="1"/>
    <path id="Trazado_897927" data-name="Trazado 897927" d="M134.324,295.431v2.485a4.429,4.429,0,0,0,4.429,4.429h0a4.429,4.429,0,0,0,4.429-4.429v-2.485" transform="translate(-123.707 -272.321)" fill="none" stroke="#000" stroke-linecap="round" stroke-linejoin="round" stroke-miterlimit="10" stroke-width="1"/>
    <path id="Trazado_897928" data-name="Trazado 897928" d="M70.614,295.661v4.126a3.438,3.438,0,0,1-.6,1.909,4.93,4.93,0,0,0-.834,2.751h0a4.935,4.935,0,0,0,1.126,3.145,6.712,6.712,0,0,1,1.524,4.215H86.519a6.712,6.712,0,0,1,1.524-4.215,4.935,4.935,0,0,0,1.126-3.145h0a4.929,4.929,0,0,0-.834-2.751,3.438,3.438,0,0,1-.6-1.909v-4.356" transform="translate(-64.13 -272.321)" fill="none" stroke="#000" stroke-linecap="round" stroke-linejoin="round" stroke-miterlimit="10" stroke-width="1"/>
    <path id="Trazado_897929" data-name="Trazado 897929" d="M15.565,278.032l-.954,5.168H10v-8.441a8.085,8.085,0,0,1,8.085-8.085h2.405a2.161,2.161,0,0,0,2.161-2.161v-.359" transform="translate(-10 -243.715)" fill="none" stroke="#000" stroke-linecap="round" stroke-linejoin="round" stroke-miterlimit="10" stroke-width="1"/>
    <path id="Trazado_897930" data-name="Trazado 897930" d="M111.486,157.157a21.611,21.611,0,0,1,6.38-.957h0a21.613,21.613,0,0,1,6.358.95" transform="translate(-102.819 -144.98)" fill="none" stroke="#000" stroke-linecap="round" stroke-linejoin="round" stroke-miterlimit="10" stroke-width="1"/>
    <path id="Trazado_897931" data-name="Trazado 897931" d="M126.2,117.057a21.616,21.616,0,0,0-6.24-.916h0a21.615,21.615,0,0,0-6.184.9" transform="translate(-104.909 -108.342)" fill="none" stroke="#000" stroke-linecap="round" stroke-linejoin="round" stroke-miterlimit="10" stroke-width="1"/>
    <line id="Línea_590" data-name="Línea 590" transform="translate(4.83 6.363)" fill="none" stroke="#000" stroke-linecap="round" stroke-linejoin="round" stroke-miterlimit="10" stroke-width="1"/>
  </g>
</svg>
