<svg xmlns="http://www.w3.org/2000/svg" xmlns:xlink="http://www.w3.org/1999/xlink" width="70.859" height="70.859" viewBox="0 0 70.859 70.859">
  <defs>
    <filter id="Trazado_874925" x="0" y="0" width="70.859" height="70.859" filterUnits="userSpaceOnUse">
      <feOffset dy="3" input="SourceAlpha"/>
      <feGaussianBlur stdDeviation="3" result="blur"/>
      <feFlood flood-opacity="0.161"/>
      <feComposite operator="in" in2="blur"/>
      <feComposite in="SourceGraphic"/>
    </filter>
  </defs>
  <g id="Grupo_1108323" data-name="Grupo 1108323" transform="translate(9 6)">
    <g transform="matrix(1, 0, 0, 1, -9, -6)" filter="url(#Trazado_874925)">
      <g id="Trazado_874925-2" data-name="Trazado 874925" transform="translate(9 6)" fill="#97d8f6" opacity="0.859">
        <path d="M 26.42959976196289 51.35950088500977 C 23.0634593963623 51.35950088500977 19.79880905151367 50.7005729675293 16.7263298034668 49.40102386474609 C 13.75790977478027 48.14549255371094 11.09167957305908 46.34777069091797 8.80171012878418 44.05779266357422 C 6.511729717254639 41.767822265625 4.714009761810303 39.10159301757812 3.458479642868042 36.13317108154297 C 2.158929824829102 33.06069183349609 1.499999761581421 29.79604148864746 1.499999761581421 26.42990303039551 C 1.499999761581421 23.06346321105957 2.158929824829102 19.79881286621094 3.458479642868042 16.72633171081543 C 4.714009761810303 13.75791263580322 6.511729717254639 11.09168243408203 8.80171012878418 8.801712036132812 C 11.09167957305908 6.511732578277588 13.75790977478027 4.714012145996094 16.7263298034668 3.458482265472412 C 19.79880905151367 2.158932447433472 23.0634593963623 1.500002384185791 26.42959976196289 1.500002384185791 C 29.79574012756348 1.500002384185791 33.06039047241211 2.158932447433472 36.13286972045898 3.458482265472412 C 39.10129165649414 4.714012145996094 41.76752090454102 6.511732578277588 44.05749130249023 8.801712036132812 C 46.34746932983398 11.09168243408203 48.14519119262695 13.75791263580322 49.40071868896484 16.72633171081543 C 50.70027160644531 19.79881286621094 51.35919952392578 23.06346321105957 51.35919952392578 26.42960166931152 C 51.35919952392578 29.79604148864746 50.70027160644531 33.06069183349609 49.40071868896484 36.13317108154297 C 48.14519119262695 39.10159301757812 46.34746932983398 41.767822265625 44.05749130249023 44.05779266357422 C 41.76752090454102 46.34777069091797 39.10129165649414 48.14549255371094 36.13286972045898 49.40102386474609 C 33.06039047241211 50.7005729675293 29.79574012756348 51.35950088500977 26.42959976196289 51.35950088500977 Z" stroke="none"/>
        <path d="M 26.42959976196289 3.000003814697266 C 23.26529884338379 3.000003814697266 20.19725036621094 3.619060516357422 17.31066131591797 4.839981079101562 C 14.52103805541992 6.019893646240234 12.01506805419922 7.709671020507812 9.862369537353516 9.862373352050781 C 7.709671020507812 12.01507186889648 6.019889831542969 14.52104187011719 4.839981079101562 17.31066131591797 C 3.619060516357422 20.1972541809082 3 23.26530265808105 3 26.42990303039551 C 3 29.59420204162598 3.619060516357422 32.66225433349609 4.839981079101562 35.54884338378906 C 6.019889831542969 38.33846282958984 7.709671020507812 40.84443283081055 9.862369537353516 42.99713134765625 C 12.01506805419922 45.14983367919922 14.52103805541992 46.8396110534668 17.31066131591797 48.01952362060547 C 20.19725036621094 49.24044036865234 23.26529884338379 49.85950088500977 26.42959976196289 49.85950088500977 C 29.59390068054199 49.85950088500977 32.66194915771484 49.24044036865234 35.54853820800781 48.01952362060547 C 38.33815765380859 46.8396110534668 40.84413146972656 45.14983367919922 42.99682998657227 42.99713134765625 C 45.14952850341797 40.84443283081055 46.83930969238281 38.33846282958984 48.01921844482422 35.54884338378906 C 49.24013900756836 32.66225433349609 49.85919952392578 29.59420204162598 49.85919952392578 26.42960166931152 C 49.85919952392578 23.26530265808105 49.24013900756836 20.1972541809082 48.01921844482422 17.31066131591797 C 46.83930969238281 14.52104187011719 45.14952850341797 12.01507186889648 42.99682998657227 9.862373352050781 C 40.84413146972656 7.709671020507812 38.33815765380859 6.019893646240234 35.54853820800781 4.839981079101562 C 32.66194915771484 3.619060516357422 29.59390068054199 3.000003814697266 26.42959976196289 3.000003814697266 M 26.42959976196289 3.814697265625e-06 C 41.02626037597656 3.814697265625e-06 52.85919952392578 11.83293151855469 52.85919952392578 26.42960166931152 L 52.85919952392578 26.42990303039551 C 52.85919952392578 41.02657318115234 41.02626037597656 52.85950088500977 26.42959976196289 52.85950088500977 C 11.83293151855469 52.85950088500977 0 41.02657318115234 0 26.42990303039551 L 0 26.42960166931152 C 0 11.83293151855469 11.83293151855469 3.814697265625e-06 26.42959976196289 3.814697265625e-06 Z" stroke="none" fill="#fff"/>
      </g>
    </g>
    <g id="Trazado_874923" data-name="Trazado 874923" fill="none">
      <path d="M26.43,0a26.43,26.43,0,0,1,26.43,26.43h0A26.43,26.43,0,1,1,0,26.43H0A26.43,26.43,0,0,1,26.43,0Z" stroke="none"/>
      <path d="M 26.42959976196289 3.000003814697266 C 23.26529884338379 3.000003814697266 20.19725036621094 3.619060516357422 17.31066131591797 4.839981079101562 C 14.52103805541992 6.019893646240234 12.01506805419922 7.709671020507812 9.862369537353516 9.862373352050781 C 7.709671020507812 12.01507186889648 6.019889831542969 14.52104187011719 4.839981079101562 17.31066131591797 C 3.619060516357422 20.1972541809082 3 23.26530265808105 3 26.42990303039551 C 3 29.59420204162598 3.619060516357422 32.66225433349609 4.839981079101562 35.54884338378906 C 6.019889831542969 38.33846282958984 7.709671020507812 40.84443283081055 9.862369537353516 42.99713134765625 C 12.01506805419922 45.14983367919922 14.52103805541992 46.8396110534668 17.31066131591797 48.01952362060547 C 20.19725036621094 49.24044036865234 23.26529884338379 49.85950088500977 26.42959976196289 49.85950088500977 C 29.59390068054199 49.85950088500977 32.66194915771484 49.24044036865234 35.54853820800781 48.01952362060547 C 38.33815765380859 46.8396110534668 40.84413146972656 45.14983367919922 42.99682998657227 42.99713134765625 C 45.14952850341797 40.84443283081055 46.83930969238281 38.33846282958984 48.01921844482422 35.54884338378906 C 49.24013900756836 32.66225433349609 49.85919952392578 29.59420204162598 49.85919952392578 26.42960166931152 C 49.85919952392578 23.26530265808105 49.24013900756836 20.1972541809082 48.01921844482422 17.31066131591797 C 46.83930969238281 14.52104187011719 45.14952850341797 12.01507186889648 42.99682998657227 9.862373352050781 C 40.84413146972656 7.709671020507812 38.33815765380859 6.019893646240234 35.54853820800781 4.839981079101562 C 32.66194915771484 3.619060516357422 29.59390068054199 3.000003814697266 26.42959976196289 3.000003814697266 M 26.42959976196289 3.814697265625e-06 C 41.02626037597656 3.814697265625e-06 52.85919952392578 11.83293151855469 52.85919952392578 26.42960166931152 L 52.85919952392578 26.42990303039551 C 52.85919952392578 41.02657318115234 41.02626037597656 52.85950088500977 26.42959976196289 52.85950088500977 C 11.83293151855469 52.85950088500977 0 41.02657318115234 0 26.42990303039551 L 0 26.42960166931152 C 0 11.83293151855469 11.83293151855469 3.814697265625e-06 26.42959976196289 3.814697265625e-06 Z" stroke="none" fill="#fff"/>
    </g>
    <g id="sports_7484530" transform="translate(-19.064 3.229)">
      <g id="Grupo_1108271" data-name="Grupo 1108271" transform="translate(31.296 7.499)">
        <path id="Trazado_902671" data-name="Trazado 902671" d="M113.9,160.748a2.547,2.547,0,0,0,.339.853,11.145,11.145,0,0,1-1.216,4.294c-.158.3-.52.13-.7.418-.128.2-.07.865-.209,1.056a13.632,13.632,0,0,1-1.622,1.328c-2.018,1.95-4.4,2.4-7.43,2.4-6.194,0-10.315-4.152-10.315-10.346s4.122-11.215,10.315-11.215a11.172,11.172,0,0,1,7.455,2.826,11.319,11.319,0,0,1,1.6,1.768,1.5,1.5,0,0,0,0,.893c.128.212.8.36.914.58a11.146,11.146,0,0,1,1.216,4.294A2.548,2.548,0,0,0,113.9,160.748Z" transform="translate(-88.862 -140.559)" fill="#eb9a58"/>
        <path id="Trazado_902672" data-name="Trazado 902672" d="M92.9,199.711a11.285,11.285,0,0,0,6.358-1.9,11.2,11.2,0,0,1-8.2,4.562l-.853-.215-.852.215a11.2,11.2,0,0,1-8.2-4.562l0-.865-.911-.608a11.11,11.11,0,0,1-1.217-4.293l.344-.853-.343-.853a11.184,11.184,0,0,1,1.216-4.295l.734-.5.181-.968a10.6,10.6,0,0,1,2.583-2.541A11.215,11.215,0,0,0,92.9,199.711Z" transform="translate(-76.011 -171.002)" fill="#d88955"/>
        <path id="Trazado_902673" data-name="Trazado 902673" d="M115.953,160.748q0-.43-.032-.853h-5.8a.127.127,0,0,1-.121-.163,4.675,4.675,0,0,1,1.079-1.829,9.281,9.281,0,0,1,3.5-2.256l.117-.045a11.225,11.225,0,0,0-.913-1.473c-3.117,1.256-5.121,3.32-5.552,5.663a.126.126,0,0,1-.124.1h-2.4a.126.126,0,0,1-.126-.126v-10.2q-.422-.032-.853-.032t-.853.032v10.2a.126.126,0,0,1-.126.126h-2.4a.126.126,0,0,1-.124-.1c-.413-2.246-2.273-4.236-5.173-5.5a2.881,2.881,0,0,0-.754,1.532,8.969,8.969,0,0,1,3.083,2.083,4.675,4.675,0,0,1,1.079,1.829.127.127,0,0,1-.121.163H94.582a2.584,2.584,0,0,0,.341,1.706h4.43a.127.127,0,0,1,.121.163,4.675,4.675,0,0,1-1.079,1.829,8.751,8.751,0,0,1-2.8,1.957,5.056,5.056,0,0,0,.805,1.506c2.708-1.271,4.441-3.192,4.838-5.351a.127.127,0,0,1,.124-.1h2.4a.126.126,0,0,1,.126.126v9.006a3,3,0,0,0,1.706.053v-9.059a.126.126,0,0,1,.126-.126h2.4a.126.126,0,0,1,.124.1c.431,2.343,2.435,4.407,5.552,5.663a11.224,11.224,0,0,0,.914-1.473l-.117-.045a9.283,9.283,0,0,1-3.5-2.256A4.676,4.676,0,0,1,110,161.764a.127.127,0,0,1,.121-.163h5.8Q115.953,161.179,115.953,160.748Z" transform="translate(-90.541 -140.559)" fill="#e8f6ff"/>
        <path id="Trazado_902674" data-name="Trazado 902674" d="M45.5,18.258l-7.8-3.589-.919.538L31.72,13.437a.632.632,0,0,1,0-1.193L45.078,7.57a1.263,1.263,0,0,1,.835,0L59.27,12.245a.632.632,0,0,1,0,1.193l-5.056,1.769-.587-.449Z" transform="translate(-31.297 -7.499)" fill="#8d9ba8"/>
        <path id="Trazado_902675" data-name="Trazado 902675" d="M135.448,73.056V75.2l-3.513,1.23H121.523L118.01,75.2V73.056a1.518,1.518,0,0,1,1.516-1.516h14.405A1.518,1.518,0,0,1,135.448,73.056Z" transform="translate(-112.531 -67.494)" fill="#7a8c98"/>
        <path id="Trazado_902676" data-name="Trazado 902676" d="M156.763,91.794V93.9l-7.455.5-7.2-.5v-1.9a.253.253,0,0,1,.253-.253l.838-.215H156.51A.253.253,0,0,1,156.763,91.794Z" transform="translate(-135.109 -86.231)" fill="#9fabba"/>
        <path id="Trazado_902677" data-name="Trazado 902677" d="M160.51,128.94v1.7l-7.566.56-6.833-.56v-1.7Z" transform="translate(-138.856 -121.267)" fill="#fedf30"/>
        <path id="Trazado_902678" data-name="Trazado 902678" d="M154.822,155.87V158.3h-.991a11.958,11.958,0,0,0-6.139,1.7.633.633,0,0,1-.65,0,11.951,11.951,0,0,0-5.78-1.691c-.119,0-.255-.177-.375-.177l-.812-.054-.036-2.2Z" transform="translate(-133.169 -146.495)" fill="#9fabba"/>
        <path id="Trazado_902679" data-name="Trazado 902679" d="M411.19,204.529l1.172,2.664a.939.939,0,0,1-.859,1.317h-2.1a.939.939,0,0,1-.859-1.317l1.172-2.664Z" transform="translate(-384.628 -192.079)" fill="#fed400"/>
        <circle id="Elipse_14901" data-name="Elipse 14901" cx="1.416" cy="1.416" r="1.416" transform="translate(24.408 9.839)" fill="#fedf30"/>
        <path id="Trazado_902680" data-name="Trazado 902680" d="M81.787,315.226H78.552q-.032-.423-.032-.853c0-.287.011-.572.032-.853h2.813A11.034,11.034,0,0,0,81.787,315.226Z" transform="translate(-75.536 -294.184)" fill="#d8ecfe"/>
        <path id="Trazado_902681" data-name="Trazado 902681" d="M101.453,379.08a11.209,11.209,0,0,0,1.025,1.376,11.553,11.553,0,0,1-3.285,1.954l-.006-.007,0,0a11.29,11.29,0,0,1-.9-1.456.026.026,0,0,0,0-.006l.116-.045A9.876,9.876,0,0,0,101.453,379.08Z" transform="translate(-94.048 -355.601)" fill="#d8ecfe"/>
        <path id="Trazado_902682" data-name="Trazado 902682" d="M98.384,223.768l-.117-.046h0a11.176,11.176,0,0,1,.913-1.47l0,0q.559.226,1.07.485a11.133,11.133,0,0,0-.406,1.717A11.487,11.487,0,0,0,98.384,223.768Z" transform="translate(-94.035 -208.681)" fill="#d8ecfe"/>
        <path id="Trazado_902683" data-name="Trazado 902683" d="M244.206,453.222v2.812h0q-.422.032-.853.032c-.286,0-.571-.011-.852-.032h0V452.8A11.107,11.107,0,0,0,244.206,453.222Z" transform="translate(-229.155 -424.663)" fill="#d8ecfe"/>
        <path id="Trazado_902684" data-name="Trazado 902684" d="M139.36,91.54V93.9l-.633.54-.717-.54v-2.11a.253.253,0,0,1,.253-.253Z" transform="translate(-131.267 -86.23)" fill="#8d9ba8"/>
        <path id="Trazado_902685" data-name="Trazado 902685" d="M139.36,128.94v1.7l-.675.533-.675-.533v-1.7Z" transform="translate(-131.267 -121.267)" fill="#fed400"/>
        <path id="Trazado_902686" data-name="Trazado 902686" d="M139.36,155.87V158.3c-.119,0-.239-.006-.359-.006h-.991V155.87Z" transform="translate(-131.267 -146.495)" fill="#8d9ba8"/>
      </g>
      <g id="Grupo_1108275" data-name="Grupo 1108275" transform="translate(31.296 7.499)">
        <path id="Trazado_902687" data-name="Trazado 902687" d="M100.312,198.92a11.215,11.215,0,1,1-18.035-4.657" transform="translate(-75.533 -182.462)" fill="none" stroke="#000" stroke-linecap="round" stroke-linejoin="round" stroke-miterlimit="10" stroke-width="1"/>
        <path id="Trazado_902688" data-name="Trazado 902688" d="M373.989,194.263a11.247,11.247,0,0,1,2.382,2.993" transform="translate(-352.336 -182.462)" fill="none" stroke="#000" stroke-linecap="round" stroke-linejoin="round" stroke-miterlimit="10" stroke-width="1"/>
        <path id="Trazado_902689" data-name="Trazado 902689" d="M277.7,216.983c-3.163,1.275-5.18,3.381-5.57,5.767H269.5v-6.122" transform="translate(-254.448 -203.414)" fill="none" stroke="#000" stroke-linecap="round" stroke-linejoin="round" stroke-miterlimit="10" stroke-width="1"/>
        <path id="Trazado_902690" data-name="Trazado 902690" d="M344.536,251.5h-5.9a4.578,4.578,0,0,1,1.122-1.992,9.16,9.16,0,0,1,3.34-2.191" transform="translate(-319.218 -232.163)" fill="none" stroke="#000" stroke-linecap="round" stroke-linejoin="round" stroke-miterlimit="10" stroke-width="1"/>
        <path id="Trazado_902691" data-name="Trazado 902691" d="M343.356,344.8l-.089-.035a9.283,9.283,0,0,1-3.505-2.256,4.579,4.579,0,0,1-1.122-1.992h5.9" transform="translate(-319.219 -319.474)" fill="none" stroke="#000" stroke-linecap="round" stroke-linejoin="round" stroke-miterlimit="10" stroke-width="1"/>
        <path id="Trazado_902692" data-name="Trazado 902692" d="M269.5,350.782V340.516h2.629c.39,2.386,2.386,4.484,5.549,5.758" transform="translate(-254.448 -319.474)" fill="none" stroke="#000" stroke-linecap="round" stroke-linejoin="round" stroke-miterlimit="10" stroke-width="1"/>
        <line id="Línea_603" data-name="Línea 603" y2="2.152" transform="translate(13.345 29.156)" fill="none" stroke="#000" stroke-linecap="round" stroke-linejoin="round" stroke-miterlimit="10" stroke-width="1"/>
        <path id="Trazado_902693" data-name="Trazado 902693" d="M113.086,346.273c3.163-1.275,5.158-3.372,5.548-5.758h2.629v5.9" transform="translate(-107.918 -319.473)" fill="none" stroke="#000" stroke-linecap="round" stroke-linejoin="round" stroke-miterlimit="10" stroke-width="1"/>
        <path id="Trazado_902694" data-name="Trazado 902694" d="M100.782,393.224a11.192,11.192,0,0,1-1.86.918l-.081.031" transform="translate(-94.573 -368.852)" fill="none" stroke="#000" stroke-linecap="round" stroke-linejoin="round" stroke-miterlimit="10" stroke-width="1"/>
        <path id="Trazado_902695" data-name="Trazado 902695" d="M80.025,340.516h5.9a4.534,4.534,0,0,1-1.067,1.93" transform="translate(-76.946 -319.474)" fill="none" stroke="#000" stroke-linecap="round" stroke-linejoin="round" stroke-miterlimit="10" stroke-width="1"/>
        <path id="Trazado_902696" data-name="Trazado 902696" d="M81.2,245.7l.1.037a9.282,9.282,0,0,1,3.505,2.256,4.579,4.579,0,0,1,1.122,1.992h-5.9" transform="translate(-76.946 -230.645)" fill="none" stroke="#000" stroke-linecap="round" stroke-linejoin="round" stroke-miterlimit="10" stroke-width="1"/>
        <path id="Trazado_902697" data-name="Trazado 902697" d="M120.935,216.66v6.12h-2.629c-.39-2.386-2.407-4.492-5.57-5.767" transform="translate(-107.59 -203.444)" fill="none" stroke="#000" stroke-linecap="round" stroke-linejoin="round" stroke-miterlimit="10" stroke-width="1"/>
        <g id="Grupo_1108274" data-name="Grupo 1108274" transform="translate(0)">
          <path id="Trazado_902698" data-name="Trazado 902698" d="M376.569,61.167l3.87,1.354a.632.632,0,0,1,0,1.193l-6.311,2.208" transform="translate(-352.466 -57.776)" fill="none" stroke="#000" stroke-linecap="round" stroke-linejoin="round" stroke-miterlimit="10" stroke-width="1"/>
          <path id="Trazado_902699" data-name="Trazado 902699" d="M38.03,15.646l-6.311-2.208a.632.632,0,0,1,0-1.193L45.077,7.57a1.263,1.263,0,0,1,.835,0L53.3,10.157" transform="translate(-31.296 -7.499)" fill="none" stroke="#000" stroke-linecap="round" stroke-linejoin="round" stroke-miterlimit="10" stroke-width="1"/>
          <path id="Trazado_902700" data-name="Trazado 902700" d="M140.452,91.54h-2.441v6.491H139a11.954,11.954,0,0,1,6.139,1.7h0a.633.633,0,0,0,.65,0h0a11.955,11.955,0,0,1,6.139-1.7h.991V91.54H142.663" transform="translate(-131.268 -86.23)" fill="none" stroke="#000" stroke-linecap="round" stroke-linejoin="round" stroke-miterlimit="10" stroke-width="1"/>
          <path id="Trazado_902701" data-name="Trazado 902701" d="M411.2,204.868l1.162,2.64a.939.939,0,0,1-.859,1.317h-2.1a.939.939,0,0,1-.859-1.317l1.163-2.642" transform="translate(-384.627 -192.394)" fill="none" stroke="#000" stroke-linecap="round" stroke-linejoin="round" stroke-miterlimit="10" stroke-width="1"/>
          <g id="Grupo_1108272" data-name="Grupo 1108272" transform="translate(24.408 6.754)">
            <line id="Línea_604" data-name="Línea 604" y2="3.072" transform="translate(1.416)" fill="none" stroke="#000" stroke-linecap="round" stroke-linejoin="round" stroke-miterlimit="10" stroke-width="1"/>
            <circle id="Elipse_14902" data-name="Elipse 14902" cx="1.416" cy="1.416" r="1.416" transform="translate(0 3.086)" fill="none" stroke="#000" stroke-linecap="round" stroke-linejoin="round" stroke-miterlimit="10" stroke-width="1"/>
          </g>
          <g id="Grupo_1108273" data-name="Grupo 1108273" transform="translate(6.805 7.673)">
            <line id="Línea_605" data-name="Línea 605" x2="14.786" transform="translate(0 1.702)" fill="none" stroke="#000" stroke-linecap="round" stroke-linejoin="round" stroke-miterlimit="10" stroke-width="1"/>
            <line id="Línea_606" data-name="Línea 606" x2="14.786" transform="translate(0 0)" fill="none" stroke="#000" stroke-linecap="round" stroke-linejoin="round" stroke-miterlimit="10" stroke-width="1"/>
          </g>
        </g>
      </g>
    </g>
  </g>
</svg>
