<svg xmlns="http://www.w3.org/2000/svg" xmlns:xlink="http://www.w3.org/1999/xlink" width="70.859" height="70.859" viewBox="0 0 70.859 70.859">
  <defs>
    <filter id="Trazado_874925" x="0" y="0" width="70.859" height="70.859" filterUnits="userSpaceOnUse">
      <feOffset dy="3" input="SourceAlpha"/>
      <feGaussianBlur stdDeviation="3" result="blur"/>
      <feFlood flood-opacity="0.161"/>
      <feComposite operator="in" in2="blur"/>
      <feComposite in="SourceGraphic"/>
    </filter>
  </defs>
  <g id="Grupo_1108320" data-name="Grupo 1108320" transform="translate(9 6)">
    <g transform="matrix(1, 0, 0, 1, -9, -6)" filter="url(#Trazado_874925)">
      <g id="Trazado_874925-2" data-name="Trazado 874925" transform="translate(9 6)" fill="#97d8f6" opacity="0.859">
        <path d="M 26.42959976196289 51.35950088500977 C 23.0634593963623 51.35950088500977 19.79880905151367 50.7005729675293 16.7263298034668 49.40102386474609 C 13.75790977478027 48.14549255371094 11.09167957305908 46.34777069091797 8.80171012878418 44.05779266357422 C 6.511729717254639 41.767822265625 4.714009761810303 39.10159301757812 3.458479642868042 36.13317108154297 C 2.158929824829102 33.06069183349609 1.499999761581421 29.79604148864746 1.499999761581421 26.42990303039551 C 1.499999761581421 23.06346321105957 2.158929824829102 19.79881286621094 3.458479642868042 16.72633171081543 C 4.714009761810303 13.75791263580322 6.511729717254639 11.09168243408203 8.80171012878418 8.801712036132812 C 11.09167957305908 6.511732578277588 13.75790977478027 4.714012145996094 16.7263298034668 3.458482265472412 C 19.79880905151367 2.158932447433472 23.0634593963623 1.500002384185791 26.42959976196289 1.500002384185791 C 29.79574012756348 1.500002384185791 33.06039047241211 2.158932447433472 36.13286972045898 3.458482265472412 C 39.10129165649414 4.714012145996094 41.76752090454102 6.511732578277588 44.05749130249023 8.801712036132812 C 46.34746932983398 11.09168243408203 48.14519119262695 13.75791263580322 49.40071868896484 16.72633171081543 C 50.70027160644531 19.79881286621094 51.35919952392578 23.06346321105957 51.35919952392578 26.42960166931152 C 51.35919952392578 29.79604148864746 50.70027160644531 33.06069183349609 49.40071868896484 36.13317108154297 C 48.14519119262695 39.10159301757812 46.34746932983398 41.767822265625 44.05749130249023 44.05779266357422 C 41.76752090454102 46.34777069091797 39.10129165649414 48.14549255371094 36.13286972045898 49.40102386474609 C 33.06039047241211 50.7005729675293 29.79574012756348 51.35950088500977 26.42959976196289 51.35950088500977 Z" stroke="none"/>
        <path d="M 26.42959976196289 3.000003814697266 C 23.26529884338379 3.000003814697266 20.19725036621094 3.619060516357422 17.31066131591797 4.839981079101562 C 14.52103805541992 6.019893646240234 12.01506805419922 7.709671020507812 9.862369537353516 9.862373352050781 C 7.709671020507812 12.01507186889648 6.019889831542969 14.52104187011719 4.839981079101562 17.31066131591797 C 3.619060516357422 20.1972541809082 3 23.26530265808105 3 26.42990303039551 C 3 29.59420204162598 3.619060516357422 32.66225433349609 4.839981079101562 35.54884338378906 C 6.019889831542969 38.33846282958984 7.709671020507812 40.84443283081055 9.862369537353516 42.99713134765625 C 12.01506805419922 45.14983367919922 14.52103805541992 46.8396110534668 17.31066131591797 48.01952362060547 C 20.19725036621094 49.24044036865234 23.26529884338379 49.85950088500977 26.42959976196289 49.85950088500977 C 29.59390068054199 49.85950088500977 32.66194915771484 49.24044036865234 35.54853820800781 48.01952362060547 C 38.33815765380859 46.8396110534668 40.84413146972656 45.14983367919922 42.99682998657227 42.99713134765625 C 45.14952850341797 40.84443283081055 46.83930969238281 38.33846282958984 48.01921844482422 35.54884338378906 C 49.24013900756836 32.66225433349609 49.85919952392578 29.59420204162598 49.85919952392578 26.42960166931152 C 49.85919952392578 23.26530265808105 49.24013900756836 20.1972541809082 48.01921844482422 17.31066131591797 C 46.83930969238281 14.52104187011719 45.14952850341797 12.01507186889648 42.99682998657227 9.862373352050781 C 40.84413146972656 7.709671020507812 38.33815765380859 6.019893646240234 35.54853820800781 4.839981079101562 C 32.66194915771484 3.619060516357422 29.59390068054199 3.000003814697266 26.42959976196289 3.000003814697266 M 26.42959976196289 3.814697265625e-06 C 41.02626037597656 3.814697265625e-06 52.85919952392578 11.83293151855469 52.85919952392578 26.42960166931152 L 52.85919952392578 26.42990303039551 C 52.85919952392578 41.02657318115234 41.02626037597656 52.85950088500977 26.42959976196289 52.85950088500977 C 11.83293151855469 52.85950088500977 0 41.02657318115234 0 26.42990303039551 L 0 26.42960166931152 C 0 11.83293151855469 11.83293151855469 3.814697265625e-06 26.42959976196289 3.814697265625e-06 Z" stroke="none" fill="#fff"/>
      </g>
    </g>
    <g id="Trazado_874923" data-name="Trazado 874923" fill="none">
      <path d="M26.43,0a26.43,26.43,0,0,1,26.43,26.43h0A26.43,26.43,0,1,1,0,26.43H0A26.43,26.43,0,0,1,26.43,0Z" stroke="none"/>
      <path d="M 26.42959976196289 3.000003814697266 C 23.26529884338379 3.000003814697266 20.19725036621094 3.619060516357422 17.31066131591797 4.839981079101562 C 14.52103805541992 6.019893646240234 12.01506805419922 7.709671020507812 9.862369537353516 9.862373352050781 C 7.709671020507812 12.01507186889648 6.019889831542969 14.52104187011719 4.839981079101562 17.31066131591797 C 3.619060516357422 20.1972541809082 3 23.26530265808105 3 26.42990303039551 C 3 29.59420204162598 3.619060516357422 32.66225433349609 4.839981079101562 35.54884338378906 C 6.019889831542969 38.33846282958984 7.709671020507812 40.84443283081055 9.862369537353516 42.99713134765625 C 12.01506805419922 45.14983367919922 14.52103805541992 46.8396110534668 17.31066131591797 48.01952362060547 C 20.19725036621094 49.24044036865234 23.26529884338379 49.85950088500977 26.42959976196289 49.85950088500977 C 29.59390068054199 49.85950088500977 32.66194915771484 49.24044036865234 35.54853820800781 48.01952362060547 C 38.33815765380859 46.8396110534668 40.84413146972656 45.14983367919922 42.99682998657227 42.99713134765625 C 45.14952850341797 40.84443283081055 46.83930969238281 38.33846282958984 48.01921844482422 35.54884338378906 C 49.24013900756836 32.66225433349609 49.85919952392578 29.59420204162598 49.85919952392578 26.42960166931152 C 49.85919952392578 23.26530265808105 49.24013900756836 20.1972541809082 48.01921844482422 17.31066131591797 C 46.83930969238281 14.52104187011719 45.14952850341797 12.01507186889648 42.99682998657227 9.862373352050781 C 40.84413146972656 7.709671020507812 38.33815765380859 6.019893646240234 35.54853820800781 4.839981079101562 C 32.66194915771484 3.619060516357422 29.59390068054199 3.000003814697266 26.42959976196289 3.000003814697266 M 26.42959976196289 3.814697265625e-06 C 41.02626037597656 3.814697265625e-06 52.85919952392578 11.83293151855469 52.85919952392578 26.42960166931152 L 52.85919952392578 26.42990303039551 C 52.85919952392578 41.02657318115234 41.02626037597656 52.85950088500977 26.42959976196289 52.85950088500977 C 11.83293151855469 52.85950088500977 0 41.02657318115234 0 26.42990303039551 L 0 26.42960166931152 C 0 11.83293151855469 11.83293151855469 3.814697265625e-06 26.42959976196289 3.814697265625e-06 Z" stroke="none" fill="#fff"/>
    </g>
    <g id="podium_5491890" transform="translate(10.08 8.893)">
      <g id="Grupo_1108307" data-name="Grupo 1108307" transform="translate(0.962 0.515)">
        <g id="Grupo_1108296" data-name="Grupo 1108296" transform="translate(2.06 15.452)">
          <circle id="Elipse_14905" data-name="Elipse 14905" cx="3.605" cy="3.605" r="3.605" fill="#ff826e"/>
        </g>
        <g id="Grupo_1108297" data-name="Grupo 1108297" transform="translate(21.632 13.392)">
          <circle id="Elipse_14906" data-name="Elipse 14906" cx="3.605" cy="3.605" r="3.605" fill="#ff826e"/>
        </g>
        <g id="Grupo_1108298" data-name="Grupo 1108298" transform="translate(5.666 11.331)">
          <path id="Trazado_902721" data-name="Trazado 902721" d="M13.352,34.3a3.585,3.585,0,0,0,3.085-3.085,3.019,3.019,0,0,0,.036-.484,3.494,3.494,0,0,0-.155-1.046v-.005A52.933,52.933,0,0,0,17.5,23H27.8a52.882,52.882,0,0,0,1.061,6.17h.01a3.587,3.587,0,0,0,3.564,3.1H28.835v1.576a19.511,19.511,0,0,1-2.06,8.725H18.534a12.257,12.257,0,0,1-2.06-6.8V34.331H12.868a3.019,3.019,0,0,0,.484-.036Z" transform="translate(-12.868 -23)" fill="#ccd1d9"/>
        </g>
        <g id="Grupo_1108299" data-name="Grupo 1108299" transform="translate(19.572 20.602)">
          <path id="Trazado_902722" data-name="Trazado 902722" d="M51.2,51.3H39.868a19.511,19.511,0,0,0,2.06-8.725V41h7.211v1.576A19.453,19.453,0,0,0,51.2,51.3Z" transform="translate(-39.868 -41)" fill="#aab2bd"/>
        </g>
        <g id="Grupo_1108300" data-name="Grupo 1108300" transform="translate(0 22.663)">
          <path id="Trazado_902723" data-name="Trazado 902723" d="M13.2,53.241H1.868a12.257,12.257,0,0,0,2.06-6.8V45h7.211v1.437A12.257,12.257,0,0,0,13.2,53.241Z" transform="translate(-1.868 -45)" fill="#aab2bd"/>
        </g>
        <g id="Grupo_1108301" data-name="Grupo 1108301" transform="translate(24.723 13.392)">
          <path id="Trazado_902724" data-name="Trazado 902724" d="M53.473,31.12a3.6,3.6,0,0,1-3.605-3.605,3.68,3.68,0,0,1,.031-.479A3.019,3.019,0,0,1,50.383,27a3.6,3.6,0,0,1,3.605,3.605,3.02,3.02,0,0,1-.036.484A3.68,3.68,0,0,1,53.473,31.12Z" transform="translate(-49.868 -27)" fill="#fc6e51"/>
        </g>
        <g id="Grupo_1108302" data-name="Grupo 1108302" transform="translate(21.632 16.482)">
          <path id="Trazado_902725" data-name="Trazado 902725" d="M47.988,36.605a3.68,3.68,0,0,1-.031.479,3.019,3.019,0,0,1-.484.036,3.587,3.587,0,0,1-3.564-3.1,2.744,2.744,0,0,1-.041-.5,3.019,3.019,0,0,1,.036-.484A3.68,3.68,0,0,1,44.383,33,3.6,3.6,0,0,1,47.988,36.605Z" transform="translate(-43.868 -33)" fill="#fc6e51"/>
        </g>
        <g id="Grupo_1108303" data-name="Grupo 1108303" transform="translate(5.151 15.452)">
          <path id="Trazado_902726" data-name="Trazado 902726" d="M15.473,35.12a3.6,3.6,0,0,1-3.605-3.605,3.68,3.68,0,0,1,.031-.479A3.019,3.019,0,0,1,12.383,31a3.61,3.61,0,0,1,3.451,2.555v.005a3.494,3.494,0,0,1,.155,1.046,3.02,3.02,0,0,1-.036.484,3.68,3.68,0,0,1-.479.031Z" transform="translate(-11.868 -31)" fill="#fc6e51"/>
        </g>
        <g id="Grupo_1108304" data-name="Grupo 1108304" transform="translate(2.06 18.542)">
          <path id="Trazado_902727" data-name="Trazado 902727" d="M9.988,40.605a3.68,3.68,0,0,1-.031.479,3.019,3.019,0,0,1-.484.036,3.6,3.6,0,0,1-3.605-3.605,3.019,3.019,0,0,1,.036-.484A3.68,3.68,0,0,1,6.383,37,3.6,3.6,0,0,1,9.988,40.605Z" transform="translate(-5.868 -37)" fill="#fc6e51"/>
        </g>
        <g id="Grupo_1108305" data-name="Grupo 1108305" transform="translate(13.392 9.271)">
          <path id="Trazado_902728" data-name="Trazado 902728" d="M31.988,19.515V21.06h-4.12V19.515A.517.517,0,0,1,28.383,19h3.09A.517.517,0,0,1,31.988,19.515Z" transform="translate(-27.868 -19)" fill="#ffc729"/>
        </g>
        <g id="Grupo_1108306" data-name="Grupo 1108306" transform="translate(12.361)">
          <path id="Trazado_902729" data-name="Trazado 902729" d="M32.049,2.03V4.09a3.09,3.09,0,0,1-6.181,0V1.515A.517.517,0,0,1,26.383,1h5.151a.517.517,0,0,1,.515.515Z" transform="translate(-25.868 -1)" fill="#fcd770"/>
        </g>
      </g>
      <g id="Grupo_1108308" data-name="Grupo 1108308">
        <path id="Trazado_902730" data-name="Trazado 902730" d="M30.585,26.586,28.161,29.01l.728.728.666-.666v3.392h-1.03v1.03h3.09v-1.03h-1.03Z" transform="translate(-13.656 -12.893)"/>
        <path id="Trazado_902731" data-name="Trazado 902731" d="M32.327,31.188a19.092,19.092,0,0,1-2.006-8.5V20.6h-1.4a4.116,4.116,0,1,0-6.29-5.132c-.226-1.222-.413-2.452-.549-3.681l-.051-.458H18.989V10.3a1.031,1.031,0,0,0-1.03-1.03h-1.03V7.17a3.594,3.594,0,0,0,2-.989H19.5A3.61,3.61,0,0,0,23.11,2.575,1.547,1.547,0,0,0,21.564,1.03H20.019A1.031,1.031,0,0,0,18.989,0H13.839a1.031,1.031,0,0,0-1.03,1.03H11.263A1.547,1.547,0,0,0,9.718,2.575a3.61,3.61,0,0,0,3.605,3.605H13.9a3.594,3.594,0,0,0,2,.989v2.1h-1.03a1.031,1.031,0,0,0-1.03,1.03v1.03H10.8l-.052.458a52.025,52.025,0,0,1-.866,5.268,4.115,4.115,0,1,0-5.973,5.6h-1.4v1.952A11.713,11.713,0,0,1,.534,31.133l-.534.8H32.7ZM21.564,2.06a.515.515,0,0,1,.515.515,2.572,2.572,0,0,1-2.4,2.558,3.577,3.577,0,0,0,.345-1.528V2.06Zm-10.816.515a.515.515,0,0,1,.515-.515h1.545V3.605a3.577,3.577,0,0,0,.345,1.528A2.572,2.572,0,0,1,10.748,2.575Zm3.09,1.03V1.03h5.151V3.605a2.575,2.575,0,1,1-5.151,0ZM23.11,17.512a3.07,3.07,0,0,1,1.788.574L23.684,19.3A3.07,3.07,0,0,1,23.11,17.512Zm1.3,2.516,1.213-1.213A3.07,3.07,0,0,1,26.2,20.6,3.07,3.07,0,0,1,24.412,20.028Zm2.809.4a4.092,4.092,0,0,0-.861-2.346l.407-.407a4.092,4.092,0,0,0,2.346.861A3.1,3.1,0,0,1,27.221,20.425Zm-1.021-6A3.07,3.07,0,0,1,27.988,15l-1.213,1.213a3.07,3.07,0,0,1-.574-1.788Zm1.3,2.516,1.213-1.213a3.07,3.07,0,0,1,.574,1.788A3.07,3.07,0,0,1,27.5,16.938ZM25.179,14.6a4.092,4.092,0,0,0,.861,2.346l-.407.407a4.092,4.092,0,0,0-2.346-.861A3.1,3.1,0,0,1,25.179,14.6Zm-10.31-4.3h3.09v1.03h-3.09ZM7.649,22.485a4.092,4.092,0,0,0-.861-2.346l.407-.407a4.092,4.092,0,0,0,2.346.861A3.1,3.1,0,0,1,7.649,22.485Zm-1.021-6a3.07,3.07,0,0,1,1.788.574L7.2,18.27a3.07,3.07,0,0,1-.574-1.788Zm2.516,1.3a3.07,3.07,0,0,1,.574,1.788A3.07,3.07,0,0,1,7.93,19ZM5.607,16.659A4.092,4.092,0,0,0,6.468,19l-.407.407a4.092,4.092,0,0,0-2.346-.861,3.1,3.1,0,0,1,1.892-1.892Zm-.282,3.487L4.112,21.36a3.07,3.07,0,0,1-.574-1.788A3.07,3.07,0,0,1,5.325,20.146ZM4.84,22.088l1.213-1.213a3.07,3.07,0,0,1,.574,1.788A3.07,3.07,0,0,1,4.84,22.088ZM1.884,30.9a12.741,12.741,0,0,0,1.654-6.289v-.921H9.718v.921A12.736,12.736,0,0,0,11.372,30.9Zm10.69,0a11.712,11.712,0,0,1-1.825-6.289V22.663h-1.4a4.076,4.076,0,0,0,1.263-4.14,53.043,53.043,0,0,0,1.114-6.162h9.383a53.047,53.047,0,0,0,1.02,5.771l.006,0A4.11,4.11,0,0,0,23.483,20.6h-1.4v2.089A19.1,19.1,0,0,1,20.212,30.9Zm8.776,0a20.151,20.151,0,0,0,1.761-8.212V21.632H29.29v1.059A20.149,20.149,0,0,0,31.051,30.9Z"/>
        <path id="Trazado_902732" data-name="Trazado 902732" d="M9.868,49.03h2.06v1.03H9.868v1.03h2.06v1.03H9.868v1.03h3.09V48H9.868Z" transform="translate(-4.785 -23.277)"/>
        <path id="Trazado_902733" data-name="Trazado 902733" d="M47.868,45.03h2.06v1.03h-2.06v3.09h3.09V48.12H48.9V47.09h2.06V44h-3.09Z" transform="translate(-23.213 -21.337)"/>
      </g>
    </g>
  </g>
</svg>
