<svg xmlns="http://www.w3.org/2000/svg" xmlns:xlink="http://www.w3.org/1999/xlink" width="70.859" height="70.859" viewBox="0 0 70.859 70.859">
  <defs>
    <filter id="Trazado_874925" x="0" y="0" width="70.859" height="70.859" filterUnits="userSpaceOnUse">
      <feOffset dy="3" input="SourceAlpha"/>
      <feGaussianBlur stdDeviation="3" result="blur"/>
      <feFlood flood-opacity="0.161"/>
      <feComposite operator="in" in2="blur"/>
      <feComposite in="SourceGraphic"/>
    </filter>
  </defs>
  <g id="Grupo_1108322" data-name="Grupo 1108322" transform="translate(9 6)">
    <g transform="matrix(1, 0, 0, 1, -9, -6)" filter="url(#Trazado_874925)">
      <g id="Trazado_874925-2" data-name="Trazado 874925" transform="translate(9 6)" fill="#97d8f6" opacity="0.859">
        <path d="M 26.42959976196289 51.35950088500977 C 23.0634593963623 51.35950088500977 19.79880905151367 50.7005729675293 16.7263298034668 49.40102386474609 C 13.75790977478027 48.14549255371094 11.09167957305908 46.34777069091797 8.80171012878418 44.05779266357422 C 6.511729717254639 41.767822265625 4.714009761810303 39.10159301757812 3.458479642868042 36.13317108154297 C 2.158929824829102 33.06069183349609 1.499999761581421 29.79604148864746 1.499999761581421 26.42990303039551 C 1.499999761581421 23.06346321105957 2.158929824829102 19.79881286621094 3.458479642868042 16.72633171081543 C 4.714009761810303 13.75791263580322 6.511729717254639 11.09168243408203 8.80171012878418 8.801712036132812 C 11.09167957305908 6.511732578277588 13.75790977478027 4.714012145996094 16.7263298034668 3.458482265472412 C 19.79880905151367 2.158932447433472 23.0634593963623 1.500002384185791 26.42959976196289 1.500002384185791 C 29.79574012756348 1.500002384185791 33.06039047241211 2.158932447433472 36.13286972045898 3.458482265472412 C 39.10129165649414 4.714012145996094 41.76752090454102 6.511732578277588 44.05749130249023 8.801712036132812 C 46.34746932983398 11.09168243408203 48.14519119262695 13.75791263580322 49.40071868896484 16.72633171081543 C 50.70027160644531 19.79881286621094 51.35919952392578 23.06346321105957 51.35919952392578 26.42960166931152 C 51.35919952392578 29.79604148864746 50.70027160644531 33.06069183349609 49.40071868896484 36.13317108154297 C 48.14519119262695 39.10159301757812 46.34746932983398 41.767822265625 44.05749130249023 44.05779266357422 C 41.76752090454102 46.34777069091797 39.10129165649414 48.14549255371094 36.13286972045898 49.40102386474609 C 33.06039047241211 50.7005729675293 29.79574012756348 51.35950088500977 26.42959976196289 51.35950088500977 Z" stroke="none"/>
        <path d="M 26.42959976196289 3.000003814697266 C 23.26529884338379 3.000003814697266 20.19725036621094 3.619060516357422 17.31066131591797 4.839981079101562 C 14.52103805541992 6.019893646240234 12.01506805419922 7.709671020507812 9.862369537353516 9.862373352050781 C 7.709671020507812 12.01507186889648 6.019889831542969 14.52104187011719 4.839981079101562 17.31066131591797 C 3.619060516357422 20.1972541809082 3 23.26530265808105 3 26.42990303039551 C 3 29.59420204162598 3.619060516357422 32.66225433349609 4.839981079101562 35.54884338378906 C 6.019889831542969 38.33846282958984 7.709671020507812 40.84443283081055 9.862369537353516 42.99713134765625 C 12.01506805419922 45.14983367919922 14.52103805541992 46.8396110534668 17.31066131591797 48.01952362060547 C 20.19725036621094 49.24044036865234 23.26529884338379 49.85950088500977 26.42959976196289 49.85950088500977 C 29.59390068054199 49.85950088500977 32.66194915771484 49.24044036865234 35.54853820800781 48.01952362060547 C 38.33815765380859 46.8396110534668 40.84413146972656 45.14983367919922 42.99682998657227 42.99713134765625 C 45.14952850341797 40.84443283081055 46.83930969238281 38.33846282958984 48.01921844482422 35.54884338378906 C 49.24013900756836 32.66225433349609 49.85919952392578 29.59420204162598 49.85919952392578 26.42960166931152 C 49.85919952392578 23.26530265808105 49.24013900756836 20.1972541809082 48.01921844482422 17.31066131591797 C 46.83930969238281 14.52104187011719 45.14952850341797 12.01507186889648 42.99682998657227 9.862373352050781 C 40.84413146972656 7.709671020507812 38.33815765380859 6.019893646240234 35.54853820800781 4.839981079101562 C 32.66194915771484 3.619060516357422 29.59390068054199 3.000003814697266 26.42959976196289 3.000003814697266 M 26.42959976196289 3.814697265625e-06 C 41.02626037597656 3.814697265625e-06 52.85919952392578 11.83293151855469 52.85919952392578 26.42960166931152 L 52.85919952392578 26.42990303039551 C 52.85919952392578 41.02657318115234 41.02626037597656 52.85950088500977 26.42959976196289 52.85950088500977 C 11.83293151855469 52.85950088500977 0 41.02657318115234 0 26.42990303039551 L 0 26.42960166931152 C 0 11.83293151855469 11.83293151855469 3.814697265625e-06 26.42959976196289 3.814697265625e-06 Z" stroke="none" fill="#fff"/>
      </g>
    </g>
    <g id="Trazado_874923" data-name="Trazado 874923" fill="none">
      <path d="M26.43,0a26.43,26.43,0,0,1,26.43,26.43h0A26.43,26.43,0,1,1,0,26.43H0A26.43,26.43,0,0,1,26.43,0Z" stroke="none"/>
      <path d="M 26.42959976196289 3.000003814697266 C 23.26529884338379 3.000003814697266 20.19725036621094 3.619060516357422 17.31066131591797 4.839981079101562 C 14.52103805541992 6.019893646240234 12.01506805419922 7.709671020507812 9.862369537353516 9.862373352050781 C 7.709671020507812 12.01507186889648 6.019889831542969 14.52104187011719 4.839981079101562 17.31066131591797 C 3.619060516357422 20.1972541809082 3 23.26530265808105 3 26.42990303039551 C 3 29.59420204162598 3.619060516357422 32.66225433349609 4.839981079101562 35.54884338378906 C 6.019889831542969 38.33846282958984 7.709671020507812 40.84443283081055 9.862369537353516 42.99713134765625 C 12.01506805419922 45.14983367919922 14.52103805541992 46.8396110534668 17.31066131591797 48.01952362060547 C 20.19725036621094 49.24044036865234 23.26529884338379 49.85950088500977 26.42959976196289 49.85950088500977 C 29.59390068054199 49.85950088500977 32.66194915771484 49.24044036865234 35.54853820800781 48.01952362060547 C 38.33815765380859 46.8396110534668 40.84413146972656 45.14983367919922 42.99682998657227 42.99713134765625 C 45.14952850341797 40.84443283081055 46.83930969238281 38.33846282958984 48.01921844482422 35.54884338378906 C 49.24013900756836 32.66225433349609 49.85919952392578 29.59420204162598 49.85919952392578 26.42960166931152 C 49.85919952392578 23.26530265808105 49.24013900756836 20.1972541809082 48.01921844482422 17.31066131591797 C 46.83930969238281 14.52104187011719 45.14952850341797 12.01507186889648 42.99682998657227 9.862373352050781 C 40.84413146972656 7.709671020507812 38.33815765380859 6.019893646240234 35.54853820800781 4.839981079101562 C 32.66194915771484 3.619060516357422 29.59390068054199 3.000003814697266 26.42959976196289 3.000003814697266 M 26.42959976196289 3.814697265625e-06 C 41.02626037597656 3.814697265625e-06 52.85919952392578 11.83293151855469 52.85919952392578 26.42960166931152 L 52.85919952392578 26.42990303039551 C 52.85919952392578 41.02657318115234 41.02626037597656 52.85950088500977 26.42959976196289 52.85950088500977 C 11.83293151855469 52.85950088500977 0 41.02657318115234 0 26.42990303039551 L 0 26.42960166931152 C 0 11.83293151855469 11.83293151855469 3.814697265625e-06 26.42959976196289 3.814697265625e-06 Z" stroke="none" fill="#fff"/>
    </g>
    <g id="Fill_Outline" data-name="Fill Outline" transform="translate(8.539 8.609)">
      <g id="Color" transform="translate(2.529 2.53)">
        <path id="Trazado_902734" data-name="Trazado 902734" d="M3,22.3H8.3V17H3l1.059,2.649Z" transform="translate(-3 -9.584)" fill="#f9e109"/>
        <path id="Trazado_902735" data-name="Trazado 902735" d="M56.3,22.3H51V17h5.3l-1.059,2.649Z" transform="translate(-25.574 -9.584)" fill="#f9e109"/>
        <path id="Trazado_902736" data-name="Trazado 902736" d="M56.3,22.3H51V17h3.178v2.119a2.119,2.119,0,0,0,1.673,2.071Z" transform="translate(-25.574 -9.584)" fill="#fcbc04"/>
        <path id="Trazado_902737" data-name="Trazado 902737" d="M3,22.3H8.3V17H5.119v2.119A2.119,2.119,0,0,1,3.445,21.19Z" transform="translate(-3 -9.584)" fill="#fcbc04"/>
        <path id="Trazado_902738" data-name="Trazado 902738" d="M0,0A2.119,2.119,0,0,1,2.119,2.119H0Z" transform="translate(5.297 12.713) rotate(180)" fill="#e59730"/>
        <path id="Trazado_902739" data-name="Trazado 902739" d="M9,13H33.366v5.3H9Z" transform="translate(-5.822 -7.703)" fill="#f7f754"/>
        <path id="Trazado_902740" data-name="Trazado 902740" d="M33.366,16.708V18.3H9V16.708h.53a2.119,2.119,0,0,0,2.119-2.119V13H30.718v1.589a2.119,2.119,0,0,0,2.119,2.119Z" transform="translate(-5.822 -7.703)" fill="#f9e109"/>
        <path id="Trazado_902741" data-name="Trazado 902741" d="M51,23h2.119A2.119,2.119,0,0,1,51,25.119Z" transform="translate(-25.574 -12.406)" fill="#e59730"/>
        <path id="Trazado_902742" data-name="Trazado 902742" d="M29.772,3H19.178A3.178,3.178,0,0,1,16,6.178V8.633A9,9,0,0,0,18.845,15.2l5.63,5.279L30.1,15.2a9,9,0,0,0,2.846-6.569V6.178A3.178,3.178,0,0,1,29.772,3Z" transform="translate(-9.114 -3)" fill="#c4f236"/>
        <path id="Trazado_902743" data-name="Trazado 902743" d="M30.636,14.653a7.411,7.411,0,0,1-.53.551L24.475,20.48,18.845,15.2A9.01,9.01,0,0,1,16,8.636V6.178A3.178,3.178,0,0,0,19.178,3h1.589V5.649a9,9,0,0,0,9,9Z" transform="translate(-9.114 -3)" fill="#a1d51c"/>
        <circle id="Elipse_14907" data-name="Elipse 14907" cx="4.238" cy="4.238" r="4.238" transform="translate(11.124 2.649)" fill="#e9f1f2"/>
        <path id="Trazado_902744" data-name="Trazado 902744" d="M31.765,14.592a4.238,4.238,0,1,1-3.758-6.583A4.238,4.238,0,0,0,31.534,14.6C31.614,14.6,31.69,14.6,31.765,14.592Z" transform="translate(-12.877 -5.356)" fill="#d0d8da"/>
        <g id="Grupo_1108309" data-name="Grupo 1108309" transform="translate(11.125 2.646)">
          <path id="Trazado_902745" data-name="Trazado 902745" d="M29.785,17.849a4.162,4.162,0,0,1-1.547.291,4.238,4.238,0,0,1-3.517-6.6A9.016,9.016,0,0,0,29.785,17.849Z" transform="translate(-24.002 -9.663)" fill="#93999a"/>
          <path id="Trazado_902746" data-name="Trazado 902746" d="M30.9,13.333l-1.238.9.473,1.455h1.53l.473-1.455Z" transform="translate(-26.664 -10.506)" fill="#93999a"/>
          <path id="Trazado_902747" data-name="Trazado 902747" d="M32.139,8.982l-1.238.9-1.238-.9.285-.877a4.242,4.242,0,0,1,1.9,0Z" transform="translate(-26.664 -7.996)" fill="#93999a"/>
        </g>
        <path id="Trazado_902748" data-name="Trazado 902748" d="M26.015,13.332l-1.234.9-.742-.541a4.174,4.174,0,0,1,.589-1.813h.916Z" transform="translate(-12.895 -7.175)" fill="#656b76"/>
        <path id="Trazado_902749" data-name="Trazado 902749" d="M38.21,13.69l-.742.541-1.234-.9.471-1.455h.918A4.174,4.174,0,0,1,38.21,13.69Z" transform="translate(-18.63 -7.174)" fill="#93999a"/>
        <path id="Trazado_902750" data-name="Trazado 902750" d="M36.006,20.471A4.228,4.228,0,0,1,34.462,21.6l-.742-.541L34.2,19.6h1.526Z" transform="translate(-17.448 -10.807)" fill="#93999a"/>
        <path id="Trazado_902751" data-name="Trazado 902751" d="M28.254,21.055l-.742.541a4.228,4.228,0,0,1-1.545-1.126l.282-.871h1.53Z" transform="translate(-13.802 -10.807)" fill="#464a51"/>
        <g id="Grupo_1108310" data-name="Grupo 1108310" transform="translate(14.122 2.653)">
          <path id="Trazado_902752" data-name="Trazado 902752" d="M31.041,16.21h-.9l-.477-1.455.429-.311A4.238,4.238,0,0,0,31.041,16.21Z" transform="translate(-29.66 -11.035)" fill="#656b76"/>
          <path id="Trazado_902753" data-name="Trazado 902753" d="M30.669,8.009a4.328,4.328,0,0,0-.579,1.29l-.429-.31.285-.878A4.655,4.655,0,0,1,30.669,8.009Z" transform="translate(-29.661 -8.009)" fill="#656b76"/>
          <path id="Trazado_902754" data-name="Trazado 902754" d="M36.006,20.471A4.228,4.228,0,0,1,34.462,21.6l-.742-.541L34.2,19.6h.019a4.228,4.228,0,0,0,1.653.443Z" transform="translate(-31.569 -13.46)" fill="#656b76"/>
        </g>
        <path id="Trazado_902755" data-name="Trazado 902755" d="M25.449,13.745l-.667.487-.742-.54a4.07,4.07,0,0,1,.588-1.812h.154a8.681,8.681,0,0,0,.667,1.865Z" transform="translate(-12.895 -7.176)" fill="#464a51"/>
        <path id="Trazado_902756" data-name="Trazado 902756" d="M42.178,49h5.3a3.178,3.178,0,0,1,3.178,3.178v3.178H39V52.178A3.178,3.178,0,0,1,42.178,49Z" transform="translate(-19.931 -24.634)" fill="#7ab92d"/>
        <path id="Trazado_902757" data-name="Trazado 902757" d="M49.594,54.3A5.3,5.3,0,0,1,48,54.054V52.178a1.059,1.059,0,0,0-1.059,1.059v.345A5.291,5.291,0,0,1,44.3,49H42.178A3.178,3.178,0,0,0,39,52.178v3.178H50.653V54.3Z" transform="translate(-19.931 -24.634)" fill="#5ba006"/>
        <circle id="Elipse_14908" data-name="Elipse 14908" cx="3.178" cy="3.178" r="3.178" transform="translate(21.718 15.361)" fill="#656b76"/>
        <path id="Trazado_902758" data-name="Trazado 902758" d="M50.356,35.517a3.178,3.178,0,1,1-4.693-2.8c.381.991,2.219,1.737,4.428,1.737h.079a3.073,3.073,0,0,1,.185,1.059Z" transform="translate(-22.282 -16.977)" fill="#464a51"/>
        <path id="Trazado_902759" data-name="Trazado 902759" d="M47,47h3.178v1.589a1.589,1.589,0,1,1-3.178,0Z" transform="translate(-23.693 -23.693)" fill="#fcbc04"/>
        <path id="Trazado_902760" data-name="Trazado 902760" d="M48,57h2.119v2.119H48Z" transform="translate(-24.163 -28.396)" fill="#4891d3"/>
        <path id="Trazado_902761" data-name="Trazado 902761" d="M48.854,48.827a3.076,3.076,0,0,0,1.229.286A1.585,1.585,0,0,1,47,48.589V47h3.178v.694a3.16,3.16,0,0,1-1.324,1.134Z" transform="translate(-23.693 -23.693)" fill="#e59730"/>
        <path id="Trazado_902762" data-name="Trazado 902762" d="M47.178,43.369A3.178,3.178,0,0,1,44,40.191V37.542a10.052,10.052,0,0,1,6.356,0v2.649A3.178,3.178,0,0,1,47.178,43.369Z" transform="translate(-22.282 -19.003)" fill="#f9e109"/>
        <path id="Trazado_902763" data-name="Trazado 902763" d="M45.589,38.069v.53a3.178,3.178,0,0,0,4.487,2.9A3.178,3.178,0,0,1,44,40.188V37.539a9.989,9.989,0,0,1,6.356,0v.588A8.4,8.4,0,0,0,45.589,38.069Z" transform="translate(-22.282 -18.999)" fill="#fcbc04"/>
        <path id="Trazado_902764" data-name="Trazado 902764" d="M14.476,33.178a1.055,1.055,0,0,0-.544-.92,1.009,1.009,0,0,0,.014-.139,1.059,1.059,0,0,0-1.059-1.059,1.008,1.008,0,0,0-.139.014,1.055,1.055,0,0,0-.92-.544,1.01,1.01,0,0,0-.139.014,1.05,1.05,0,0,0-1.84,0,1.01,1.01,0,0,0-.139-.014,1.053,1.053,0,0,0-.53.147,1.044,1.044,0,0,0-1.45.4,1.009,1.009,0,0,0-.139-.014,1.059,1.059,0,0,0-.878,1.653,1.057,1.057,0,0,0,.348,2.055,3.178,3.178,0,0,0,6.309.525c.016,0,.031,0,.047,0a1.053,1.053,0,0,0,.913-1.589A1.053,1.053,0,0,0,14.476,33.178Z" transform="translate(-4.411 -15.698)" fill="#656b76"/>
        <path id="Trazado_902765" data-name="Trazado 902765" d="M14.406,35.657a1.07,1.07,0,0,1-.98.652c-.016,0-.032-.005-.048-.005a3.178,3.178,0,0,1-6.309-.524,1.059,1.059,0,0,1-.35-2.055,1.087,1.087,0,0,1-.18-.593,1.07,1.07,0,0,1,.652-.98,1.584,1.584,0,0,0,1.467.98,1.558,1.558,0,0,0,.779-.212,1.572,1.572,0,0,0,2.569.143,1.036,1.036,0,0,0,.36.069,1.052,1.052,0,0,0,.572-.17,1.589,1.589,0,0,0,.535.858,1.691,1.691,0,0,0-.048.371A1.584,1.584,0,0,0,14.406,35.657Z" transform="translate(-4.421 -16.709)" fill="#464a51"/>
        <path id="Trazado_902766" data-name="Trazado 902766" d="M14.653,52.178v3.178H3V52.178A3.178,3.178,0,0,1,6.178,49h5.3a3.178,3.178,0,0,1,3.178,3.178Z" transform="translate(-3 -24.634)" fill="#7ab92d"/>
        <path id="Trazado_902767" data-name="Trazado 902767" d="M14.653,52.178v3.178H3V52.178A3.178,3.178,0,0,1,6.178,49H8.3a5.285,5.285,0,0,0,2.649,4.582V49h.53a3.178,3.178,0,0,1,3.178,3.178Z" transform="translate(-3 -24.634)" fill="#5ba006"/>
        <path id="Trazado_902768" data-name="Trazado 902768" d="M11,47h3.178v1.589a1.589,1.589,0,1,1-3.178,0Z" transform="translate(-6.762 -23.693)" fill="#fcbc04"/>
        <path id="Trazado_902769" data-name="Trazado 902769" d="M12,57h2.119v2.119H12Z" transform="translate(-7.233 -28.396)" fill="#4891d3"/>
        <path id="Trazado_902770" data-name="Trazado 902770" d="M12.854,48.827a3.076,3.076,0,0,0,1.229.286A1.585,1.585,0,0,1,11,48.589V47h3.178v.694A3.16,3.16,0,0,1,12.854,48.827Z" transform="translate(-6.762 -23.693)" fill="#e59730"/>
        <path id="Trazado_902771" data-name="Trazado 902771" d="M13.359,37.9a1.044,1.044,0,0,1-.592.186,1.059,1.059,0,0,1-1.056-1.024l-.166-.007a1.055,1.055,0,0,1-1.49.318,1.052,1.052,0,0,1-1.928.145c-.042.013-.085.023-.127.037V40.2a3.178,3.178,0,0,0,6.356,0V38.615a1.056,1.056,0,0,1-1-.716Z" transform="translate(-5.351 -19.015)" fill="#f9e109"/>
        <path id="Trazado_902772" data-name="Trazado 902772" d="M9.059,39.142a3.178,3.178,0,0,0,4.826,2.717A3.175,3.175,0,0,1,8,40.2V37.553c.042-.016.085-.021.127-.037a1.052,1.052,0,0,0,1.928-.143,1.087,1.087,0,0,0,.593.18,1.046,1.046,0,0,0,.9-.5c.058.005.111.005.17.011a1.054,1.054,0,0,0,1.054,1.022,1.037,1.037,0,0,0,.593-.185,1.054,1.054,0,0,0,1,.715v1.059a1.054,1.054,0,0,1-1-.715,1.037,1.037,0,0,1-.593.185,1.054,1.054,0,0,1-1.054-1.022c-.058-.005-.111-.005-.17-.011a1.046,1.046,0,0,1-.9.5,1.088,1.088,0,0,1-.593-.18A1.055,1.055,0,0,1,9.059,39.142Z" transform="translate(-5.351 -19.014)" fill="#fcbc04"/>
        <path id="Trazado_902773" data-name="Trazado 902773" d="M23.178,45h6.356a3.178,3.178,0,0,1,3.178,3.178v5.3H20v-5.3A3.178,3.178,0,0,1,23.178,45Z" transform="translate(-10.995 -22.752)" fill="#a1d51c"/>
        <path id="Trazado_902774" data-name="Trazado 902774" d="M30.064,53.475v-5.3A1.059,1.059,0,0,0,29,49.238V51.86a6.352,6.352,0,0,1-5.827-6.33V45A3.178,3.178,0,0,0,20,48.178v5.3Z" transform="translate(-10.995 -22.752)" fill="#7ab92d"/>
        <path id="Trazado_902775" data-name="Trazado 902775" d="M29,43h3.178v1.589a1.589,1.589,0,0,1-3.178,0Z" transform="translate(-15.228 -21.812)" fill="#fcbc04"/>
        <path id="Trazado_902776" data-name="Trazado 902776" d="M26,29h4.238a2.119,2.119,0,0,1,2.119,2.119H26Z" transform="translate(-13.817 -15.228)" fill="#656b76"/>
        <path id="Trazado_902777" data-name="Trazado 902777" d="M39,56h2.649v2.649H39Z" transform="translate(-19.931 -27.926)" fill="#f9e109"/>
        <path id="Trazado_902778" data-name="Trazado 902778" d="M20,56h2.649v2.649H20Z" transform="translate(-10.995 -27.926)" fill="#fcbc04"/>
        <path id="Trazado_902779" data-name="Trazado 902779" d="M28.649,30.059A1.584,1.584,0,0,1,27.157,29H26v2.119h6.356a2.1,2.1,0,0,0-.294-1.059Z" transform="translate(-13.817 -15.228)" fill="#464a51"/>
        <path id="Trazado_902780" data-name="Trazado 902780" d="M32.178,43.779a3.171,3.171,0,0,1-1.849.795,3.058,3.058,0,0,0,1.536.959A1.589,1.589,0,0,1,29,44.589V43h3.178Z" transform="translate(-15.228 -21.812)" fill="#e59730"/>
        <path id="Trazado_902781" data-name="Trazado 902781" d="M26,33h6.356v3.178a3.178,3.178,0,1,1-6.356,0Z" transform="translate(-13.817 -17.109)" fill="#f9e109"/>
        <path id="Trazado_902782" data-name="Trazado 902782" d="M27.9,34.372a1.036,1.036,0,0,0-.313.747A3.178,3.178,0,0,0,30.767,38.3a3.053,3.053,0,0,0,.885-.127A3.178,3.178,0,0,1,26,36.178V33h6.356v1.059H28.649A1.036,1.036,0,0,0,27.9,34.372Z" transform="translate(-13.817 -17.109)" fill="#fcbc04"/>
        <path id="Trazado_902783" data-name="Trazado 902783" d="M41.649,56v1.059a1.589,1.589,0,0,0-1.589,1.589H39V56Z" transform="translate(-19.931 -27.926)" fill="#fcbc04"/>
        <path id="Trazado_902784" data-name="Trazado 902784" d="M20,56v1.059a1.589,1.589,0,0,1,1.589,1.589h1.059V56Z" transform="translate(-10.995 -27.926)" fill="#e59730"/>
        <path id="Trazado_902785" data-name="Trazado 902785" d="M30,55h2.119v3.178H30Z" transform="translate(-15.698 -27.455)" fill="#57b7eb"/>
        <path id="Trazado_902786" data-name="Trazado 902786" d="M32.119,56.224v1.955H30V55h.042a6.169,6.169,0,0,0,2.076,1.224Z" transform="translate(-15.698 -27.455)" fill="#4891d3"/>
      </g>
      <g id="Outline_copy" data-name="Outline copy" transform="translate(1.999 2)">
        <path id="Trazado_902787" data-name="Trazado 902787" d="M2.091,15.54a.53.53,0,0,0,.439.233h5.3a.53.53,0,0,0,.53-.53V13.653h2.272A9.482,9.482,0,0,0,11.9,15.119l.8.748a.53.53,0,1,0,.724-.773l-.8-.748A8.507,8.507,0,0,1,9.945,8.163V6.2a3.716,3.716,0,0,0,3.141-3.141H18.42A.53.53,0,0,0,18.42,2H12.594a.53.53,0,0,0-.53.53A2.652,2.652,0,0,1,9.415,5.178a.53.53,0,0,0-.53.53V7.3H5.708a.53.53,0,0,0-.53.53V9.416H2.529a.53.53,0,0,0-.492.727l.981,2.451-.981,2.451A.53.53,0,0,0,2.091,15.54ZM7.3,14.615a1.589,1.589,0,0,1-.962-.962H7.3ZM8.9,8.356a9.545,9.545,0,0,0,1.1,4.238H6.237V8.356ZM4.081,12.4l-.769-1.922H5.178v2.649a2.621,2.621,0,0,0,.543,1.589H3.312l.769-1.922a.539.539,0,0,0,0-.394Z" transform="translate(-1.999 -2)" fill="#323232"/>
        <path id="Trazado_902788" data-name="Trazado 902788" d="M19.53,11.165a.53.53,0,0,0-.53.53v.779a7.393,7.393,0,0,0,.265,1.921.53.53,0,0,0,.511.391.521.521,0,0,0,.139-.019.53.53,0,0,0,.371-.649,6.313,6.313,0,0,1-.228-1.642V11.7a.53.53,0,0,0-.528-.532Z" transform="translate(-9.995 -6.31)" fill="#323232"/>
        <path id="Trazado_902789" data-name="Trazado 902789" d="M43.067,14.786a.53.53,0,0,0,.511-.391,7.393,7.393,0,0,0,.265-1.921v-.779a.53.53,0,0,0-1.059,0v.779a6.313,6.313,0,0,1-.228,1.642.53.53,0,0,0,.371.649A.521.521,0,0,0,43.067,14.786Z" transform="translate(-21.064 -6.31)" fill="#323232"/>
        <path id="Trazado_902790" data-name="Trazado 902790" d="M23,11.767A4.767,4.767,0,1,0,27.767,7,4.767,4.767,0,0,0,23,11.767ZM28.314,8.1l.068.208-.614.447-.614-.447.068-.208a3.341,3.341,0,0,1,1.093,0Zm3.108,3.048-.177.129-.612-.446.234-.724h.216a3.678,3.678,0,0,1,.34,1.04Zm-.31,2.21a.53.53,0,0,0-.431-.218H29.423l-.176-.242.385-1.184.286-.093,1.013.739a.522.522,0,0,0,.481.073,3.69,3.69,0,0,1-.3.925Zm-6.989-.925a.522.522,0,0,0,.482-.073l1.013-.739.286.093.385,1.184-.176.242H24.854a.53.53,0,0,0-.428.218,3.69,3.69,0,0,1-.3-.925Zm2.094-3.5,1.02.742v.49l-.823.6-.468-.152-.388-1.2a.53.53,0,0,0-.338-.34A3.713,3.713,0,0,1,26,8.509a.53.53,0,0,0,.217.434Zm-1.548,1.17.234.724-.612.446-.177-.129a3.678,3.678,0,0,1,.34-1.04Zm.568,4.093H26l.236.724-.175.128a3.729,3.729,0,0,1-.888-.645Zm2.084-1.642a.553.553,0,0,0-.048-.053L27,11.656l.77-.558.77.559-.277.852a.553.553,0,0,0-.048.053ZM29.3,14.928l.236-.724H30.3l.067.206a3.729,3.729,0,0,1-.888.645Zm.676-5.509-.388,1.2-.468.152-.823-.6v-.49l1.02-.742a.53.53,0,0,0,.217-.434,3.713,3.713,0,0,1,.78.571.53.53,0,0,0-.338.341ZM27.287,15.44a.53.53,0,0,0,.075-.477l-.389-1.2.106-.145h1.385l.106.145-.391,1.2a.53.53,0,0,0,.075.477,3.319,3.319,0,0,1-.961,0Z" transform="translate(-11.876 -4.351)" fill="#323232"/>
        <path id="Trazado_902791" data-name="Trazado 902791" d="M55.53,55a.53.53,0,0,0-.53.53v2.649a.53.53,0,0,0,1.059,0V55.53A.53.53,0,0,0,55.53,55Z" transform="translate(-26.925 -26.926)" fill="#323232"/>
        <path id="Trazado_902792" data-name="Trazado 902792" d="M49.649,56H47.53a.53.53,0,0,0-.53.53v2.119a.53.53,0,1,0,1.059,0V57.059h1.059v1.589a.53.53,0,1,0,1.059,0V56.53A.53.53,0,0,0,49.649,56Z" transform="translate(-23.163 -27.396)" fill="#323232"/>
        <path id="Trazado_902793" data-name="Trazado 902793" d="M49.356,40H49.3a3.694,3.694,0,0,0,1.118-2.649v-.53a.53.53,0,0,0-1.059,0v.53a2.649,2.649,0,0,1-5.3,0V35.092a9.581,9.581,0,0,1,5.659.113.53.53,0,0,0,.7-.5A3.708,3.708,0,1,0,43,34.689v2.662a3.7,3.7,0,0,0,1.589,3.038v.67a2.119,2.119,0,1,0,4.238,0h.53A2.652,2.652,0,0,1,52,43.707v3.178a.53.53,0,1,0,1.059,0V43.707A3.712,3.712,0,0,0,49.356,40Zm-2.649-7.946a2.654,2.654,0,0,1,2.545,1.914,10.679,10.679,0,0,0-5.09,0,2.654,2.654,0,0,1,2.545-1.914Zm0,10.064a1.059,1.059,0,0,1-1.059-1.059V40.9a3.669,3.669,0,0,0,2.119,0v.159A1.059,1.059,0,0,1,46.708,42.118Z" transform="translate(-21.282 -15.633)" fill="#323232"/>
        <path id="Trazado_902794" data-name="Trazado 902794" d="M7.53,55a.53.53,0,0,0-.53.53v2.649a.53.53,0,0,0,1.059,0V55.53A.53.53,0,0,0,7.53,55Z" transform="translate(-4.351 -26.926)" fill="#323232"/>
        <path id="Trazado_902795" data-name="Trazado 902795" d="M13.649,56H11.53a.53.53,0,0,0-.53.53v2.119a.53.53,0,1,0,1.059,0V57.059h1.059v1.589a.53.53,0,1,0,1.059,0V56.53A.53.53,0,0,0,13.649,56Z" transform="translate(-6.232 -27.396)" fill="#323232"/>
        <path id="Trazado_902796" data-name="Trazado 902796" d="M12.064,36.416V35.259a1.589,1.589,0,0,0,1.059-1.492,1.531,1.531,0,0,0-.1-.53,1.531,1.531,0,0,0,.1-.53,1.6,1.6,0,0,0-.812-1.381.53.53,0,1,0-.527.919.513.513,0,0,1,.2.731.53.53,0,0,0,0,.522.537.537,0,0,1,.079.269.53.53,0,0,1-.508.53c-.016,0-.033,0-.05,0a.515.515,0,0,1-.467-.354.53.53,0,0,0-.8-.265.512.512,0,0,1-.293.093.53.53,0,0,1-.524-.507.53.53,0,0,0-.483-.513l-.167-.011a.53.53,0,0,0-.5.25.539.539,0,0,1-.747.159.53.53,0,1,0-.583.886,1.629,1.629,0,0,0,1.662.063,1.589,1.589,0,0,0,1.711.689,1.561,1.561,0,0,0,.689.473v1.16a2.649,2.649,0,0,1-5.295,0V33.767a.53.53,0,0,0-.988-.265A.525.525,0,0,1,5,32.742a.53.53,0,0,0,.27-.791.56.56,0,0,1-.093-.3.53.53,0,0,1,.546-.526l.057.008a.53.53,0,0,0,.523-.262.507.507,0,0,1,.731-.2.53.53,0,0,0,.522,0,.537.537,0,0,1,.285-.076L7.9,30.6a.53.53,0,0,0,.523-.262.538.538,0,0,1,.925,0,.53.53,0,0,0,.523.262l.074-.012a.513.513,0,0,1,.362.149.53.53,0,1,0,.737-.76,1.571,1.571,0,0,0-.976-.444,1.575,1.575,0,0,0-2.365,0,1.546,1.546,0,0,0-.406.09,1.571,1.571,0,0,0-1.712.439,1.589,1.589,0,0,0-1.422,1.956,1.581,1.581,0,0,0,.486,2.71v1.687a3.694,3.694,0,0,0,1.119,2.649H5.708A3.712,3.712,0,0,0,2,42.772V45.95a.53.53,0,1,0,1.059,0V42.772a2.652,2.652,0,0,1,2.649-2.649h.53a2.119,2.119,0,0,0,4.238,0v-.67a3.7,3.7,0,0,0,1.589-3.038ZM9.416,40.123a1.059,1.059,0,1,1-2.119,0v-.159a3.669,3.669,0,0,0,2.119,0Z" transform="translate(-2 -14.698)" fill="#323232"/>
        <path id="Trazado_902797" data-name="Trazado 902797" d="M29.064,24.248h-.588A3.694,3.694,0,0,0,29.594,21.6V18.421a2.627,2.627,0,0,0-.193-.98l2.476-2.321a9.481,9.481,0,0,0,1.271-1.466h2.272v1.589a.53.53,0,0,0,.53.53h5.3a.53.53,0,0,0,.492-.727l-.981-2.451.981-2.451a.53.53,0,0,0-.492-.727H38.6V7.827a.53.53,0,0,0-.53-.53H36.48a.53.53,0,0,0,0,1.059H37.54v4.238H33.785a9.545,9.545,0,0,0,1.106-4.431V5.708a.53.53,0,0,0-.53-.53A2.652,2.652,0,0,1,31.713,2.53a.53.53,0,0,0-.53-.53H28.535a.53.53,0,1,0,0,1.059h2.156A3.716,3.716,0,0,0,33.832,6.2V8.163a8.507,8.507,0,0,1-2.679,6.183l-2.343,2.2a2.639,2.639,0,0,0-1.865-.771H22.708a.53.53,0,0,0-.53.53v2.119a.53.53,0,0,0,.53.53h5.827V21.6a2.649,2.649,0,0,1-5.3,0V20.54a.53.53,0,0,0-1.059,0V21.6A3.694,3.694,0,0,0,23.3,24.248h-.589A3.712,3.712,0,0,0,19,27.955v5.3a.53.53,0,1,0,1.059,0V31.134h1.589v2.119a.53.53,0,1,0,1.059,0V28.485a.53.53,0,1,0-1.059,0v1.589H20.059V27.955a2.652,2.652,0,0,1,2.649-2.649h1.059a2.119,2.119,0,0,0,4.238,0h1.059a2.652,2.652,0,0,1,2.649,2.649v2.119H30.124V28.485a.53.53,0,1,0-1.059,0v4.767a.53.53,0,1,0,1.059,0V31.134h1.589v2.119a.53.53,0,1,0,1.059,0v-5.3a3.712,3.712,0,0,0-3.708-3.708Zm7.416-9.632v-.962h.962A1.589,1.589,0,0,1,36.48,14.615Zm3.985-4.14L39.7,12.4a.539.539,0,0,0,0,.394l.769,1.922h-2.41a2.621,2.621,0,0,0,.543-1.589V10.475ZM23.238,17.891V16.832h3.708a1.592,1.592,0,0,1,1.5,1.059Zm2.649,8.475a1.059,1.059,0,0,1-1.059-1.059v-.159a3.669,3.669,0,0,0,2.119,0v.159A1.059,1.059,0,0,1,25.886,26.366Z" transform="translate(-9.995 -2)" fill="#323232"/>
        <path id="Trazado_902798" data-name="Trazado 902798" d="M31.649,54H29.53a.53.53,0,0,0-.53.53v3.178a.53.53,0,0,0,.53.53h2.119a.53.53,0,0,0,.53-.53V54.53A.53.53,0,0,0,31.649,54Zm-.53,3.178H30.059V55.059h1.059Z" transform="translate(-14.698 -26.455)" fill="#323232"/>
      </g>
    </g>
  </g>
</svg>
