<svg xmlns="http://www.w3.org/2000/svg" xmlns:xlink="http://www.w3.org/1999/xlink" width="70.859" height="70.859" viewBox="0 0 70.859 70.859">
  <defs>
    <filter id="Trazado_874925" x="0" y="0" width="70.859" height="70.859" filterUnits="userSpaceOnUse">
      <feOffset dy="3" input="SourceAlpha"/>
      <feGaussianBlur stdDeviation="3" result="blur"/>
      <feFlood flood-opacity="0.161"/>
      <feComposite operator="in" in2="blur"/>
      <feComposite in="SourceGraphic"/>
    </filter>
  </defs>
  <g id="Grupo_1108325" data-name="Grupo 1108325" transform="translate(9 6)">
    <g transform="matrix(1, 0, 0, 1, -9, -6)" filter="url(#Trazado_874925)">
      <g id="Trazado_874925-2" data-name="Trazado 874925" transform="translate(9 6)" fill="#97d8f6" opacity="0.859">
        <path d="M 26.42959976196289 51.35950088500977 C 23.0634593963623 51.35950088500977 19.79880905151367 50.7005729675293 16.7263298034668 49.40102386474609 C 13.75790977478027 48.14549255371094 11.09167957305908 46.34777069091797 8.80171012878418 44.05779266357422 C 6.511729717254639 41.767822265625 4.714009761810303 39.10159301757812 3.458479642868042 36.13317108154297 C 2.158929824829102 33.06069183349609 1.499999761581421 29.79604148864746 1.499999761581421 26.42990303039551 C 1.499999761581421 23.06346321105957 2.158929824829102 19.79881286621094 3.458479642868042 16.72633171081543 C 4.714009761810303 13.75791263580322 6.511729717254639 11.09168243408203 8.80171012878418 8.801712036132812 C 11.09167957305908 6.511732578277588 13.75790977478027 4.714012145996094 16.7263298034668 3.458482265472412 C 19.79880905151367 2.158932447433472 23.0634593963623 1.500002384185791 26.42959976196289 1.500002384185791 C 29.79574012756348 1.500002384185791 33.06039047241211 2.158932447433472 36.13286972045898 3.458482265472412 C 39.10129165649414 4.714012145996094 41.76752090454102 6.511732578277588 44.05749130249023 8.801712036132812 C 46.34746932983398 11.09168243408203 48.14519119262695 13.75791263580322 49.40071868896484 16.72633171081543 C 50.70027160644531 19.79881286621094 51.35919952392578 23.06346321105957 51.35919952392578 26.42960166931152 C 51.35919952392578 29.79604148864746 50.70027160644531 33.06069183349609 49.40071868896484 36.13317108154297 C 48.14519119262695 39.10159301757812 46.34746932983398 41.767822265625 44.05749130249023 44.05779266357422 C 41.76752090454102 46.34777069091797 39.10129165649414 48.14549255371094 36.13286972045898 49.40102386474609 C 33.06039047241211 50.7005729675293 29.79574012756348 51.35950088500977 26.42959976196289 51.35950088500977 Z" stroke="none"/>
        <path d="M 26.42959976196289 3.000003814697266 C 23.26529884338379 3.000003814697266 20.19725036621094 3.619060516357422 17.31066131591797 4.839981079101562 C 14.52103805541992 6.019893646240234 12.01506805419922 7.709671020507812 9.862369537353516 9.862373352050781 C 7.709671020507812 12.01507186889648 6.019889831542969 14.52104187011719 4.839981079101562 17.31066131591797 C 3.619060516357422 20.1972541809082 3 23.26530265808105 3 26.42990303039551 C 3 29.59420204162598 3.619060516357422 32.66225433349609 4.839981079101562 35.54884338378906 C 6.019889831542969 38.33846282958984 7.709671020507812 40.84443283081055 9.862369537353516 42.99713134765625 C 12.01506805419922 45.14983367919922 14.52103805541992 46.8396110534668 17.31066131591797 48.01952362060547 C 20.19725036621094 49.24044036865234 23.26529884338379 49.85950088500977 26.42959976196289 49.85950088500977 C 29.59390068054199 49.85950088500977 32.66194915771484 49.24044036865234 35.54853820800781 48.01952362060547 C 38.33815765380859 46.8396110534668 40.84413146972656 45.14983367919922 42.99682998657227 42.99713134765625 C 45.14952850341797 40.84443283081055 46.83930969238281 38.33846282958984 48.01921844482422 35.54884338378906 C 49.24013900756836 32.66225433349609 49.85919952392578 29.59420204162598 49.85919952392578 26.42960166931152 C 49.85919952392578 23.26530265808105 49.24013900756836 20.1972541809082 48.01921844482422 17.31066131591797 C 46.83930969238281 14.52104187011719 45.14952850341797 12.01507186889648 42.99682998657227 9.862373352050781 C 40.84413146972656 7.709671020507812 38.33815765380859 6.019893646240234 35.54853820800781 4.839981079101562 C 32.66194915771484 3.619060516357422 29.59390068054199 3.000003814697266 26.42959976196289 3.000003814697266 M 26.42959976196289 3.814697265625e-06 C 41.02626037597656 3.814697265625e-06 52.85919952392578 11.83293151855469 52.85919952392578 26.42960166931152 L 52.85919952392578 26.42990303039551 C 52.85919952392578 41.02657318115234 41.02626037597656 52.85950088500977 26.42959976196289 52.85950088500977 C 11.83293151855469 52.85950088500977 0 41.02657318115234 0 26.42990303039551 L 0 26.42960166931152 C 0 11.83293151855469 11.83293151855469 3.814697265625e-06 26.42959976196289 3.814697265625e-06 Z" stroke="none" fill="#fff"/>
      </g>
    </g>
    <g id="Trazado_874923" data-name="Trazado 874923" fill="none">
      <path d="M26.43,0a26.43,26.43,0,0,1,26.43,26.43h0A26.43,26.43,0,1,1,0,26.43H0A26.43,26.43,0,0,1,26.43,0Z" stroke="none"/>
      <path d="M 26.42959976196289 3.000003814697266 C 23.26529884338379 3.000003814697266 20.19725036621094 3.619060516357422 17.31066131591797 4.839981079101562 C 14.52103805541992 6.019893646240234 12.01506805419922 7.709671020507812 9.862369537353516 9.862373352050781 C 7.709671020507812 12.01507186889648 6.019889831542969 14.52104187011719 4.839981079101562 17.31066131591797 C 3.619060516357422 20.1972541809082 3 23.26530265808105 3 26.42990303039551 C 3 29.59420204162598 3.619060516357422 32.66225433349609 4.839981079101562 35.54884338378906 C 6.019889831542969 38.33846282958984 7.709671020507812 40.84443283081055 9.862369537353516 42.99713134765625 C 12.01506805419922 45.14983367919922 14.52103805541992 46.8396110534668 17.31066131591797 48.01952362060547 C 20.19725036621094 49.24044036865234 23.26529884338379 49.85950088500977 26.42959976196289 49.85950088500977 C 29.59390068054199 49.85950088500977 32.66194915771484 49.24044036865234 35.54853820800781 48.01952362060547 C 38.33815765380859 46.8396110534668 40.84413146972656 45.14983367919922 42.99682998657227 42.99713134765625 C 45.14952850341797 40.84443283081055 46.83930969238281 38.33846282958984 48.01921844482422 35.54884338378906 C 49.24013900756836 32.66225433349609 49.85919952392578 29.59420204162598 49.85919952392578 26.42960166931152 C 49.85919952392578 23.26530265808105 49.24013900756836 20.1972541809082 48.01921844482422 17.31066131591797 C 46.83930969238281 14.52104187011719 45.14952850341797 12.01507186889648 42.99682998657227 9.862373352050781 C 40.84413146972656 7.709671020507812 38.33815765380859 6.019893646240234 35.54853820800781 4.839981079101562 C 32.66194915771484 3.619060516357422 29.59390068054199 3.000003814697266 26.42959976196289 3.000003814697266 M 26.42959976196289 3.814697265625e-06 C 41.02626037597656 3.814697265625e-06 52.85919952392578 11.83293151855469 52.85919952392578 26.42960166931152 L 52.85919952392578 26.42990303039551 C 52.85919952392578 41.02657318115234 41.02626037597656 52.85950088500977 26.42959976196289 52.85950088500977 C 11.83293151855469 52.85950088500977 0 41.02657318115234 0 26.42990303039551 L 0 26.42960166931152 C 0 11.83293151855469 11.83293151855469 3.814697265625e-06 26.42959976196289 3.814697265625e-06 Z" stroke="none" fill="#fff"/>
    </g>
    <g id="golfer_7451669" transform="translate(-29.755 -7.147)">
      <path id="Trazado_902799" data-name="Trazado 902799" d="M120.643,210.714v8.571H96v-8.571a3.589,3.589,0,0,1,2.679-3.75l6.429-3.214V200h6.429v3.75l6.429,3.214A3.589,3.589,0,0,1,120.643,210.714Z" transform="translate(-51.117 -171.679)" fill="#eb423f"/>
      <path id="Trazado_902800" data-name="Trazado 902800" d="M187.214,256l2.143,3.214-3.214,1.607L184,257.607Z" transform="translate(-133.224 -223.929)" fill="#d13330"/>
      <path id="Trazado_902801" data-name="Trazado 902801" d="M301.357,257.607l-2.143,3.214L296,259.214,298.143,256Z" transform="translate(-237.725 -223.929)" fill="#d13330"/>
      <path id="Trazado_902802" data-name="Trazado 902802" d="M238.429,200v3.75l-3.214,4.821L232,203.75V200Z" transform="translate(-178.01 -171.679)" fill="#c2a186"/>
      <path id="Trazado_902803" data-name="Trazado 902803" d="M213.357,120.571h-1.071A4.286,4.286,0,0,1,208,116.286V112h9.643v4.286A4.286,4.286,0,0,1,213.357,120.571Z" transform="translate(-155.617 -89.571)" fill="#d1ad8f"/>
      <path id="Trazado_902804" data-name="Trazado 902804" d="M210.538,29.893H199.823S199.288,24,205.18,24,210.538,29.893,210.538,29.893Z" transform="translate(-147.976 -7.464)" fill="#dadcde"/>
      <path id="Trazado_902805" data-name="Trazado 902805" d="M210.714,82.143l-2.143,2.679a5.357,5.357,0,0,0-6.429,0L200,82.143C201.071,80,205.357,80,205.357,80S209.643,80,210.714,82.143Z" transform="translate(-148.153 -59.714)" fill="#eb423f"/>
      <path id="Trazado_902806" data-name="Trazado 902806" d="M384,440h5.357v3.214H384Z" transform="translate(-319.832 -395.607)" fill="#d1ad8f"/>
      <path id="Trazado_902807" data-name="Trazado 902807" d="M63.6,152.107l-14.15-17.819a1.073,1.073,0,0,1-.2-.911C49.583,131.942,50.7,128,52.89,128c2.679,0,3.75,2.679,2.679,3.75a9.6,9.6,0,0,1-2.5,1.606,1.071,1.071,0,0,0-.378,1.633l13.593,17.118Z" transform="translate(-7.471 -104.5)" fill="#dadcde"/>
      <path id="Trazado_902808" data-name="Trazado 902808" d="M55.568,131.75a9.593,9.593,0,0,1-2.5,1.606,1.071,1.071,0,0,0-.378,1.633l.937,1.18-1.594,1.366-2.579-3.247a1.073,1.073,0,0,1-.2-.911C49.583,131.942,50.7,128,52.89,128,55.568,128,56.64,130.679,55.568,131.75Z" transform="translate(-7.471 -104.5)" fill="#c3c6c7"/>
      <path id="Trazado_902809" data-name="Trazado 902809" d="M96,440h4.286v3.214H96Z" transform="translate(-51.117 -395.607)" fill="#c2a186"/>
      <path id="Trazado_902810" data-name="Trazado 902810" d="M96,374.467l4.821-3.75.536-2.143,2.878-2.056a1.071,1.071,0,0,1,1.495.249l1.473,2.062a1.071,1.071,0,0,1-.193,1.452l-5.116,4.186Z" transform="translate(-51.117 -326.86)" fill="#d1ad8f"/>
      <path id="Trazado_902811" data-name="Trazado 902811" d="M58.811,38.5a.536.536,0,1,1,.536.536A.536.536,0,0,1,58.811,38.5Zm.536,2.679a.536.536,0,1,0-.536-.536A.536.536,0,0,0,59.347,41.178ZM45.535,29.7a.533.533,0,0,0,.1.454l3.037,3.824,4.78-2.249V30.3a4.81,4.81,0,0,1-1.607-3.59V23.286l-.418-.523a.535.535,0,0,1-.115-.286h0A6.826,6.826,0,0,1,52.807,17.7,5.678,5.678,0,0,1,57.2,16a5.678,5.678,0,0,1,4.4,1.695,6.826,6.826,0,0,1,1.494,4.782h0a.534.534,0,0,1-.115.286l-.418.523v3.428a4.81,4.81,0,0,1-1.607,3.59v1.427l6.339,2.983a4.841,4.841,0,0,1,2.768,4.362v8.53a.536.536,0,0,1-.536.536H44.883a.536.536,0,0,1-.536-.536v-8.53a4.8,4.8,0,0,1,1.53-3.523l-4.314-5.432a1.6,1.6,0,0,1-.306-1.365,15.553,15.553,0,0,1,1.168-3.35c.827-1.621,1.834-2.443,2.994-2.443a3.553,3.553,0,0,1,3.4,2.128,2.284,2.284,0,0,1-.344,2.536,9.7,9.7,0,0,1-2.65,1.711.532.532,0,0,0-.291.362Zm6.741,17.369h2.747l-1.082-1.362Zm4.115,0H57.7L55.565,44.38l-.794.65Zm-.742-4.791-1.473-2.061a.536.536,0,0,0-.747-.125l-2.718,1.941-.488,1.952a.536.536,0,0,1-.191.293l-3.589,2.791h4.14l4.968-4.065A.537.537,0,0,0,55.649,42.28Zm-8.2,2.648H45.418v1.583Zm4.5-5.1-5.872-7.394-.78.668,5.815,7.323Zm-6.535-.755v4.78h3.413l.4-.309.491-1.963a.535.535,0,0,1,.208-.306l.315-.225-3.7-4.656a3.729,3.729,0,0,0-1.128,2.68ZM68.99,44.928H64.7v2.143H68.99Zm-9.932-9.851L61.306,36.2l1.584-2.376-2.282-1.074ZM54.081,24.364a6.077,6.077,0,0,1,6.246,0l1.581-1.976a4.451,4.451,0,0,0-2.525-1.308,9.287,9.287,0,0,0-4.357,0A4.451,4.451,0,0,0,52.5,22.388Zm-1.624-3.381a9.751,9.751,0,0,1,9.493,0A4.945,4.945,0,0,0,60.8,18.412a4.662,4.662,0,0,0-3.6-1.341,4.662,4.662,0,0,0-3.6,1.341A4.945,4.945,0,0,0,52.458,20.983Zm4.211,9.481H57.74a3.754,3.754,0,0,0,3.75-3.75V24.625l-.653.816a.536.536,0,0,1-.8.044,2.986,2.986,0,0,0-.709-.457,5.174,5.174,0,0,0-4.253,0,2.971,2.971,0,0,0-.712.46.531.531,0,0,1-.377.155h-.03a.534.534,0,0,1-.387-.2l-.653-.816v2.089A3.754,3.754,0,0,0,56.668,30.464Zm-2.143.567v.878L57.2,35.927l2.679-4.018v-.878a4.79,4.79,0,0,1-2.143.5H56.668A4.79,4.79,0,0,1,54.526,31.031Zm-3.007,2.8L53.1,36.2l2.249-1.124L53.8,32.753Zm-2.159,1.016,3.467,4.366a1.609,1.609,0,0,1,2.222.387l1.473,2.062a1.611,1.611,0,0,1-.136,2.032l2.685,3.381h4.563v-7.5a.536.536,0,0,1,1.071,0v4.286H68.99v-4.78a3.765,3.765,0,0,0-2.153-3.393l-2.966-1.4-1.935,2.9a.535.535,0,0,1-.685.182l-2.791-1.4-.719,1.079v3.588a.536.536,0,1,1-1.071,0V37.055l-.719-1.079-2.791,1.4a.535.535,0,0,1-.685-.182l-1.935-2.9ZM44.491,29.46a1.6,1.6,0,0,1,.875-1.088,8.819,8.819,0,0,0,2.352-1.5A1.265,1.265,0,0,0,47.83,25.5a2.5,2.5,0,0,0-2.412-1.467c-.5,0-1.256.322-2.039,1.858A14.462,14.462,0,0,0,42.3,29a.535.535,0,0,0,.1.456l2.233,2.812.78-.668-.616-.776A1.6,1.6,0,0,1,44.491,29.46Z" transform="translate(0)"/>
    </g>
  </g>
</svg>
