<svg id="Grupo_1108311" data-name="Grupo 1108311" xmlns="http://www.w3.org/2000/svg" width="52.859" height="52.859" viewBox="0 0 52.859 52.859">
  <g id="Trazado_874925" data-name="Trazado 874925" transform="translate(0)" fill="#f6d530" opacity="0.859">
    <path d="M 26.42959976196289 51.35950088500977 C 23.0634593963623 51.35950088500977 19.79880905151367 50.7005729675293 16.7263298034668 49.40102386474609 C 13.75790977478027 48.14549255371094 11.09167957305908 46.34777069091797 8.80171012878418 44.05779266357422 C 6.511729717254639 41.767822265625 4.714009761810303 39.10159301757812 3.458479642868042 36.13317108154297 C 2.158929824829102 33.06069183349609 1.499999761581421 29.79604148864746 1.499999761581421 26.42990303039551 C 1.499999761581421 23.06346321105957 2.158929824829102 19.79881286621094 3.458479642868042 16.72633171081543 C 4.714009761810303 13.75791263580322 6.511729717254639 11.09168243408203 8.80171012878418 8.801712036132812 C 11.09167957305908 6.511732578277588 13.75790977478027 4.714012145996094 16.7263298034668 3.458482265472412 C 19.79880905151367 2.158932447433472 23.0634593963623 1.500002384185791 26.42959976196289 1.500002384185791 C 29.79574012756348 1.500002384185791 33.06039047241211 2.158932447433472 36.13286972045898 3.458482265472412 C 39.10129165649414 4.714012145996094 41.76752090454102 6.511732578277588 44.05749130249023 8.801712036132812 C 46.34746932983398 11.09168243408203 48.14519119262695 13.75791263580322 49.40071868896484 16.72633171081543 C 50.70027160644531 19.79881286621094 51.35919952392578 23.06346321105957 51.35919952392578 26.42960166931152 C 51.35919952392578 29.79604148864746 50.70027160644531 33.06069183349609 49.40071868896484 36.13317108154297 C 48.14519119262695 39.10159301757812 46.34746932983398 41.767822265625 44.05749130249023 44.05779266357422 C 41.76752090454102 46.34777069091797 39.10129165649414 48.14549255371094 36.13286972045898 49.40102386474609 C 33.06039047241211 50.7005729675293 29.79574012756348 51.35950088500977 26.42959976196289 51.35950088500977 Z" stroke="none"/>
    <path d="M 26.42959976196289 3.000003814697266 C 23.26529884338379 3.000003814697266 20.19725036621094 3.619060516357422 17.31066131591797 4.839981079101562 C 14.52103805541992 6.019893646240234 12.01506805419922 7.709671020507812 9.862369537353516 9.862373352050781 C 7.709671020507812 12.01507186889648 6.019889831542969 14.52104187011719 4.839981079101562 17.31066131591797 C 3.619060516357422 20.1972541809082 3 23.26530265808105 3 26.42990303039551 C 3 29.59420204162598 3.619060516357422 32.66225433349609 4.839981079101562 35.54884338378906 C 6.019889831542969 38.33846282958984 7.709671020507812 40.84443283081055 9.862369537353516 42.99713134765625 C 12.01506805419922 45.14983367919922 14.52103805541992 46.8396110534668 17.31066131591797 48.01952362060547 C 20.19725036621094 49.24044036865234 23.26529884338379 49.85950088500977 26.42959976196289 49.85950088500977 C 29.59390068054199 49.85950088500977 32.66194915771484 49.24044036865234 35.54853820800781 48.01952362060547 C 38.33815765380859 46.8396110534668 40.84413146972656 45.14983367919922 42.99682998657227 42.99713134765625 C 45.14952850341797 40.84443283081055 46.83930969238281 38.33846282958984 48.01921844482422 35.54884338378906 C 49.24013900756836 32.66225433349609 49.85919952392578 29.59420204162598 49.85919952392578 26.42960166931152 C 49.85919952392578 23.26530265808105 49.24013900756836 20.1972541809082 48.01921844482422 17.31066131591797 C 46.83930969238281 14.52104187011719 45.14952850341797 12.01507186889648 42.99682998657227 9.862373352050781 C 40.84413146972656 7.709671020507812 38.33815765380859 6.019893646240234 35.54853820800781 4.839981079101562 C 32.66194915771484 3.619060516357422 29.59390068054199 3.000003814697266 26.42959976196289 3.000003814697266 M 26.42959976196289 3.814697265625e-06 C 41.02626037597656 3.814697265625e-06 52.85919952392578 11.83293151855469 52.85919952392578 26.42960166931152 L 52.85919952392578 26.42990303039551 C 52.85919952392578 41.02657318115234 41.02626037597656 52.85950088500977 26.42959976196289 52.85950088500977 C 11.83293151855469 52.85950088500977 0 41.02657318115234 0 26.42990303039551 L 0 26.42960166931152 C 0 11.83293151855469 11.83293151855469 3.814697265625e-06 26.42959976196289 3.814697265625e-06 Z" stroke="none" fill="#fff"/>
  </g>
  <g id="Trazado_874923" data-name="Trazado 874923" fill="none">
    <path d="M26.43,0a26.43,26.43,0,0,1,26.43,26.43h0A26.43,26.43,0,1,1,0,26.43H0A26.43,26.43,0,0,1,26.43,0Z" stroke="none"/>
    <path d="M 26.42959976196289 3.000003814697266 C 23.26529884338379 3.000003814697266 20.19725036621094 3.619060516357422 17.31066131591797 4.839981079101562 C 14.52103805541992 6.019893646240234 12.01506805419922 7.709671020507812 9.862369537353516 9.862373352050781 C 7.709671020507812 12.01507186889648 6.019889831542969 14.52104187011719 4.839981079101562 17.31066131591797 C 3.619060516357422 20.1972541809082 3 23.26530265808105 3 26.42990303039551 C 3 29.59420204162598 3.619060516357422 32.66225433349609 4.839981079101562 35.54884338378906 C 6.019889831542969 38.33846282958984 7.709671020507812 40.84443283081055 9.862369537353516 42.99713134765625 C 12.01506805419922 45.14983367919922 14.52103805541992 46.8396110534668 17.31066131591797 48.01952362060547 C 20.19725036621094 49.24044036865234 23.26529884338379 49.85950088500977 26.42959976196289 49.85950088500977 C 29.59390068054199 49.85950088500977 32.66194915771484 49.24044036865234 35.54853820800781 48.01952362060547 C 38.33815765380859 46.8396110534668 40.84413146972656 45.14983367919922 42.99682998657227 42.99713134765625 C 45.14952850341797 40.84443283081055 46.83930969238281 38.33846282958984 48.01921844482422 35.54884338378906 C 49.24013900756836 32.66225433349609 49.85919952392578 29.59420204162598 49.85919952392578 26.42960166931152 C 49.85919952392578 23.26530265808105 49.24013900756836 20.1972541809082 48.01921844482422 17.31066131591797 C 46.83930969238281 14.52104187011719 45.14952850341797 12.01507186889648 42.99682998657227 9.862373352050781 C 40.84413146972656 7.709671020507812 38.33815765380859 6.019893646240234 35.54853820800781 4.839981079101562 C 32.66194915771484 3.619060516357422 29.59390068054199 3.000003814697266 26.42959976196289 3.000003814697266 M 26.42959976196289 3.814697265625e-06 C 41.02626037597656 3.814697265625e-06 52.85919952392578 11.83293151855469 52.85919952392578 26.42960166931152 L 52.85919952392578 26.42990303039551 C 52.85919952392578 41.02657318115234 41.02626037597656 52.85950088500977 26.42959976196289 52.85950088500977 C 11.83293151855469 52.85950088500977 0 41.02657318115234 0 26.42990303039551 L 0 26.42960166931152 C 0 11.83293151855469 11.83293151855469 3.814697265625e-06 26.42959976196289 3.814697265625e-06 Z" stroke="none" fill="#fff"/>
  </g>
  <g id="convenient_6009570" transform="translate(11.101 9.382)">
    <g id="Grupo_1142919" data-name="Grupo 1142919" transform="translate(0 0.759)">
      <g id="Grupo_1142868" data-name="Grupo 1142868" transform="translate(2.014 9.937)">
        <path id="Trazado_903960" data-name="Trazado 903960" d="M52.79,205.621H63.2l2.7-3.745v-5.592a1.765,1.765,0,0,0-1.762-1.757H41.034a1.765,1.765,0,0,0-1.762,1.757v5.592l2.7,3.745H52.79Z" transform="translate(-39.272 -194.527)" fill="#ff646f" fill-rule="evenodd"/>
      </g>
      <g id="Grupo_1142869" data-name="Grupo 1142869" transform="translate(4.718 19.837)">
        <path id="Trazado_903961" data-name="Trazado 903961" d="M113.22,397.877V387.584H92v10.293Z" transform="translate(-91.998 -387.584)" fill="#ff646f" fill-rule="evenodd"/>
      </g>
      <g id="Grupo_1142870" data-name="Grupo 1142870" transform="translate(23.158 22.124)">
        <rect id="Rect치ngulo_404724" data-name="Rect치ngulo 404724" width="2.782" height="8.006" fill="#fb4455"/>
      </g>
      <g id="Grupo_1142871" data-name="Grupo 1142871" transform="translate(0.449 17.286)">
        <path id="Trazado_903962" data-name="Trazado 903962" d="M13.026,350.679v-11.7a1.148,1.148,0,0,0-1.146-1.143H9.9a1.148,1.148,0,0,0-1.146,1.143v11.7h4.269Z" transform="translate(-8.757 -337.835)" fill="#ab695d" fill-rule="evenodd"/>
      </g>
      <g id="Grupo_1142872" data-name="Grupo 1142872" transform="translate(25.939 17.286)">
        <path id="Trazado_903963" data-name="Trazado 903963" d="M510.085,350.678v-11.7a1.148,1.148,0,0,0-1.146-1.143h-1.977a1.148,1.148,0,0,0-1.146,1.143v11.7Z" transform="translate(-505.816 -337.834)" fill="#ab695d" fill-rule="evenodd"/>
      </g>
      <g id="Grupo_1142873" data-name="Grupo 1142873" transform="translate(5.01 3.382)">
        <path id="Trazado_903964" data-name="Trazado 903964" d="M104.157,66.706l-5.6,2.468a1.194,1.194,0,0,0-.519,1.976c.582.591,1.536,1.359,2.459,2.111.092.076.183.151.275.225l1.743-2.1-1.071-.6,2.711-1.361c-.007-.1-.012-.2-.012-.3V67a2.882,2.882,0,0,1,.017-.3Z" transform="translate(-97.695 -66.706)" fill="#fed2a4" fill-rule="evenodd"/>
      </g>
      <g id="Grupo_1142874" data-name="Grupo 1142874" transform="translate(8.084 8.058)">
        <path id="Trazado_903965" data-name="Trazado 903965" d="M169.645,158.292a3.256,3.256,0,0,1-1.908.383h-5.727a3.249,3.249,0,0,1-1.906-.383l-.732-.406-1.743,2.1c.677.555,1.314,1.09,1.747,1.53a4.266,4.266,0,0,1,1.3,2.648v2.522l2.974,3.279,5.43-3.335v-2.467a4.257,4.257,0,0,1,1.3-2.648c.433-.44,1.069-.975,1.747-1.53l-.375-1.485-1.368-.62Z" transform="translate(-157.63 -157.886)" fill="#6fd7a3" fill-rule="evenodd"/>
      </g>
      <g id="Grupo_1142875" data-name="Grupo 1142875" transform="translate(19.165 3.373)">
        <path id="Trazado_903966" data-name="Trazado 903966" d="M379.346,69.018l-5.622-2.477a6.6,6.6,0,0,1,.034.889v1.534c0,.1,0,.2-.012.3l2.714,1.363-1.071.6,1.743,2.1c.092-.074.183-.149.275-.225.922-.752,1.876-1.52,2.459-2.111a1.194,1.194,0,0,0-.521-1.976Z" transform="translate(-373.724 -66.541)" fill="#fed2a4" fill-rule="evenodd"/>
      </g>
      <g id="Grupo_1142876" data-name="Grupo 1142876" transform="translate(18.281 8.677)">
        <path id="Trazado_903967" data-name="Trazado 903967" d="M360.771,171.453l-.375-1.485c-.122.1-.754.615-.874.713-.677.555-1.314,1.09-1.747,1.53a4.266,4.266,0,0,0-1.3,2.648v4.192l1.249-.953v-2.467a4.257,4.257,0,0,1,1.3-2.648c.433-.44,1.069-.975,1.747-1.53Z" transform="translate(-356.478 -169.968)" fill="#3ec3a4" fill-rule="evenodd"/>
      </g>
      <g id="Grupo_1142877" data-name="Grupo 1142877" transform="translate(21.688 5.601)">
        <path id="Trazado_903968" data-name="Trazado 903968" d="M425.278,111.437c-.565.574-1.477,1.312-2.371,2.04l.886,1.07c.092-.074.183-.149.275-.225.922-.752,1.876-1.52,2.459-2.111a1.193,1.193,0,0,0-.521-1.976l-.563-.249a1.235,1.235,0,0,1,.132.318,1.164,1.164,0,0,1-.3,1.133Z" transform="translate(-422.907 -109.986)" fill="#ffbd86" fill-rule="evenodd"/>
      </g>
      <g id="Grupo_1142878" data-name="Grupo 1142878" transform="translate(7.588 3.382)">
        <path id="Trazado_903969" data-name="Trazado 903969" d="M149.141,70.786l2.711-1.361c-.007-.1-.012-.2-.012-.3V67a2.863,2.863,0,0,1,.017-.3l-1.078.476v1.744l-2.077,1.05c-.608.306-1.02.855-.47,1.293l1.249,1,.732-.882Z" transform="translate(-147.973 -66.706)" fill="#ffbd86" fill-rule="evenodd"/>
      </g>
      <g id="Grupo_1142879" data-name="Grupo 1142879" transform="translate(9.095 8.058)">
        <path id="Trazado_903970" data-name="Trazado 903970" d="M182.277,159.257c.2-.582-.227-.791-1.057-.582h-.494a3.249,3.249,0,0,1-1.906-.383l-.732-.406-.732.882,1.354.719a3.77,3.77,0,0,0,3.566-.23Z" transform="translate(-177.356 -157.886)" fill="#3ec3a4" fill-rule="evenodd"/>
      </g>
      <g id="Grupo_1142880" data-name="Grupo 1142880" transform="translate(11.454 3.486)">
        <path id="Trazado_903971" data-name="Trazado 903971" d="M229.28,69.131c-1.443-.889-3.013-.173-4.956,1.033l-.962.6v.283c0,.1.005.2.012.3a3.87,3.87,0,0,0,1.492,2.746h0a3.865,3.865,0,0,0,4.737,0h0a3.859,3.859,0,0,0,1.492-2.748c.008-.1.012-.2.012-.3-.776-1-.881-1.332-1.826-1.913Z" transform="translate(-223.361 -68.734)" fill="#fed2a4" fill-rule="evenodd"/>
      </g>
      <g id="Grupo_1142881" data-name="Grupo 1142881" transform="translate(11.455 0.448)">
        <path id="Trazado_903972" data-name="Trazado 903972" d="M231.074,12.421c-.1-.845-.455-1.979-1.7-2.087a2.438,2.438,0,0,0-1.95-.838h-.139c-1.711.03-3.7,1.173-3.905,2.934a2.86,2.86,0,0,0-.017.3v1.835h.962c2.288,0,3.513-1.921,4.956-1.033a15.735,15.735,0,0,1,1.826,1.315V13.31a6.632,6.632,0,0,0-.034-.889Z" transform="translate(-223.363 -9.496)" fill="#554e56" fill-rule="evenodd"/>
      </g>
      <g id="Grupo_1142882" data-name="Grupo 1142882" transform="translate(17.646 1.31)">
        <path id="Trazado_903973" data-name="Trazado 903973" d="M344.686,28.685v1.359c.166.13.411.325.969.74V29.251a6.6,6.6,0,0,0-.034-.889A2.094,2.094,0,0,0,344.1,26.3a2.937,2.937,0,0,1,.55,1.5,6.587,6.587,0,0,1,.034.889Z" transform="translate(-344.102 -26.298)" fill="#433f43" fill-rule="evenodd"/>
      </g>
      <g id="Grupo_1142883" data-name="Grupo 1142883" transform="translate(12.919 5.056)">
        <path id="Trazado_903974" data-name="Trazado 903974" d="M257.224,99.833a3.864,3.864,0,0,1-1.492,2.748h0a3.865,3.865,0,0,1-3.807.533l.039.032h0a3.865,3.865,0,0,0,4.737,0h0a3.859,3.859,0,0,0,1.492-2.748c.009-.1.012-.2.012-.3-.558-.415-.8-.609-.969-.74v.174c0,.1,0,.2-.012.3Z" transform="translate(-251.925 -99.356)" fill="#ffbd86" fill-rule="evenodd"/>
      </g>
      <g id="Grupo_1142884" data-name="Grupo 1142884" transform="translate(1.804 17.286)">
        <path id="Trazado_903975" data-name="Trazado 903975" d="M38.083,340.386v-1.409a1.148,1.148,0,0,0-1.146-1.143H35.169a1.147,1.147,0,0,1,1.146,1.143v11.7h1.769V340.386Z" transform="translate(-35.169 -337.835)" fill="#935b50" fill-rule="evenodd"/>
      </g>
      <g id="Grupo_1142885" data-name="Grupo 1142885" transform="translate(27.504 17.286)">
        <path id="Trazado_903976" data-name="Trazado 903976" d="M539.036,350.678v-11.7a1.148,1.148,0,0,0-1.146-1.143h-1.558a1.148,1.148,0,0,1,1.146,1.143v11.7Z" transform="translate(-536.332 -337.834)" fill="#935b50" fill-rule="evenodd"/>
      </g>
      <g id="Grupo_1142886" data-name="Grupo 1142886" transform="translate(4.718 19.837)">
        <path id="Trazado_903977" data-name="Trazado 903977" d="M102.306,389.871H113.22v-2.287H92v2.287h10.308Z" transform="translate(-91.998 -387.584)" fill="#fb4455" fill-rule="evenodd"/>
      </g>
      <g id="Grupo_1142887" data-name="Grupo 1142887" transform="translate(10.076 16.684)">
        <path id="Trazado_903978" data-name="Trazado 903978" d="M200.511,327.754a2.146,2.146,0,0,0-2.974-1.488,1.836,1.836,0,0,0-1.046,1.923l.041.694,2.217.325Z" transform="translate(-196.487 -326.086)" fill="#935b50" fill-rule="evenodd"/>
      </g>
      <g id="Grupo_1142888" data-name="Grupo 1142888" transform="translate(10.477 22.124)">
        <path id="Trazado_903979" data-name="Trazado 903979" d="M207.961,432.183l-1.9.42.015.053a2.277,2.277,0,0,1-1.779,2.869l.127,2.17h3.536v-5.512Z" transform="translate(-204.298 -432.183)" fill="#935b50" fill-rule="evenodd"/>
      </g>
      <g id="Grupo_1142889" data-name="Grupo 1142889" transform="translate(8.269 27.637)">
        <path id="Trazado_903980" data-name="Trazado 903980" d="M167.12,539.67h-3.59a2.28,2.28,0,0,0-2.278,2.494h5.868Z" transform="translate(-161.25 -539.67)" fill="#554e56" fill-rule="evenodd"/>
      </g>
      <g id="Grupo_1142890" data-name="Grupo 1142890" transform="translate(10.394 16.684)">
        <path id="Trazado_903981" data-name="Trazado 903981" d="M206.383,327.754a2.146,2.146,0,0,0-2.974-1.488,1.711,1.711,0,0,0-.733.609,2.144,2.144,0,0,1,2.257,1.29l.143.391Z" transform="translate(-202.676 -326.086)" fill="#935b50" fill-rule="evenodd"/>
      </g>
      <g id="Grupo_1142891" data-name="Grupo 1142891" transform="translate(10.426 21.647)">
        <path id="Trazado_903982" data-name="Trazado 903982" d="M207.017,423.351l-1.149-.477-.75.9a10.151,10.151,0,0,0-1.814,2.076l.109,1.82a3.507,3.507,0,0,0,2.061-1.49c.3-.315.2.6.2.865v1.822h1.346v-5.512Z" transform="translate(-203.303 -422.874)" fill="#935b50" fill-rule="evenodd"/>
      </g>
      <g id="Grupo_1142892" data-name="Grupo 1142892" transform="translate(12.794 27.637)">
        <rect id="Rect치ngulo_404725" data-name="Rect치ngulo 404725" width="1.346" height="2.494" fill="#433f43"/>
      </g>
      <g id="Grupo_1142893" data-name="Grupo 1142893" transform="translate(11.12 16.638)">
        <path id="Trazado_903983" data-name="Trazado 903983" d="M225.251,325.369l-5.43,1.544-2.828.8-.153,2.169,1.12,1.222,1.9-.42,6.779-1.5a2.04,2.04,0,0,0,1.278-.786,2.11,2.11,0,0,0-2.39-3.108Z" transform="translate(-216.841 -325.2)" fill="#ab695d" fill-rule="evenodd"/>
      </g>
      <g id="Grupo_1142894" data-name="Grupo 1142894" transform="translate(11.12 17.301)">
        <path id="Trazado_903984" data-name="Trazado 903984" d="M216.842,342.152l1.12,1.222,1.9-.42,6.779-1.5a2.039,2.039,0,0,0,1.278-.786,2.086,2.086,0,0,0-.282-2.536,1.811,1.811,0,0,1-.305,1.187,2.021,2.021,0,0,1-1.278.785Z" transform="translate(-216.842 -338.131)" fill="#935b50" fill-rule="evenodd"/>
      </g>
      <g id="Grupo_1142895" data-name="Grupo 1142895" transform="translate(8.868 19.153)">
        <path id="Trazado_903985" data-name="Trazado 903985" d="M176.293,377.638l-.967-3.391-2.405.684,1.609,5.629a2.277,2.277,0,0,0,1.779-2.869Z" transform="translate(-172.92 -374.247)" fill="#554e56" fill-rule="evenodd"/>
      </g>
      <g id="Grupo_1142896" data-name="Grupo 1142896" transform="translate(8.868 19.837)">
        <path id="Trazado_903986" data-name="Trazado 903986" d="M174.53,393.214a2.277,2.277,0,0,0,1.779-2.869l-.015-.052-.38-1.332h0a2.275,2.275,0,0,1-1.78,2.863l-1.212-4.237h0Z" transform="translate(-172.921 -387.585)" fill="#433f43" fill-rule="evenodd"/>
      </g>
      <g id="Grupo_1142897" data-name="Grupo 1142897" transform="translate(24.865 9.937)">
        <path id="Trazado_903987" data-name="Trazado 903987" d="M488.643,201.877v-5.592a1.765,1.765,0,0,0-1.762-1.757h-2.016a1.765,1.765,0,0,1,1.762,1.757v5.688a1.122,1.122,0,0,1,.458-.1h1.558Z" transform="translate(-484.865 -194.528)" fill="#fb4455" fill-rule="evenodd"/>
      </g>
      <g id="Grupo_1142898" data-name="Grupo 1142898" transform="translate(23.157 19.837)">
        <path id="Trazado_903988" data-name="Trazado 903988" d="M454.35,389.871v-2.287h-1.283a3.064,3.064,0,0,1-.541,1.385,3.289,3.289,0,0,1-.957.9h2.782Z" transform="translate(-451.568 -387.584)" fill="#f7314a" fill-rule="evenodd"/>
      </g>
      <g id="Grupo_1142899" data-name="Grupo 1142899" transform="translate(0 16.837)">
        <path id="Trazado_903989" data-name="Trazado 903989" d="M4.718,342.82H.449A.449.449,0,0,1,0,342.371v-4.977a.449.449,0,1,1,.9,0v4.528H4.269V330.67a.7.7,0,0,0-.7-.694H1.595a.7.7,0,0,0-.7.694v4.852a.449.449,0,0,1-.9,0V330.67a1.6,1.6,0,0,1,1.595-1.592H3.572a1.6,1.6,0,0,1,1.595,1.592v11.7A.449.449,0,0,1,4.718,342.82Z" transform="translate(0 -329.078)"/>
      </g>
      <g id="Grupo_1142900" data-name="Grupo 1142900" transform="translate(25.49 16.837)">
        <path id="Trazado_903990" data-name="Trazado 903990" d="M501.777,342.82h-4.269a.449.449,0,0,1-.449-.449v-11.7a1.6,1.6,0,0,1,1.595-1.592h1.977a1.6,1.6,0,0,1,1.595,1.592v4.852a.449.449,0,1,1-.9,0V330.67a.7.7,0,0,0-.7-.694h-1.977a.7.7,0,0,0-.7.694v11.253h3.371v-4.528a.449.449,0,0,1,.9,0v4.977A.449.449,0,0,1,501.777,342.82Z" transform="translate(-497.059 -329.078)"/>
      </g>
      <g id="Grupo_1142901" data-name="Grupo 1142901" transform="translate(20.381 7.609)">
        <path id="Trazado_903991" data-name="Trazado 903991" d="M399.627,152.131a.448.448,0,0,1-.346-.163l-1.743-2.1a.449.449,0,0,1,.692-.573l1.743,2.1a.449.449,0,0,1-.346.736Z" transform="translate(-397.434 -149.129)"/>
      </g>
      <g id="Grupo_1142902" data-name="Grupo 1142902" transform="translate(11.005 0)">
        <path id="Trazado_903992" data-name="Trazado 903992" d="M222.8,7a.449.449,0,0,1-.268-.088c-.512-.379-.764-.579-.931-.71a6.47,6.47,0,0,0-.863-.583c-.551-.339-1.044-.129-1.94.306a6.189,6.189,0,0,1-2.781.793h-.962a.449.449,0,0,1-.449-.449V4.437a3.8,3.8,0,0,1,2.847-3.406,3.647,3.647,0,0,1,3.844.591c.824.139,1.993.785,1.953,3.342,0,.024,0,.043,0,.058V6.555A.449.449,0,0,1,222.8,7Zm-7.3-1.181h.513a5.3,5.3,0,0,0,2.389-.7c.888-.431,1.807-.876,2.8-.263a7.274,7.274,0,0,1,.949.643l.193.151v-.63c0-.018,0-.042,0-.072.024-1.551-.421-2.378-1.324-2.457a.449.449,0,0,1-.316-.173c-.612-.793-1.932-.791-2.968-.438A2.982,2.982,0,0,0,215.5,4.437V5.823Z" transform="translate(-214.603 -0.759)"/>
      </g>
      <g id="Grupo_1142903" data-name="Grupo 1142903" transform="translate(11.005 5.064)">
        <path id="Trazado_903993" data-name="Trazado 903993" d="M218.927,104.554a4.321,4.321,0,0,1-4.322-4.311v-.283a.449.449,0,0,1,.9,0v.283a3.423,3.423,0,0,0,6.847,0,.449.449,0,1,1,.9,0A4.321,4.321,0,0,1,218.927,104.554Z" transform="translate(-214.605 -99.512)"/>
      </g>
      <g id="Grupo_1142904" data-name="Grupo 1142904" transform="translate(7.635 7.609)">
        <path id="Trazado_903994" data-name="Trazado 903994" d="M149.322,152.131a.449.449,0,0,1-.346-.736l1.743-2.1a.449.449,0,1,1,.692.573l-1.743,2.1A.449.449,0,0,1,149.322,152.131Z" transform="translate(-148.874 -149.128)"/>
      </g>
      <g id="Grupo_1142905" data-name="Grupo 1142905" transform="translate(4.561 2.924)">
        <path id="Trazado_903995" data-name="Trazado 903995" d="M95.5,72.17a.449.449,0,0,1-.449-.449V69.2a3.83,3.83,0,0,0-1.168-2.333c-.52-.527-1.374-1.223-2.2-1.9-.848-.691-1.725-1.406-2.28-1.97a1.643,1.643,0,0,1,.683-2.713l5.58-2.458a.449.449,0,0,1,.362.822l-5.6,2.468a.454.454,0,0,1-.054.02.745.745,0,0,0-.323,1.233c.517.525,1.375,1.224,2.2,1.9.845.689,1.719,1.4,2.273,1.963A4.719,4.719,0,0,1,95.948,69.2v2.522A.449.449,0,0,1,95.5,72.17Zm8.4-.056a.449.449,0,0,1-.449-.449V69.2a4.709,4.709,0,0,1,1.426-2.963c.554-.562,1.43-1.276,2.276-1.966.828-.675,1.684-1.373,2.2-1.9a.713.713,0,0,0,.182-.705.724.724,0,0,0-.511-.524.447.447,0,0,1-.054-.02l-2.565-1.129-3.057-1.348a.449.449,0,0,1,.362-.822l3.057,1.348,2.54,1.118A1.643,1.643,0,0,1,110,63c-.558.566-1.433,1.28-2.28,1.97-.828.675-1.684,1.373-2.2,1.9a3.821,3.821,0,0,0-1.168,2.333v2.467A.449.449,0,0,1,103.9,72.114Zm-1.058-7.956c-.093,0-.188,0-.288,0h-.489a.449.449,0,0,1,0-.9h.508a2.832,2.832,0,0,0,1.677-.326l1.06-.589-1.955-.982a.449.449,0,0,1,.4-.8l2.714,1.363a.449.449,0,0,1,.017.794l-1.8,1A3.423,3.423,0,0,1,102.844,64.158Zm-6.289,0a3.42,3.42,0,0,1-1.844-.444l-1.8-1a.449.449,0,0,1,.017-.794l2.711-1.361a.449.449,0,0,1,.4.8l-1.952.98,1.06.589a2.83,2.83,0,0,0,1.675.326h.507a.449.449,0,1,1,0,.9h-.488C96.743,64.156,96.648,64.158,96.556,64.158Z" transform="translate(-88.933 -57.782)"/>
      </g>
      <g id="Grupo_1142906" data-name="Grupo 1142906" transform="translate(22.237 13.065)">
        <path id="Trazado_903996" data-name="Trazado 903996" d="M435.249,257.611a.448.448,0,0,1-.317-.131l-1.19-1.187a.449.449,0,0,1,.634-.636l1.19,1.187a.449.449,0,0,1-.317.767Z" transform="translate(-433.61 -255.526)"/>
      </g>
      <g id="Grupo_1142907" data-name="Grupo 1142907" transform="translate(22.237 13.065)">
        <path id="Trazado_903997" data-name="Trazado 903997" d="M434.06,257.612a.449.449,0,0,1-.317-.767l1.19-1.187a.449.449,0,0,1,.634.636l-1.19,1.187A.448.448,0,0,1,434.06,257.612Z" transform="translate(-433.611 -255.527)"/>
      </g>
      <g id="Grupo_1142908" data-name="Grupo 1142908" transform="translate(6.316 13.08)">
        <path id="Trazado_903998" data-name="Trazado 903998" d="M123.605,257.909a.449.449,0,0,1-.317-.767l1.19-1.187a.449.449,0,0,1,.634.636l-1.19,1.187A.447.447,0,0,1,123.605,257.909Z" transform="translate(-123.156 -255.824)"/>
      </g>
      <g id="Grupo_1142909" data-name="Grupo 1142909" transform="translate(6.316 13.08)">
        <path id="Trazado_903999" data-name="Trazado 903999" d="M124.794,257.909a.447.447,0,0,1-.317-.131l-1.19-1.187a.449.449,0,0,1,.634-.636l1.19,1.187a.449.449,0,0,1-.317.767Z" transform="translate(-123.155 -255.824)"/>
      </g>
      <g id="Grupo_1142910" data-name="Grupo 1142910" transform="translate(7.82 27.188)">
        <path id="Trazado_904000" data-name="Trazado 904000" d="M158.812,534.3h-5.868a.449.449,0,0,1-.449-.43,2.867,2.867,0,0,1,.762-2.137,2.689,2.689,0,0,1,1.964-.826h3.59a.449.449,0,0,1,.449.449v2.494A.449.449,0,0,1,158.812,534.3Zm-5.4-.9h4.949v-1.6h-3.141a1.8,1.8,0,0,0-1.315.549A1.883,1.883,0,0,0,153.413,533.407Z" transform="translate(-152.492 -530.913)"/>
      </g>
      <g id="Grupo_1142911" data-name="Grupo 1142911" transform="translate(8.419 18.704)">
        <path id="Trazado_904001" data-name="Trazado 904001" d="M166.222,372.7a.449.449,0,0,1-.431-.326l-1.609-5.629a.449.449,0,0,1,.309-.555l2.405-.684a.449.449,0,0,1,.555.309l.983,3.443a2.677,2.677,0,0,1-.254,2.107,2.876,2.876,0,0,1-1.853,1.323A.449.449,0,0,1,166.222,372.7Zm-1.053-5.769,1.357,4.746a1.89,1.89,0,0,0,.878-.766,1.786,1.786,0,0,0,.165-1.406l-.86-3.012Z" transform="translate(-164.164 -365.488)"/>
      </g>
      <g id="Grupo_1142912" data-name="Grupo 1142912" transform="translate(10.824 16.189)">
        <path id="Trazado_904002" data-name="Trazado 904002" d="M212.48,323.255a.449.449,0,0,1-.432-.326l-.967-3.391a.449.449,0,0,1,.309-.555l8.534-2.424h0a2.459,2.459,0,0,1,2.488.622,2.634,2.634,0,0,1,.692,2.549,2.319,2.319,0,0,1-1.848,1.593l-8.679,1.921A.447.447,0,0,1,212.48,323.255Zm-.412-3.531.728,2.552,8.266-1.83a1.443,1.443,0,0,0,1.181-.969,1.749,1.749,0,0,0-.468-1.664,1.56,1.56,0,0,0-1.6-.39h0Zm7.979-2.733h0Z" transform="translate(-211.063 -316.451)"/>
      </g>
      <g id="Grupo_1142913" data-name="Grupo 1142913" transform="translate(9.627 16.234)">
        <path id="Trazado_904003" data-name="Trazado 904003" d="M192.241,329.173h-3.535a.449.449,0,0,1-.448-.423l-.127-2.17a.449.449,0,0,1,.9-.053l.1,1.748h2.663v-5.063a.449.449,0,0,1,.9,0v5.512A.449.449,0,0,1,192.241,329.173Zm-4.018-8.157a.449.449,0,0,1-.448-.423l-.041-.694a2.282,2.282,0,0,1,2.027-2.558,2.551,2.551,0,0,1,2.882,2.014.449.449,0,0,1-.883.166,1.662,1.662,0,0,0-1.889-1.288,1.38,1.38,0,0,0-1.241,1.614l.041.694a.449.449,0,0,1-.422.475Z" transform="translate(-187.729 -317.321)"/>
      </g>
      <g id="Grupo_1142914" data-name="Grupo 1142914" transform="translate(1.565 9.488)">
        <path id="Trazado_904004" data-name="Trazado 904004" d="M30.964,194.019a.449.449,0,0,1-.449-.449v-5.592a2.211,2.211,0,0,1,2.211-2.206h4.033a.449.449,0,1,1,0,.9H32.726a1.312,1.312,0,0,0-1.313,1.308v5.592A.449.449,0,0,1,30.964,194.019Zm26.629,0a.449.449,0,0,1-.449-.449v-5.592a1.312,1.312,0,0,0-1.313-1.308H51.8a.449.449,0,1,1,0-.9h4.033a2.211,2.211,0,0,1,2.211,2.206v5.592A.449.449,0,0,1,57.593,194.019Z" transform="translate(-30.515 -185.772)"/>
      </g>
      <g id="Grupo_1142915" data-name="Grupo 1142915" transform="translate(4.269 19.388)">
        <path id="Trazado_904005" data-name="Trazado 904005" d="M104.912,390.018H83.69a.449.449,0,1,1,0-.9h21.222a.449.449,0,1,1,0,.9Zm0-10.293h-3.743a.449.449,0,0,1,0-.9h3.743a.449.449,0,1,1,0,.9Zm-17.072,0H83.69a.449.449,0,1,1,0-.9h4.15a.449.449,0,1,1,0,.9Z" transform="translate(-83.241 -378.827)"/>
      </g>
      <g id="Grupo_1142916" data-name="Grupo 1142916" transform="translate(4.269 21.675)">
        <path id="Trazado_904006" data-name="Trazado 904006" d="M104.912,424.324h-11.8a.449.449,0,1,1,0-.9h11.8a.449.449,0,1,1,0,.9Zm-16.418,0h-4.8a.449.449,0,1,1,0-.9h4.8a.449.449,0,1,1,0,.9Z" transform="translate(-83.241 -423.426)"/>
      </g>
      <g id="Grupo_1142917" data-name="Grupo 1142917" transform="translate(2.134 19.348)">
        <path id="Trazado_904007" data-name="Trazado 904007" d="M42.053,379.818a.449.449,0,0,1-.449-.449v-.885a.449.449,0,0,1,.9,0v.885A.449.449,0,0,1,42.053,379.818Z" transform="translate(-41.604 -378.034)"/>
      </g>
      <g id="Grupo_1142918" data-name="Grupo 1142918" transform="translate(27.624 19.348)">
        <path id="Trazado_904008" data-name="Trazado 904008" d="M539.112,379.818a.449.449,0,0,1-.449-.449v-.885a.449.449,0,1,1,.9,0v.885A.449.449,0,0,1,539.112,379.818Z" transform="translate(-538.663 -378.034)"/>
      </g>
    </g>
  </g>
</svg>
