<svg id="Grupo_1108312" data-name="Grupo 1108312" xmlns="http://www.w3.org/2000/svg" width="52.859" height="52.859" viewBox="0 0 52.859 52.859">
  <g id="Trazado_874925" data-name="Trazado 874925" transform="translate(0)" fill="#f6d530" opacity="0.859">
    <path d="M 26.42959976196289 51.35950088500977 C 23.0634593963623 51.35950088500977 19.79880905151367 50.7005729675293 16.7263298034668 49.40102386474609 C 13.75790977478027 48.14549255371094 11.09167957305908 46.34777069091797 8.80171012878418 44.05779266357422 C 6.511729717254639 41.767822265625 4.714009761810303 39.10159301757812 3.458479642868042 36.13317108154297 C 2.158929824829102 33.06069183349609 1.499999761581421 29.79604148864746 1.499999761581421 26.42990303039551 C 1.499999761581421 23.06346321105957 2.158929824829102 19.79881286621094 3.458479642868042 16.72633171081543 C 4.714009761810303 13.75791263580322 6.511729717254639 11.09168243408203 8.80171012878418 8.801712036132812 C 11.09167957305908 6.511732578277588 13.75790977478027 4.714012145996094 16.7263298034668 3.458482265472412 C 19.79880905151367 2.158932447433472 23.0634593963623 1.500002384185791 26.42959976196289 1.500002384185791 C 29.79574012756348 1.500002384185791 33.06039047241211 2.158932447433472 36.13286972045898 3.458482265472412 C 39.10129165649414 4.714012145996094 41.76752090454102 6.511732578277588 44.05749130249023 8.801712036132812 C 46.34746932983398 11.09168243408203 48.14519119262695 13.75791263580322 49.40071868896484 16.72633171081543 C 50.70027160644531 19.79881286621094 51.35919952392578 23.06346321105957 51.35919952392578 26.42960166931152 C 51.35919952392578 29.79604148864746 50.70027160644531 33.06069183349609 49.40071868896484 36.13317108154297 C 48.14519119262695 39.10159301757812 46.34746932983398 41.767822265625 44.05749130249023 44.05779266357422 C 41.76752090454102 46.34777069091797 39.10129165649414 48.14549255371094 36.13286972045898 49.40102386474609 C 33.06039047241211 50.7005729675293 29.79574012756348 51.35950088500977 26.42959976196289 51.35950088500977 Z" stroke="none"/>
    <path d="M 26.42959976196289 3.000003814697266 C 23.26529884338379 3.000003814697266 20.19725036621094 3.619060516357422 17.31066131591797 4.839981079101562 C 14.52103805541992 6.019893646240234 12.01506805419922 7.709671020507812 9.862369537353516 9.862373352050781 C 7.709671020507812 12.01507186889648 6.019889831542969 14.52104187011719 4.839981079101562 17.31066131591797 C 3.619060516357422 20.1972541809082 3 23.26530265808105 3 26.42990303039551 C 3 29.59420204162598 3.619060516357422 32.66225433349609 4.839981079101562 35.54884338378906 C 6.019889831542969 38.33846282958984 7.709671020507812 40.84443283081055 9.862369537353516 42.99713134765625 C 12.01506805419922 45.14983367919922 14.52103805541992 46.8396110534668 17.31066131591797 48.01952362060547 C 20.19725036621094 49.24044036865234 23.26529884338379 49.85950088500977 26.42959976196289 49.85950088500977 C 29.59390068054199 49.85950088500977 32.66194915771484 49.24044036865234 35.54853820800781 48.01952362060547 C 38.33815765380859 46.8396110534668 40.84413146972656 45.14983367919922 42.99682998657227 42.99713134765625 C 45.14952850341797 40.84443283081055 46.83930969238281 38.33846282958984 48.01921844482422 35.54884338378906 C 49.24013900756836 32.66225433349609 49.85919952392578 29.59420204162598 49.85919952392578 26.42960166931152 C 49.85919952392578 23.26530265808105 49.24013900756836 20.1972541809082 48.01921844482422 17.31066131591797 C 46.83930969238281 14.52104187011719 45.14952850341797 12.01507186889648 42.99682998657227 9.862373352050781 C 40.84413146972656 7.709671020507812 38.33815765380859 6.019893646240234 35.54853820800781 4.839981079101562 C 32.66194915771484 3.619060516357422 29.59390068054199 3.000003814697266 26.42959976196289 3.000003814697266 M 26.42959976196289 3.814697265625e-06 C 41.02626037597656 3.814697265625e-06 52.85919952392578 11.83293151855469 52.85919952392578 26.42960166931152 L 52.85919952392578 26.42990303039551 C 52.85919952392578 41.02657318115234 41.02626037597656 52.85950088500977 26.42959976196289 52.85950088500977 C 11.83293151855469 52.85950088500977 0 41.02657318115234 0 26.42990303039551 L 0 26.42960166931152 C 0 11.83293151855469 11.83293151855469 3.814697265625e-06 26.42959976196289 3.814697265625e-06 Z" stroke="none" fill="#fff"/>
  </g>
  <g id="Trazado_874923" data-name="Trazado 874923" fill="none">
    <path d="M26.43,0a26.43,26.43,0,0,1,26.43,26.43h0A26.43,26.43,0,1,1,0,26.43H0A26.43,26.43,0,0,1,26.43,0Z" stroke="none"/>
    <path d="M 26.42959976196289 3.000003814697266 C 23.26529884338379 3.000003814697266 20.19725036621094 3.619060516357422 17.31066131591797 4.839981079101562 C 14.52103805541992 6.019893646240234 12.01506805419922 7.709671020507812 9.862369537353516 9.862373352050781 C 7.709671020507812 12.01507186889648 6.019889831542969 14.52104187011719 4.839981079101562 17.31066131591797 C 3.619060516357422 20.1972541809082 3 23.26530265808105 3 26.42990303039551 C 3 29.59420204162598 3.619060516357422 32.66225433349609 4.839981079101562 35.54884338378906 C 6.019889831542969 38.33846282958984 7.709671020507812 40.84443283081055 9.862369537353516 42.99713134765625 C 12.01506805419922 45.14983367919922 14.52103805541992 46.8396110534668 17.31066131591797 48.01952362060547 C 20.19725036621094 49.24044036865234 23.26529884338379 49.85950088500977 26.42959976196289 49.85950088500977 C 29.59390068054199 49.85950088500977 32.66194915771484 49.24044036865234 35.54853820800781 48.01952362060547 C 38.33815765380859 46.8396110534668 40.84413146972656 45.14983367919922 42.99682998657227 42.99713134765625 C 45.14952850341797 40.84443283081055 46.83930969238281 38.33846282958984 48.01921844482422 35.54884338378906 C 49.24013900756836 32.66225433349609 49.85919952392578 29.59420204162598 49.85919952392578 26.42960166931152 C 49.85919952392578 23.26530265808105 49.24013900756836 20.1972541809082 48.01921844482422 17.31066131591797 C 46.83930969238281 14.52104187011719 45.14952850341797 12.01507186889648 42.99682998657227 9.862373352050781 C 40.84413146972656 7.709671020507812 38.33815765380859 6.019893646240234 35.54853820800781 4.839981079101562 C 32.66194915771484 3.619060516357422 29.59390068054199 3.000003814697266 26.42959976196289 3.000003814697266 M 26.42959976196289 3.814697265625e-06 C 41.02626037597656 3.814697265625e-06 52.85919952392578 11.83293151855469 52.85919952392578 26.42960166931152 L 52.85919952392578 26.42990303039551 C 52.85919952392578 41.02657318115234 41.02626037597656 52.85950088500977 26.42959976196289 52.85950088500977 C 11.83293151855469 52.85950088500977 0 41.02657318115234 0 26.42990303039551 L 0 26.42960166931152 C 0 11.83293151855469 11.83293151855469 3.814697265625e-06 26.42959976196289 3.814697265625e-06 Z" stroke="none" fill="#fff"/>
  </g>
  <g id="connection-brain-team-network-money" transform="translate(9.498 9.498)">
    <circle id="Elipse_14923" data-name="Elipse 14923" cx="6.491" cy="6.491" r="6.491" transform="translate(18.43 2.451)" fill="#ddfffb"/>
    <path id="Trazado_904009" data-name="Trazado 904009" d="M53.49,9.491A6.491,6.491,0,0,1,47,15.982a6.575,6.575,0,0,1-1-.075A6.494,6.494,0,0,0,46,3.075,6.575,6.575,0,0,1,47,3,6.491,6.491,0,0,1,53.49,9.491Z" transform="translate(-22.078 -0.549)" fill="#44ffe8"/>
    <circle id="Elipse_14924" data-name="Elipse 14924" cx="6.491" cy="6.491" r="6.491" transform="translate(2.451 18.43)" fill="#ddfffb"/>
    <path id="Trazado_904010" data-name="Trazado 904010" d="M46.981,39.991A6.991,6.991,0,1,1,39.991,33,6.991,6.991,0,0,1,46.981,39.991Z" transform="translate(-15.569 -15.569)" fill="#c0ab91"/>
    <path id="Trazado_904011" data-name="Trazado 904011" d="M52.739,39.991a6.991,6.991,0,0,1-6.991,6.991,7.346,7.346,0,0,1-1.248-.11,6.994,6.994,0,0,0,0-13.761A7.345,7.345,0,0,1,45.748,33,6.991,6.991,0,0,1,52.739,39.991Z" transform="translate(-21.327 -15.569)" fill="#a78966"/>
    <path id="Trazado_904012" data-name="Trazado 904012" d="M50.865,44.292a1.938,1.938,0,0,1,.13.7A2,2,0,1,1,47,45V40a1.826,1.826,0,0,1,.065-.5,2,2,0,0,1,3.93.5,1.938,1.938,0,0,1-.13.7,1.988,1.988,0,0,1,0,3.585Z" transform="translate(-22.578 -18.078)" fill="#ffd422"/>
    <path id="Trazado_904013" data-name="Trazado 904013" d="M51.861,44.286a1.938,1.938,0,0,1,.13.7,1.994,1.994,0,0,1-3,1.728,1.987,1.987,0,0,0,1-1.728,1.938,1.938,0,0,0-.13-.7,1.988,1.988,0,0,0,0-3.585,1.938,1.938,0,0,0,.13-.7,1.986,1.986,0,0,0-1-1.728,2,2,0,0,1,3,1.728,1.938,1.938,0,0,1-.13.7,1.988,1.988,0,0,1,0,3.585Z" transform="translate(-23.575 -18.072)" fill="#ebbf00"/>
    <path id="Trazado_904014" data-name="Trazado 904014" d="M51.995,22.124v1.618A6.441,6.441,0,0,1,48,25.12v-2.5l1.373-1.373Z" transform="translate(-23.079 -9.686)" fill="#ff3051"/>
    <path id="Trazado_904015" data-name="Trazado 904015" d="M47.993,9.5V10l-.5-.165-1-.335L45,10l-.5-.5-1,.335L43,10V9.5a2.5,2.5,0,1,1,4.993,0Z" transform="translate(-20.576 -2.551)" fill="#ffcd00"/>
    <path id="Trazado_904016" data-name="Trazado 904016" d="M47.995,12.335V13.5a1.994,1.994,0,0,1-3,1.728,2.11,2.11,0,0,1-.414-.315A2.01,2.01,0,0,1,44,13.5V12.335L45,12l.5.5L47,12Z" transform="translate(-21.076 -5.055)" fill="#ffc477"/>
    <path id="Trazado_904017" data-name="Trazado 904017" d="M48,19.853l-1.373,1.373L45.25,19.853l.374-.125V18.46a1.984,1.984,0,0,0,2,0v1.268Z" transform="translate(-21.702 -8.289)" fill="#ffc477"/>
    <path id="Trazado_904018" data-name="Trazado 904018" d="M43.995,22.623v2.5A6.441,6.441,0,0,1,40,23.742V22.124l2.621-.874Z" transform="translate(-19.074 -9.686)" fill="#ff3051"/>
    <path id="Trazado_904019" data-name="Trazado 904019" d="M38.128,40.707A1.938,1.938,0,0,1,38,40a2,2,0,0,1,3.93-.5,1.826,1.826,0,0,1,.065.5V45A2,2,0,0,1,38,45a1.938,1.938,0,0,1,.13-.7,1.988,1.988,0,0,1,0-3.585Z" transform="translate(-17.572 -18.078)" fill="#ffd422"/>
    <path id="Trazado_904020" data-name="Trazado 904020" d="M31.713,30.295a.989.989,0,1,1-.7-.295.976.976,0,0,1,.7.295Z" transform="translate(-14.077 -14.067)" fill="#ff3051"/>
    <path id="Trazado_904021" data-name="Trazado 904021" d="M16.981,9.991A6.991,6.991,0,1,1,9.991,3a6.991,6.991,0,0,1,6.991,6.991Z" transform="translate(-0.549 -0.549)" fill="#c0ab91"/>
    <path id="Trazado_904022" data-name="Trazado 904022" d="M22.739,9.991a6.991,6.991,0,0,1-6.991,6.991,7.346,7.346,0,0,1-1.248-.11,6.994,6.994,0,0,0,0-13.761A7.345,7.345,0,0,1,15.748,3a6.991,6.991,0,0,1,6.991,6.991Z" transform="translate(-6.307 -0.549)" fill="#a78966"/>
    <circle id="Elipse_14925" data-name="Elipse 14925" cx="4.993" cy="4.993" r="4.993" transform="translate(4.449 4.449)" fill="#ffd422"/>
    <path id="Trazado_904023" data-name="Trazado 904023" d="M21,11.993a4.993,4.993,0,0,1-5.987,4.893,5,5,0,0,0,0-9.787A4.993,4.993,0,0,1,21,11.993Z" transform="translate(-6.562 -2.551)" fill="#ebbf00"/>
    <path id="Trazado_904024" data-name="Trazado 904024" d="M49.5,9.5V10L49,9.831,48,9.5l-.5.165V9.5a2.508,2.508,0,0,0-.729-1.768A2.562,2.562,0,0,0,46,7.2,2.55,2.55,0,0,1,47,7a2.489,2.489,0,0,1,2.5,2.5Z" transform="translate(-22.078 -2.551)" fill="#ddb200"/>
    <path id="Trazado_904025" data-name="Trazado 904025" d="M49.5,12.335V13.5a2,2,0,0,1-2,2,2.042,2.042,0,0,1-.5-.065,1.911,1.911,0,0,0,.5-.2,1.987,1.987,0,0,0,1-1.728V12.335l-.5-.17L48.5,12Z" transform="translate(-22.579 -5.055)" fill="#ffa733"/>
    <path id="Trazado_904026" data-name="Trazado 904026" d="M21.49,41.491A6.491,6.491,0,0,1,15,47.982a6.575,6.575,0,0,1-1-.075,6.494,6.494,0,0,0,0-12.833A6.574,6.574,0,0,1,15,35,6.491,6.491,0,0,1,21.49,41.491Z" transform="translate(-6.056 -16.57)" fill="#44ffe8"/>
    <path id="Trazado_904027" data-name="Trazado 904027" d="M19.995,54.124v1.618A6.441,6.441,0,0,1,16,57.12v-2.5l1.373-1.373Z" transform="translate(-7.058 -25.708)" fill="#91dc5a"/>
    <path id="Trazado_904028" data-name="Trazado 904028" d="M19.995,54.124v1.618A6.441,6.441,0,0,1,16,57.12v-.315a6.408,6.408,0,0,0,2-1.064V54.124l-1.123-.374.5-.5Z" transform="translate(-7.058 -25.708)" fill="#5eac24"/>
    <path id="Trazado_904029" data-name="Trazado 904029" d="M51.995,22.124v1.618A6.441,6.441,0,0,1,48,25.12v-.315a6.408,6.408,0,0,0,2-1.064V22.124l-1.123-.374.5-.5Z" transform="translate(-23.079 -9.686)" fill="#cd2a00"/>
    <path id="Trazado_904030" data-name="Trazado 904030" d="M15.993,41.5V42l-.5-.165-1-.335L13,42l-.5-.5-1,.335L11,42v-.5a2.5,2.5,0,0,1,4.993,0Z" transform="translate(-4.554 -18.573)" fill="#ffcd00"/>
    <path id="Trazado_904031" data-name="Trazado 904031" d="M15.995,44.335V45.5a1.994,1.994,0,0,1-3,1.728,2.109,2.109,0,0,1-.414-.315A2.01,2.01,0,0,1,12,45.5V44.335L13,44l.5.5L15,44Z" transform="translate(-5.055 -21.076)" fill="#ffc477"/>
    <path id="Trazado_904032" data-name="Trazado 904032" d="M16,51.853l-1.373,1.373L13.25,51.853l.374-.125V50.46a1.984,1.984,0,0,0,2,0v1.268Z" transform="translate(-5.681 -24.311)" fill="#ffc477"/>
    <path id="Trazado_904033" data-name="Trazado 904033" d="M11.995,54.623v2.5A6.441,6.441,0,0,1,8,55.742V54.124l2.621-.874Z" transform="translate(-3.052 -25.708)" fill="#91dc5a"/>
    <path id="Trazado_904034" data-name="Trazado 904034" d="M17.5,41.5V42l-.5-.165L16,41.5l-.5.165V41.5a2.508,2.508,0,0,0-.729-1.768A2.562,2.562,0,0,0,14,39.2a2.55,2.55,0,0,1,1-.2,2.489,2.489,0,0,1,2.5,2.5Z" transform="translate(-6.056 -18.573)" fill="#ddb200"/>
    <path id="Trazado_904035" data-name="Trazado 904035" d="M17.5,44.335V45.5a2,2,0,0,1-2,2,2.042,2.042,0,0,1-.5-.065,1.911,1.911,0,0,0,.5-.2,1.987,1.987,0,0,0,1-1.728V44.335l-.5-.17L16.5,44Z" transform="translate(-6.557 -21.076)" fill="#ffa733"/>
    <path id="Trazado_904036" data-name="Trazado 904036" d="M32.5,31a1,1,0,0,1-1.5.864.905.905,0,0,0,.2-.16A.976.976,0,0,0,31.5,31a1,1,0,0,0-.5-.864A1,1,0,0,1,32.5,31Z" transform="translate(-14.568 -14.068)" fill="#cd2a00"/>
    <path id="Trazado_904037" data-name="Trazado 904037" d="M24.421,16.932A7.448,7.448,0,0,0,19.5,18.789L18.28,17.576a1.46,1.46,0,0,0,0-1.288l2.072-2.067a7.014,7.014,0,1,0-.709-.709l-2.067,2.072a1.46,1.46,0,0,0-1.288,0l-1.218-1.218a7.448,7.448,0,1,0-.7.709l1.218,1.213a1.46,1.46,0,0,0,0,1.288l-2.072,2.067a7.014,7.014,0,1,0,.709.709l2.067-2.072a1.46,1.46,0,0,0,1.288,0L18.794,19.5a7.478,7.478,0,1,0,5.627-2.567Zm0-2.022a5.971,5.971,0,0,1-3-1.108v-1l1.987-.664,1.009,1.009Zm-1-7.27.365-.125.28.285a.5.5,0,0,0,.355.145.592.592,0,0,0,.16-.025l1.338-.449.5.17v.8a1.5,1.5,0,1,1-3,0Zm-.489-.889a2,2,0,0,1,3.975,0l-.829-.28a.5.5,0,0,0-.32,0l-1.2.4-.28-.285a.5.5,0,0,0-.355-.145.592.592,0,0,0-.16.025Zm1.423,4.918a.454.454,0,0,0,.065-.23V10.89a2.775,2.775,0,0,0,.5.05,2.73,2.73,0,0,0,.5-.05v.549a.454.454,0,0,0,.065.23l-.564.564Zm4.06,2.132a5.971,5.971,0,0,1-3,1.108V13.142l1.009-1.009,1.987.664ZM18.929,8.942a5.992,5.992,0,1,1,10.486,3.95v-.454a.506.506,0,0,0-.34-.474l-2.656-.884v-.654a2.473,2.473,0,0,0,1-1.982v-.5a.464.464,0,0,0,.29-.09.491.491,0,0,0,.21-.4v-.5a3,3,0,0,0-5.992,0v.5a.491.491,0,0,0,.21.4.464.464,0,0,0,.29.09v.5a2.5,2.5,0,0,0,.734,1.768,2.163,2.163,0,0,0,.265.215v.654l-2.656.884a.506.506,0,0,0-.34.474v.454a5.959,5.959,0,0,1-1.5-3.95ZM9.442,15.933a6.491,6.491,0,1,1,6.491-6.491,6.491,6.491,0,0,1-6.491,6.491Zm-1,14.955a5.971,5.971,0,0,1-3-1.108v-1l1.987-.664L8.443,29.12Zm-1-7.27.365-.125.28.285a.5.5,0,0,0,.355.145A.592.592,0,0,0,8.6,23.9l1.338-.449.5.17v.8a1.5,1.5,0,0,1-3,0Zm-.489-.889a2,2,0,0,1,3.975,0l-.829-.28a.5.5,0,0,0-.32,0l-1.2.4-.28-.285a.5.5,0,0,0-.355-.145.592.592,0,0,0-.16.025Zm1.423,4.918a.454.454,0,0,0,.065-.23v-.549a2.775,2.775,0,0,0,.5.05,2.73,2.73,0,0,0,.5-.05v.549a.454.454,0,0,0,.065.23l-.564.564Zm4.06,2.132a5.971,5.971,0,0,1-3,1.108V29.12l1.009-1.009,1.987.664Zm2.5-4.858a5.958,5.958,0,0,1-1.5,3.949v-.454a.506.506,0,0,0-.34-.474l-2.656-.884V26.4a2.473,2.473,0,0,0,1-1.982v-.5a.464.464,0,0,0,.29-.09.491.491,0,0,0,.21-.4v-.5a3,3,0,1,0-5.992,0v.5a.491.491,0,0,0,.21.4.464.464,0,0,0,.29.09v.5a2.5,2.5,0,0,0,.734,1.768,2.163,2.163,0,0,0,.265.215v.654l-2.656.884a.506.506,0,0,0-.34.474v.454a5.988,5.988,0,1,1,10.486-3.95Zm2-7.49a.5.5,0,1,1,.5-.5A.5.5,0,0,1,16.932,17.431Zm7.49,13.482a6.491,6.491,0,1,1,6.491-6.491,6.491,6.491,0,0,1-6.491,6.491Z" transform="translate(0)"/>
    <path id="Trazado_904038" data-name="Trazado 904038" d="M46.985,41.993a2.5,2.5,0,0,0-1.044-2.022,2.493,2.493,0,0,0-4.449-1.962A2.492,2.492,0,0,0,37,39.5a2.157,2.157,0,0,0,.05.474,2.478,2.478,0,0,0,0,4.045,2.491,2.491,0,0,0,4.449,1.957,2.489,2.489,0,0,0,4.494-1.483,2.156,2.156,0,0,0-.05-.474,2.485,2.485,0,0,0,1.049-2.022Zm-5.992,2.5a1.5,1.5,0,0,1-3,0c0-.02,0-.035,0-.05a2.676,2.676,0,0,0,.494.05,2.515,2.515,0,0,0,1.248-.335l-.5-.869a1.461,1.461,0,0,1-1.4.05,1.491,1.491,0,0,1,.01-2.691,1.471,1.471,0,0,1,1.393.055l.5-.869A2.547,2.547,0,0,0,38,39.551c0-.02,0-.035,0-.055a1.5,1.5,0,0,1,2.951-.365,1.375,1.375,0,0,1,.045.365Zm4.139-1.148a1.471,1.471,0,0,1-1.393-.055l-.5.869a2.515,2.515,0,0,0,1.248.335,2.676,2.676,0,0,0,.494-.05c0,.015,0,.03,0,.05a1.5,1.5,0,0,1-3,0V39.5a1.3,1.3,0,0,1,.05-.374,1.5,1.5,0,0,1,2.946.374c0,.02,0,.035,0,.055a2.544,2.544,0,0,0-1.743.28l.5.869a1.461,1.461,0,0,1,1.4-.05,1.491,1.491,0,0,1-.01,2.691Z" transform="translate(-17.071 -17.572)"/>
    <path id="Trazado_904039" data-name="Trazado 904039" d="M15.5,12a.5.5,0,0,1,.5.5.5.5,0,0,0,1,0,1.5,1.5,0,0,0-1-1.406V10.5a.5.5,0,0,0-1,0v.591a1.494,1.494,0,0,0,.5,2.9.5.5,0,1,1-.5.5.5.5,0,0,0-1,0A1.5,1.5,0,0,0,15,15.9v.591a.5.5,0,0,0,1,0V15.9a1.494,1.494,0,0,0-.5-2.9.5.5,0,0,1,0-1Z" transform="translate(-6.056 -4.053)"/>
    <path id="Trazado_904040" data-name="Trazado 904040" d="M11.493,6a5.493,5.493,0,1,0,5.493,5.493A5.493,5.493,0,0,0,11.493,6Zm0,9.986a4.494,4.494,0,1,1,4.494-4.494A4.494,4.494,0,0,1,11.493,15.986Z" transform="translate(-2.051 -2.051)"/>
  </g>
</svg>
