<svg id="Grupo_1108313" data-name="Grupo 1108313" xmlns="http://www.w3.org/2000/svg" width="52.859" height="52.859" viewBox="0 0 52.859 52.859">
  <g id="Trazado_874925" data-name="Trazado 874925" transform="translate(0)" fill="#f6d530" opacity="0.859">
    <path d="M 26.42959976196289 51.35950088500977 C 23.0634593963623 51.35950088500977 19.79880905151367 50.7005729675293 16.7263298034668 49.40102386474609 C 13.75790977478027 48.14549255371094 11.09167957305908 46.34777069091797 8.80171012878418 44.05779266357422 C 6.511729717254639 41.767822265625 4.714009761810303 39.10159301757812 3.458479642868042 36.13317108154297 C 2.158929824829102 33.06069183349609 1.499999761581421 29.79604148864746 1.499999761581421 26.42990303039551 C 1.499999761581421 23.06346321105957 2.158929824829102 19.79881286621094 3.458479642868042 16.72633171081543 C 4.714009761810303 13.75791263580322 6.511729717254639 11.09168243408203 8.80171012878418 8.801712036132812 C 11.09167957305908 6.511732578277588 13.75790977478027 4.714012145996094 16.7263298034668 3.458482265472412 C 19.79880905151367 2.158932447433472 23.0634593963623 1.500002384185791 26.42959976196289 1.500002384185791 C 29.79574012756348 1.500002384185791 33.06039047241211 2.158932447433472 36.13286972045898 3.458482265472412 C 39.10129165649414 4.714012145996094 41.76752090454102 6.511732578277588 44.05749130249023 8.801712036132812 C 46.34746932983398 11.09168243408203 48.14519119262695 13.75791263580322 49.40071868896484 16.72633171081543 C 50.70027160644531 19.79881286621094 51.35919952392578 23.06346321105957 51.35919952392578 26.42960166931152 C 51.35919952392578 29.79604148864746 50.70027160644531 33.06069183349609 49.40071868896484 36.13317108154297 C 48.14519119262695 39.10159301757812 46.34746932983398 41.767822265625 44.05749130249023 44.05779266357422 C 41.76752090454102 46.34777069091797 39.10129165649414 48.14549255371094 36.13286972045898 49.40102386474609 C 33.06039047241211 50.7005729675293 29.79574012756348 51.35950088500977 26.42959976196289 51.35950088500977 Z" stroke="none"/>
    <path d="M 26.42959976196289 3.000003814697266 C 23.26529884338379 3.000003814697266 20.19725036621094 3.619060516357422 17.31066131591797 4.839981079101562 C 14.52103805541992 6.019893646240234 12.01506805419922 7.709671020507812 9.862369537353516 9.862373352050781 C 7.709671020507812 12.01507186889648 6.019889831542969 14.52104187011719 4.839981079101562 17.31066131591797 C 3.619060516357422 20.1972541809082 3 23.26530265808105 3 26.42990303039551 C 3 29.59420204162598 3.619060516357422 32.66225433349609 4.839981079101562 35.54884338378906 C 6.019889831542969 38.33846282958984 7.709671020507812 40.84443283081055 9.862369537353516 42.99713134765625 C 12.01506805419922 45.14983367919922 14.52103805541992 46.8396110534668 17.31066131591797 48.01952362060547 C 20.19725036621094 49.24044036865234 23.26529884338379 49.85950088500977 26.42959976196289 49.85950088500977 C 29.59390068054199 49.85950088500977 32.66194915771484 49.24044036865234 35.54853820800781 48.01952362060547 C 38.33815765380859 46.8396110534668 40.84413146972656 45.14983367919922 42.99682998657227 42.99713134765625 C 45.14952850341797 40.84443283081055 46.83930969238281 38.33846282958984 48.01921844482422 35.54884338378906 C 49.24013900756836 32.66225433349609 49.85919952392578 29.59420204162598 49.85919952392578 26.42960166931152 C 49.85919952392578 23.26530265808105 49.24013900756836 20.1972541809082 48.01921844482422 17.31066131591797 C 46.83930969238281 14.52104187011719 45.14952850341797 12.01507186889648 42.99682998657227 9.862373352050781 C 40.84413146972656 7.709671020507812 38.33815765380859 6.019893646240234 35.54853820800781 4.839981079101562 C 32.66194915771484 3.619060516357422 29.59390068054199 3.000003814697266 26.42959976196289 3.000003814697266 M 26.42959976196289 3.814697265625e-06 C 41.02626037597656 3.814697265625e-06 52.85919952392578 11.83293151855469 52.85919952392578 26.42960166931152 L 52.85919952392578 26.42990303039551 C 52.85919952392578 41.02657318115234 41.02626037597656 52.85950088500977 26.42959976196289 52.85950088500977 C 11.83293151855469 52.85950088500977 0 41.02657318115234 0 26.42990303039551 L 0 26.42960166931152 C 0 11.83293151855469 11.83293151855469 3.814697265625e-06 26.42959976196289 3.814697265625e-06 Z" stroke="none" fill="#fff"/>
  </g>
  <g id="Trazado_874923" data-name="Trazado 874923" fill="none">
    <path d="M26.43,0a26.43,26.43,0,0,1,26.43,26.43h0A26.43,26.43,0,1,1,0,26.43H0A26.43,26.43,0,0,1,26.43,0Z" stroke="none"/>
    <path d="M 26.42959976196289 3.000003814697266 C 23.26529884338379 3.000003814697266 20.19725036621094 3.619060516357422 17.31066131591797 4.839981079101562 C 14.52103805541992 6.019893646240234 12.01506805419922 7.709671020507812 9.862369537353516 9.862373352050781 C 7.709671020507812 12.01507186889648 6.019889831542969 14.52104187011719 4.839981079101562 17.31066131591797 C 3.619060516357422 20.1972541809082 3 23.26530265808105 3 26.42990303039551 C 3 29.59420204162598 3.619060516357422 32.66225433349609 4.839981079101562 35.54884338378906 C 6.019889831542969 38.33846282958984 7.709671020507812 40.84443283081055 9.862369537353516 42.99713134765625 C 12.01506805419922 45.14983367919922 14.52103805541992 46.8396110534668 17.31066131591797 48.01952362060547 C 20.19725036621094 49.24044036865234 23.26529884338379 49.85950088500977 26.42959976196289 49.85950088500977 C 29.59390068054199 49.85950088500977 32.66194915771484 49.24044036865234 35.54853820800781 48.01952362060547 C 38.33815765380859 46.8396110534668 40.84413146972656 45.14983367919922 42.99682998657227 42.99713134765625 C 45.14952850341797 40.84443283081055 46.83930969238281 38.33846282958984 48.01921844482422 35.54884338378906 C 49.24013900756836 32.66225433349609 49.85919952392578 29.59420204162598 49.85919952392578 26.42960166931152 C 49.85919952392578 23.26530265808105 49.24013900756836 20.1972541809082 48.01921844482422 17.31066131591797 C 46.83930969238281 14.52104187011719 45.14952850341797 12.01507186889648 42.99682998657227 9.862373352050781 C 40.84413146972656 7.709671020507812 38.33815765380859 6.019893646240234 35.54853820800781 4.839981079101562 C 32.66194915771484 3.619060516357422 29.59390068054199 3.000003814697266 26.42959976196289 3.000003814697266 M 26.42959976196289 3.814697265625e-06 C 41.02626037597656 3.814697265625e-06 52.85919952392578 11.83293151855469 52.85919952392578 26.42960166931152 L 52.85919952392578 26.42990303039551 C 52.85919952392578 41.02657318115234 41.02626037597656 52.85950088500977 26.42959976196289 52.85950088500977 C 11.83293151855469 52.85950088500977 0 41.02657318115234 0 26.42990303039551 L 0 26.42960166931152 C 0 11.83293151855469 11.83293151855469 3.814697265625e-06 26.42959976196289 3.814697265625e-06 Z" stroke="none" fill="#fff"/>
  </g>
  <g id="union_10342166" transform="translate(0.792 -4.491)">
    <g id="Grupo_1142924" data-name="Grupo 1142924" transform="translate(7.5 14.249)">
      <g id="Grupo_1142921" data-name="Grupo 1142921" transform="translate(11.403 0)">
        <path id="Trazado_904041" data-name="Trazado 904041" d="M193.278,19.316h0a1.075,1.075,0,0,0-1.4.661h0l0,.006.818-2.395a1.083,1.083,0,0,0-.64-1.362l-.08-.03a1.076,1.076,0,0,0-1.4.675L188.9,21.975a.465.465,0,0,1-.9-.217c.155-1.016.685-4.478.955-6.247a1.081,1.081,0,0,0-.891-1.232l-.1-.016a1.077,1.077,0,0,0-1.237.9l-.954,6.231a.467.467,0,0,1-.461.4h-.2a.467.467,0,0,1-.466-.468v-5.91a1.079,1.079,0,0,0-1.077-1.081h-.1a1.079,1.079,0,0,0-1.077,1.081v6.809a.925.925,0,0,1-.192.565h0a.916.916,0,0,1-1.375.087L179.3,21.343a1.939,1.939,0,0,0-2.75,0,.862.862,0,0,0,0,1.215l3.063,3.077a3.907,3.907,0,0,1,1.069,2.03l.153.808A4.725,4.725,0,0,0,182.55,31.3a3.7,3.7,0,0,1,.679,2.135h0V46.912h7.324v-15.2a5.228,5.228,0,0,0,1.236-3.378,9.756,9.756,0,0,1,.564-3.27l1.558-4.379A1.08,1.08,0,0,0,193.278,19.316Z" transform="translate(-176.3 -14.249)" fill="#fdb0a0"/>
        <g id="Grupo_1142920" data-name="Grupo 1142920" transform="translate(6.929 19.904)">
          <path id="Trazado_904042" data-name="Trazado 904042" d="M278.865,308.876v3.207l.882.886a3.907,3.907,0,0,1,1.069,2.03l.153.808a4.725,4.725,0,0,0,1.714,2.831l.685.54a1.4,1.4,0,0,1,.53,1.1v1.361h2.29V308.876Z" transform="translate(-278.865 -308.876)" fill="#f89f8e"/>
        </g>
        <path id="Trazado_904043" data-name="Trazado 904043" d="M358.427,100.7a5.228,5.228,0,0,0,1.236-3.378,9.757,9.757,0,0,1,.564-3.27l1.558-4.379a1.08,1.08,0,0,0-.633-1.373h0a1.071,1.071,0,0,0-1.022.146l0,0-.013.011-1.977,5.593a9.738,9.738,0,0,0-.565,3.27,5.232,5.232,0,0,1-.885,2.913,2.04,2.04,0,0,0-.351,1.135v14.526h2.09V100.7Z" transform="translate(-344.175 -83.23)" fill="#f89f8e"/>
      </g>
      <g id="Grupo_1142923" data-name="Grupo 1142923" transform="translate(0 8.322)">
        <g id="Grupo_1142922" data-name="Grupo 1142922" transform="translate(0 0)">
          <path id="Trazado_904044" data-name="Trazado 904044" d="M24.478,142.511a1.075,1.075,0,0,0-1.4.661h0v0l.815-2.391a1.083,1.083,0,0,0-.64-1.362l-.08-.03a1.076,1.076,0,0,0-1.4.675L20.1,145.17a.465.465,0,0,1-.9-.217c.155-1.016.685-4.478.955-6.247a1.081,1.081,0,0,0-.891-1.232l-.1-.016a1.077,1.077,0,0,0-1.237.9l-.954,6.231a.467.467,0,0,1-.461.4h-.2a.467.467,0,0,1-.466-.468v-5.91a1.079,1.079,0,0,0-1.077-1.081h-.1a1.079,1.079,0,0,0-1.077,1.081v6.809a.925.925,0,0,1-.192.565.916.916,0,0,1-1.375.087L10.5,144.538a1.939,1.939,0,0,0-2.75,0h0a.862.862,0,0,0,0,1.215l3.063,3.077a3.907,3.907,0,0,1,1.069,2.03l.153.808A4.725,4.725,0,0,0,13.75,154.5l.685.54a1.4,1.4,0,0,1,.53,1.1v5.65h6.787v-6.874a5.228,5.228,0,0,0,1.236-3.378h0a9.756,9.756,0,0,1,.564-3.27h0l1.558-4.379A1.08,1.08,0,0,0,24.478,142.511Z" transform="translate(-7.5 -137.444)" fill="#c86f5c"/>
          <path id="Trazado_904045" data-name="Trazado 904045" d="M189.626,223.892a5.228,5.228,0,0,0,1.236-3.378h0a9.757,9.757,0,0,1,.564-3.27l1.558-4.379a1.076,1.076,0,0,0-1.65-1.232l-.021.017-1.977,5.593a9.742,9.742,0,0,0-.565,3.27,5.232,5.232,0,0,1-.9,2.931,1.993,1.993,0,0,0-.339,1.117v6.2h2.09v-6.874Z" transform="translate(-175.374 -206.425)" fill="#ba5d4f"/>
        </g>
        <path id="Trazado_904046" data-name="Trazado 904046" d="M259.855,170.51h0a1.075,1.075,0,0,0-1.4.661h0v0l.815-2.391a1.083,1.083,0,0,0-.64-1.362l-.08-.03a1.076,1.076,0,0,0-1.4.675l-1.671,5.105a.465.465,0,0,1-.9-.217c.155-1.016.685-4.478.955-6.247a1.081,1.081,0,0,0-.891-1.232l-.1-.016a1.077,1.077,0,0,0-1.237.9l-.954,6.231a.467.467,0,0,1-.461.4h-.2a.467.467,0,0,1-.466-.468v-5.91a1.079,1.079,0,0,0-1.077-1.081h-.1a1.079,1.079,0,0,0-1.077,1.081v6.809a.925.925,0,0,1-.192.565.916.916,0,0,1-1.376.087l-1.527-1.534a1.939,1.939,0,0,0-2.75,0h0a.862.862,0,0,0,0,1.215l3.063,3.077a3.907,3.907,0,0,1,1.069,2.03l.153.808a4.725,4.725,0,0,0,1.714,2.831l.685.54a1.4,1.4,0,0,1,.53,1.1h0v3.759h6.787V182.91a5.228,5.228,0,0,0,1.236-3.378,9.756,9.756,0,0,1,.564-3.27h0l1.558-4.379A1.08,1.08,0,0,0,259.855,170.51Z" transform="translate(-226.976 -163.552)" fill="#ffcec0"/>
        <path id="Trazado_904047" data-name="Trazado 904047" d="M425,251.892a5.228,5.228,0,0,0,1.236-3.378,9.756,9.756,0,0,1,.564-3.27l1.558-4.379a1.08,1.08,0,0,0-.633-1.373h0a1.071,1.071,0,0,0-1.028.151l-.009.008-1.977,5.593a9.741,9.741,0,0,0-.565,3.27,5.232,5.232,0,0,1-.9,2.931,1.993,1.993,0,0,0-.339,1.117v4.312H425v-4.983Z" transform="translate(-394.851 -232.534)" fill="#fdb0a0"/>
      </g>
    </g>
    <g id="Grupo_1142934" data-name="Grupo 1142934" transform="translate(7.5 14.249)">
      <g id="Grupo_1142927" data-name="Grupo 1142927" transform="translate(11.403 0)">
        <g id="Grupo_1142926" data-name="Grupo 1142926">
          <g id="Grupo_1142925" data-name="Grupo 1142925">
            <line id="Línea_607" data-name="Línea 607" y2="4.526" transform="translate(6.929 28.137)" fill="none" stroke="#000" stroke-linecap="round" stroke-linejoin="round" stroke-miterlimit="10" stroke-width="1"/>
            <line id="Línea_608" data-name="Línea 608" y2="5.15" transform="translate(6.929 20.737)" fill="none" stroke="#000" stroke-linecap="round" stroke-linejoin="round" stroke-miterlimit="10" stroke-width="1"/>
            <line id="Línea_609" data-name="Línea 609" x2="1.61" y2="1.617" transform="translate(1.262 9.324)" fill="none" stroke="#000" stroke-linecap="round" stroke-linejoin="round" stroke-miterlimit="10" stroke-width="1"/>
            <path id="Trazado_904048" data-name="Trazado 904048" d="M190.664,23.54l2.03-5.951a1.083,1.083,0,0,0-.64-1.362l-.08-.03a1.076,1.076,0,0,0-1.4.675L188.9,21.976a.464.464,0,0,1-.708.236h0A.468.468,0,0,1,188,21.76c.155-1.016.685-4.478.955-6.247a1.081,1.081,0,0,0-.891-1.232l-.1-.016a1.077,1.077,0,0,0-1.237.9l-.954,6.231a.467.467,0,0,1-.461.4h-.2a.467.467,0,0,1-.466-.468v-5.91a1.079,1.079,0,0,0-1.077-1.081h-.1a1.079,1.079,0,0,0-1.077,1.081v6.809a.925.925,0,0,1-.192.565.916.916,0,0,1-1.375.087L179.3,21.344a1.939,1.939,0,0,0-2.75,0h0a.862.862,0,0,0,0,1.215" transform="translate(-176.299 -14.25)" fill="none" stroke="#000" stroke-linecap="round" stroke-linejoin="round" stroke-miterlimit="10" stroke-width="1"/>
          </g>
          <path id="Trazado_904049" data-name="Trazado 904049" d="M406.942,88.958a1.075,1.075,0,0,1,1.4-.661h0a1.08,1.08,0,0,1,.633,1.373l-1.353,3.8" transform="translate(-391.361 -83.23)" fill="none" stroke="#000" stroke-linecap="round" stroke-linejoin="round" stroke-miterlimit="10" stroke-width="1"/>
        </g>
      </g>
      <g id="Grupo_1142933" data-name="Grupo 1142933" transform="translate(0 8.322)">
        <g id="Grupo_1142930" data-name="Grupo 1142930" transform="translate(0 0)">
          <g id="Grupo_1142929" data-name="Grupo 1142929">
            <g id="Grupo_1142928" data-name="Grupo 1142928">
              <path id="Trazado_904050" data-name="Trazado 904050" d="M79.825,146.888l2.08-6.1a1.083,1.083,0,0,0-.64-1.362l-.08-.03a1.076,1.076,0,0,0-1.4.675l-1.671,5.105a.465.465,0,0,1-.9-.217c.155-1.016.685-4.478.955-6.247a1.081,1.081,0,0,0-.891-1.232l-.1-.016a1.077,1.077,0,0,0-1.237.9l-.954,6.231a.467.467,0,0,1-.461.4h-.2a.467.467,0,0,1-.466-.468v-5.91a1.079,1.079,0,0,0-1.077-1.081h-.1a1.079,1.079,0,0,0-1.077,1.081v6.809a.925.925,0,0,1-.192.565h0a.916.916,0,0,1-1.375.087l-.325-.327" transform="translate(-65.51 -137.445)" fill="none" stroke="#000" stroke-linecap="round" stroke-linejoin="round" stroke-miterlimit="10" stroke-width="1"/>
              <path id="Trazado_904051" data-name="Trazado 904051" d="M10.071,234.232a1.939,1.939,0,0,0-2.319.326h0a.862.862,0,0,0,0,1.215l3.063,3.077a3.907,3.907,0,0,1,1.069,2.03l.153.808a4.725,4.725,0,0,0,1.714,2.831l.685.54a1.4,1.4,0,0,1,.53,1.1v5.65" transform="translate(-7.501 -227.465)" fill="none" stroke="#000" stroke-linecap="round" stroke-linejoin="round" stroke-miterlimit="10" stroke-width="1"/>
            </g>
            <path id="Trazado_904052" data-name="Trazado 904052" d="M218.48,303.811v-6.874a5.227,5.227,0,0,0,1.236-3.377h0a9.749,9.749,0,0,1,.564-3.27l.188-.529" transform="translate(-204.227 -279.47)" fill="none" stroke="#000" stroke-linecap="round" stroke-linejoin="round" stroke-miterlimit="10" stroke-width="1"/>
            <path id="Trazado_904053" data-name="Trazado 904053" d="M238.14,212.154a1.076,1.076,0,1,1,2.03.711l-.743,2.089" transform="translate(-222.559 -206.425)" fill="none" stroke="#000" stroke-linecap="round" stroke-linejoin="round" stroke-miterlimit="10" stroke-width="1"/>
          </g>
        </g>
        <g id="Grupo_1142932" data-name="Grupo 1142932" transform="translate(15.901 1.892)">
          <g id="Grupo_1142931" data-name="Grupo 1142931">
            <path id="Trazado_904054" data-name="Trazado 904054" d="M341.336,174.888l2.08-6.1a1.083,1.083,0,0,0-.64-1.362l-.08-.03a1.076,1.076,0,0,0-1.4.675l-1.671,5.105a.464.464,0,0,1-.708.236h0a.468.468,0,0,1-.193-.453c.155-1.016.685-4.478.955-6.247a1.081,1.081,0,0,0-.891-1.232l-.1-.016a1.077,1.077,0,0,0-1.237.9l-.954,6.231a.467.467,0,0,1-.461.4h-.2a.467.467,0,0,1-.466-.468v-5.91a1.079,1.079,0,0,0-1.077-1.081h-.1a1.079,1.079,0,0,0-1.077,1.081v1.859" transform="translate(-327.022 -165.445)" fill="none" stroke="#000" stroke-linecap="round" stroke-linejoin="round" stroke-miterlimit="10" stroke-width="1"/>
            <path id="Trazado_904055" data-name="Trazado 904055" d="M248.973,243.534v2.7a.925.925,0,0,1-.192.565h0a.916.916,0,0,1-1.375.087l-1.528-1.534a1.939,1.939,0,0,0-2.75,0h0a.862.862,0,0,0,0,1.215l3.063,3.077a3.907,3.907,0,0,1,1.069,2.03l.153.808a4.725,4.725,0,0,0,1.714,2.831l.685.54a1.4,1.4,0,0,1,.53,1.1v3.759" transform="translate(-242.877 -238.259)" fill="none" stroke="#000" stroke-linecap="round" stroke-linejoin="round" stroke-miterlimit="10" stroke-width="1"/>
          </g>
          <path id="Trazado_904056" data-name="Trazado 904056" d="M455.184,240.152a1.075,1.075,0,0,1,1.4-.661h0a1.08,1.08,0,0,1,.633,1.373l-1.558,4.379a9.756,9.756,0,0,0-.564,3.27h0a5.228,5.228,0,0,1-1.236,3.378v4.983" transform="translate(-439.602 -234.424)" fill="none" stroke="#000" stroke-linecap="round" stroke-linejoin="round" stroke-miterlimit="10" stroke-width="1"/>
        </g>
      </g>
    </g>
  </g>
</svg>
