<svg id="Grupo_1108314" data-name="Grupo 1108314" xmlns="http://www.w3.org/2000/svg" width="52.86" height="52.859" viewBox="0 0 52.86 52.859">
  <g id="Trazado_874925" data-name="Trazado 874925" transform="translate(0)" fill="#f6d530" opacity="0.859">
    <path d="M 26.42959976196289 51.35950088500977 C 23.0634593963623 51.35950088500977 19.79880905151367 50.7005729675293 16.7263298034668 49.40102386474609 C 13.75790977478027 48.14549255371094 11.09167957305908 46.34777069091797 8.80171012878418 44.05779266357422 C 6.511729717254639 41.767822265625 4.714009761810303 39.10159301757812 3.458479642868042 36.13317108154297 C 2.158929824829102 33.06069183349609 1.499999761581421 29.79604148864746 1.499999761581421 26.42990303039551 C 1.499999761581421 23.06346321105957 2.158929824829102 19.79881286621094 3.458479642868042 16.72633171081543 C 4.714009761810303 13.75791263580322 6.511729717254639 11.09168243408203 8.80171012878418 8.801712036132812 C 11.09167957305908 6.511732578277588 13.75790977478027 4.714012145996094 16.7263298034668 3.458482265472412 C 19.79880905151367 2.158932447433472 23.0634593963623 1.500002384185791 26.42959976196289 1.500002384185791 C 29.79574012756348 1.500002384185791 33.06039047241211 2.158932447433472 36.13286972045898 3.458482265472412 C 39.10129165649414 4.714012145996094 41.76752090454102 6.511732578277588 44.05749130249023 8.801712036132812 C 46.34746932983398 11.09168243408203 48.14519119262695 13.75791263580322 49.40071868896484 16.72633171081543 C 50.70027160644531 19.79881286621094 51.35919952392578 23.06346321105957 51.35919952392578 26.42960166931152 C 51.35919952392578 29.79604148864746 50.70027160644531 33.06069183349609 49.40071868896484 36.13317108154297 C 48.14519119262695 39.10159301757812 46.34746932983398 41.767822265625 44.05749130249023 44.05779266357422 C 41.76752090454102 46.34777069091797 39.10129165649414 48.14549255371094 36.13286972045898 49.40102386474609 C 33.06039047241211 50.7005729675293 29.79574012756348 51.35950088500977 26.42959976196289 51.35950088500977 Z" stroke="none"/>
    <path d="M 26.42959976196289 3.000003814697266 C 23.26529884338379 3.000003814697266 20.19725036621094 3.619060516357422 17.31066131591797 4.839981079101562 C 14.52103805541992 6.019893646240234 12.01506805419922 7.709671020507812 9.862369537353516 9.862373352050781 C 7.709671020507812 12.01507186889648 6.019889831542969 14.52104187011719 4.839981079101562 17.31066131591797 C 3.619060516357422 20.1972541809082 3 23.26530265808105 3 26.42990303039551 C 3 29.59420204162598 3.619060516357422 32.66225433349609 4.839981079101562 35.54884338378906 C 6.019889831542969 38.33846282958984 7.709671020507812 40.84443283081055 9.862369537353516 42.99713134765625 C 12.01506805419922 45.14983367919922 14.52103805541992 46.8396110534668 17.31066131591797 48.01952362060547 C 20.19725036621094 49.24044036865234 23.26529884338379 49.85950088500977 26.42959976196289 49.85950088500977 C 29.59390068054199 49.85950088500977 32.66194915771484 49.24044036865234 35.54853820800781 48.01952362060547 C 38.33815765380859 46.8396110534668 40.84413146972656 45.14983367919922 42.99682998657227 42.99713134765625 C 45.14952850341797 40.84443283081055 46.83930969238281 38.33846282958984 48.01921844482422 35.54884338378906 C 49.24013900756836 32.66225433349609 49.85919952392578 29.59420204162598 49.85919952392578 26.42960166931152 C 49.85919952392578 23.26530265808105 49.24013900756836 20.1972541809082 48.01921844482422 17.31066131591797 C 46.83930969238281 14.52104187011719 45.14952850341797 12.01507186889648 42.99682998657227 9.862373352050781 C 40.84413146972656 7.709671020507812 38.33815765380859 6.019893646240234 35.54853820800781 4.839981079101562 C 32.66194915771484 3.619060516357422 29.59390068054199 3.000003814697266 26.42959976196289 3.000003814697266 M 26.42959976196289 3.814697265625e-06 C 41.02626037597656 3.814697265625e-06 52.85919952392578 11.83293151855469 52.85919952392578 26.42960166931152 L 52.85919952392578 26.42990303039551 C 52.85919952392578 41.02657318115234 41.02626037597656 52.85950088500977 26.42959976196289 52.85950088500977 C 11.83293151855469 52.85950088500977 0 41.02657318115234 0 26.42990303039551 L 0 26.42960166931152 C 0 11.83293151855469 11.83293151855469 3.814697265625e-06 26.42959976196289 3.814697265625e-06 Z" stroke="none" fill="#fff"/>
  </g>
  <g id="Trazado_874923" data-name="Trazado 874923" fill="none">
    <path d="M26.43,0a26.43,26.43,0,0,1,26.43,26.43h0A26.43,26.43,0,1,1,0,26.43H0A26.43,26.43,0,0,1,26.43,0Z" stroke="none"/>
    <path d="M 26.42959976196289 3.000003814697266 C 23.26529884338379 3.000003814697266 20.19725036621094 3.619060516357422 17.31066131591797 4.839981079101562 C 14.52103805541992 6.019893646240234 12.01506805419922 7.709671020507812 9.862369537353516 9.862373352050781 C 7.709671020507812 12.01507186889648 6.019889831542969 14.52104187011719 4.839981079101562 17.31066131591797 C 3.619060516357422 20.1972541809082 3 23.26530265808105 3 26.42990303039551 C 3 29.59420204162598 3.619060516357422 32.66225433349609 4.839981079101562 35.54884338378906 C 6.019889831542969 38.33846282958984 7.709671020507812 40.84443283081055 9.862369537353516 42.99713134765625 C 12.01506805419922 45.14983367919922 14.52103805541992 46.8396110534668 17.31066131591797 48.01952362060547 C 20.19725036621094 49.24044036865234 23.26529884338379 49.85950088500977 26.42959976196289 49.85950088500977 C 29.59390068054199 49.85950088500977 32.66194915771484 49.24044036865234 35.54853820800781 48.01952362060547 C 38.33815765380859 46.8396110534668 40.84413146972656 45.14983367919922 42.99682998657227 42.99713134765625 C 45.14952850341797 40.84443283081055 46.83930969238281 38.33846282958984 48.01921844482422 35.54884338378906 C 49.24013900756836 32.66225433349609 49.85919952392578 29.59420204162598 49.85919952392578 26.42960166931152 C 49.85919952392578 23.26530265808105 49.24013900756836 20.1972541809082 48.01921844482422 17.31066131591797 C 46.83930969238281 14.52104187011719 45.14952850341797 12.01507186889648 42.99682998657227 9.862373352050781 C 40.84413146972656 7.709671020507812 38.33815765380859 6.019893646240234 35.54853820800781 4.839981079101562 C 32.66194915771484 3.619060516357422 29.59390068054199 3.000003814697266 26.42959976196289 3.000003814697266 M 26.42959976196289 3.814697265625e-06 C 41.02626037597656 3.814697265625e-06 52.85919952392578 11.83293151855469 52.85919952392578 26.42960166931152 L 52.85919952392578 26.42990303039551 C 52.85919952392578 41.02657318115234 41.02626037597656 52.85950088500977 26.42959976196289 52.85950088500977 C 11.83293151855469 52.85950088500977 0 41.02657318115234 0 26.42990303039551 L 0 26.42960166931152 C 0 11.83293151855469 11.83293151855469 3.814697265625e-06 26.42959976196289 3.814697265625e-06 Z" stroke="none" fill="#fff"/>
  </g>
  <g id="basketball-players_3732759" transform="translate(8.102 7.672)">
    <g id="Grupo_1108267" data-name="Grupo 1108267" transform="translate(1.559 1.559)">
      <g id="Grupo_1108241" data-name="Grupo 1108241" transform="translate(19.005)">
        <path id="Trazado_902613" data-name="Trazado 902613" d="M48.3,5.354a13.436,13.436,0,0,1-.408,3.3l-.123.5a1.663,1.663,0,0,0-1.146-.453h-.559V7.59h-.218a6.676,6.676,0,0,1-3.695-1.118A6.676,6.676,0,0,1,38.454,7.59h-.218V8.707h-.559a1.673,1.673,0,0,0-1.146.453l-.4-1.593A4.483,4.483,0,0,1,40.477,2h2.884a3.821,3.821,0,0,1,2.7,1.118A2.233,2.233,0,0,1,48.3,5.354Z" transform="translate(-36 -2)" fill="#b27946"/>
      </g>
      <g id="Grupo_1108242" data-name="Grupo 1108242" transform="translate(2.236 0)">
        <path id="Trazado_902614" data-name="Trazado 902614" d="M9.471,6.2l-.24.162a2.238,2.238,0,0,0-.995,1.861v.481H7.677a1.663,1.663,0,0,0-1.146.453L6.067,7.3A2.25,2.25,0,0,1,6,6.757v-1.4A2.233,2.233,0,0,1,8.236,3.118,3.821,3.821,0,0,1,10.936,2H13.82a4.479,4.479,0,0,1,4.343,5.567l-.4,1.593a1.663,1.663,0,0,0-1.146-.453h-.559V7.59H12.707A4.455,4.455,0,0,1,9.471,6.2Z" transform="translate(-6 -2)" fill="#b27946"/>
      </g>
      <g id="Grupo_1108243" data-name="Grupo 1108243" transform="translate(18.071 20.122)">
        <path id="Trazado_902615" data-name="Trazado 902615" d="M36.381,39.118v1.375c-.252-.05-.509-.1-.771-.134l-.906-.123-.375-1.124v-.006A2.775,2.775,0,0,0,36.381,38Z" transform="translate(-34.33 -38)" fill="#f0d0b4"/>
      </g>
      <g id="Grupo_1108244" data-name="Grupo 1108244" transform="translate(13.415 20.122)">
        <path id="Trazado_902616" data-name="Trazado 902616" d="M26,40.493V38a2.775,2.775,0,0,0,2.051,1.107v.006l-.375,1.124-.906.123C26.509,40.392,26.252,40.443,26,40.493Z" transform="translate(-26 -38)" fill="#f0d0b4"/>
      </g>
      <g id="Grupo_1108245" data-name="Grupo 1108245" transform="translate(0 15.612)">
        <path id="Trazado_902617" data-name="Trazado 902617" d="M6.472,29.969v1.895a6.676,6.676,0,0,1-1.118,3.695v5.59H2V36.777A7.492,7.492,0,0,1,6.455,29.93Z" transform="translate(-2 -29.93)" fill="#f0d0b4"/>
      </g>
      <g id="Grupo_1108246" data-name="Grupo 1108246" transform="translate(29.066 15.612)">
        <path id="Trazado_902618" data-name="Trazado 902618" d="M58.472,36.777v4.371H55.118v-5.59A6.676,6.676,0,0,1,54,31.864V29.969l.017-.039a7.5,7.5,0,0,1,4.455,6.847Z" transform="translate(-54 -29.93)" fill="#f0d0b4"/>
      </g>
      <g id="Grupo_1108247" data-name="Grupo 1108247" transform="translate(29.066 6.707)">
        <path id="Trazado_902619" data-name="Trazado 902619" d="M55.744,14.492a1.676,1.676,0,0,1-1.185,2.862H54V14h.559a1.663,1.663,0,0,1,1.146.453A.258.258,0,0,0,55.744,14.492Z" transform="translate(-54 -14)" fill="#f0d0b4"/>
      </g>
      <g id="Grupo_1108248" data-name="Grupo 1108248" transform="translate(22.492 13.18)">
        <path id="Trazado_902620" data-name="Trazado 902620" d="M47.136,27.492V28.61a2.236,2.236,0,1,1-4.472,0A1.662,1.662,0,0,0,42.24,27.5l.006-.006.307-1.23a4.179,4.179,0,0,0,.106-.688,2.768,2.768,0,0,0,1.123.235h2.236a1.168,1.168,0,0,0,.14-.006Z" transform="translate(-42.24 -25.58)" fill="#f0d0b4"/>
      </g>
      <g id="Grupo_1108249" data-name="Grupo 1108249" transform="translate(21.24 4.472)">
        <path id="Trazado_902621" data-name="Trazado 902621" d="M40.973,16.283,40,14.919v-3.8h.218A6.676,6.676,0,0,0,43.913,10a6.676,6.676,0,0,0,3.695,1.118h.218v5.031a2.79,2.79,0,0,1-2.655,2.789,1.168,1.168,0,0,1-.14.006H42.795a2.768,2.768,0,0,1-1.124-.235c.006-.078.006-.151.006-.229A3.767,3.767,0,0,0,40.973,16.283Z" transform="translate(-40 -10)" fill="#f0d0b4"/>
      </g>
      <g id="Grupo_1108250" data-name="Grupo 1108250" transform="translate(19.083 6.707)">
        <path id="Trazado_902622" data-name="Trazado 902622" d="M36.593,14.453A1.673,1.673,0,0,1,37.739,14H38.3v2.683l-.218-.307a2.989,2.989,0,0,0-1.94-1.213,1.759,1.759,0,0,1,.453-.71Z" transform="translate(-36.14 -14)" fill="#f0d0b4"/>
      </g>
      <g id="Grupo_1108251" data-name="Grupo 1108251" transform="translate(12.297 6.707)">
        <path id="Trazado_902623" data-name="Trazado 902623" d="M26.236,15.677a1.677,1.677,0,0,1-.1.559v.006a3.822,3.822,0,0,0-2.141.7V14h.559a1.663,1.663,0,0,1,1.146.453.258.258,0,0,0,.039.039A1.673,1.673,0,0,1,26.236,15.677Z" transform="translate(-24 -14)" fill="#f0d0b4"/>
      </g>
      <g id="Grupo_1108252" data-name="Grupo 1108252" transform="translate(6.149 13.409)">
        <path id="Trazado_902624" data-name="Trazado 902624" d="M17.472,27.672V28.79a2.236,2.236,0,0,1-4.472,0V27.672l.978-1.682a1.168,1.168,0,0,0,.14.006h2.236a1.168,1.168,0,0,0,.14-.006Z" transform="translate(-13 -25.99)" fill="#f0d0b4"/>
      </g>
      <g id="Grupo_1108253" data-name="Grupo 1108253" transform="translate(4.472 4.203)">
        <path id="Trazado_902625" data-name="Trazado 902625" d="M17.825,14.964a3.889,3.889,0,0,0-1.677,3.208v.1c0,.078,0,.151.006.229a2.728,2.728,0,0,1-.984.229,1.168,1.168,0,0,1-.14.006H12.795a1.168,1.168,0,0,1-.14-.006A2.79,2.79,0,0,1,10,15.937V11.543a2.238,2.238,0,0,1,.995-1.861l.24-.162a4.455,4.455,0,0,0,3.236,1.386h3.354v4.058Z" transform="translate(-10 -9.52)" fill="#f0d0b4"/>
      </g>
      <g id="Grupo_1108254" data-name="Grupo 1108254" transform="translate(2.236 6.707)">
        <path id="Trazado_902626" data-name="Trazado 902626" d="M8.236,14v3.354H7.677a1.677,1.677,0,0,1,0-3.354Z" transform="translate(-6 -14)" fill="#f0d0b4"/>
      </g>
      <g id="Grupo_1108255" data-name="Grupo 1108255" transform="translate(10.62 7.825)">
        <path id="Trazado_902627" data-name="Trazado 902627" d="M23.236,22.624v.084h-.559a1.637,1.637,0,0,0-1.252.57l-.006-.006-.307-1.23a4.179,4.179,0,0,1-.106-.688C21,21.277,21,21.2,21,21.126v-.1a3.889,3.889,0,0,1,1.677-3.208,3.822,3.822,0,0,1,2.141-.7.542.542,0,0,1,.1-.006H26.59l.235-.235A3.012,3.012,0,0,1,28.954,16a3.073,3.073,0,0,1,.509.045,2.989,2.989,0,0,1,1.94,1.213l.218.307.973,1.364a3.767,3.767,0,0,1,.7,2.2c0,.078,0,.151-.006.229a4.179,4.179,0,0,1-.106.688l-.307,1.23-.006.006a1.637,1.637,0,0,0-1.252-.57h-.559V21.59h-.425a5.729,5.729,0,0,1-4.047-1.677l-2.426,1.213a1.676,1.676,0,0,0-.928,1.5Z" transform="translate(-21 -16)" fill="#656d78"/>
      </g>
      <g id="Grupo_1108256" data-name="Grupo 1108256" transform="translate(20.122 15.092)">
        <path id="Trazado_902628" data-name="Trazado 902628" d="M46.943,29.559v1.895a6.676,6.676,0,0,0,1.118,3.695v5.59H43.618a8.9,8.9,0,0,0-1.045-1.487,8.6,8.6,0,0,0-4.013-2.577c-.179-.056-.369-.106-.559-.151V34.031a2.762,2.762,0,0,0,.559-1.677v-.559h.559a1.679,1.679,0,0,0,1.677-1.677,2.236,2.236,0,1,0,4.472,0V29a7.449,7.449,0,0,1,1.694.52Z" transform="translate(-38 -29)" fill="#fcd770"/>
      </g>
      <g id="Grupo_1108257" data-name="Grupo 1108257" transform="translate(3.354 15.092)">
        <path id="Trazado_902629" data-name="Trazado 902629" d="M10.795,29v1.118a2.236,2.236,0,1,0,4.472,0,1.679,1.679,0,0,0,1.677,1.677H17.5v.559a2.762,2.762,0,0,0,.559,1.677v2.493c-.19.045-.38.1-.559.151a8.6,8.6,0,0,0-4.013,2.577,9.266,9.266,0,0,0-1.051,1.487H8v-5.59a6.676,6.676,0,0,0,1.118-3.695V29.559L9.1,29.52A7.449,7.449,0,0,1,10.795,29Z" transform="translate(-8 -29)" fill="#fcd770"/>
      </g>
      <g id="Grupo_1108258" data-name="Grupo 1108258" transform="translate(9.502 29.066)">
        <path id="Trazado_902630" data-name="Trazado 902630" d="M20.856,57.287,22.913,54a3.354,3.354,0,0,0,6.707,0l2.057,3.287a2.5,2.5,0,0,0,1.856,1.168v.017H19v-.017A2.5,2.5,0,0,0,20.856,57.287Z" transform="translate(-19 -54)" fill="#fcd770"/>
      </g>
      <g id="Grupo_1108259" data-name="Grupo 1108259" transform="translate(11.828 22.358)">
        <path id="Trazado_902631" data-name="Trazado 902631" d="M24.747,42.257c.252-.05.509-.1.771-.134L26.424,42l.061.117a1.8,1.8,0,0,0,3.231,0L29.778,42l.906.123c.263.034.52.084.771.134.19.045.38.1.559.151v.928a3.707,3.707,0,0,0,1.028,2.577H31.455v2.795a3.354,3.354,0,1,0-6.707,0V45.913H23.16a3.707,3.707,0,0,0,1.028-2.577v-.928C24.367,42.352,24.557,42.3,24.747,42.257Z" transform="translate(-23.16 -42)" fill="#fcd770"/>
      </g>
      <g id="Grupo_1108260" data-name="Grupo 1108260" transform="translate(13.415 25.712)">
        <ellipse id="Elipse_14899" data-name="Elipse 14899" cx="3" cy="3.5" rx="3" ry="3.5" transform="translate(0.354 0.057)" fill="#ff826e"/>
      </g>
      <g id="Grupo_1108261" data-name="Grupo 1108261" transform="translate(6.707 22.766)">
        <path id="Trazado_902632" data-name="Trazado 902632" d="M19.12,46.235h1.587v2.795l-2.057,3.287a2.5,2.5,0,0,1-1.856,1.168,2.343,2.343,0,0,1-.279.017A2.519,2.519,0,0,1,14,50.986c0-.224.011-.447,1.084-4.192a9.266,9.266,0,0,1,1.051-1.487,8.6,8.6,0,0,1,4.013-2.577v.928A3.707,3.707,0,0,1,19.12,46.235Z" transform="translate(-14 -42.73)" fill="#f0d0b4"/>
      </g>
      <g id="Grupo_1108262" data-name="Grupo 1108262" transform="translate(20.122 22.766)">
        <path id="Trazado_902633" data-name="Trazado 902633" d="M38,49.029V46.235h1.587a3.707,3.707,0,0,1-1.028-2.577V42.73a8.6,8.6,0,0,1,4.013,2.577,8.9,8.9,0,0,1,1.045,1.487h.006c1.073,3.745,1.084,3.969,1.084,4.192A2.519,2.519,0,0,1,42.192,53.5a2.343,2.343,0,0,1-.279-.017,2.5,2.5,0,0,1-1.856-1.168Z" transform="translate(-38 -42.73)" fill="#f0d0b4"/>
      </g>
      <g id="Grupo_1108263" data-name="Grupo 1108263" transform="translate(20.681 14.533)">
        <path id="Trazado_902634" data-name="Trazado 902634" d="M39.559,28a1.637,1.637,0,0,1,1.252.57,1.673,1.673,0,0,1-1.252,2.784H39V28Z" transform="translate(-39 -28)" fill="#f0d0b4"/>
      </g>
      <g id="Grupo_1108264" data-name="Grupo 1108264" transform="translate(15.092 21.229)">
        <path id="Trazado_902635" data-name="Trazado 902635" d="M31.795,39.991a1.022,1.022,0,0,0,.184-.011v.006l.375,1.124-.061.117a1.8,1.8,0,0,1-3.231,0L29,41.109l.375-1.124V39.98a1.022,1.022,0,0,0,.184.011Z" transform="translate(-29 -39.98)" fill="#f0d0b4"/>
      </g>
      <g id="Grupo_1108265" data-name="Grupo 1108265" transform="translate(12.856 11.738)">
        <path id="Trazado_902636" data-name="Trazado 902636" d="M32.825,29.149v.559a2.786,2.786,0,0,1-2.61,2.784,1.022,1.022,0,0,1-.184.011H27.795a1.022,1.022,0,0,1-.184-.011A2.786,2.786,0,0,1,25,29.707v-4a1.676,1.676,0,0,1,.928-1.5L28.354,23A5.729,5.729,0,0,0,32.4,24.677h.425v4.472Z" transform="translate(-25 -23)" fill="#f0d0b4"/>
      </g>
      <g id="Grupo_1108266" data-name="Grupo 1108266" transform="translate(10.62 14.533)">
        <path id="Trazado_902637" data-name="Trazado 902637" d="M21.363,28.632a.215.215,0,0,1,.061-.061A1.637,1.637,0,0,1,22.677,28h.559v3.354h-.559a1.679,1.679,0,0,1-1.314-2.722Z" transform="translate(-21 -28)" fill="#f0d0b4"/>
      </g>
    </g>
    <g id="Grupo_1108268" data-name="Grupo 1108268" transform="translate(1 1)">
      <path id="Trazado_902640" data-name="Trazado 902640" d="M35.655,24.017A8.042,8.042,0,0,0,29.3,16.152l-.454-.779a3.358,3.358,0,0,0,2.334-3.194,2.224,2.224,0,0,0,1.756-3.6L33,8.352a14.176,14.176,0,0,0,.424-3.439,2.8,2.8,0,0,0-2.562-2.785A4.342,4.342,0,0,0,27.926,1H25.043a5.037,5.037,0,0,0-4.888,6.26l.327,1.307a2.234,2.234,0,0,0-.178.268c-.058,0-.114-.01-.172-.01a3.546,3.546,0,0,0-2.523,1.045l-.072.073h-.887a2.215,2.215,0,0,0-.48-1.367L16.5,7.26A5.037,5.037,0,0,0,11.612,1H8.729A4.342,4.342,0,0,0,5.8,2.127,2.8,2.8,0,0,0,3.236,4.913v1.4a2.8,2.8,0,0,0,.083.677l.4,1.584a2.215,2.215,0,0,0-.48,1.367,2.238,2.238,0,0,0,2.236,2.236A3.358,3.358,0,0,0,7.8,15.373l-.454.779A8.043,8.043,0,0,0,1,24.017v4.931H8.472a9.092,9.092,0,0,0-.764,3.631,3.08,3.08,0,0,0,3.077,3.076c.093,0,.185-.01.277-.017v.017H25.594v-.017c.092.008.183.017.277.017a3.08,3.08,0,0,0,3.077-3.076,9.09,9.09,0,0,0-.764-3.631h7.472ZM22.8,16.651a1.118,1.118,0,1,1,0,2.236Zm1.862-.115.244-.974c.008-.032.011-.065.018-.1a3.351,3.351,0,0,0,.671.068h2.055l.739,1.269v.967a1.677,1.677,0,1,1-3.354,0A2.224,2.224,0,0,0,24.662,16.536Zm5.4-4.357a2.238,2.238,0,0,1-2.236,2.236H25.594a2.21,2.21,0,0,1-.572-.083,4.306,4.306,0,0,0-.795-2.345l-.869-1.216V7.7a7.187,7.187,0,0,0,3.354-1.008A7.187,7.187,0,0,0,30.066,7.7ZM22.24,8.825v.7a3.584,3.584,0,0,0-.729-.413A1.105,1.105,0,0,1,22.24,8.825Zm8.943,2.236V8.825a1.118,1.118,0,0,1,0,2.236ZM25.043,2.118h2.883a3.235,3.235,0,0,1,2.3.954l.164.164h.231A1.679,1.679,0,0,1,32.3,4.913a13.1,13.1,0,0,1-.34,2.942,2.207,2.207,0,0,0-.778-.148V6.59H30.4a6.076,6.076,0,0,1-3.382-1.024l-.31-.207-.31.207A6.074,6.074,0,0,1,23.02,6.59h-.78V7.707a2.233,2.233,0,0,0-.785.146l-.216-.865a3.921,3.921,0,0,1,3.8-4.871ZM18,11.061l.4-.4a2.451,2.451,0,0,1,3.727.308l1.191,1.667a3.223,3.223,0,0,1,.5,2.654l-.11.442a2.221,2.221,0,0,0-.912-.2V14.415h-.983A5.131,5.131,0,0,1,18.164,12.9l-.285-.285L15.092,14.01a2.219,2.219,0,0,0-1.18,1.523h-.056a2.216,2.216,0,0,0-.911.2l-.111-.443a3.2,3.2,0,0,1-.1-.78v-.093a3.357,3.357,0,0,1,3.354-3.354Zm.887,20.154V30.034a4.753,4.753,0,0,0,1.951-.616,2.695,2.695,0,0,1,0,2.412A4.753,4.753,0,0,0,18.887,31.215Zm-3.069.616a2.695,2.695,0,0,1,0-2.412,4.753,4.753,0,0,0,1.951.616v1.181A4.753,4.753,0,0,0,15.818,31.831ZM18.887,28.9V27.886a2.776,2.776,0,0,1,1.263.637A3.716,3.716,0,0,1,18.887,28.9Zm-1.118,0a3.716,3.716,0,0,1-1.263-.382,2.774,2.774,0,0,1,1.263-.637Zm0,3.44v1.018a2.776,2.776,0,0,1-1.263-.637A3.716,3.716,0,0,1,17.769,32.345Zm1.118,0a3.716,3.716,0,0,1,1.263.382,2.774,2.774,0,0,1-1.263.637Zm2.236-5.074v.621a3.9,3.9,0,0,0-5.59,0v-.621H14.471a4.342,4.342,0,0,0,.5-2.015v-.5a7.9,7.9,0,0,1,.844-.163l.531-.07a2.362,2.362,0,0,0,3.957,0l.531.07a8.041,8.041,0,0,1,.844.163v.5a4.341,4.341,0,0,0,.5,2.015H21.122ZM8.266,16.8l.739-1.269H10.88l.74,1.269v.967a1.677,1.677,0,0,1-3.354,0Zm5.59-.151v2.236a1.118,1.118,0,0,1,0-2.236Zm3.57,6.707h1.8l.167.5a1.232,1.232,0,0,1-2.136,0Zm2.02-1.118H17.21A2.238,2.238,0,0,1,14.974,20V16.01a1.113,1.113,0,0,1,.618-1l2.079-1.039a6.238,6.238,0,0,0,4.011,1.561V20A2.238,2.238,0,0,1,19.446,22.24Zm-3.913.664a3.343,3.343,0,0,0,.759.323l-.06.182-.561.075c-.046.006-.091.018-.138.025Zm5.452.58-.561-.075-.06-.182a3.308,3.308,0,0,0,.759-.323v.6c-.046-.007-.091-.018-.138-.025ZM14.415,8.825a1.119,1.119,0,0,1,1.118,1.118c0,.013,0,.026,0,.039a4.426,4.426,0,0,0-1.115.29ZM4.354,9.943A1.119,1.119,0,0,1,5.472,8.825v2.236A1.119,1.119,0,0,1,4.354,9.943ZM5.477,7.707H5.472a2.22,2.22,0,0,0-.784.149L4.4,6.721a1.658,1.658,0,0,1-.05-.406v-1.4A1.679,1.679,0,0,1,6.031,3.236h.231l.164-.164a3.236,3.236,0,0,1,2.3-.954h2.883a3.921,3.921,0,0,1,3.8,4.871l-.217.868a2.206,2.206,0,0,0-.784-.15V6.59H10.5A3.9,3.9,0,0,1,6.874,4.144l-1.036.419A5.06,5.06,0,0,0,6.46,5.655a2.785,2.785,0,0,0-.983,2.052ZM6.59,12.179V7.786a1.662,1.662,0,0,1,.635-1.3A5.01,5.01,0,0,0,10.5,7.707H13.3V10.93a4.463,4.463,0,0,0-1.673,3.405,2.229,2.229,0,0,1-.563.08H8.825A2.238,2.238,0,0,1,6.59,12.179ZM2.118,24.017a6.923,6.923,0,0,1,3.354-5.933v1.023A6.082,6.082,0,0,1,4.448,22.49l-.094.14v5.2H2.118ZM5.472,27.83V22.965A7.188,7.188,0,0,0,6.59,19.107V17.54q.273-.1.559-.184v.413A2.794,2.794,0,0,0,12.26,19.33a2.227,2.227,0,0,0,1.6.674,3.332,3.332,0,0,0,.559,1.85v1.9A9.2,9.2,0,0,0,9.042,27.83Zm3.354,4.749a8.085,8.085,0,0,1,5.031-7.459v.136a3.232,3.232,0,0,1-.739,2.047,2.358,2.358,0,0,0-1.806,3.4l.118.236L9.693,31.8l.5,1,2.736-1.368L12.312,30.2a1.25,1.25,0,0,1,1.117-1.809h.986v2.075l-1.97,3.153a1.959,1.959,0,0,1-3.62-1.038Zm4.331,1.959a3.18,3.18,0,0,0,.236-.328l1.315-2.1a3.91,3.91,0,0,0,7.24,0l1.315,2.1a3.1,3.1,0,0,0,.236.328H13.156Zm12.715,0a1.948,1.948,0,0,1-1.661-.921l-1.97-3.153V28.389h.986A1.25,1.25,0,0,1,24.344,30.2l-.618,1.236L26.463,32.8l.5-1-1.736-.868.118-.236a2.36,2.36,0,0,0-1.807-3.4,3.229,3.229,0,0,1-.739-2.046V25.12a8.086,8.086,0,0,1,5.031,7.459,1.961,1.961,0,0,1-1.959,1.959ZM22.24,23.752v-1.9A3.332,3.332,0,0,0,22.8,20a2.227,2.227,0,0,0,1.6-.674,2.794,2.794,0,0,0,5.112-1.562v-.413q.285.08.559.184v1.568a7.188,7.188,0,0,0,1.118,3.857V27.83H27.613a9.207,9.207,0,0,0-5.373-4.078Zm12.3,4.078H32.3v-5.2l-.094-.141a6.08,6.08,0,0,1-1.024-3.382V18.084a6.923,6.923,0,0,1,3.354,5.933Z" transform="translate(-1 -1)"/>
    </g>
  </g>
</svg>
