<svg id="Grupo_1108315" data-name="Grupo 1108315" xmlns="http://www.w3.org/2000/svg" width="52.859" height="52.859" viewBox="0 0 52.859 52.859">
  <g id="Trazado_874925" data-name="Trazado 874925" transform="translate(0)" fill="#f6d530" opacity="0.859">
    <path d="M 26.42959976196289 51.35950088500977 C 23.0634593963623 51.35950088500977 19.79880905151367 50.7005729675293 16.7263298034668 49.40102386474609 C 13.75790977478027 48.14549255371094 11.09167957305908 46.34777069091797 8.80171012878418 44.05779266357422 C 6.511729717254639 41.767822265625 4.714009761810303 39.10159301757812 3.458479642868042 36.13317108154297 C 2.158929824829102 33.06069183349609 1.499999761581421 29.79604148864746 1.499999761581421 26.42990303039551 C 1.499999761581421 23.06346321105957 2.158929824829102 19.79881286621094 3.458479642868042 16.72633171081543 C 4.714009761810303 13.75791263580322 6.511729717254639 11.09168243408203 8.80171012878418 8.801712036132812 C 11.09167957305908 6.511732578277588 13.75790977478027 4.714012145996094 16.7263298034668 3.458482265472412 C 19.79880905151367 2.158932447433472 23.0634593963623 1.500002384185791 26.42959976196289 1.500002384185791 C 29.79574012756348 1.500002384185791 33.06039047241211 2.158932447433472 36.13286972045898 3.458482265472412 C 39.10129165649414 4.714012145996094 41.76752090454102 6.511732578277588 44.05749130249023 8.801712036132812 C 46.34746932983398 11.09168243408203 48.14519119262695 13.75791263580322 49.40071868896484 16.72633171081543 C 50.70027160644531 19.79881286621094 51.35919952392578 23.06346321105957 51.35919952392578 26.42960166931152 C 51.35919952392578 29.79604148864746 50.70027160644531 33.06069183349609 49.40071868896484 36.13317108154297 C 48.14519119262695 39.10159301757812 46.34746932983398 41.767822265625 44.05749130249023 44.05779266357422 C 41.76752090454102 46.34777069091797 39.10129165649414 48.14549255371094 36.13286972045898 49.40102386474609 C 33.06039047241211 50.7005729675293 29.79574012756348 51.35950088500977 26.42959976196289 51.35950088500977 Z" stroke="none"/>
    <path d="M 26.42959976196289 3.000003814697266 C 23.26529884338379 3.000003814697266 20.19725036621094 3.619060516357422 17.31066131591797 4.839981079101562 C 14.52103805541992 6.019893646240234 12.01506805419922 7.709671020507812 9.862369537353516 9.862373352050781 C 7.709671020507812 12.01507186889648 6.019889831542969 14.52104187011719 4.839981079101562 17.31066131591797 C 3.619060516357422 20.1972541809082 3 23.26530265808105 3 26.42990303039551 C 3 29.59420204162598 3.619060516357422 32.66225433349609 4.839981079101562 35.54884338378906 C 6.019889831542969 38.33846282958984 7.709671020507812 40.84443283081055 9.862369537353516 42.99713134765625 C 12.01506805419922 45.14983367919922 14.52103805541992 46.8396110534668 17.31066131591797 48.01952362060547 C 20.19725036621094 49.24044036865234 23.26529884338379 49.85950088500977 26.42959976196289 49.85950088500977 C 29.59390068054199 49.85950088500977 32.66194915771484 49.24044036865234 35.54853820800781 48.01952362060547 C 38.33815765380859 46.8396110534668 40.84413146972656 45.14983367919922 42.99682998657227 42.99713134765625 C 45.14952850341797 40.84443283081055 46.83930969238281 38.33846282958984 48.01921844482422 35.54884338378906 C 49.24013900756836 32.66225433349609 49.85919952392578 29.59420204162598 49.85919952392578 26.42960166931152 C 49.85919952392578 23.26530265808105 49.24013900756836 20.1972541809082 48.01921844482422 17.31066131591797 C 46.83930969238281 14.52104187011719 45.14952850341797 12.01507186889648 42.99682998657227 9.862373352050781 C 40.84413146972656 7.709671020507812 38.33815765380859 6.019893646240234 35.54853820800781 4.839981079101562 C 32.66194915771484 3.619060516357422 29.59390068054199 3.000003814697266 26.42959976196289 3.000003814697266 M 26.42959976196289 3.814697265625e-06 C 41.02626037597656 3.814697265625e-06 52.85919952392578 11.83293151855469 52.85919952392578 26.42960166931152 L 52.85919952392578 26.42990303039551 C 52.85919952392578 41.02657318115234 41.02626037597656 52.85950088500977 26.42959976196289 52.85950088500977 C 11.83293151855469 52.85950088500977 0 41.02657318115234 0 26.42990303039551 L 0 26.42960166931152 C 0 11.83293151855469 11.83293151855469 3.814697265625e-06 26.42959976196289 3.814697265625e-06 Z" stroke="none" fill="#fff"/>
  </g>
  <g id="Trazado_874923" data-name="Trazado 874923" fill="none">
    <path d="M26.43,0a26.43,26.43,0,0,1,26.43,26.43h0A26.43,26.43,0,1,1,0,26.43H0A26.43,26.43,0,0,1,26.43,0Z" stroke="none"/>
    <path d="M 26.42959976196289 3.000003814697266 C 23.26529884338379 3.000003814697266 20.19725036621094 3.619060516357422 17.31066131591797 4.839981079101562 C 14.52103805541992 6.019893646240234 12.01506805419922 7.709671020507812 9.862369537353516 9.862373352050781 C 7.709671020507812 12.01507186889648 6.019889831542969 14.52104187011719 4.839981079101562 17.31066131591797 C 3.619060516357422 20.1972541809082 3 23.26530265808105 3 26.42990303039551 C 3 29.59420204162598 3.619060516357422 32.66225433349609 4.839981079101562 35.54884338378906 C 6.019889831542969 38.33846282958984 7.709671020507812 40.84443283081055 9.862369537353516 42.99713134765625 C 12.01506805419922 45.14983367919922 14.52103805541992 46.8396110534668 17.31066131591797 48.01952362060547 C 20.19725036621094 49.24044036865234 23.26529884338379 49.85950088500977 26.42959976196289 49.85950088500977 C 29.59390068054199 49.85950088500977 32.66194915771484 49.24044036865234 35.54853820800781 48.01952362060547 C 38.33815765380859 46.8396110534668 40.84413146972656 45.14983367919922 42.99682998657227 42.99713134765625 C 45.14952850341797 40.84443283081055 46.83930969238281 38.33846282958984 48.01921844482422 35.54884338378906 C 49.24013900756836 32.66225433349609 49.85919952392578 29.59420204162598 49.85919952392578 26.42960166931152 C 49.85919952392578 23.26530265808105 49.24013900756836 20.1972541809082 48.01921844482422 17.31066131591797 C 46.83930969238281 14.52104187011719 45.14952850341797 12.01507186889648 42.99682998657227 9.862373352050781 C 40.84413146972656 7.709671020507812 38.33815765380859 6.019893646240234 35.54853820800781 4.839981079101562 C 32.66194915771484 3.619060516357422 29.59390068054199 3.000003814697266 26.42959976196289 3.000003814697266 M 26.42959976196289 3.814697265625e-06 C 41.02626037597656 3.814697265625e-06 52.85919952392578 11.83293151855469 52.85919952392578 26.42960166931152 L 52.85919952392578 26.42990303039551 C 52.85919952392578 41.02657318115234 41.02626037597656 52.85950088500977 26.42959976196289 52.85950088500977 C 11.83293151855469 52.85950088500977 0 41.02657318115234 0 26.42990303039551 L 0 26.42960166931152 C 0 11.83293151855469 11.83293151855469 3.814697265625e-06 26.42959976196289 3.814697265625e-06 Z" stroke="none" fill="#fff"/>
  </g>
  <g id="Page-1" transform="translate(12.794 10.725)">
    <g id="_004---Waist-Size" data-name="004---Waist-Size" transform="translate(0 0)">
      <g id="Icons_copy" transform="translate(0.523 0.523)">
        <path id="Shape" d="M25.853.649a14.883,14.883,0,0,0-.325,4.062H7.74A14.883,14.883,0,0,0,7.415.649.52.52,0,0,1,7.923,0H25.345a.52.52,0,0,1,.508.649Z" transform="translate(-3.526 0)" fill="#ffe0b2"/>
        <path id="Shape-2" data-name="Shape" d="M40.25,0H38.68a.52.52,0,0,1,.508.649,14.883,14.883,0,0,0-.325,4.062h1.57A14.883,14.883,0,0,1,40.758.649.52.52,0,0,0,40.25,0Z" transform="translate(-18.431 0)" fill="#dfc49c"/>
        <path id="Shape-3" data-name="Shape" d="M38.014,47.738a20.368,20.368,0,0,1-.508,2.822.532.532,0,0,1-.513.4H25V48.863h1.047a2.094,2.094,0,0,0,2.094-2.094V43.55c1.471-.073,2.79-.188,3.947-.33A6.737,6.737,0,0,0,38.014,47.738Z" transform="translate(-11.913 -20.595)" fill="#02a9f4"/>
        <path id="Shape-4" data-name="Shape" d="M45.931,51.85a20.366,20.366,0,0,1-.508,2.822.532.532,0,0,1-.513.4h1.57a.532.532,0,0,0,.513-.4A20.367,20.367,0,0,0,47.5,51.85Z" transform="translate(-21.4 -24.707)" fill="#0377bc"/>
        <path id="Shape-5" data-name="Shape" d="M44.466,46.756a6.737,6.737,0,0,1-5.926-4.518,36.968,36.968,0,0,0,5.722-1.078A19.439,19.439,0,0,1,44.466,46.756Z" transform="translate(-18.365 -19.613)" fill="#0377bc"/>
        <path id="Shape-6" data-name="Shape" d="M37.81,37.572a36.968,36.968,0,0,1-5.722,1.078c-1.157.141-2.476.257-3.947.33q-1.466.079-3.141.079V34.871A51.246,51.246,0,0,0,36.878,33.63,36.311,36.311,0,0,1,37.81,37.572Z" transform="translate(-11.913 -16.025)" fill="#02a9f4"/>
        <path id="Shape-7" data-name="Shape" d="M36.878,33.63c-.4.1-.9.209-1.481.321a34.737,34.737,0,0,1,.843,3.62,36.968,36.968,0,0,1-5.722,1.078c-1.157.141-2.476.257-3.947.33-.5.027-1.029.047-1.57.06v.019q1.675,0,3.141-.079c1.471-.073,2.79-.188,3.947-.33a36.967,36.967,0,0,0,5.722-1.078,36.312,36.312,0,0,0-.932-3.942Z" transform="translate(-11.913 -16.025)" fill="#0377bc"/>
        <path id="Shape-8" data-name="Shape" d="M13.192,43.633v7.329H1.241a.532.532,0,0,1-.513-.4A20.3,20.3,0,0,1,.22,47.737,6.736,6.736,0,0,0,6.1,43.23,60,60,0,0,0,13.192,43.633Z" transform="translate(-0.105 -20.599)" fill="#02a9f4"/>
        <path id="Shape-9" data-name="Shape" d="M6,42.253A6.736,6.736,0,0,1,.117,46.76a19.33,19.33,0,0,1,.2-5.58A36.811,36.811,0,0,0,6,42.253Z" transform="translate(-0.002 -19.623)" fill="#0377bc"/>
        <path id="Shape-10" data-name="Shape" d="M13.378,34.88v4.188a60,60,0,0,1-7.088-.4A36.81,36.81,0,0,1,.61,37.592a35.985,35.985,0,0,1,.927-3.942A51.476,51.476,0,0,0,13.378,34.88Z" transform="translate(-0.291 -16.035)" fill="#02a9f4"/>
        <path id="Shape-11" data-name="Shape" d="M26.1,25.706a51.246,51.246,0,0,1-11.878,1.241A51.475,51.475,0,0,1,2.38,25.716c.513-1.8,1.126-3.68,1.712-5.758.084-.283.162-.571.241-.864.2-.733.361-1.429.5-2.094H23.655c.136.665.3,1.361.5,2.094.079.283.152.56.23.832.586,2.089,1.2,3.973,1.717,5.779Z" transform="translate(-1.134 -8.101)" fill="#ffe0b2"/>
        <path id="Shape-12" data-name="Shape" d="M34.441,19.926c-.079-.272-.152-.55-.23-.832-.2-.733-.361-1.429-.5-2.094h-1.57c.136.665.3,1.361.5,2.094.079.283.152.56.23.832.586,2.089,1.2,3.973,1.717,5.779a50.449,50.449,0,0,1-11.1,1.234c.262,0,.52.006.788.006a51.247,51.247,0,0,0,11.878-1.241c-.511-1.806-1.129-3.691-1.715-5.779Z" transform="translate(-11.193 -8.101)" fill="#dfc49c"/>
        <path id="Shape-13" data-name="Shape" d="M28.141,43.85v3.219a2.094,2.094,0,0,1-2.094,2.094H25V43.929Q26.675,43.929,28.141,43.85Z" transform="translate(-11.913 -20.895)" fill="#00bcd4"/>
        <path id="Shape-14" data-name="Shape" d="M26.175,9.523v3.664H0V9.523A.523.523,0,0,1,.523,9H25.651A.523.523,0,0,1,26.175,9.523Z" transform="translate(0 -4.289)" fill="#ffdc00"/>
        <g id="Grupo_1142937" data-name="Grupo 1142937" transform="translate(0 4.711)">
          <path id="Shape-15" data-name="Shape" d="M47.57,9H46a.523.523,0,0,1,.523.523v3.664h1.57V9.523A.523.523,0,0,0,47.57,9Z" transform="translate(-21.919 -9)" fill="#fec108"/>
          <path id="Shape-16" data-name="Shape" d="M3.7,17c-.136.665-.3,1.361-.5,2.094-.079.293-.157.581-.241.864L0,17Z" transform="translate(0 -12.812)" fill="#fec108"/>
          <path id="Shape-17" data-name="Shape" d="M46.674,17l-2.926,2.926c-.079-.272-.152-.55-.23-.832-.2-.733-.361-1.429-.5-2.094Z" transform="translate(-20.499 -12.812)" fill="#fec108"/>
        </g>
      </g>
      <g id="Icons">
        <circle id="Oval" cx="0.523" cy="0.523" r="0.523" transform="translate(15.181 20.94)"/>
        <path id="Shape-18" data-name="Shape" d="M25.523,24.617a.523.523,0,0,0,.523-.523v-1.57a.523.523,0,0,0-1.047,0v1.57A.523.523,0,0,0,25.523,24.617Z" transform="translate(-11.913 -10.483)"/>
        <path id="Shape-19" data-name="Shape" d="M.153,9.793l2.739,2.739c-.288,1.009-.581,1.978-.865,2.911-.266.872-.523,1.723-.763,2.565,0,0,0,.006,0,.009a.025.025,0,0,0,0,.006,37.906,37.906,0,0,0-.921,3.9s0,.006,0,.009,0,.028,0,.043a20.584,20.584,0,0,0-.209,5.735v.017c0,.006,0,.01,0,.015a20.974,20.974,0,0,0,.514,2.869,1.062,1.062,0,0,0,1.019.794H25.6a1.05,1.05,0,0,0,1.021-.794c1.463-5.815.2-9.946-1.389-15.172-.287-.942-.583-1.921-.875-2.944l2.707-2.707a.53.53,0,0,0,.153-.37V5.758a1.047,1.047,0,0,0-1.047-1.047H23.037A13.8,13.8,0,0,1,23.358,1.3,1.043,1.043,0,0,0,22.343,0H4.921A1.044,1.044,0,0,0,3.9,1.3a13.764,13.764,0,0,1,.322,3.415H1.047A1.047,1.047,0,0,0,0,5.758V9.423a.53.53,0,0,0,.153.37Zm22.47.153c.125.576.262,1.142.414,1.711l.082.3c.052.182.1.362.149.536.321,1.142.649,2.218.966,3.258q.314,1.021.6,1.993c-.871.195-2.06.419-3.546.619a4.846,4.846,0,0,0,.61-1.505.523.523,0,1,0-1.025-.213,4.126,4.126,0,0,1-1.005,1.885,60,60,0,0,1-6.256.317,60.161,60.161,0,0,1-6.256-.314,4.131,4.131,0,0,1-1.005-1.885.523.523,0,0,0-1.025.213,4.846,4.846,0,0,0,.61,1.5c-1.466-.195-2.643-.419-3.507-.609.192-.653.393-1.319.6-2,.314-1.03.638-2.094.954-3.219.085-.287.165-.58.244-.875.153-.563.287-1.129.413-1.708Zm1.413,1.4c-.125-.464-.236-.928-.341-1.4h1.739Zm1.785,10.349a45.672,45.672,0,0,1-9.1,1.263c-.809.043-1.68.068-2.59.074V19.889a52.663,52.663,0,0,0,10.987-1.138C25.4,19.747,25.637,20.72,25.822,21.693Zm.331,5.368a6.064,6.064,0,0,1-4.727-3.473A38.7,38.7,0,0,0,26,22.729a19.075,19.075,0,0,1,.155,4.331ZM1.264,22.739a39.024,39.024,0,0,0,4.532.85,6.066,6.066,0,0,1-4.688,3.464,19.135,19.135,0,0,1,.156-4.314ZM1.44,21.7c.185-.972.425-1.945.7-2.941a52.885,52.885,0,0,0,10.947,1.127v3.141A48.677,48.677,0,0,1,1.44,21.7Zm12.695,2.375c.727-.005,1.428-.023,2.094-.052V26.7a1.57,1.57,0,0,1-1.57,1.57h-.523ZM3.568,9.946c-.108.482-.221.957-.35,1.43l-1.43-1.43ZM1.654,30.362A20.625,20.625,0,0,1,1.219,28.1a7.163,7.163,0,0,0,5.65-4.377,60.5,60.5,0,0,0,6.218.355v6.287Zm12.48,0V29.315h.523A2.621,2.621,0,0,0,17.275,26.7V23.976c1.117-.063,2.146-.15,3.079-.254a7.154,7.154,0,0,0,5.687,4.384,20.526,20.526,0,0,1-.437,2.256ZM4.921,1.047H22.342a14.853,14.853,0,0,0-.351,3.664H5.273A14.824,14.824,0,0,0,4.921,1.047ZM1.047,5.758H26.175V8.9H24.6V7.852a.523.523,0,1,0-1.047,0V8.9h-1.57V7.852a.523.523,0,0,0-1.047,0V8.9h-1.57V7.852a.523.523,0,1,0-1.047,0V8.9h-1.57V7.852a.523.523,0,1,0-1.047,0V8.9h-1.57V7.852a.523.523,0,0,0-1.047,0V8.9h-1.57V7.852a.523.523,0,0,0-1.047,0V8.9H8.9V7.852a.523.523,0,1,0-1.047,0V8.9H6.282V7.852a.523.523,0,1,0-1.047,0V8.9H3.664V7.852a.523.523,0,1,0-1.047,0V8.9H1.047Z" transform="translate(0 0)"/>
      </g>
    </g>
  </g>
</svg>
