<svg id="Grupo_1108316" data-name="Grupo 1108316" xmlns="http://www.w3.org/2000/svg" width="52.859" height="52.859" viewBox="0 0 52.859 52.859">
  <g id="Trazado_874925" data-name="Trazado 874925" transform="translate(0)" fill="#f6d530" opacity="0.859">
    <path d="M 26.42959976196289 51.35950088500977 C 23.0634593963623 51.35950088500977 19.79880905151367 50.7005729675293 16.7263298034668 49.40102386474609 C 13.75790977478027 48.14549255371094 11.09167957305908 46.34777069091797 8.80171012878418 44.05779266357422 C 6.511729717254639 41.767822265625 4.714009761810303 39.10159301757812 3.458479642868042 36.13317108154297 C 2.158929824829102 33.06069183349609 1.499999761581421 29.79604148864746 1.499999761581421 26.42990303039551 C 1.499999761581421 23.06346321105957 2.158929824829102 19.79881286621094 3.458479642868042 16.72633171081543 C 4.714009761810303 13.75791263580322 6.511729717254639 11.09168243408203 8.80171012878418 8.801712036132812 C 11.09167957305908 6.511732578277588 13.75790977478027 4.714012145996094 16.7263298034668 3.458482265472412 C 19.79880905151367 2.158932447433472 23.0634593963623 1.500002384185791 26.42959976196289 1.500002384185791 C 29.79574012756348 1.500002384185791 33.06039047241211 2.158932447433472 36.13286972045898 3.458482265472412 C 39.10129165649414 4.714012145996094 41.76752090454102 6.511732578277588 44.05749130249023 8.801712036132812 C 46.34746932983398 11.09168243408203 48.14519119262695 13.75791263580322 49.40071868896484 16.72633171081543 C 50.70027160644531 19.79881286621094 51.35919952392578 23.06346321105957 51.35919952392578 26.42960166931152 C 51.35919952392578 29.79604148864746 50.70027160644531 33.06069183349609 49.40071868896484 36.13317108154297 C 48.14519119262695 39.10159301757812 46.34746932983398 41.767822265625 44.05749130249023 44.05779266357422 C 41.76752090454102 46.34777069091797 39.10129165649414 48.14549255371094 36.13286972045898 49.40102386474609 C 33.06039047241211 50.7005729675293 29.79574012756348 51.35950088500977 26.42959976196289 51.35950088500977 Z" stroke="none"/>
    <path d="M 26.42959976196289 3.000003814697266 C 23.26529884338379 3.000003814697266 20.19725036621094 3.619060516357422 17.31066131591797 4.839981079101562 C 14.52103805541992 6.019893646240234 12.01506805419922 7.709671020507812 9.862369537353516 9.862373352050781 C 7.709671020507812 12.01507186889648 6.019889831542969 14.52104187011719 4.839981079101562 17.31066131591797 C 3.619060516357422 20.1972541809082 3 23.26530265808105 3 26.42990303039551 C 3 29.59420204162598 3.619060516357422 32.66225433349609 4.839981079101562 35.54884338378906 C 6.019889831542969 38.33846282958984 7.709671020507812 40.84443283081055 9.862369537353516 42.99713134765625 C 12.01506805419922 45.14983367919922 14.52103805541992 46.8396110534668 17.31066131591797 48.01952362060547 C 20.19725036621094 49.24044036865234 23.26529884338379 49.85950088500977 26.42959976196289 49.85950088500977 C 29.59390068054199 49.85950088500977 32.66194915771484 49.24044036865234 35.54853820800781 48.01952362060547 C 38.33815765380859 46.8396110534668 40.84413146972656 45.14983367919922 42.99682998657227 42.99713134765625 C 45.14952850341797 40.84443283081055 46.83930969238281 38.33846282958984 48.01921844482422 35.54884338378906 C 49.24013900756836 32.66225433349609 49.85919952392578 29.59420204162598 49.85919952392578 26.42960166931152 C 49.85919952392578 23.26530265808105 49.24013900756836 20.1972541809082 48.01921844482422 17.31066131591797 C 46.83930969238281 14.52104187011719 45.14952850341797 12.01507186889648 42.99682998657227 9.862373352050781 C 40.84413146972656 7.709671020507812 38.33815765380859 6.019893646240234 35.54853820800781 4.839981079101562 C 32.66194915771484 3.619060516357422 29.59390068054199 3.000003814697266 26.42959976196289 3.000003814697266 M 26.42959976196289 3.814697265625e-06 C 41.02626037597656 3.814697265625e-06 52.85919952392578 11.83293151855469 52.85919952392578 26.42960166931152 L 52.85919952392578 26.42990303039551 C 52.85919952392578 41.02657318115234 41.02626037597656 52.85950088500977 26.42959976196289 52.85950088500977 C 11.83293151855469 52.85950088500977 0 41.02657318115234 0 26.42990303039551 L 0 26.42960166931152 C 0 11.83293151855469 11.83293151855469 3.814697265625e-06 26.42959976196289 3.814697265625e-06 Z" stroke="none" fill="#fff"/>
  </g>
  <g id="Trazado_874923" data-name="Trazado 874923" fill="none">
    <path d="M26.43,0a26.43,26.43,0,0,1,26.43,26.43h0A26.43,26.43,0,1,1,0,26.43H0A26.43,26.43,0,0,1,26.43,0Z" stroke="none"/>
    <path d="M 26.42959976196289 3.000003814697266 C 23.26529884338379 3.000003814697266 20.19725036621094 3.619060516357422 17.31066131591797 4.839981079101562 C 14.52103805541992 6.019893646240234 12.01506805419922 7.709671020507812 9.862369537353516 9.862373352050781 C 7.709671020507812 12.01507186889648 6.019889831542969 14.52104187011719 4.839981079101562 17.31066131591797 C 3.619060516357422 20.1972541809082 3 23.26530265808105 3 26.42990303039551 C 3 29.59420204162598 3.619060516357422 32.66225433349609 4.839981079101562 35.54884338378906 C 6.019889831542969 38.33846282958984 7.709671020507812 40.84443283081055 9.862369537353516 42.99713134765625 C 12.01506805419922 45.14983367919922 14.52103805541992 46.8396110534668 17.31066131591797 48.01952362060547 C 20.19725036621094 49.24044036865234 23.26529884338379 49.85950088500977 26.42959976196289 49.85950088500977 C 29.59390068054199 49.85950088500977 32.66194915771484 49.24044036865234 35.54853820800781 48.01952362060547 C 38.33815765380859 46.8396110534668 40.84413146972656 45.14983367919922 42.99682998657227 42.99713134765625 C 45.14952850341797 40.84443283081055 46.83930969238281 38.33846282958984 48.01921844482422 35.54884338378906 C 49.24013900756836 32.66225433349609 49.85919952392578 29.59420204162598 49.85919952392578 26.42960166931152 C 49.85919952392578 23.26530265808105 49.24013900756836 20.1972541809082 48.01921844482422 17.31066131591797 C 46.83930969238281 14.52104187011719 45.14952850341797 12.01507186889648 42.99682998657227 9.862373352050781 C 40.84413146972656 7.709671020507812 38.33815765380859 6.019893646240234 35.54853820800781 4.839981079101562 C 32.66194915771484 3.619060516357422 29.59390068054199 3.000003814697266 26.42959976196289 3.000003814697266 M 26.42959976196289 3.814697265625e-06 C 41.02626037597656 3.814697265625e-06 52.85919952392578 11.83293151855469 52.85919952392578 26.42960166931152 L 52.85919952392578 26.42990303039551 C 52.85919952392578 41.02657318115234 41.02626037597656 52.85950088500977 26.42959976196289 52.85950088500977 C 11.83293151855469 52.85950088500977 0 41.02657318115234 0 26.42990303039551 L 0 26.42960166931152 C 0 11.83293151855469 11.83293151855469 3.814697265625e-06 26.42959976196289 3.814697265625e-06 Z" stroke="none" fill="#fff"/>
  </g>
  <g id="headache_11666665" transform="translate(-5.746 3.109)">
    <g id="Grupo_1142940" data-name="Grupo 1142940" transform="translate(16.114 7.5)">
      <rect id="Rectángulo_404727" data-name="Rectángulo 404727" width="14.529" height="11.919" transform="translate(8.817 12.799)" fill="#57758d"/>
      <rect id="Rectángulo_404728" data-name="Rectángulo 404728" width="1.493" height="11.919" transform="translate(8.817 12.799)" fill="#4b6276"/>
      <path id="Trazado_904091" data-name="Trazado 904091" d="M116,309.489a10.5,10.5,0,0,0-10.05,7.473l3.024,3.015v3.08H123v-3.08l3.046-3.022A10.5,10.5,0,0,0,116,309.489Z" transform="translate(-99.94 -289.278)" fill="#f88fa4"/>
      <path id="Trazado_904092" data-name="Trazado 904092" d="M110.558,329.666v-2.812l-3.024-3.015a10.518,10.518,0,0,1,5.134-6.253,10.515,10.515,0,0,0-6.714,6.932l3.024,3.015v3.08h14.028v-.947H110.558Z" transform="translate(-99.941 -296.833)" fill="#f05475"/>
      <path id="Trazado_904093" data-name="Trazado 904093" d="M363.777,421.053l-3.046,3.022v3.08h3.489v-3.079A10.5,10.5,0,0,0,363.777,421.053Z" transform="translate(-337.667 -393.375)" fill="#ffdaaa"/>
      <path id="Trazado_904094" data-name="Trazado 904094" d="M362.237,426.2v-3.08l1.658-1.645c-.036-.143-.075-.286-.117-.426l-3.046,3.022v3.08h3.489V426.2Z" transform="translate(-337.667 -393.375)" fill="#ffb680"/>
      <path id="Trazado_904095" data-name="Trazado 904095" d="M99.815,421.153a10.491,10.491,0,0,0-.44,3.017v3.079h3.464v-3.08Z" transform="translate(-93.803 -393.468)" fill="#ffdaaa"/>
      <path id="Trazado_904096" data-name="Trazado 904096" d="M100.837,426.3v-3.069c0-.341.018-.678.05-1.011l-1.072-1.069a10.49,10.49,0,0,0-.44,3.017v3.079h3.464V426.3Z" transform="translate(-93.803 -393.469)" fill="#ffb680"/>
      <path id="Trazado_904097" data-name="Trazado 904097" d="M169.232,311.626l5.849,5.849,5.876-5.876a10.376,10.376,0,0,0-11.724.027Z" transform="translate(-158.984 -289.565)" fill="#e3edf6"/>
      <path id="Trazado_904098" data-name="Trazado 904098" d="M196.114,310.285l4.049,4.049,4.052-4.052a10.711,10.711,0,0,0-8.1,0Z" transform="translate(-184.067 -289.277)" fill="#ffdaaa"/>
      <path id="Trazado_904099" data-name="Trazado 904099" d="M201.19,317.456l-3.523-3.523a10.746,10.746,0,0,0-1.551.5l4.049,4.049Z" transform="translate(-184.068 -293.424)" fill="#ffb680"/>
      <path id="Trazado_904100" data-name="Trazado 904100" d="M161.591,85.228a6.515,6.515,0,0,0,12.67,0V76.71H162.4v8.517Z" transform="translate(-151.855 -72.078)" fill="#ffdaaa"/>
      <path id="Trazado_904101" data-name="Trazado 904101" d="M169.373,89.876a8.974,8.974,0,0,1-2.1-.247,4.491,4.491,0,0,1-3.373-4.372V76.71h-1.5v8.517h-.805a6.51,6.51,0,0,0,8.538,4.609A6.6,6.6,0,0,1,169.373,89.876Z" transform="translate(-151.855 -72.078)" fill="#ffb680"/>
      <path id="Trazado_904102" data-name="Trazado 904102" d="M145.475,13.555l-1.113-2.335a8.5,8.5,0,0,0-13.913-.207L129.2,13.46A8.212,8.212,0,0,0,128.814,16V20.65h3V16.115l1.418-.315a5.606,5.606,0,0,0,4.092-3.668,5.606,5.606,0,0,0,4.092,3.668l1.418.315V20.65h3V16A8.5,8.5,0,0,0,145.475,13.555Z" transform="translate(-121.271 -7.5)" fill="#57758d"/>
      <g id="Grupo_1142938" data-name="Grupo 1142938" transform="translate(7.543 3.079)">
        <path id="Trazado_904103" data-name="Trazado 904103" d="M177.6,55.065a5.606,5.606,0,0,0,4.092,3.668l1.418.315v4.535h3V62.143h-1.56v-4.25l-2.545-.565a4.192,4.192,0,0,1-3.041-2.727l-.369-1.089H177.6l-.38,1.089c-.466,1.369-2.613,2.413-4.024,2.727l-1.216.2.11,3.706V59.047l1.418-.315A5.606,5.606,0,0,0,177.6,55.065Z" transform="translate(-169.094 -53.512)" fill="#4b6276"/>
        <path id="Trazado_904104" data-name="Trazado 904104" d="M130.253,76.693a11.783,11.783,0,0,1,.387-2.991,6.6,6.6,0,0,1-.62-1.144l-.818,1.606a8.212,8.212,0,0,0-.388,2.538v4.652h3V79.914h-1.56Z" transform="translate(-128.814 -71.283)" fill="#4b6276"/>
      </g>
      <line id="Línea_610" data-name="Línea 610" y2="1.004" transform="translate(9.037 25.682)" fill="none" stroke="#fff" stroke-miterlimit="10" stroke-width="0.8"/>
      <line id="Línea_611" data-name="Línea 611" y2="1.004" transform="translate(11.043 25.682)" fill="none" stroke="#fff" stroke-miterlimit="10" stroke-width="0.8"/>
      <path id="Trazado_904105" data-name="Trazado 904105" d="M72.463,13.782l-.371-.317-.976,1.142-2-2.3-1.775,2.076L70.515,18.4l.817-.956,2.859,3.392.155-.182Z" transform="translate(-63.914 -11.987)" fill="#feef8f"/>
      <path id="Trazado_904106" data-name="Trazado 904106" d="M71.942,29.754l-.817.956L68.272,27.1l-.929,1.086L70.515,32.2l.817-.956,2.859,3.392.155-.182-.75-2.737Z" transform="translate(-63.914 -25.786)" fill="#fde31d"/>
      <circle id="Elipse_14926" data-name="Elipse 14926" cx="1.004" cy="1.004" r="1.004" transform="translate(0 3.681)" fill="#00c278"/>
      <circle id="Elipse_14927" data-name="Elipse 14927" cx="1.004" cy="1.004" r="1.004" transform="translate(30.118 3.681)" fill="#00c278"/>
      <path id="Trazado_904107" data-name="Trazado 904107" d="M342.129,13.782l.371-.317.976,1.142,2-2.3,1.775,2.076L344.077,18.4l-.817-.956L340.4,20.835l-.155-.182Z" transform="translate(-318.553 -11.987)" fill="#feef8f"/>
      <g id="Grupo_1142939" data-name="Grupo 1142939" transform="translate(21.694 1.478)">
        <path id="Trazado_904108" data-name="Trazado 904108" d="M343.411,30.648l-.91-1.065-.371.317-1.883,6.87.155.182,1.9-2.253Z" transform="translate(-340.246 -29.583)" fill="#fde31d"/>
      </g>
    </g>
    <g id="Grupo_1142941" data-name="Grupo 1142941" transform="translate(16.114 7.5)">
      <path id="Trazado_904109" data-name="Trazado 904109" d="M161.591,203.975a6.515,6.515,0,0,0,12.67,0" transform="translate(-151.855 -190.825)" fill="none" stroke="#000" stroke-miterlimit="10" stroke-width="0.8"/>
      <path id="Trazado_904110" data-name="Trazado 904110" d="M167.152,11.22a8.5,8.5,0,0,0-13.913-.207" transform="translate(-144.061 -7.5)" fill="none" stroke="#000" stroke-miterlimit="10" stroke-width="0.8"/>
      <path id="Trazado_904111" data-name="Trazado 904111" d="M129.2,78.038a8.212,8.212,0,0,0-.388,2.538v4.652h3V80.693l1.418-.315a5.606,5.606,0,0,0,4.092-3.668,5.606,5.606,0,0,0,4.092,3.668l1.418.315v4.535h3V80.575a8.5,8.5,0,0,0-.356-2.443" transform="translate(-121.271 -72.078)" fill="none" stroke="#000" stroke-miterlimit="10" stroke-width="0.8"/>
      <path id="Trazado_904112" data-name="Trazado 904112" d="M151.272,59.989q-.072.1-.141.2" transform="translate(-142.095 -56.476)" fill="none" stroke="#000" stroke-miterlimit="10" stroke-width="0.8"/>
      <line id="Línea_612" data-name="Línea 612" y2="9.962" transform="translate(23.346 13.15)" fill="none" stroke="#000" stroke-miterlimit="10" stroke-width="0.8"/>
      <line id="Línea_613" data-name="Línea 613" y2="5.461" transform="translate(8.817 17.651)" fill="none" stroke="#000" stroke-miterlimit="10" stroke-width="0.8"/>
      <line id="Línea_614" data-name="Línea 614" y2="3.497" transform="translate(8.817 13.15)" fill="none" stroke="#000" stroke-miterlimit="10" stroke-width="0.8"/>
      <path id="Trazado_904113" data-name="Trazado 904113" d="M99.375,323.058v-3.079a10.49,10.49,0,0,1,20.98,0v3.079" transform="translate(-93.803 -289.278)" fill="none" stroke="#000" stroke-miterlimit="10" stroke-width="0.8"/>
      <path id="Trazado_904114" data-name="Trazado 904114" d="M196.114,321.36l4.049,4.049,4.052-4.052" transform="translate(-184.067 -300.352)" fill="none" stroke="#000" stroke-miterlimit="10" stroke-width="0.8"/>
      <path id="Trazado_904115" data-name="Trazado 904115" d="M207.433,339.294l3.292,3.292,5.876-5.876" transform="translate(-194.628 -314.677)" fill="none" stroke="#000" stroke-miterlimit="10" stroke-width="0.8"/>
      <line id="Línea_615" data-name="Línea 615" x2="1.799" y2="1.799" transform="translate(10.248 22.06)" fill="none" stroke="#000" stroke-miterlimit="10" stroke-width="0.8"/>
      <path id="Trazado_904116" data-name="Trazado 904116" d="M106.135,421.207l3.012,3.012v3.08" transform="translate(-100.11 -393.518)" fill="none" stroke="#000" stroke-miterlimit="10" stroke-width="0.8"/>
      <path id="Trazado_904117" data-name="Trazado 904117" d="M363.743,421.207l-3.012,3.012v3.08" transform="translate(-337.667 -393.518)" fill="none" stroke="#000" stroke-miterlimit="10" stroke-width="0.8"/>
      <path id="Trazado_904118" data-name="Trazado 904118" d="M281.213,155.729h-2.5v-.216l1.613-1.613" transform="translate(-261.135 -144.102)" fill="none" stroke="#000" stroke-miterlimit="10" stroke-width="0.8"/>
      <path id="Trazado_904119" data-name="Trazado 904119" d="M196.114,155.729h2.511v-.216l-1.613-1.613" transform="translate(-184.067 -144.102)" fill="none" stroke="#000" stroke-miterlimit="10" stroke-width="0.8"/>
      <path id="Trazado_904120" data-name="Trazado 904120" d="M241.114,226.228h1a1,1,0,0,1,1,1h0" transform="translate(-226.055 -211.589)" fill="none" stroke="#000" stroke-miterlimit="10" stroke-width="0.8"/>
      <path id="Trazado_904121" data-name="Trazado 904121" d="M72.463,13.782l-.371-.317-.976,1.142-2-2.3-1.775,2.076L70.515,18.4l.817-.956,2.859,3.392.155-.182Z" transform="translate(-63.914 -11.987)" fill="none" stroke="#000" stroke-miterlimit="10" stroke-width="0.8"/>
      <circle id="Elipse_14928" data-name="Elipse 14928" cx="1.004" cy="1.004" r="1.004" transform="translate(0 3.681)" fill="none" stroke="#000" stroke-miterlimit="10" stroke-width="0.8"/>
      <line id="Línea_616" data-name="Línea 616" y2="3.012" transform="translate(3.563 6.575)" fill="none" stroke="#000" stroke-miterlimit="10" stroke-width="0.8"/>
      <line id="Línea_617" data-name="Línea 617" x1="3.012" transform="translate(2.057 8.081)" fill="none" stroke="#000" stroke-miterlimit="10" stroke-width="0.8"/>
      <path id="Trazado_904122" data-name="Trazado 904122" d="M342.129,13.782l.371-.317.976,1.142,2-2.3,1.775,2.076L344.077,18.4l-.817-.956L340.4,20.835l-.155-.182Z" transform="translate(-318.553 -11.987)" fill="none" stroke="#000" stroke-miterlimit="10" stroke-width="0.8"/>
      <circle id="Elipse_14929" data-name="Elipse 14929" cx="1.004" cy="1.004" r="1.004" transform="translate(30.118 3.681)" fill="none" stroke="#000" stroke-miterlimit="10" stroke-width="0.8"/>
      <line id="Línea_618" data-name="Línea 618" y2="3.012" transform="translate(28.563 6.575)" fill="none" stroke="#000" stroke-miterlimit="10" stroke-width="0.8"/>
      <line id="Línea_619" data-name="Línea 619" x2="3.012" transform="translate(27.057 8.081)" fill="none" stroke="#000" stroke-miterlimit="10" stroke-width="0.8"/>
    </g>
  </g>
</svg>
