<svg xmlns="http://www.w3.org/2000/svg" xmlns:xlink="http://www.w3.org/1999/xlink" width="145.159" height="39.961" viewBox="0 0 145.159 39.961">
  <defs>
    <filter id="Trazado_896983" x="0" y="0" width="35.913" height="39.961" filterUnits="userSpaceOnUse">
      <feOffset dy="3" input="SourceAlpha"/>
      <feGaussianBlur stdDeviation="3" result="blur"/>
      <feFlood flood-opacity="0.161"/>
      <feComposite operator="in" in2="blur"/>
      <feComposite in="SourceGraphic"/>
    </filter>
    <filter id="Trazado_896984" x="36.412" y="0" width="35.913" height="39.961" filterUnits="userSpaceOnUse">
      <feOffset dy="3" input="SourceAlpha"/>
      <feGaussianBlur stdDeviation="3" result="blur-2"/>
      <feFlood flood-opacity="0.161"/>
      <feComposite operator="in" in2="blur-2"/>
      <feComposite in="SourceGraphic"/>
    </filter>
    <filter id="Trazado_896985" x="72.833" y="0" width="35.913" height="39.961" filterUnits="userSpaceOnUse">
      <feOffset dy="3" input="SourceAlpha"/>
      <feGaussianBlur stdDeviation="3" result="blur-3"/>
      <feFlood flood-opacity="0.161"/>
      <feComposite operator="in" in2="blur-3"/>
      <feComposite in="SourceGraphic"/>
    </filter>
    <filter id="Trazado_896986" x="109.245" y="0" width="35.913" height="39.961" filterUnits="userSpaceOnUse">
      <feOffset dy="3" input="SourceAlpha"/>
      <feGaussianBlur stdDeviation="3" result="blur-4"/>
      <feFlood flood-opacity="0.161"/>
      <feComposite operator="in" in2="blur-4"/>
      <feComposite in="SourceGraphic"/>
    </filter>
  </defs>
  <g id="Grupo_1107908" data-name="Grupo 1107908" transform="translate(9 6)">
    <g transform="matrix(1, 0, 0, 1, -9, -6)" filter="url(#Trazado_896983)">
      <path id="Trazado_896983-2" data-name="Trazado 896983" d="M1921.79,235.18v21.961l17.913-10.98Z" transform="translate(-1912.79 -229.18)" fill="#97d8f6"/>
    </g>
    <g transform="matrix(1, 0, 0, 1, -9, -6)" filter="url(#Trazado_896984)">
      <path id="Trazado_896984-2" data-name="Trazado 896984" d="M1878.88,235.18v21.961l17.913-10.98Z" transform="translate(-1833.47 -229.18)" fill="#97d8f6"/>
    </g>
    <g transform="matrix(1, 0, 0, 1, -9, -6)" filter="url(#Trazado_896985)">
      <path id="Trazado_896985-2" data-name="Trazado 896985" d="M1835.96,235.18v21.961l17.913-10.98Z" transform="translate(-1754.13 -229.18)" fill="#97d8f6"/>
    </g>
    <g transform="matrix(1, 0, 0, 1, -9, -6)" filter="url(#Trazado_896986)">
      <path id="Trazado_896986-2" data-name="Trazado 896986" d="M1793.05,235.18v21.961l17.913-10.98Z" transform="translate(-1674.8 -229.18)" fill="#97d8f6"/>
    </g>
  </g>
</svg>
