<svg xmlns="http://www.w3.org/2000/svg" xmlns:xlink="http://www.w3.org/1999/xlink" width="294.5" height="291.04" viewBox="0 0 294.5 291.04">
  <defs>
    <clipPath id="clip-path">
      <path id="AdobeStock_852130040" d="M14,0H280.5a14,14,0,0,1,14,14V291.04a0,0,0,0,1,0,0H0a0,0,0,0,1,0,0V14A14,14,0,0,1,14,0Z" transform="translate(180 5429.994)" fill="#fff1f1"/>
    </clipPath>
    <clipPath id="clip-path-2">
      <rect id="Rectángulo_404623" data-name="Rectángulo 404623" width="559.624" height="291.039" fill="none"/>
    </clipPath>
    <clipPath id="clip-path-3">
      <rect id="Rectángulo_404611" data-name="Rectángulo 404611" width="83.53" height="18.562" fill="none"/>
    </clipPath>
    <clipPath id="clip-path-4">
      <rect id="Rectángulo_404612" data-name="Rectángulo 404612" width="75.796" height="18.562" fill="none"/>
    </clipPath>
    <clipPath id="clip-path-5">
      <rect id="Rectángulo_404613" data-name="Rectángulo 404613" width="30.039" height="76.964" fill="none"/>
    </clipPath>
    <clipPath id="clip-path-6">
      <rect id="Rectángulo_404614" data-name="Rectángulo 404614" width="15.106" height="19.953" fill="none"/>
    </clipPath>
    <clipPath id="clip-path-7">
      <rect id="Rectángulo_404615" data-name="Rectángulo 404615" width="24.501" height="38.063" fill="none"/>
    </clipPath>
    <clipPath id="clip-path-8">
      <rect id="Rectángulo_404616" data-name="Rectángulo 404616" width="112.92" height="18.562" fill="none"/>
    </clipPath>
    <clipPath id="clip-path-9">
      <rect id="Rectángulo_404620" data-name="Rectángulo 404620" width="115.241" height="18.562" fill="none"/>
    </clipPath>
    <clipPath id="clip-path-10">
      <rect id="Rectángulo_404621" data-name="Rectángulo 404621" width="25.784" height="68.976" fill="none"/>
    </clipPath>
    <clipPath id="clip-path-11">
      <rect id="Rectángulo_404617" data-name="Rectángulo 404617" width="77.343" height="18.562" fill="none"/>
    </clipPath>
    <clipPath id="clip-path-12">
      <rect id="Rectángulo_404618" data-name="Rectángulo 404618" width="20.445" height="84.919" fill="none"/>
    </clipPath>
    <clipPath id="clip-path-13">
      <rect id="Rectángulo_404619" data-name="Rectángulo 404619" width="20.407" height="90.491" fill="none"/>
    </clipPath>
  </defs>
  <g id="Grupo_1142951" data-name="Grupo 1142951" transform="translate(-180 -5429.994)">
    <path id="AdobeStock_852130040-2" data-name="AdobeStock_852130040" d="M14,0H280.5a14,14,0,0,1,14,14V291.04a0,0,0,0,1,0,0H0a0,0,0,0,1,0,0V14A14,14,0,0,1,14,0Z" transform="translate(180 5429.994)" fill="#fff1f1"/>
    <g id="Enmascarar_grupo_1099710" data-name="Enmascarar grupo 1099710" clip-path="url(#clip-path)">
      <g id="Grupo_1108366" data-name="Grupo 1108366" transform="translate(40.688 5433.994)">
        <g id="Grupo_1108365" data-name="Grupo 1108365" clip-path="url(#clip-path-2)">
          <g id="Grupo_1108364" data-name="Grupo 1108364">
            <g id="Grupo_1108368" data-name="Grupo 1108368">
              <g id="Grupo_1108332" data-name="Grupo 1108332" transform="translate(441.628 272.477)" opacity="0.1">
                <g id="Grupo_1108331" data-name="Grupo 1108331">
                  <g id="Grupo_1108330" data-name="Grupo 1108330" clip-path="url(#clip-path-3)">
                    <path id="Trazado_902812" data-name="Trazado 902812" d="M622.231,341.651c0,5.126-18.7,9.281-41.765,9.281s-41.766-4.155-41.766-9.281,18.7-9.281,41.766-9.281,41.765,4.155,41.765,9.281" transform="translate(-538.701 -332.37)" fill="#211823"/>
                  </g>
                </g>
              </g>
              <path id="Trazado_902813" data-name="Trazado 902813" d="M617.452,110.888s15.1,21.146,15.86,52.111-15.86,60.418-15.86,60.418l-19.636,67.216s30.209,7.552-6.042,1.51c0,0-7.984-51.33,12.084-70.236,0,0-1.511-41.538,0-74.768s10.573,11.328,10.573,11.328-9.063,30.965-28.7,60.419c0,0,3.021,16.615-3.776,30.209s-14.607,42.146-14.607,42.146-27.685,25.825-6.539.147c0,0,2.265-49.845,11.328-72.5,0,0-3.776-63.439,15.86-101.955,0,0-20.391-33.23-12.839-39.272s33.23-6.042,38.517.755,6.042,13.594,3.776,32.475" transform="translate(-99.623 -13.194)" fill="#965450"/>
              <path id="Trazado_902814" data-name="Trazado 902814" d="M622.478,135.045c0,.962-.433,1.74-.967,1.74s-.967-.779-.967-1.74.433-1.74.967-1.74.967.779.967,1.74" transform="translate(-111.821 -24.021)" fill="#76413b"/>
              <path id="Trazado_902815" data-name="Trazado 902815" d="M637.54,163.984s-12.209,9.944-26.181,13.72c0,0-18.5-11.706-29.454-14.35a116.988,116.988,0,0,1,5.287-18.755s19.258,8.811,45.313-.252c0,0,5.79,13.091,5.035,19.636" transform="translate(-104.858 -26.011)" fill="#fddec0"/>
              <path id="Trazado_902816" data-name="Trazado 902816" d="M602.722,6.491s10.957-6.417,18.251,3.932-5.17,7.869,2.831,17.8-3.745,9.58-.639,16.854c4.77,11.171-13.235,23.045-31.082,14.13S602.722,6.491,602.722,6.491" transform="translate(-105.633 -0.815)" fill="#211823"/>
              <path id="Trazado_902817" data-name="Trazado 902817" d="M588.413,53.627s1.888,12.461-2.643,12.839-13.217-3.776-15.86,9.063-6.042,40.4-6.042,40.4-2.682,5.892-5.122,21.676c-3.074,19.88-5.534,39.555-1.435,24.8,0,0-3.064,18.536,1.845.41,0,0-2.966,15.8,2.069.316,0,0-1.008,13.972,2.643-2.643,0,0,9.441-32.475,10.951-42.293,0,0,8.56-34.74,16.112-37.761s27.691,7.174,27.691,7.174,5.287-16.992-.755-19.636-17.118,1.008-15.608-10.7-13.846-3.651-13.846-3.651" transform="translate(-100.038 -9.177)" fill="#965450"/>
              <path id="Trazado_902818" data-name="Trazado 902818" d="M565.91,178.855s5.934,12.781-.972,3.9.972-3.9.972-3.9" transform="translate(-101.29 -31.979)" fill="#965450"/>
              <path id="Trazado_902819" data-name="Trazado 902819" d="M596.672,55.441c2.087,3.3,6.575,5.763,10.325,6.676a24.558,24.558,0,0,0,3.055.534,10.009,10.009,0,0,1-.482-5.373c1.511-11.706-13.846-3.651-13.846-3.651s.015.1.039.275c.29.515.588,1.03.91,1.539" transform="translate(-107.349 -9.177)" fill="#76413b"/>
              <path id="Trazado_902820" data-name="Trazado 902820" d="M659.822,135.078c-3.684-12.743-10.043-19.565-10.043-19.565s-8.7-26.376-13.793-38.455c-4.04-9.581-9.725-7.934-14.159-6.588,1.349,4.74,1.709,9.8,2.445,14.638.544,3.578,1.162,7.151,1.874,10.7,6.767,10.023,13.332,24.057,13.332,24.057,3.393,9.336,21.05,39.523,21.05,39.523,5.739,11.272,2.459.615,2.459.615,6.148,13.117,2.254-.2,2.254-.2,8.2,15.986,1.654-.717,1.654-.717,9.234,15.491-3.391-11.262-7.075-24" transform="translate(-112.052 -12.512)" fill="#965450"/>
              <path id="Trazado_902821" data-name="Trazado 902821" d="M674.4,171.336s13.342,8.56.252,2.769c-9.683-4.283-.252-2.769-.252-2.769" transform="translate(-120.784 -30.828)" fill="#965450"/>
              <path id="Trazado_902822" data-name="Trazado 902822" d="M617.152,69.925s14.291,18.9,7.242,30.985c0,0-14.566-2.2-35.964,5.607l-2.321-3.867s6.624-16.866,2.092-32.977l1.511-.252S601.8,85.785,609.6,91.575c0,0,5.034-12.839,5.538-21.9Z" transform="translate(-105.616 -12.51)" fill="#fddec0"/>
              <path id="Trazado_902823" data-name="Trazado 902823" d="M603.2,12.225s11.173.269,13.328,11.1c3,15.084-.634,29-11.207,28.238-14.915-1.074-15.463-16.153-16.026-20.238-.827-6,.066-18.458,13.9-19.1" transform="translate(-106.151 -2.203)" fill="#965450"/>
              <path id="Trazado_902824" data-name="Trazado 902824" d="M603.1,10.38s-5.848-2.367-5.167,2.362-.929,5.385-5.68,5.7-6.193,6.285-2.454,10.076-6.717,6.686-.311,11.953,6.558,7.712,5.011,13.126c-2,6.986-14.365,3.649-7.763,11.84a7.685,7.685,0,0,1-5.384-3.682,10.583,10.583,0,0,0,3.032,4.2s-11.442,1.859-14.655-7.841c-1.674-5.055,3.988-6.322,1.357-10-5.3-7.418-5.223-9.567.689-14.548s-6.344-9.86,2.042-16.29S573.47,3.715,585.754.7,602.384,5.1,603.1,10.38" transform="translate(-102.213 0)" fill="#352c38"/>
              <path id="Trazado_902825" data-name="Trazado 902825" d="M614.119,37.767c.29.284.531.605.789.9s.492.6.743.874a7.622,7.622,0,0,0,.776.775c.266.243.574.448.873.677l.584.448-.63.33c-.227.12-.452.252-.682.388l-.688.453a7.816,7.816,0,0,1-1.513.849,14.288,14.288,0,0,1,1.07-1.363,6.37,6.37,0,0,1,.637-.614,4.721,4.721,0,0,1,.756-.519l-.047.779a6.256,6.256,0,0,1-.969-.77,5.139,5.139,0,0,1-.78-.975,7.73,7.73,0,0,1-.918-2.227" transform="translate(-110.663 -6.806)" fill="#4f2828"/>
              <path id="Trazado_902826" data-name="Trazado 902826" d="M613.095,48.784s-.116.112-.328.3l-.386.322a2.408,2.408,0,0,1-.535.374c-.219.111-.461.234-.726.35-.132.058-.268.126-.41.18s-.292.071-.443.107c-.3.061-.616.158-.94.193l-.993.025a5.063,5.063,0,0,1-.984-.124,3.6,3.6,0,0,1-.927-.247c-.293-.109-.568-.231-.827-.343-.245-.147-.465-.307-.666-.448a2.253,2.253,0,0,1-.514-.428c-.137-.147-.248-.281-.339-.389-.181-.217-.273-.344-.273-.344l.393.206.427.241a2.976,2.976,0,0,0,.571.254c.214.081.439.174.673.274.253.059.518.118.785.2a4.282,4.282,0,0,0,.841.147,4.346,4.346,0,0,0,.876.081l.884.01.851-.1c.139-.016.276-.036.412-.044.13-.025.252-.065.374-.094.243-.067.481-.118.706-.167a3.526,3.526,0,0,0,.607-.211l.471-.175c.264-.093.42-.138.42-.138" transform="translate(-108.805 -8.704)" fill="#4f2828"/>
              <path id="Trazado_902827" data-name="Trazado 902827" d="M605.831,30.286s-.166-.089-.448-.255c-.139-.086-.312-.188-.508-.288s-.407-.228-.658-.336-.508-.239-.8-.343c-.28-.123-.59-.2-.9-.3a7.458,7.458,0,0,0-.98-.194,6.463,6.463,0,0,0-1.016-.066,6.151,6.151,0,0,0-1.008.11,6.253,6.253,0,0,0-.954.255,7.063,7.063,0,0,0-.858.378,7.818,7.818,0,0,0-.741.43c-.233.135-.416.3-.6.426a5.729,5.729,0,0,0-.453.361l-.4.324s.089-.163.262-.445a3.429,3.429,0,0,1,.342-.49,5,5,0,0,1,.516-.586,6.028,6.028,0,0,1,1.622-1.149,4.289,4.289,0,0,1,.524-.212,2.5,2.5,0,0,1,.557-.164,6.74,6.74,0,0,1,1.176-.161,7.332,7.332,0,0,1,1.176.109,5.849,5.849,0,0,1,1.092.3,6.816,6.816,0,0,1,1.717.966,5.417,5.417,0,0,1,.6.507,3.644,3.644,0,0,1,.412.426c.214.248.331.4.331.4" transform="translate(-107.31 -4.97)" fill="#211823"/>
              <path id="Trazado_902828" data-name="Trazado 902828" d="M613.406,30.377a4.664,4.664,0,0,1,.776-1.319,5.564,5.564,0,0,1,1.172-1.09,5.3,5.3,0,0,1,.8-.456,4.947,4.947,0,0,1,.926-.289,3.93,3.93,0,0,1,.973-.079,3.88,3.88,0,0,1,.93.137,4.831,4.831,0,0,1,.809.307,3.314,3.314,0,0,1,.649.394,4.062,4.062,0,0,1,.833.742c.181.2.276.313.276.313s-.146-.058-.386-.166l-.421-.2a4.017,4.017,0,0,0-.551-.22,5.256,5.256,0,0,0-.648-.219c-.236-.043-.474-.127-.726-.154a4.837,4.837,0,0,0-.773-.041,3.11,3.11,0,0,0-.784.092,3.991,3.991,0,0,0-.77.209c-.242.11-.5.193-.721.325s-.453.243-.653.383-.39.271-.571.392c-.692.523-1.144.94-1.144.94" transform="translate(-110.535 -4.891)" fill="#211823"/>
              <path id="Trazado_902829" data-name="Trazado 902829" d="M600.47,37.241c.1,1.342.546,2.4,1.008,2.371s.758-1.147.663-2.489-.546-2.4-1.008-2.371-.758,1.147-.663,2.489" transform="translate(-108.201 -6.262)" fill="#211823"/>
              <path id="Trazado_902830" data-name="Trazado 902830" d="M616.026,35.65c.083,1.174.478,2.1.881,2.075s.664-1,.58-2.178-.477-2.1-.881-2.075-.663,1-.58,2.178" transform="translate(-111.004 -6.031)" fill="#211823"/>
              <g id="Grupo_1108367" data-name="Grupo 1108367" transform="translate(-11)">
                <g id="Grupo_1108335" data-name="Grupo 1108335" transform="translate(353.457 272.477)" opacity="0.1">
                  <g id="Grupo_1108334" data-name="Grupo 1108334">
                    <g id="Grupo_1108333" data-name="Grupo 1108333" clip-path="url(#clip-path-4)">
                      <path id="Trazado_902831" data-name="Trazado 902831" d="M506.945,341.651c0,5.126-16.967,9.281-37.9,9.281s-37.9-4.155-37.9-9.281,16.968-9.281,37.9-9.281,37.9,4.155,37.9,9.281" transform="translate(-431.15 -332.37)" fill="#211823"/>
                    </g>
                  </g>
                </g>
                <path id="Trazado_902832" data-name="Trazado 902832" d="M495.651,109.405s17.067-5.1,21.554,17.328a97.167,97.167,0,0,1,1.268,22.4s21.976,23.245,7.184,47.757-30.006-87.484-30.006-87.484" transform="translate(-89.315 -19.625)" fill="#ffac9d"/>
                <g id="Grupo_1108338" data-name="Grupo 1108338" transform="translate(411.422 103.809)" opacity="0.7">
                  <g id="Grupo_1108337" data-name="Grupo 1108337">
                    <g id="Grupo_1108336" data-name="Grupo 1108336" clip-path="url(#clip-path-5)">
                      <path id="Trazado_902833" data-name="Trazado 902833" d="M519.591,152.326a97.167,97.167,0,0,0-1.268-22.4c-.235-1.18-.513-2.267-.815-3.3-2.148,2.844-4.622,5.475-6.691,7.849-2.871,3.293-5.873,6.454-8.962,9.527,5.7,31.067,15.4,71.86,24.921,56.08,14.792-24.513-7.185-47.758-7.185-47.758" transform="translate(-501.855 -126.627)" fill="#d18b82"/>
                    </g>
                  </g>
                </g>
                <path id="Trazado_902834" data-name="Trazado 902834" d="M502.211,151.527a71.672,71.672,0,0,1,18.6,35.279c4.649,22.3-11.833,60.014-23.245,61.635s-12.679-16.625-12.256-34.467c0,0-5.494,37.306-21.132,36.9s-29.161-58.8-8.03-94.48,46.067-4.866,46.067-4.866" transform="translate(-80.237 -25.078)" fill="#ffac9d"/>
                <path id="Trazado_902835" data-name="Trazado 902835" d="M455.961,256.664s-10.989,8.515-9.3,25.547,6.763,38.117,6.763,38.117-21.976,14.192,2.113,2.838c0,0,13.524-40.144,24.091-69.745s-23.668,3.244-23.668,3.244" transform="translate(-80.054 -43.438)" fill="#ffac9d"/>
                <path id="Trazado_902836" data-name="Trazado 902836" d="M514.624,261.786s-3.8,16.22-19.441,59.2c0,0,28.316,10.948-2.959,3.244,0,0-16.905-42.172,5.071-61.636s17.328-.811,17.328-.811" transform="translate(-87.579 -45.722)" fill="#ffac9d"/>
                <path id="Trazado_902837" data-name="Trazado 902837" d="M521.623,195.366s-8.738,13.093-35.364,23.659c0,0-15.082-18.562-41.132-16.051,0,0-.423-16.061,4.226-23.245,0,0,27.471,8.03,65.508-4.227,0,0,5.917,9.3,6.762,19.864" transform="translate(-80.21 -31.625)" fill="#fddec0"/>
                <path id="Trazado_902838" data-name="Trazado 902838" d="M498.029,139.032s7.476-28.316-1.968-32.543-19.28,2.959-18.493-10.988-14.952-17.328-12.985-2.536-7.477,12.679-13.772,13.1-11.139,15.02-11.139,15.02,13.106,20.9,25.7,23.017,32.658-5.071,32.658-5.071" transform="translate(-79.229 -15.018)" fill="#ffac9d"/>
                <g id="Grupo_1108341" data-name="Grupo 1108341" transform="translate(385.184 68.325)" opacity="0.7">
                  <g id="Grupo_1108340" data-name="Grupo 1108340">
                    <g id="Grupo_1108339" data-name="Grupo 1108339" clip-path="url(#clip-path-6)">
                      <path id="Trazado_902839" data-name="Trazado 902839" d="M470.283,96.766c3.563,4.145,8.923,6.139,14.674,6.531-1.434-1.243-2.192-3.526-1.951-7.8.787-13.946-14.952-17.328-12.985-2.536a27.414,27.414,0,0,1,.262,3.8" transform="translate(-469.85 -83.343)" fill="#d18b82"/>
                    </g>
                  </g>
                </g>
                <path id="Trazado_902840" data-name="Trazado 902840" d="M451.571,136.814s7.689-16.585,4.912-23.259c0,0-11.87-8.486-20.773,2.076,0,0-26.4,24.128-24.184,31.729S435.977,180.366,438.573,180s5.007-4.447,5.007-4.447,10.934,4.455,0-1.854c0,0,13.714,5.568.928-1.853,0,0,14.085,4.826.927-1.112,0,0,11.307,1.489-.556-1.483,0,0-2.595,0-5.377,3.334l-12.777-24.475s16.688-10,19.654-9.629a7.077,7.077,0,0,0,5.191-1.666" transform="translate(-74.133 -19.881)" fill="#ffac9d"/>
                <path id="Trazado_902841" data-name="Trazado 902841" d="M451.905,139.628s16.242-10.055,9.281-29.391l2.707-1.546s4.254,15.082,17.016,18.562c0,0,9.281-6.961,8.508-18.562l4.253-.387s14.7,15.855,8.122,34.031c0,0-23.977,7.734-40.993,3.867,0,0-7.734-4.254-8.894-6.574" transform="translate(-81.433 -19.516)" fill="#fddec0"/>
                <path id="Trazado_902842" data-name="Trazado 902842" d="M479.581,55.509s14.4-1.317,17.165,9.979C500.6,81.218,496.71,96,484.392,95.652c-17.377-.5-18.379-16.326-19.132-20.6-1.108-6.278-1.762-18.285,14.321-19.547" transform="translate(-83.75 -9.994)" fill="#ffac9d"/>
                <path id="Trazado_902843" data-name="Trazado 902843" d="M470.595,57.627s7.391,10.126,19.8,10.461l-7.265-4.873s7.951,7.169,17.518,2.736c0,0-1.827-14.886-15.944-16.021,0,0,9.456-.225,13.355,4.517,0,0-10.924-17.191-29.335-4.556,0,0-9.713-3.719-13.275,7.677-3.906,12.5,3.085,23.477,11.166,27.279l-1.837-6.475s-4.568,2.423-4.914-3.246,3.787-8.712,4.819-.746c0,0,2.677-2.377,2.065-10.352,0,0,3.984-.516,3.843-6.4" transform="translate(-81.871 -8.155)" fill="#6f96bd"/>
                <g id="Grupo_1108344" data-name="Grupo 1108344" transform="translate(372.467 38.63)" opacity="0.7">
                  <g id="Grupo_1108343" data-name="Grupo 1108343">
                    <g id="Grupo_1108342" data-name="Grupo 1108342" clip-path="url(#clip-path-7)">
                      <path id="Trazado_902844" data-name="Trazado 902844" d="M477.512,63.7c-4.529-5.13-5.429-11.147-3.088-16.58a29.706,29.706,0,0,0-5.7,3.107s-9.711-3.719-13.273,7.677c-3.907,12.5,3.084,23.477,11.165,27.279l-1.836-6.475s-4.568,2.423-4.914-3.246,3.787-8.712,4.818-.746c0,0,2.677-2.377,2.066-10.352,0,0,3.983-.516,3.842-6.4a29.084,29.084,0,0,0,8.245,7.1c-.453-.423-.9-.871-1.327-1.358" transform="translate(-454.338 -47.121)" fill="#4b687f"/>
                    </g>
                  </g>
                </g>
                <path id="Trazado_902845" data-name="Trazado 902845" d="M493.159,80.927c.313.289.577.619.857.917s.535.611.807.894c.14.138.263.29.41.413s.284.256.43.377c.287.248.617.453.939.685l.625.451-.648.366c-.235.132-.466.278-.705.428l-.708.5a8.139,8.139,0,0,1-1.562.942,15.188,15.188,0,0,1,1.083-1.465,6.7,6.7,0,0,1,.649-.665,4.978,4.978,0,0,1,.778-.569l-.024.817c-.179-.12-.366-.221-.535-.358s-.348-.265-.507-.421a3.453,3.453,0,0,1-.457-.479,5.186,5.186,0,0,1-.394-.52,8.172,8.172,0,0,1-1.036-2.31" transform="translate(-88.866 -14.583)" fill="#b56252"/>
                <path id="Trazado_902846" data-name="Trazado 902846" d="M492.431,92.534s-.119.121-.335.321l-.4.35a2.554,2.554,0,0,1-.55.41c-.227.123-.478.259-.753.39-.137.065-.278.14-.425.2s-.3.084-.462.125c-.316.074-.641.185-.981.232l-1.042.057a5.233,5.233,0,0,1-1.038-.1,3.767,3.767,0,0,1-.981-.23c-.311-.1-.6-.225-.88-.334-.262-.148-.5-.307-.714-.45a2.365,2.365,0,0,1-.553-.433c-.148-.15-.269-.288-.369-.4-.2-.223-.3-.353-.3-.353l.421.2.455.24a3.178,3.178,0,0,0,.608.25c.228.079.467.169.717.266.268.055.548.108.83.182a4.458,4.458,0,0,0,.889.127,4.564,4.564,0,0,0,.923.058l.928-.018.892-.132c.146-.021.289-.046.431-.059.136-.031.262-.075.391-.111.253-.078.5-.139.735-.2a3.663,3.663,0,0,0,.63-.242l.489-.2c.275-.106.437-.158.437-.158" transform="translate(-86.974 -16.637)" fill="#b56252"/>
                <path id="Trazado_902847" data-name="Trazado 902847" d="M484.236,73.294s-.178-.088-.479-.254c-.148-.086-.334-.187-.544-.285s-.435-.227-.7-.333-.541-.234-.846-.334c-.3-.121-.626-.192-.956-.289a7.863,7.863,0,0,0-1.035-.174,6.66,6.66,0,0,0-1.071-.037,6.373,6.373,0,0,0-1.055.147,6.525,6.525,0,0,0-.994.3,7.436,7.436,0,0,0-.89.425,8.3,8.3,0,0,0-.765.475c-.241.149-.429.331-.62.467a5.891,5.891,0,0,0-.464.394l-.411.353s.089-.174.262-.475a3.583,3.583,0,0,1,.344-.526,5.325,5.325,0,0,1,.524-.633,6.365,6.365,0,0,1,1.668-1.258,4.435,4.435,0,0,1,.543-.239,2.652,2.652,0,0,1,.58-.19,7.154,7.154,0,0,1,1.23-.206,7.666,7.666,0,0,1,1.24.077,6.184,6.184,0,0,1,1.157.285,7.2,7.2,0,0,1,1.836.96,5.708,5.708,0,0,1,.641.514,3.792,3.792,0,0,1,.446.434c.233.253.361.4.361.4" transform="translate(-85.307 -12.725)" fill="#211823"/>
                <path id="Trazado_902848" data-name="Trazado 902848" d="M492.2,73.151a4.9,4.9,0,0,1,.773-1.41,5.785,5.785,0,0,1,1.2-1.181,5.443,5.443,0,0,1,.831-.505,5.234,5.234,0,0,1,.964-.334,4.464,4.464,0,0,1,2,0,5.014,5.014,0,0,1,.859.3,3.491,3.491,0,0,1,.7.394,2.721,2.721,0,0,1,.533.4c.146.133.266.257.366.356.2.2.3.321.3.321s-.155-.057-.41-.162l-.449-.2a4.257,4.257,0,0,0-.586-.214,5.6,5.6,0,0,0-.687-.21c-.249-.037-.5-.118-.767-.139a5.264,5.264,0,0,0-.813-.019,3.3,3.3,0,0,0-.821.121,4.254,4.254,0,0,0-.8.244c-.25.123-.515.219-.747.363s-.468.271-.675.423-.4.3-.589.43c-.71.571-1.171,1.024-1.171,1.024" transform="translate(-88.693 -12.542)" fill="#211823"/>
                <path id="Trazado_902849" data-name="Trazado 902849" d="M478.815,80.8c.143,1.408.65,2.509,1.134,2.459s.76-1.23.618-2.636-.65-2.509-1.134-2.459-.76,1.229-.618,2.636" transform="translate(-86.275 -14.084)" fill="#211823"/>
                <path id="Trazado_902850" data-name="Trazado 902850" d="M495.108,78.638c.124,1.231.567,2.195.991,2.152s.665-1.076.541-2.307-.569-2.195-.992-2.152-.666,1.076-.54,2.307" transform="translate(-89.212 -13.754)" fill="#211823"/>
                <path id="Trazado_902851" data-name="Trazado 902851" d="M465.734,79.549s-.146-5.59-3.452-5.61-2.827,13.392,1.88,10.727c6.651-3.767,1.572-5.117,1.572-5.117" transform="translate(-82.919 -13.324)" fill="#ffac9d"/>
                <path id="Trazado_902852" data-name="Trazado 902852" d="M463.185,83.865a3.46,3.46,0,0,1-.645-.605,1.712,1.712,0,0,1-.409-.873,1.387,1.387,0,0,1,.022-.293,1.642,1.642,0,0,1,.131-.284c.065-.074.135-.148.209-.219l.235-.142a2.487,2.487,0,0,1,.48-.171l.469-.079-.358.315c.081-.809.137-1.638.162-2.445.009-.4,0-.808-.022-1.2a3.886,3.886,0,0,0-.2-1.08.835.835,0,0,0-.2-.331.393.393,0,0,0-.249-.084l-.311.049-.2.069c-.068.033-.136.08-.208.117l-.187.164a3.585,3.585,0,0,0-.665,2.22,3.724,3.724,0,0,1-.2-1.275,2.5,2.5,0,0,1,.367-1.331,1.841,1.841,0,0,1,.548-.533c.12-.063.255-.131.375-.18l.3-.09a1.185,1.185,0,0,1,.941.175,1.649,1.649,0,0,1,.532.667,4.309,4.309,0,0,1,.316,1.366,8.653,8.653,0,0,1,.015,1.311,11.858,11.858,0,0,1-.125,1.28c-.064.425-.129.84-.234,1.263l-.075.307-.282.008-.387.011a3.352,3.352,0,0,0-.345.066l-.15.05a.731.731,0,0,1-.108.072l-.073.093c-.007.043-.032.08-.038.132a1.443,1.443,0,0,0,.159.729,5.3,5.3,0,0,0,.413.748" transform="translate(-83.078 -13.615)" fill="#b56252"/>
              </g>
              <g id="Grupo_1108347" data-name="Grupo 1108347" transform="translate(225.841 272.477)" opacity="0.1">
                <g id="Grupo_1108346" data-name="Grupo 1108346">
                  <g id="Grupo_1108345" data-name="Grupo 1108345" clip-path="url(#clip-path-8)">
                    <path id="Trazado_902853" data-name="Trazado 902853" d="M388.4,341.651c0,5.126-25.279,9.281-56.461,9.281s-56.46-4.155-56.46-9.281,25.278-9.281,56.46-9.281,56.461,4.155,56.461,9.281" transform="translate(-275.483 -332.37)" fill="#211823"/>
                  </g>
                </g>
              </g>
              <path id="Trazado_902854" data-name="Trazado 902854" d="M360.532,70.822c.228,0,7.137,2.885,7.137,2.885l.455,4.024L366.909,81l-5.921,3.113-1.822-5.694Z" transform="translate(-64.721 -12.762)" fill="#352c38"/>
              <path id="Trazado_902855" data-name="Trazado 902855" d="M338.878,27.848c0-.028,0-.056,0-.084,0-.045-.011-.09-.019-.135s-.01-.062-.017-.093a1.206,1.206,0,0,0-.035-.121c-.007-.025-.012-.051-.021-.075,0,0-.043-.116-.132-.318a.779.779,0,0,0-.727-.547,1.885,1.885,0,0,0-.033-.666c-.025-.1-.033-.183-.074-.316a1.445,1.445,0,0,0-.125-.315c-.01-.02-.025-.033-.036-.052l-.007-.034c-.012-.043-.027-.085-.042-.128-.009-.026-.015-.053-.025-.08,0,0-.052-.121-.156-.334a1.015,1.015,0,0,0-.563-.533.85.85,0,0,0-.158-.13c0-.008.009-.016.012-.025a1.412,1.412,0,0,0,.107-.3,2.182,2.182,0,0,0,.047-.33,1.841,1.841,0,0,0-.023-.336,1.254,1.254,0,0,0-.084-.321c-.076-.212-.165-.361-.247-.544l-.062-.132c-.039-.071-.054-.089-.082-.135a1.151,1.151,0,0,0-.191-.238.94.94,0,0,0-.493-.257.671.671,0,0,0-.268,0,.567.567,0,0,0-.2.056.8.8,0,0,0-.416-.15,1.354,1.354,0,0,0,.1-.2,1.444,1.444,0,0,0,.09-.311,1.361,1.361,0,0,0,.031-.322,1.871,1.871,0,0,0-.026-.325,1.566,1.566,0,0,0-.234-.576,3.484,3.484,0,0,0-.356-.414,2.613,2.613,0,0,0-.192-.2.962.962,0,0,0-.213-.152.7.7,0,0,0-.256-.091.8.8,0,0,0-.258-.011,1.046,1.046,0,0,0-.688.442.805.805,0,0,0-.089.135l-.038.078-.03.014a.766.766,0,0,0-.234-.06l.08-.228v0l0-.007c.016-.089.036-.174.048-.267a2.346,2.346,0,0,0,0-.3,1.667,1.667,0,0,0-.047-.289,1.31,1.31,0,0,0-.093-.27,1.211,1.211,0,0,0-.31-.434.944.944,0,0,0-.2-.143,1.629,1.629,0,0,0-.2-.093l-.2-.084a1.5,1.5,0,0,0-.213-.08.686.686,0,0,0-.224-.035.765.765,0,0,0-.239.029.979.979,0,0,0-.425.256,1.078,1.078,0,0,0-.172.209,1.118,1.118,0,0,0-.109.2,1.24,1.24,0,0,0-.222.144c-.03.034-.064.065-.1.1a1.267,1.267,0,0,0-.04-.294,1.555,1.555,0,0,0-.135-.384,1.337,1.337,0,0,0-.209-.3.958.958,0,0,0-.477-.3c-.047-.048-.1-.094-.14-.146a2.637,2.637,0,0,0-.209-.209,1.008,1.008,0,0,0-.232-.16.767.767,0,0,0-.278-.1.9.9,0,0,0-.282-.011,1.14,1.14,0,0,0-.748.466.745.745,0,0,0-.1.143l-.042.082-.032.014a.872.872,0,0,0-.255-.062l.088-.24v-.01c.017-.094.04-.183.053-.282a2.447,2.447,0,0,0,0-.32,1.625,1.625,0,0,0-.051-.3,1.318,1.318,0,0,0-.1-.284,1.284,1.284,0,0,0-.337-.457,1.059,1.059,0,0,0-.221-.15,1.74,1.74,0,0,0-.223-.1l-.218-.089a1.565,1.565,0,0,0-.232-.084.779.779,0,0,0-.243-.038.876.876,0,0,0-.26.03,1.077,1.077,0,0,0-.462.27,1.424,1.424,0,0,0-.306.429,1.36,1.36,0,0,0-.242.152c-.033.036-.07.069-.1.1a1.247,1.247,0,0,0-.043-.31,1.6,1.6,0,0,0-.147-.4,1.436,1.436,0,0,0-.228-.321,1.138,1.138,0,0,0-.29-.231,1.034,1.034,0,0,0-.33-.116,1.319,1.319,0,0,0-.328-.01l-.3.017a1.517,1.517,0,0,0-.166.014l-.149.029a1.123,1.123,0,0,0-.331.166,1.149,1.149,0,0,0-.27.269,1.418,1.418,0,0,0-.2.352,1.861,1.861,0,0,0-.1.331,1.484,1.484,0,0,0-.266.248c-.014.02-.021.045-.034.066-.011-.028-.02-.055-.034-.084s0-.03,0-.045a1.072,1.072,0,0,0-1.258-.993q-.273.079-.552.178a1.216,1.216,0,0,0-.723.949,1.565,1.565,0,0,0-.166.446c0,.02-.007.04-.01.06a1.45,1.45,0,0,0-.239.594,1.6,1.6,0,0,0-.052-.161.953.953,0,0,0-1.421-.544c-.16.107-.321.219-.484.336a1.307,1.307,0,0,0-.481.783c-.026.05-.057.1-.082.148a1.812,1.812,0,0,0-.1.333,1.487,1.487,0,0,0-.036.353c0,.015,0,.03,0,.045a1.456,1.456,0,0,0-.169.415.9.9,0,0,0-1.408-.152l-.078.078a2.5,2.5,0,0,0-.223.18l-.212.18-.053.045-.013.011-.025.025-.025.026-.1.1a1.97,1.97,0,0,0-.191.289,1.915,1.915,0,0,0-.12.333,1.689,1.689,0,0,0-.05.511,1.505,1.505,0,0,0-.207.639.916.916,0,0,0-.2-.076c-.025-.013-.05-.029-.075-.039a1.093,1.093,0,0,0-.289-.086,1.118,1.118,0,0,0-.3.014.875.875,0,0,0-.284.1,1.044,1.044,0,0,0-.256.187c-.084.072-.138.143-.208.214l-.2.214a2.6,2.6,0,0,0-.2.247,1.876,1.876,0,0,0-.158.333,1.585,1.585,0,0,0-.083.357,1.655,1.655,0,0,0,0,.45,1.568,1.568,0,0,0-.174.72.855.855,0,0,0-.248-.123,1,1,0,0,0-.3-.052,1.064,1.064,0,0,0-.3.05.941.941,0,0,0-.279.141,1.974,1.974,0,0,0-.434.467l-.184.243a2.774,2.774,0,0,0-.175.282,1.8,1.8,0,0,0-.125.362,1.566,1.566,0,0,0-.047.372,2.144,2.144,0,0,0,.026.376c.008.028.015.057.021.086a1.612,1.612,0,0,0-.123.685.8.8,0,0,0-.262-.093.981.981,0,0,0-.3-.015,1.118,1.118,0,0,0-.294.089.956.956,0,0,0-.266.179,2.151,2.151,0,0,0-.4.525l-.166.268a2.43,2.43,0,0,0-.149.311,1.84,1.84,0,0,0-.1.757,1.9,1.9,0,0,0,.111.475,1.618,1.618,0,0,0-.084.655.783.783,0,0,0-.283-.066.962.962,0,0,0-.3.024,1.1,1.1,0,0,0-.285.126,1.02,1.02,0,0,0-.252.212,1.431,1.431,0,0,0-.2.283c-.057.1-.1.194-.149.291l-.144.289a2.321,2.321,0,0,0-.123.333,1.685,1.685,0,0,0,.142,1.267,1.633,1.633,0,0,0-.054.612l0,0a.8.8,0,0,0-.307-.031,1.04,1.04,0,0,0-.3.064,1.2,1.2,0,0,0-.271.164,1.047,1.047,0,0,0-.23.243,1.531,1.531,0,0,0-.175.306l-.124.307-.121.3a2.347,2.347,0,0,0-.094.344,1.865,1.865,0,0,0,.025.758,1.672,1.672,0,0,0,.249.524,1.637,1.637,0,0,0-.031.58c-.012,0-.021-.006-.035-.007a.747.747,0,0,0-.3.011,1.09,1.09,0,0,0-.284.1,1.243,1.243,0,0,0-.25.2,1.066,1.066,0,0,0-.2.268,1.711,1.711,0,0,0-.147.321l-.1.316-.094.315a2.629,2.629,0,0,0-.067.348,1.83,1.83,0,0,0,.08.741,1.47,1.47,0,0,0,.325.546,1.629,1.629,0,0,0-.007.549.6.6,0,0,0-.078,0,.968.968,0,0,0-.557.2,1.253,1.253,0,0,0-.225.226,1.226,1.226,0,0,0-.177.288,1.8,1.8,0,0,0-.117.331l-.07.321-.068.318a3.142,3.142,0,0,0-.042.344,1.793,1.793,0,0,0,.029.374,1.408,1.408,0,0,0,.1.341,1.683,1.683,0,0,0,.158.3,1.482,1.482,0,0,0,.218.238l.03.023a1.638,1.638,0,0,0,.011.526,1.3,1.3,0,0,0-.132.018,1.1,1.1,0,0,0-.271.1,1.493,1.493,0,0,0-.239.183,1.426,1.426,0,0,0-.344.548,2.068,2.068,0,0,0-.087.334l-.043.319-.042.316c-.013.134-.016.218-.017.336a1.84,1.84,0,0,0,.051.357,1.339,1.339,0,0,0,.113.321,1.3,1.3,0,0,0,.389.5c.036.025.072.05.109.073l0,.03a1.625,1.625,0,0,0,.031.479c-.065.012-.134.034-.2.05a1.182,1.182,0,0,0-.455.354,1.49,1.49,0,0,0-.282.569,3.171,3.171,0,0,0-.075.641l-.017.309c-.007.127,0,.212,0,.321a1.9,1.9,0,0,0,.068.339,1.3,1.3,0,0,0,.123.3,1.572,1.572,0,0,0,.172.258,1.314,1.314,0,0,0,.22.194.827.827,0,0,0,.217.111l0,.11A1.657,1.657,0,0,0,300,51.4a.917.917,0,0,0-.279.116,1.186,1.186,0,0,0-.392.406,1.3,1.3,0,0,0-.134.273,1.848,1.848,0,0,0-.084.3,3.385,3.385,0,0,0-.023.616l0,.3c0,.1.015.217.021.306a1.627,1.627,0,0,0,.207.592,1.207,1.207,0,0,0,.384.416.834.834,0,0,0,.238.117.354.354,0,0,0,.113.029c0,.063.007.126.011.19a1.741,1.741,0,0,0,.032.231l0,.054a.975.975,0,0,0-.153.061,1.112,1.112,0,0,0-.21.149,1.308,1.308,0,0,0-.324.444,1.728,1.728,0,0,0-.153.572,4.138,4.138,0,0,0,.023.581l.023.278c0,.091.025.2.037.285a1.577,1.577,0,0,0,.216.545,1.19,1.19,0,0,0,.37.38.847.847,0,0,0,.225.108.359.359,0,0,0,.155.03c0,.087-.007.176,0,.257l.025.277a1.145,1.145,0,0,0-.313.271,1.42,1.42,0,0,0-.252.466,1.831,1.831,0,0,0-.091.553,4.516,4.516,0,0,0,.06.539l.037.258c.009.05.007.071.025.145l.034.124c.025.082.043.166.072.248l.138.239a.613.613,0,0,0,.163.2,1.459,1.459,0,0,0,.185.161l.212.1a.363.363,0,0,0,.144.042,2.7,2.7,0,0,0,.017.341l.052.35a1.514,1.514,0,0,0-.414.731,1.688,1.688,0,0,0-.054.485,2.544,2.544,0,0,0,.066.472c.009.043.01.06.027.125l.035.106.07.211a1.776,1.776,0,0,0,.12.2.723.723,0,0,0,.138.182l.161.142a.548.548,0,0,0,.178.1,1.012,1.012,0,0,0,.193.075l.1.011-.03.212a.726.726,0,0,0,0,.169l.014.17a2.347,2.347,0,0,0,.053.315l.016.076,0,.019.009.033.012.036.048.146a.854.854,0,0,0,.131.285.951.951,0,0,0,.189.251,1.375,1.375,0,0,0,.225.183l.254.113L302.4,68l-.214-.111a1.251,1.251,0,0,1-.184-.166c-.069-.05-.1-.138-.141-.2-.021-.036-.044-.066-.063-.107l-.043-.148-.043-.148-.009-.031v0l0-.019-.013-.078a1.994,1.994,0,0,1-.039-.3l0-.135a.479.479,0,0,1,0-.133l.047-.263.043-.237-.183-.031-.18-.03c-.024-.007-.088-.047-.129-.066s-.1-.035-.133-.084l-.117-.116c-.047-.033-.058-.088-.087-.128a1.238,1.238,0,0,1-.079-.133l-.063-.215-.025-.084,0-.011,0-.029-.009-.056c-.01-.071-.03-.161-.031-.212a.977.977,0,0,1-.008-.176,1.135,1.135,0,0,1,.053-.343,1.059,1.059,0,0,1,.138-.3,1.017,1.017,0,0,1,.2-.219l.154-.133-.03-.238-.034-.281A1.133,1.133,0,0,0,302.1,64a.855.855,0,0,0,.161-.02,1.53,1.53,0,0,0,.03.3c.025.128.053.257.08.386a1.489,1.489,0,0,0-.474,1.558q.084.317.171.635a1.117,1.117,0,0,0,.932.889.856.856,0,0,0,.137-.007,1.615,1.615,0,0,0,.048.345c.041.153.084.307.125.461a1.611,1.611,0,0,0-.275,1.522l.084.256a1.093,1.093,0,0,0,.908.8.839.839,0,0,0,.207-.015,1.63,1.63,0,0,0,.064.707l.1.308a1.093,1.093,0,0,0,.909.81.858.858,0,0,0,.464-.1,1.461,1.461,0,0,0,.565-1.727l-.1-.3a1.035,1.035,0,0,0-1.117-.8,1.638,1.638,0,0,0-.067-.717l-.011-.032a1.554,1.554,0,0,0,.294-1.422q-.082-.3-.161-.6a1.464,1.464,0,0,0-.1-.225.919.919,0,0,0,.613.257.783.783,0,0,0,.136-.017,1.624,1.624,0,0,0,.064.341c.048.15.1.3.147.451a1.627,1.627,0,0,0-.2,1.539l.1.25a1.056,1.056,0,0,0,.943.736.843.843,0,0,0,.206-.03,1.611,1.611,0,0,0,.1.7l.116.3a1.056,1.056,0,0,0,.945.742.87.87,0,0,0,.458-.134,1.187,1.187,0,0,0,.446-.519,1.634,1.634,0,0,0,.118.75l.106.243a1.027,1.027,0,0,0,.969.681.9.9,0,0,0,.2-.041,1.59,1.59,0,0,0,.122.694l.127.293a1.027,1.027,0,0,0,.971.686.89.89,0,0,0,.453-.16,1.505,1.505,0,0,0,.427-1.766.883.883,0,0,0,.248-.106.745.745,0,0,0,.512.18.691.691,0,0,0,.179-.039,1.613,1.613,0,0,0,.109.659l.112.278a.913.913,0,0,0,.853.654.739.739,0,0,0,.4-.149,1.454,1.454,0,0,0,.438-1.447c.022-.006.044-.007.066-.014a1.691,1.691,0,0,0,.1.658l.108.279a.883.883,0,0,0,.817.656.683.683,0,0,0,.38-.148,1.511,1.511,0,0,0,.389-1.541.885.885,0,0,0,.1.012.751.751,0,0,0,.188-.039,1.56,1.56,0,0,0,.112.659l.117.278a.945.945,0,0,0,.892.651.8.8,0,0,0,.416-.152,1.457,1.457,0,0,0,.393-1.675.765.765,0,0,0,.228-.1.674.674,0,0,0,.47.171.621.621,0,0,0,.165-.037,1.582,1.582,0,0,0,.1.625l.1.264a.843.843,0,0,0,.784.621.666.666,0,0,0,.365-.142,1.408,1.408,0,0,0,.4-1.372c.02-.006.04-.007.06-.014a1.643,1.643,0,0,0,.1.625l.1.264a.816.816,0,0,0,.75.622.614.614,0,0,0,.349-.141,1.5,1.5,0,0,0,.316-1.606l-.1-.258c-.182-.488-.56-.713-.909-.589a1.657,1.657,0,0,0-.1-.634l-.01-.026a1.362,1.362,0,0,0,.12-.262,1.288,1.288,0,0,0,.066.234l.1.231a.986.986,0,0,0,.93.646.865.865,0,0,0,.2-.039,1.506,1.506,0,0,0,.117.659l.122.278a.988.988,0,0,0,.933.651.861.861,0,0,0,.436-.152,1.415,1.415,0,0,0,.41-1.675.832.832,0,0,0,.239-.1.723.723,0,0,0,.491.171.679.679,0,0,0,.172-.036,1.531,1.531,0,0,0,.1.625l.108.264a.878.878,0,0,0,.819.621.719.719,0,0,0,.382-.143,1.368,1.368,0,0,0,.421-1.372c.021,0,.042-.007.062-.013a1.586,1.586,0,0,0,.1.625l.1.264a.847.847,0,0,0,.785.622.664.664,0,0,0,.365-.141,1.448,1.448,0,0,0,.33-1.606l-.1-.258c-.19-.488-.585-.714-.95-.589a1.587,1.587,0,0,0-.1-.634l-.01-.027a1.562,1.562,0,0,0,.135-1.3q-.087-.258-.172-.514c-.166-.5-.549-.77-.921-.679a1.553,1.553,0,0,0-.066-.311l-.084-.255a1.479,1.479,0,0,0,.278-1.369c-.049-.176-.1-.353-.144-.529-.149-.557-.563-.865-.963-.753a1.682,1.682,0,0,0-.046-.261c-.025-.09-.048-.18-.072-.271a1.378,1.378,0,0,0,.434-1.4q-.059-.272-.115-.544c-.125-.606-.562-.965-.994-.838a1.693,1.693,0,0,0-.027-.212c-.022-.1-.042-.209-.063-.314a1.254,1.254,0,0,0,.594-1.372c-.028-.184-.056-.37-.081-.553-.092-.644-.538-1.062-1-.947l-.016.007a1.432,1.432,0,0,0-.01-.143c-.017-.129-.034-.257-.05-.384l.015,0a1.15,1.15,0,0,0,.735-1.312c-.017-.187-.032-.373-.047-.559-.051-.652-.461-1.131-.933-1.064a.542.542,0,0,0-.071.02c0-.026,0-.051,0-.077-.012-.16-.021-.32-.031-.48a.589.589,0,0,0,.075.008h.018c.458-.026.816-.562.8-1.208,0-.188-.008-.375-.01-.562-.008-.655-.393-1.184-.859-1.181a.6.6,0,0,0-.116.016q0-.283,0-.564a.039.039,0,0,1,0-.01.586.586,0,0,0,.119.03.67.67,0,0,0,.1,0c.423-.024.771-.489.8-1.1.008-.189.018-.375.029-.562.036-.653-.312-1.228-.778-1.286a.579.579,0,0,0-.146,0c.012-.158.023-.316.036-.473,0-.039,0-.075,0-.114a.71.71,0,0,0,.152.06.634.634,0,0,0,.179.016c.389-.022.726-.423.79-.985.02-.184.043-.369.066-.552a1.233,1.233,0,0,0-.685-1.385.59.59,0,0,0-.159-.019c.018-.123.036-.247.055-.369a1.662,1.662,0,0,0,.018-.22.734.734,0,0,0,.166.091.617.617,0,0,0,.257.041.956.956,0,0,0,.774-.874q.05-.272.1-.541a1.313,1.313,0,0,0-.59-1.467.653.653,0,0,0-.152-.039l.059-.262a1.565,1.565,0,0,0,.038-.325.808.808,0,0,0,.171.125.635.635,0,0,0,.335.076.914.914,0,0,0,.75-.763c.047-.177.093-.352.141-.526a1.388,1.388,0,0,0-.487-1.539.683.683,0,0,0-.13-.051c.016-.052.032-.106.049-.158a1.583,1.583,0,0,0,.069-.422.914.914,0,0,0,.161.148.651.651,0,0,0,.41.122.875.875,0,0,0,.719-.658q.087-.253.176-.5a1.452,1.452,0,0,0-.379-1.6.723.723,0,0,0-.092-.051l.025-.061a1.526,1.526,0,0,0,.1-.51.974.974,0,0,0,.145.161.67.67,0,0,0,.483.179.789.789,0,0,0,.614-.442c-.653-1.283-1.278-2.588-1.843-3.94-.312-.744-.608-1.5-.9-2.255h.007a.662.662,0,0,0,.456-.244c.1-.113.2-.223.3-.33a1.447,1.447,0,0,0,.313-1.08.925.925,0,0,0,.131.083c.02.01.039.021.06.03a.866.866,0,0,0,.261.066.856.856,0,0,0,.223-.017l.028-.007a.88.88,0,0,0,.2-.071c.007,0,.013,0,.019-.007l.014-.009a1.034,1.034,0,0,0,.147-.1c.011-.01.025-.018.036-.029s.022-.015.032-.025a1.013,1.013,0,0,0,.077-.09c.017-.02.034-.038.05-.058a1.357,1.357,0,0,0,.091-.143l.028-.048.01-.007a.712.712,0,0,0,.193-.07.331.331,0,0,0,.019.028c.09.114.142.181.148.189s.011.011.016.017c.016.022.036.039.054.059a1.1,1.1,0,0,0,.148.138c.023.016.045.03.068.045a.436.436,0,0,0,.044.02,1.571,1.571,0,0,0,.24,1.212c.084.114.131.182.137.19s.011.011.015.017.034.039.051.059a1.049,1.049,0,0,0,.138.139c.02.016.041.03.062.045a.808.808,0,0,0,.162.084c.018.007.036.016.054.02a.706.706,0,0,0,.233.031.733.733,0,0,0,.193-.043l.024-.011a.764.764,0,0,0,.166-.091l.016-.008.011-.011a.985.985,0,0,0,.106-.1,1.023,1.023,0,0,0,.1.11c.02.016.04.031.061.045a.721.721,0,0,0,.155.085c.017.007.034.016.052.02a.649.649,0,0,0,.222.032.669.669,0,0,0,.184-.043l.023-.011a.713.713,0,0,0,.158-.09l.016-.008.011-.011a.914.914,0,0,0,.115-.111l.028-.031c.008-.01.017-.017.025-.027.022-.03.039-.063.058-.094s.025-.039.037-.061a1.3,1.3,0,0,0,.066-.146c.007-.019.016-.037.023-.057l0-.007a1.414,1.414,0,0,0,.183.467c.079.125.122.2.128.207s.01.012.014.019c.015.025.032.043.048.066a1.092,1.092,0,0,0,.132.157c.02.019.04.036.061.053a.879.879,0,0,0,.162.107c.018.009.036.02.055.028a.755.755,0,0,0,.239.062.714.714,0,0,0,.2-.016l.026-.007a.845.845,0,0,0,.18-.067.146.146,0,0,1,.017-.007s.008-.007.012-.009a.854.854,0,0,0,.134-.1l.034-.027c.009-.009.02-.015.029-.024a1.031,1.031,0,0,0,.071-.085c.015-.019.031-.035.045-.055a1.142,1.142,0,0,0,.084-.136c.009-.016.019-.032.027-.049a.659.659,0,0,0,.185-.069c.006.008.011.018.016.026.084.107.13.172.136.18s.01.01.015.016.034.036.05.056a.966.966,0,0,0,.136.13c.021.016.041.03.062.043s.027.013.04.02a1.535,1.535,0,0,0,.221,1.149c.078.108.121.172.126.18l.014.016c.014.02.031.036.047.056a.911.911,0,0,0,.125.131c.02.016.039.03.058.043a.709.709,0,0,0,.148.08c.017.007.034.015.05.02a.617.617,0,0,0,.214.03.652.652,0,0,0,.177-.041l.022-.01a.7.7,0,0,0,.152-.086l.015-.008a.117.117,0,0,0,.011-.01.935.935,0,0,0,.1-.093.823.823,0,0,0,.1.1.67.67,0,0,0,.055.043.71.71,0,0,0,.143.08c.016.007.032.015.048.02a.562.562,0,0,0,.2.03.6.6,0,0,0,.17-.04l.021-.01a.662.662,0,0,0,.145-.086l.014-.008.01-.01a.862.862,0,0,0,.106-.106c.008-.01.017-.019.025-.03s.016-.016.023-.025c.02-.028.035-.06.053-.089s.024-.038.034-.057a1.306,1.306,0,0,0,.061-.139c.007-.018.015-.035.021-.053a1.418,1.418,0,0,0,.042-.157c0-.019.009-.037.013-.056.009-.052.016-.1.02-.158,0-.024,0-.047.006-.07,0-.05,0-.1,0-.148m-4.992-2.779a1.268,1.268,0,0,0-.262.444c0-.031-.01-.061-.017-.093s-.025-.085-.039-.127c-.008-.026-.014-.054-.024-.08,0,0-.015-.039-.043-.107a.9.9,0,0,0,.228-.194c.066.039.131.081.2.123a.293.293,0,0,0-.039.034M303.6,59.8l.737,8.622.589,2.726,1.842,1.032,5.011-.811.958-8.105Z" transform="translate(-53.895 -2.492)" fill="#211823"/>
              <path id="Trazado_902856" data-name="Trazado 902856" d="M324.119,24.6a.69.69,0,0,0,.007.072,1.576,1.576,0,0,0,.022.164c0,.02.01.039.014.057.014.056.028.109.046.162.007.02.016.037.024.056a1.117,1.117,0,0,0,.065.143c.011.02.025.039.036.059s.036.063.058.092c.007.01.016.016.024.026l.028.03a.871.871,0,0,0,.113.108l.011.011.016.008a.729.729,0,0,0,.154.088.15.15,0,0,1,.023.01.62.62,0,0,0,.18.039.594.594,0,0,0,.216-.033c.017-.006.034-.014.052-.021a.735.735,0,0,0,.149-.084c.021-.014.039-.029.06-.045a.97.97,0,0,0,.1-.108,1.107,1.107,0,0,0,.1.1l.012.01s.011,0,.015.009a.847.847,0,0,0,.162.088l.025.01a.68.68,0,0,0,.188.04.688.688,0,0,0,.226-.033c.018-.006.035-.014.053-.02a.823.823,0,0,0,.158-.084c.02-.015.04-.029.061-.045a1.118,1.118,0,0,0,.132-.138c.016-.02.034-.037.048-.058s.011-.011.015-.017.052-.075.133-.188a1.559,1.559,0,0,0,.223-1.193c.014-.008.029-.012.043-.021s.043-.028.066-.044a1.066,1.066,0,0,0,.142-.138c.018-.02.037-.036.053-.057s.011-.011.015-.017.056-.075.143-.187c.007-.009.012-.019.018-.028a.71.71,0,0,0,.2.07l.03.051a1.224,1.224,0,0,0,.09.139c.016.02.034.038.049.057s.048.061.076.088c.011.01.021.016.032.025s.023.018.035.028a1.056,1.056,0,0,0,.144.1l.013.009c.006,0,.012,0,.019.007a.821.821,0,0,0,.191.068l.029.007a.737.737,0,0,0,.471-.052c.021-.009.039-.02.059-.03a.9.9,0,0,0,.171-.111c.022-.018.043-.036.065-.056a1.2,1.2,0,0,0,.139-.164c.016-.023.034-.043.049-.068,0-.007.011-.013.015-.02s.052-.086.134-.216a1.426,1.426,0,0,0,.189-.485l0,.007c.007.02.017.039.025.058a1.479,1.479,0,0,0,.071.15c.013.022.027.042.039.062s.04.067.062.1l.028.028c.008.011.02.021.03.033a1,1,0,0,0,.123.114l.011.011.016.009a.777.777,0,0,0,.17.092l.025.011a.716.716,0,0,0,.2.042.706.706,0,0,0,.236-.035c.019-.006.036-.015.056-.022a.759.759,0,0,0,.163-.089c.021-.015.043-.03.064-.048a.975.975,0,0,0,.109-.115.924.924,0,0,0,.113.1l.012.011c.006,0,.011,0,.017.009a.865.865,0,0,0,.176.093l.026.01a.67.67,0,0,0,.452.008.6.6,0,0,0,.057-.022.85.85,0,0,0,.171-.089l.067-.048a1.146,1.146,0,0,0,.143-.145c.017-.021.037-.039.054-.061,0-.007.011-.011.015-.018s.057-.08.145-.2a1.6,1.6,0,0,0,.242-1.258c.016-.009.033-.013.048-.022s.048-.03.07-.048a1.029,1.029,0,0,0,.156-.144.673.673,0,0,0,.057-.061c.006-.007.013-.011.017-.018s.06-.079.155-.2c.007-.009.012-.02.02-.029a.821.821,0,0,0,.207.071l.011.007c.01.016.02.032.03.049a1.383,1.383,0,0,0,.1.147c.017.021.035.04.053.06a1.124,1.124,0,0,0,.084.093c.011.01.022.016.034.025s.026.02.04.03a1.014,1.014,0,0,0,.156.1l.015.01c.007,0,.014,0,.02.007a.89.89,0,0,0,.209.072c.01,0,.019.006.03.007a.884.884,0,0,0,.236.016.933.933,0,0,0,.278-.071c.021-.008.041-.02.062-.031a1.051,1.051,0,0,0,.138-.087,1.472,1.472,0,0,0,.344,1.115c.107.11.212.222.32.339a.711.711,0,0,0,.487.248h.007c-.3.787-.612,1.571-.934,2.345-.588,1.405-1.24,2.764-1.92,4.1a.838.838,0,0,0,.656.452.725.725,0,0,0,.512-.19,1.055,1.055,0,0,0,.152-.167,1.569,1.569,0,0,0,.117.526c.01.02.017.042.027.063a.638.638,0,0,0-.1.053,1.479,1.479,0,0,0-.387,1.658c.066.171.13.344.193.519a.92.92,0,0,0,.77.675.707.707,0,0,0,.434-.131.891.891,0,0,0,.17-.155,1.619,1.619,0,0,0,.078.437c.018.054.035.109.053.163a.77.77,0,0,0-.137.055,1.418,1.418,0,0,0-.5,1.6c.052.18.1.361.155.544a.961.961,0,0,0,.805.783.68.68,0,0,0,.355-.083.825.825,0,0,0,.18-.131,1.627,1.627,0,0,0,.043.337c.023.09.044.181.066.271a.652.652,0,0,0-.161.042,1.347,1.347,0,0,0-.612,1.526q.059.278.115.56a1,1,0,0,0,.832.9.684.684,0,0,0,.272-.045.819.819,0,0,0,.176-.1,1.427,1.427,0,0,0,.021.227c.021.126.041.254.061.381a.632.632,0,0,0-.169.021,1.271,1.271,0,0,0-.715,1.441q.041.284.075.571a1.042,1.042,0,0,0,.849,1.012.682.682,0,0,0,.189-.019.718.718,0,0,0,.161-.063c0,.04,0,.079,0,.118q.022.245.043.489a.651.651,0,0,0-.155,0,1.189,1.189,0,0,0-.813,1.34c.012.193.025.388.035.583a1.082,1.082,0,0,0,.859,1.126.652.652,0,0,0,.106,0,.671.671,0,0,0,.127-.032v.011c0,.194.007.389.007.585a.6.6,0,0,0-.122-.016c-.5,0-.9.553-.9,1.231,0,.193,0,.387,0,.582-.007.67.376,1.221.863,1.244h.019c.028,0,.054-.007.08-.01-.008.166-.018.331-.028.5,0,.027,0,.052,0,.08a.667.667,0,0,0-.077-.02c-.5-.064-.933.436-.981,1.112-.012.193-.028.386-.043.58a1.186,1.186,0,0,0,.794,1.351l.015,0c-.016.133-.032.266-.049.4-.007.05-.007.1-.01.149l-.016-.007c-.487-.116-.958.323-1.048.99-.025.191-.053.383-.081.574a1.29,1.29,0,0,0,.644,1.416c-.02.109-.04.217-.063.326a1.42,1.42,0,0,0-.026.219c-.462-.127-.922.249-1.049.878q-.057.283-.116.565a1.4,1.4,0,0,0,.473,1.44c-.024.094-.048.188-.072.281a1.625,1.625,0,0,0-.048.271c-.425-.111-.863.212-1.016.79-.049.184-.1.366-.148.549a1.5,1.5,0,0,0,.309,1.415l-.086.265a1.51,1.51,0,0,0-.067.323.88.88,0,0,0-.972.712c-.058.178-.116.356-.178.535a1.58,1.58,0,0,0,.157,1.349l-.011.029a1.6,1.6,0,0,0-.106.657.84.84,0,0,0-1,.62l-.1.268a1.475,1.475,0,0,0,.367,1.661.709.709,0,0,0,.389.142.9.9,0,0,0,.827-.653l.108-.275a1.61,1.61,0,0,0,.1-.648c.022.007.043.008.067.013a1.39,1.39,0,0,0,.46,1.417.769.769,0,0,0,.407.143.933.933,0,0,0,.865-.651l.112-.275a1.532,1.532,0,0,0,.1-.648.707.707,0,0,0,.184.035.773.773,0,0,0,.519-.181.894.894,0,0,0,.255.1,1.444,1.444,0,0,0,.452,1.731.935.935,0,0,0,.464.152,1.047,1.047,0,0,0,.985-.684l.127-.289a1.507,1.507,0,0,0,.118-.684.884.884,0,0,0,.21.039,1.046,1.046,0,0,0,.981-.678l.1-.24a1.378,1.378,0,0,0,.07-.243,1.321,1.321,0,0,0,.129.27l-.009.029a1.637,1.637,0,0,0-.1.657c-.372-.125-.771.112-.959.619l-.1.269a1.52,1.52,0,0,0,.353,1.66.665.665,0,0,0,.371.143.865.865,0,0,0,.792-.653l.1-.275a1.634,1.634,0,0,0,.1-.648.564.564,0,0,0,.065.013,1.435,1.435,0,0,0,.44,1.417.719.719,0,0,0,.389.143.893.893,0,0,0,.827-.65l.107-.275a1.6,1.6,0,0,0,.1-.648.691.691,0,0,0,.175.036.728.728,0,0,0,.5-.182.829.829,0,0,0,.243.1,1.486,1.486,0,0,0,.434,1.731.864.864,0,0,0,.444.152,1,1,0,0,0,.942-.683l.121-.289a1.573,1.573,0,0,0,.112-.684.821.821,0,0,0,.2.039.874.874,0,0,0,.11-.014,1.538,1.538,0,0,0,.429,1.593.734.734,0,0,0,.4.151.939.939,0,0,0,.862-.689l.111-.289a1.7,1.7,0,0,0,.1-.684.72.72,0,0,0,.07.015,1.483,1.483,0,0,0,.479,1.494.8.8,0,0,0,.423.151.968.968,0,0,0,.9-.686l.116-.289a1.631,1.631,0,0,0,.109-.683.789.789,0,0,0,.191.038.807.807,0,0,0,.541-.192.939.939,0,0,0,.265.107,1.534,1.534,0,0,0,.471,1.825.961.961,0,0,0,.483.161,1.093,1.093,0,0,0,1.026-.721l.133-.3a1.623,1.623,0,0,0,.123-.721.957.957,0,0,0,.217.041,1.091,1.091,0,0,0,1.023-.716l.11-.253a1.635,1.635,0,0,0,.117-.778,1.236,1.236,0,0,0,.48.533.942.942,0,0,0,.489.134,1.117,1.117,0,0,0,1-.778l.121-.312a1.621,1.621,0,0,0,.1-.727.961.961,0,0,0,.219.029,1.118,1.118,0,0,0,1-.772l.1-.26a1.652,1.652,0,0,0-.233-1.592c.052-.156.1-.312.152-.468a1.652,1.652,0,0,0,.064-.353.9.9,0,0,0,.145.016.987.987,0,0,0,.649-.272,1.432,1.432,0,0,0-.1.234c-.054.206-.108.412-.166.618a1.579,1.579,0,0,0,.327,1.47l-.011.033a1.647,1.647,0,0,0-.064.744,1.1,1.1,0,0,0-1.179.838l-.1.314a1.494,1.494,0,0,0,.618,1.783.93.93,0,0,0,.494.1,1.155,1.155,0,0,0,.958-.848l.106-.321a1.669,1.669,0,0,0,.061-.733.892.892,0,0,0,.219.013,1.155,1.155,0,0,0,.957-.842l.087-.266a1.636,1.636,0,0,0-.307-1.573c.043-.16.087-.319.13-.478a1.628,1.628,0,0,0,.047-.358.869.869,0,0,0,.145.006,1.174,1.174,0,0,0,.982-.93c.06-.221.119-.44.175-.659a1.519,1.519,0,0,0-.519-1.609c.028-.134.057-.268.082-.4a1.7,1.7,0,0,0,.029-.314.963.963,0,0,0,.172.02,1.192,1.192,0,0,0,.993-1l-.034.292-.029.246.166.136a1.024,1.024,0,0,1,.216.225,1.088,1.088,0,0,1,.149.307,1.134,1.134,0,0,1,.061.353.91.91,0,0,1-.007.183c0,.054-.02.148-.03.221l-.011.058,0,.03,0,.011-.025.087-.064.224a1.165,1.165,0,0,1-.084.139c-.029.042-.04.1-.089.133l-.124.121c-.038.051-.094.059-.141.089s-.11.062-.134.07l-.193.034-.194.034.048.246.052.271a.515.515,0,0,1,0,.138l0,.14a1.931,1.931,0,0,1-.039.31l-.014.08,0,.02v0l-.008.033-.045.154-.043.154c-.021.043-.045.073-.066.111-.048.069-.075.159-.148.212a1.258,1.258,0,0,1-.2.175l-.226.116.036.2.269-.12a1.439,1.439,0,0,0,.239-.192.96.96,0,0,0,.2-.262.852.852,0,0,0,.137-.3l.048-.151.012-.039.009-.033,0-.021.015-.079a2.306,2.306,0,0,0,.054-.327l.013-.175a.7.7,0,0,0,0-.175l-.032-.22.1-.012a1.036,1.036,0,0,0,.2-.079.575.575,0,0,0,.188-.1l.169-.148a.717.717,0,0,0,.145-.19,1.7,1.7,0,0,0,.125-.212l.073-.219.038-.11c.016-.068.018-.084.027-.13a2.476,2.476,0,0,0,.065-.489,1.664,1.664,0,0,0-.062-.5,1.553,1.553,0,0,0-.446-.753l.052-.363a2.914,2.914,0,0,0,.015-.353.393.393,0,0,0,.152-.045l.225-.1a1.554,1.554,0,0,0,.2-.168.662.662,0,0,0,.171-.207l.143-.249c.031-.085.049-.171.075-.257l.035-.128a1.17,1.17,0,0,0,.025-.151l.039-.267a4.9,4.9,0,0,0,.057-.559,1.858,1.858,0,0,0-.1-.571,1.446,1.446,0,0,0-.272-.481,1.205,1.205,0,0,0-.335-.276l.024-.287c0-.084,0-.176,0-.266a.377.377,0,0,0,.164-.032.923.923,0,0,0,.239-.114,1.264,1.264,0,0,0,.389-.4,1.581,1.581,0,0,0,.224-.566,2.969,2.969,0,0,0,.038-.3l.021-.289a3.875,3.875,0,0,0,.018-.6,1.781,1.781,0,0,0-.167-.591,1.376,1.376,0,0,0-.349-.456,1.161,1.161,0,0,0-.225-.152.905.905,0,0,0-.163-.061v-.056a1.439,1.439,0,0,0,.032-.24c0-.066.007-.131.01-.2a.378.378,0,0,0,.121-.03.9.9,0,0,0,.252-.124,1.285,1.285,0,0,0,.4-.434,1.664,1.664,0,0,0,.213-.616c.006-.091.023-.216.02-.316l0-.307a3.424,3.424,0,0,0-.03-.638,2.015,2.015,0,0,0-.092-.314,1.363,1.363,0,0,0-.145-.282,1.252,1.252,0,0,0-.421-.416,1,1,0,0,0-.3-.118,1.642,1.642,0,0,0,.044-.4c0-.039,0-.076,0-.114a.871.871,0,0,0,.23-.118,1.38,1.38,0,0,0,.231-.2,1.534,1.534,0,0,0,.18-.27,1.326,1.326,0,0,0,.129-.312,1.9,1.9,0,0,0,.068-.351c0-.113.01-.2,0-.334l-.021-.32a3.251,3.251,0,0,0-.084-.663,1.528,1.528,0,0,0-.307-.587,1.232,1.232,0,0,0-.485-.362c-.07-.016-.142-.038-.212-.05a1.659,1.659,0,0,0,.028-.5l0-.031c.039-.024.078-.049.115-.076a1.347,1.347,0,0,0,.409-.516,1.331,1.331,0,0,0,.117-.334,1.842,1.842,0,0,0,.052-.371c0-.122-.007-.209-.022-.348l-.048-.327-.049-.33a2.194,2.194,0,0,0-.1-.346,1.467,1.467,0,0,0-.371-.563,1.512,1.512,0,0,0-.255-.188,1.25,1.25,0,0,0-.29-.1c-.048-.008-.1-.015-.141-.018a1.663,1.663,0,0,0,.007-.545l.031-.024a1.627,1.627,0,0,0,.23-.248,1.744,1.744,0,0,0,.164-.316,1.345,1.345,0,0,0,.1-.354,1.754,1.754,0,0,0,.026-.387c-.011-.128-.022-.213-.047-.356l-.076-.33-.078-.332a1.811,1.811,0,0,0-.128-.342,1.236,1.236,0,0,0-.19-.3,1.292,1.292,0,0,0-.242-.232,1.039,1.039,0,0,0-.594-.2.549.549,0,0,0-.084,0,1.683,1.683,0,0,0-.012-.569,1.534,1.534,0,0,0,.339-.568,1.826,1.826,0,0,0,.076-.769,2.563,2.563,0,0,0-.075-.36l-.1-.325-.107-.326a1.7,1.7,0,0,0-.159-.332,1.107,1.107,0,0,0-.22-.276,1.425,1.425,0,0,0-.267-.2,1.212,1.212,0,0,0-.3-.1.811.811,0,0,0-.321-.009.256.256,0,0,0-.038.007,1.678,1.678,0,0,0-.038-.6,1.771,1.771,0,0,0,.259-.545,1.889,1.889,0,0,0,.019-.786,2.372,2.372,0,0,0-.1-.356l-.131-.314-.134-.316a1.557,1.557,0,0,0-.189-.316,1.106,1.106,0,0,0-.246-.248,1.337,1.337,0,0,0-.289-.168,1.141,1.141,0,0,0-.314-.062.853.853,0,0,0-.327.035l0,0a1.671,1.671,0,0,0-.065-.635,1.909,1.909,0,0,0,.184-.521,1.878,1.878,0,0,0-.046-.793,2.452,2.452,0,0,0-.133-.343l-.157-.3c-.054-.1-.1-.2-.16-.3a1.481,1.481,0,0,0-.218-.292,1.038,1.038,0,0,0-.269-.216,1.193,1.193,0,0,0-.3-.128,1.027,1.027,0,0,0-.321-.021.85.85,0,0,0-.3.071,1.62,1.62,0,0,0-.1-.678,1.922,1.922,0,0,0,.113-.493,1.859,1.859,0,0,0-.115-.782,2.678,2.678,0,0,0-.162-.321l-.18-.276a2.236,2.236,0,0,0-.425-.54,1.013,1.013,0,0,0-.284-.182,1.211,1.211,0,0,0-.314-.09,1.06,1.06,0,0,0-.321.019.864.864,0,0,0-.275.1,1.622,1.622,0,0,0-.138-.707c.007-.03.014-.061.021-.09a2.067,2.067,0,0,0,.025-.389,1.628,1.628,0,0,0-.053-.385,1.839,1.839,0,0,0-.136-.373,2.741,2.741,0,0,0-.189-.29l-.2-.25a2.043,2.043,0,0,0-.466-.479,1,1,0,0,0-.3-.144,1.23,1.23,0,0,0-.318-.048,1.084,1.084,0,0,0-.315.057.912.912,0,0,0-.263.13,1.6,1.6,0,0,0-.192-.744,1.677,1.677,0,0,0,0-.466,1.653,1.653,0,0,0-.092-.369,1.973,1.973,0,0,0-.171-.343,2.8,2.8,0,0,0-.21-.253l-.215-.22c-.075-.073-.134-.145-.223-.22a1.137,1.137,0,0,0-.273-.19.947.947,0,0,0-.3-.1,1.228,1.228,0,0,0-.315-.011,1.161,1.161,0,0,0-.307.093c-.025.011-.053.028-.079.042a.915.915,0,0,0-.214.08,1.531,1.531,0,0,0-.226-.659,1.7,1.7,0,0,0-.058-.529,1.866,1.866,0,0,0-.13-.343,2.12,2.12,0,0,0-.2-.3l-.106-.107-.025-.026-.028-.026-.014-.011-.057-.046-.227-.184a2.6,2.6,0,0,0-.239-.184l-.084-.08a.97.97,0,0,0-1.493.171,1.5,1.5,0,0,0-.185-.427c0-.016,0-.032,0-.048a1.643,1.643,0,0,0-.043-.365,1.945,1.945,0,0,0-.109-.343c-.028-.052-.06-.1-.089-.152A1.348,1.348,0,0,0,348.7,12c-.175-.12-.346-.234-.519-.344a1.022,1.022,0,0,0-1.5.579,1.7,1.7,0,0,0-.054.166,1.506,1.506,0,0,0-.258-.612c0-.021-.007-.042-.011-.062a1.568,1.568,0,0,0-.182-.46,1.265,1.265,0,0,0-.777-.977c-.2-.066-.393-.125-.588-.178a1.133,1.133,0,0,0-1.327,1.04.31.31,0,0,0,0,.048c-.014.03-.025.058-.035.088-.014-.021-.021-.048-.038-.068a1.565,1.565,0,0,0-.284-.254,1.879,1.879,0,0,0-.106-.342,1.5,1.5,0,0,0-.216-.363,1.253,1.253,0,0,0-.643-.444L342,9.79c-.089-.012-.116-.007-.178-.012l-.318-.015a1.378,1.378,0,0,0-.348.014,1.084,1.084,0,0,0-.35.124,1.224,1.224,0,0,0-.307.242,1.492,1.492,0,0,0-.239.335,1.653,1.653,0,0,0-.152.421,1.265,1.265,0,0,0-.043.322c-.039-.034-.078-.067-.113-.1a1.456,1.456,0,0,0-.258-.155,1.185,1.185,0,0,0-.129-.214,1.172,1.172,0,0,0-.2-.227,1.136,1.136,0,0,0-.493-.275.929.929,0,0,0-.275-.029.8.8,0,0,0-.258.041,1.758,1.758,0,0,0-.247.09l-.23.093a1.953,1.953,0,0,0-.236.1,1.1,1.1,0,0,0-.234.158,1.328,1.328,0,0,0-.353.477,1.356,1.356,0,0,0-.1.3,1.616,1.616,0,0,0-.051.316,2.247,2.247,0,0,0,.007.331c.014.1.039.194.057.292l0,.007v0l.1.248a.928.928,0,0,0-.271.067l-.034-.015-.046-.084a.8.8,0,0,0-.1-.147,1.019,1.019,0,0,0-.234-.237,1.1,1.1,0,0,0-.566-.239.983.983,0,0,0-.3.015.851.851,0,0,0-.3.1,1.105,1.105,0,0,0-.244.168,2.633,2.633,0,0,0-.22.219c-.048.054-.1.1-.148.153a1.1,1.1,0,0,0-.223.09,1.109,1.109,0,0,0-.281.23,1.388,1.388,0,0,0-.22.318,1.59,1.59,0,0,0-.139.4,1.279,1.279,0,0,0-.041.3c-.034-.033-.07-.064-.1-.1a1.363,1.363,0,0,0-.238-.148,1.22,1.22,0,0,0-.117-.2,1.133,1.133,0,0,0-.186-.216,1.04,1.04,0,0,0-.453-.261.807.807,0,0,0-.253-.027.745.745,0,0,0-.238.039,1.593,1.593,0,0,0-.225.085l-.212.089a1.579,1.579,0,0,0-.216.1.975.975,0,0,0-.215.15,1.251,1.251,0,0,0-.325.452,1.288,1.288,0,0,0-.1.28,1.635,1.635,0,0,0-.046.3,2.237,2.237,0,0,0,.007.314c.012.1.035.184.053.277v.009l.089.235a.847.847,0,0,0-.249.064l-.031-.014-.04-.08a.915.915,0,0,0-.1-.139,1.107,1.107,0,0,0-.735-.451.876.876,0,0,0-.274.014.744.744,0,0,0-.271.1.979.979,0,0,0-.225.159,2.749,2.749,0,0,0-.2.207,3.745,3.745,0,0,0-.374.433,1.591,1.591,0,0,0-.242.6,1.784,1.784,0,0,0-.026.337,1.329,1.329,0,0,0,.037.333,1.436,1.436,0,0,0,.1.321,1.364,1.364,0,0,0,.11.207.858.858,0,0,0-.439.16.63.63,0,0,0-.218-.056.734.734,0,0,0-.284.007,1.011,1.011,0,0,0-.522.271,1.223,1.223,0,0,0-.2.248c-.03.049-.045.068-.087.141l-.065.137c-.084.191-.179.346-.257.566a1.367,1.367,0,0,0-.085.334,1.892,1.892,0,0,0-.021.348,2.15,2.15,0,0,0,.052.342,1.423,1.423,0,0,0,.116.314c0,.009.009.017.014.026a.778.778,0,0,0-.166.136,1.063,1.063,0,0,0-.594.557c-.109.221-.162.348-.162.348-.011.027-.017.055-.027.083-.015.043-.031.087-.043.133,0,.011,0,.023-.007.034s-.027.034-.038.054a1.439,1.439,0,0,0-.129.327c-.043.138-.05.221-.076.327a1.9,1.9,0,0,0-.029.69.827.827,0,0,0-.767.574c-.092.21-.137.33-.137.33-.008.025-.015.052-.022.079a1.155,1.155,0,0,0-.036.125c-.007.033-.012.065-.017.1s-.015.093-.02.141c0,.029,0,.057,0,.087,0,.052,0,.1,0,.153m5.234-3.117c.068-.043.138-.088.207-.129a.946.946,0,0,0,.243.2c-.03.071-.044.111-.044.111-.011.027-.016.055-.025.083a1.377,1.377,0,0,0-.039.133.747.747,0,0,0-.017.1,1.322,1.322,0,0,0-.283-.457.521.521,0,0,0-.042-.034" transform="translate(-58.405 -1.758)" fill="#352c38"/>
              <path id="Trazado_902857" data-name="Trazado 902857" d="M318.613,127.4l-.565-4.961S297.135,91,304.78,81.9s20.022,3.641,18.93-16.017,15.653-15.289,14.2-.364.728,12.013,9.465,11.649,13.2,2.164,12.741,10.193c-.728,12.741-13.244,35.206-13.244,35.206L339,137.231Z" transform="translate(-54.618 -9.494)" fill="#965450"/>
              <path id="Trazado_902858" data-name="Trazado 902858" d="M327.209,74.291c5.646-.669,11.065-2.351,14.818-6.253.061-.779.135-1.617.224-2.522,1.456-14.925-15.289-19.294-14.2.364.221,3.983-.111,6.636-.844,8.41" transform="translate(-58.963 -9.494)" fill="#76413b"/>
              <path id="Trazado_902859" data-name="Trazado 902859" d="M338.268,140.233c0,.961-.433,1.74-.967,1.74s-.967-.78-.967-1.74.433-1.74.967-1.74.967.78.967,1.74" transform="translate(-60.607 -24.956)" fill="#76413b"/>
              <path id="Trazado_902860" data-name="Trazado 902860" d="M313.928,137.774s-19.9,12.736-22.558,38.173,8.424,55.863,8.424,55.863-11.211,15.447-11.84,29.635,3.6,41.21,3.6,41.21-28.352,16.947,4.691,2.272c0,0,18.163-36.8,18.013-67.749,0,0,15.411-25.927,16.183-47.758s-.9-49.169-.9-49.169Z" transform="translate(-50.498 -24.827)" fill="#965450"/>
              <path id="Trazado_902861" data-name="Trazado 902861" d="M349.424,134.5s23.578,15.261,26.6,40.657-7.632,55.977-7.632,55.977,11.429,15.287,12.258,29.464-3.016,41.257-3.016,41.257,28.588,16.544-4.658,2.338c0,0-18.682-36.538-18.97-67.488,0,0-15.778-25.706-16.858-47.524s.207-49.177.207-49.177Z" transform="translate(-60.675 -24.237)" fill="#965450"/>
              <path id="Trazado_902862" data-name="Trazado 902862" d="M312.933,141.365s-16.017,9.1-17.109,26.21c0,0,17.473,12.741,35.674,17.838,0,0,25.483-8.737,33.855-21.114,0,0-4.369-15.653-17.473-24.026,0,0-17.11,9.829-34.947,1.092" transform="translate(-53.307 -25.277)" fill="#fddec0"/>
              <path id="Trazado_902863" data-name="Trazado 902863" d="M306.675,101.151s6.948-11.631,3.514-17.844a18.645,18.645,0,0,0-20.976,8.97s-23.465,16.329-20.475,23.507,27.441,29.561,29.934,28.919,4.4-4.882,4.4-4.882,11.154,3.162-.2-1.809c0,0,13.987,3.947.7-1.909,0,0,14.269,3.184.785-1.185,0,0,11.2.227-.7-1.387,0,0-2.533.28-4.886,3.837l-15.124-22.5s15.2-11.57,18.136-11.528a6.949,6.949,0,0,0,4.885-2.188" transform="translate(-48.379 -14.907)" fill="#965450"/>
              <path id="Trazado_902864" data-name="Trazado 902864" d="M363.972,101.151s-6.948-11.631-3.514-17.844a18.645,18.645,0,0,1,20.976,8.97s23.465,16.329,20.475,23.507-27.442,29.561-29.934,28.919-4.4-4.882-4.4-4.882-11.154,3.162.2-1.809c0,0-13.987,3.947-.7-1.909,0,0-14.269,3.184-.785-1.185,0,0-11.2.227.7-1.387,0,0,2.533.28,4.887,3.837l15.123-22.5s-15.2-11.57-18.136-11.528a6.949,6.949,0,0,1-4.885-2.188" transform="translate(-64.782 -14.907)" fill="#965450"/>
              <path id="Trazado_902865" data-name="Trazado 902865" d="M316.922,83.275s-1.456,16.745-10.557,21.114c0,0-3.276,9.465,6.553,13.469,0,0,25.119-1.82,39.315.728,0,0,8.811-2.527,6.954-15.278,0,0-10.23-9.112-11.322-20.761h-3.277S343.5,99.292,333.3,107.665c0,0-10.557-5.825-14.2-24.754Z" transform="translate(-55.112 -14.875)" fill="#fddec0"/>
              <path id="Trazado_902866" data-name="Trazado 902866" d="M328.584,23.618s-10.52,1.345-13.6,12.136c-4.432,15.513,2.759,29.331,14.124,27.85,16.035-2.088,15.548-17.4,15.864-21.573.463-6.138-1.391-18.692-16.385-18.414" transform="translate(-56.52 -4.255)" fill="#965450"/>
              <path id="Trazado_902867" data-name="Trazado 902867" d="M351.149,44.082s.309-4.018,4.019-3.091,1.082,15.612-4.792,13.293.773-10.2.773-10.2" transform="translate(-62.7 -7.361)" fill="#965450"/>
              <path id="Trazado_902868" data-name="Trazado 902868" d="M352.715,53.6a6.675,6.675,0,0,0,.679-.809,2.019,2.019,0,0,0,.379-.893,1.331,1.331,0,0,0,0-.207,1.046,1.046,0,0,0-.055-.182,1.183,1.183,0,0,0-.108-.157c-.029-.054-.107-.088-.155-.133a2.256,2.256,0,0,0-.386-.218l-.459-.152-.251-.082V50.5a22.474,22.474,0,0,1,.231-3.268,14.121,14.121,0,0,1,.321-1.627,6.68,6.68,0,0,1,.624-1.613,2.088,2.088,0,0,1,.685-.737,1.174,1.174,0,0,1,1.178-.027l.345.214a4.568,4.568,0,0,1,.379.35,2.393,2.393,0,0,1,.442.818,3.137,3.137,0,0,1,.131.871,3.746,3.746,0,0,1-.073.844,5.725,5.725,0,0,1-.505,1.561,8.1,8.1,0,0,0,.155-1.59,3.806,3.806,0,0,0-.279-1.471,1.974,1.974,0,0,0-.383-.557l-.228-.18-.361-.176a.376.376,0,0,0-.362.048,1.323,1.323,0,0,0-.362.47,10.913,10.913,0,0,0-.814,2.944c-.167,1.04-.3,2.1-.409,3.155l-.25-.356c.179.079.357.154.532.238a2.228,2.228,0,0,1,.5.367,1.248,1.248,0,0,1,.211.25,1.531,1.531,0,0,1,.147.307,1.208,1.208,0,0,1,0,.659,2.353,2.353,0,0,1-.632.959,4.12,4.12,0,0,1-.865.653" transform="translate(-63.494 -7.763)" fill="#4f2828"/>
              <path id="Trazado_902869" data-name="Trazado 902869" d="M324.185,23.214s-1.408,4.41,2.6,3.5c0,0-1.229,1.842.614,2.457a2.111,2.111,0,0,0,2.61-1.229s-1.382,3.685,1.382,4.146a2.873,2.873,0,0,0,3.426-1.931s-.933,2.392.892,3.083a1.864,1.864,0,0,0,2.439-1.305s-1.843,2.3.767,3.225,2.15-1.843,2.15-1.843,0,3.225,3.838,3.378c0,0-1.756,4.42,1.075,5.835.921.46,1.076-4.147,1.076-4.147l2.918-6.757-10.9-12.745-10.749,1.689Z" transform="translate(-58.375 -3.403)" fill="#352c38"/>
              <path id="Trazado_902870" data-name="Trazado 902870" d="M324.151,21.411s-2.815,0-1.689-2.44,2.909,0,2.909,0-2.018-1.763-1.126-3.66,3-.375,3-.375-2.627-1.5-1.5-3.191,3.288,1.264,3.288,1.264-2.444-3.047-.474-4.361,4.035,2.815,4.035,2.815S330.438,7.9,331.939,7.9s2.533,3,2.533,3-1.22-2.909.469-3.66,5.255,1.032,4.879,3.941-2.064-3.941-.375-4.316,4.973.751,3.847,5.255-.751-3.941,1.97-3.378.751,4.786.751,4.786-.469-3.66,2.909-2.252,0,4.973,0,4.973l-9.733,2.815Z" transform="translate(-58.059 -1.225)" fill="#352c38"/>
              <path id="Trazado_902871" data-name="Trazado 902871" d="M326.49,46.233c-.193.737-.4,1.467-.572,2.191l-.559,2.184c-.2.724-.379,1.454-.585,2.176s-.4,1.45-.608,2.168l-.379-.57a6.287,6.287,0,0,1,1.511.439,3.308,3.308,0,0,1,1.3.908,14.871,14.871,0,0,0-1.483-.255l-1.446-.19-.511-.066.132-.5c.385-1.464.835-2.9,1.34-4.331.253-.712.533-1.417.83-2.117l.477-1.039c.177-.334.363-.665.555-.993" transform="translate(-58.232 -8.331)" fill="#4f2828"/>
              <path id="Trazado_902872" data-name="Trazado 902872" d="M326.162,61.106A7.512,7.512,0,0,0,335.541,60" transform="translate(-58.774 -10.812)" fill="#fff"/>
              <path id="Trazado_902873" data-name="Trazado 902873" d="M332.083,41.956s.108-.157.309-.423a3.824,3.824,0,0,1,.389-.459,5.425,5.425,0,0,1,.569-.553,6.95,6.95,0,0,1,1.676-1.094,5.951,5.951,0,0,1,1.085-.38,7.328,7.328,0,0,1,1.185-.189,6.888,6.888,0,0,1,1.2.084,2.562,2.562,0,0,1,.575.129,4.4,4.4,0,0,1,.544.179,5.062,5.062,0,0,1,.957.489,5.009,5.009,0,0,1,.763.565,5.111,5.111,0,0,1,.562.56,3.453,3.453,0,0,1,.379.474c.194.274.3.434.3.434l-.427-.3a5.856,5.856,0,0,0-.483-.334c-.2-.113-.393-.271-.639-.392a7.941,7.941,0,0,0-.78-.386,7,7,0,0,0-.894-.325,6.657,6.657,0,0,0-2.012-.238,6.506,6.506,0,0,0-1.025.135,7.408,7.408,0,0,0-.98.263c-.307.125-.617.223-.892.366-.284.125-.541.269-.782.4s-.448.27-.644.384-.362.229-.5.325c-.275.188-.437.289-.437.289" transform="translate(-59.841 -7.002)" fill="#211823"/>
              <path id="Trazado_902874" data-name="Trazado 902874" d="M324.888,42.547s-.485-.393-1.221-.876c-.191-.111-.385-.245-.605-.359s-.45-.23-.688-.344-.5-.184-.752-.28a4.123,4.123,0,0,0-.794-.16,3.132,3.132,0,0,0-.8-.04,4.9,4.9,0,0,0-.78.093c-.254.044-.489.145-.726.2a5.482,5.482,0,0,0-.64.266,4.067,4.067,0,0,0-.544.26l-.414.232c-.235.125-.379.193-.379.193s.088-.125.258-.335a4.136,4.136,0,0,1,.794-.808,3.47,3.47,0,0,1,.631-.444,5,5,0,0,1,.8-.365,4.327,4.327,0,0,1,1.924-.186,5.022,5.022,0,0,1,.958.231,5.314,5.314,0,0,1,.846.408,5.6,5.6,0,0,1,1.26,1.025,4.712,4.712,0,0,1,.874,1.284" transform="translate(-57.041 -7.129)" fill="#211823"/>
              <path id="Trazado_902875" data-name="Trazado 902875" d="M339.9,48.578c-.007,1.366-.392,2.472-.862,2.469s-.845-1.111-.839-2.477.392-2.472.862-2.469.845,1.111.839,2.477" transform="translate(-60.943 -8.307)" fill="#211823"/>
              <path id="Trazado_902876" data-name="Trazado 902876" d="M324.076,48.008c-.006,1.2-.343,2.163-.753,2.161s-.739-.972-.735-2.168.343-2.163.754-2.161.739.972.734,2.168" transform="translate(-58.13 -8.26)" fill="#211823"/>
              <g id="Grupo_1108359" data-name="Grupo 1108359" transform="translate(0 272.477)" opacity="0.1">
                <g id="Grupo_1108358" data-name="Grupo 1108358">
                  <g id="Grupo_1108357" data-name="Grupo 1108357" clip-path="url(#clip-path-9)">
                    <path id="Trazado_902897" data-name="Trazado 902897" d="M115.241,341.651c0,5.126-25.8,9.281-57.621,9.281S0,346.777,0,341.651s25.8-9.281,57.621-9.281,57.621,4.155,57.621,9.281" transform="translate(0 -332.37)" fill="#211823"/>
                  </g>
                </g>
              </g>
              <path id="Trazado_902898" data-name="Trazado 902898" d="M76.094,84.4S65.5,83.688,65.1,91.25s3.947,32.961,3.947,32.961-7.844,3.953-11.534,16.311a94.2,94.2,0,0,0-3.608,24.442l25.784-37.78Z" transform="translate(-9.714 -15.205)" fill="#f19c7c"/>
              <g id="Grupo_1108362" data-name="Grupo 1108362" transform="translate(44.195 80.784)" opacity="0.7">
                <g id="Grupo_1108361" data-name="Grupo 1108361">
                  <g id="Grupo_1108360" data-name="Grupo 1108360" clip-path="url(#clip-path-10)">
                    <path id="Trazado_902899" data-name="Trazado 902899" d="M70.944,101.713c-1.95-.97-3.837-2.058-5.709-3.171.735,10.2,3.817,28.222,3.817,28.222s-7.844,3.952-11.533,16.311a94.185,94.185,0,0,0-3.609,24.442l25.784-37.781L77.562,104.4a50.472,50.472,0,0,1-6.618-2.684" transform="translate(-53.909 -98.541)" fill="#dd765e"/>
                  </g>
                </g>
              </g>
              <path id="Trazado_902900" data-name="Trazado 902900" d="M104.039,122.9s18.987,21.483,15.743,45.351-23.115,47.353-23.115,47.353,6.7,12.314.315,30.965-12.387,37.292-12.387,37.292,34.292,13.319-5.248,1.738c0,0-9.7-45.218,1.885-67.762,0,0-1.683-41.51-1.431-47.181,0,0-10.057,23.264-23.569,43.963,0,0,4.13,15.771-6.825,32.635s-22.579,37.52-22.579,37.52-18.009,22.309-1.989-4.488c0,0-4.007-44.1,15.915-65.321,0,0-6.376-65.578,29.687-91.313,0,0-14.091-38.967-6.986-42.148S81.244,83.187,79,67.373l14.51-6.083s-3.75,14.341-.343,14.642,17.718-1.529,17.92,7.532-7.05,39.439-7.05,39.439" transform="translate(-3.279 -11.044)" fill="#f19c7c"/>
              <path id="Trazado_902901" data-name="Trazado 902901" d="M90.676,77.263c5.086-.632,11.066-2.856,14.183-6.331a64.682,64.682,0,0,1,1.714-9.643l-14.51,6.083c.735,5.184.075,8.139-1.387,9.891" transform="translate(-16.34 -11.044)" fill="#dd765e"/>
              <path id="Trazado_902902" data-name="Trazado 902902" d="M97.551,137.691c0,.832-.307,1.507-.685,1.507s-.685-.675-.685-1.507.307-1.507.685-1.507.685.675.685,1.507" transform="translate(-17.332 -24.54)" fill="#dd765e"/>
              <path id="Trazado_902903" data-name="Trazado 902903" d="M115.664,142.025s-17.222,6.806-41.578-1.337c0,0-8.582,4.724-15.031,20.354,0,0,12.133,18.992,28.107,23.923,0,0,20.863-12.93,40.175-10.717a46.964,46.964,0,0,0-11.673-32.222" transform="translate(-10.642 -25.352)" fill="#fddec0"/>
              <path id="Trazado_902904" data-name="Trazado 902904" d="M111.323,79.5s-4.738,16.158,6.979,24.961l-.826,5.307s-25.914,6.622-42.433,2.648c0,0-7.333-7.013-2.972-14.665,0,0,7.587-6.968,7.045-14.321l3.191-.827s-2.833,16.872,9.1,18.3,16.13-21.89,16.13-21.89Z" transform="translate(-12.738 -14.239)" fill="#fddec0"/>
              <path id="Trazado_902906" data-name="Trazado 902906" d="M87.907,25.774s-.093-.232-.27-.666a7.556,7.556,0,0,0-.344-.79l-.57-1a7.624,7.624,0,0,0-2.181-2.154,8.165,8.165,0,0,0-3.727-1.181,12.373,12.373,0,0,0-4.628.605A17.043,17.043,0,0,0,71.5,22.924l-.582.4a5.4,5.4,0,0,0-.5.443,6.447,6.447,0,0,0-.94.945,7.494,7.494,0,0,0-1.354,2.341,19.686,19.686,0,0,0-.8,5.73,12.58,12.58,0,0,1-.545,3.069,11.713,11.713,0,0,1-1.339,2.814,25.726,25.726,0,0,1-3.912,4.406,40.138,40.138,0,0,0-3.679,3.861A4.681,4.681,0,0,0,56.931,49a3.57,3.57,0,0,0,.38,2.063,28.12,28.12,0,0,0,2.295,3.312,7.879,7.879,0,0,1,1.407,2.873A4.4,4.4,0,0,1,60.99,59.3a6.381,6.381,0,0,1-.2.692,6.42,6.42,0,0,0,.139-.7,4.532,4.532,0,0,0-.139-1.979,7.538,7.538,0,0,0-1.535-2.66,22.122,22.122,0,0,1-2.54-3.278,4.284,4.284,0,0,1-.544-2.451,5.466,5.466,0,0,1,.984-2.507,33.755,33.755,0,0,1,3.636-4.086,26.731,26.731,0,0,0,3.68-4.279,10.509,10.509,0,0,0,1.19-2.545,11.4,11.4,0,0,0,.475-2.817,20.544,20.544,0,0,1,.912-6.03,8.186,8.186,0,0,1,1.595-2.664,7.634,7.634,0,0,1,1.107-1.064,7.171,7.171,0,0,1,1.168-.867,16.537,16.537,0,0,1,5.028-2.3,13.106,13.106,0,0,1,4.938-.439A8.118,8.118,0,0,1,84.793,20.8a7.972,7.972,0,0,1,2.127,2.4c.2.4.362.761.5,1.071a7.676,7.676,0,0,1,.273.82l.209.689" transform="translate(-10.118 -3.467)" fill="#211823"/>
              <path id="Trazado_902907" data-name="Trazado 902907" d="M89.13,23.6s-2.771-10.966-15.049-4.307-.007,11.833-12.059,21.871,4.383,8.954-.752,18.352c-.18.329-.341.652-.5.971l.08.039a13.493,13.493,0,0,0,2.616-3.84,19.672,19.672,0,0,1-.707,4.694c.435.169.88.328,1.347.466,1.895.558,3.465,1.206,5.234,1.641a14.062,14.062,0,0,0-.074-4.352,14.982,14.982,0,0,1,.92,4.54,16.6,16.6,0,0,0,2.689.3,11.652,11.652,0,0,0-.257-3.032s.288,1.289.584,3.039a21.85,21.85,0,0,0,3.155-.2,142.011,142.011,0,0,0,16.371-3.738C92.116,44.4,89.13,23.6,89.13,23.6" transform="translate(-10.361 -3.09)" fill="#211823"/>
              <path id="Trazado_902908" data-name="Trazado 902908" d="M89.8,28.964s-10.469-.389-12.814,10.256c-3.266,14.826.451,28.612,11.57,28.039,15.685-.808,16.372-15.671,16.994-19.69.913-5.908-1.209-17.74-15.75-18.6" transform="translate(-13.668 -5.219)" fill="#f19c7c"/>
              <path id="Trazado_902909" data-name="Trazado 902909" d="M111.381,49.772s.6-3.869,4.126-2.69-.134,15.2-5.647,12.51,1.521-9.82,1.521-9.82" transform="translate(-19.417 -8.444)" fill="#f19c7c"/>
              <path id="Trazado_902910" data-name="Trazado 902910" d="M112.249,59.136s3.008-1.873.234-2.994c0,0,.9-7.61,2.921-6.549s.571,4.261.571,4.261" transform="translate(-20.227 -8.918)" fill="#f19c7c"/>
              <path id="Trazado_902911" data-name="Trazado 902911" d="M125.078,56.392a2.082,2.082,0,0,0-.1-.436,2.436,2.436,0,0,0-.182-.407,3.661,3.661,0,0,0-.538-.707l.006,0c-1.272-.808-2.753-1.262-3.936-2.292a3.4,3.4,0,0,1-.735-.921,2.827,2.827,0,0,1-.278-1.159,5.844,5.844,0,0,1,.536-2.255c.274-.707.516-1.42.756-2.131.223-.717.453-1.435.628-2.164l.262-1.094c.077-.366.133-.736.2-1.1.159-.734.171-1.483.258-2.223l0-1.117,0-.558-.061-.553-.125-1.094a9.321,9.321,0,0,0-.263-1.09,7.546,7.546,0,0,0-.968-1.931,9.594,9.594,0,0,0-.677-.864c-.256-.264-.507-.532-.78-.782a15.538,15.538,0,0,0-1.746-1.381c-.61-.43-1.253-.817-1.9-1.2-1.3-.757-2.648-1.445-3.959-2.229l-.082-.049-.039-.113c-.122-.364-.231-.735-.363-1.1-.177-.343-.326-.7-.524-1.031-.225-.314-.41-.657-.66-.953a10.672,10.672,0,0,0-.777-.867,11,11,0,0,0-1.834-1.45,10.915,10.915,0,0,0-1.02-.584c-.358-.162-.7-.366-1.071-.492s-.729-.3-1.11-.4-.753-.234-1.14-.312-.77-.175-1.161-.23-.784-.108-1.178-.138c-.4-.013-.791-.039-1.187-.043L98.136,19l-1.181.162-1.162.275,1.152-.322,1.179-.212,1.2-.106c.4-.013.8,0,1.2-.006.4.013.8.061,1.2.091s.793.125,1.19.185.78.194,1.172.289.762.258,1.145.384.739.321,1.111.48a11.432,11.432,0,0,1,1.066.577,10.613,10.613,0,0,1,1.007.68,10.214,10.214,0,0,1,.932.785,10.915,10.915,0,0,1,.838.891,12.161,12.161,0,0,1,.715,1c.212.35.376.73.566,1.094.145.384.265.779.4,1.168l-.12-.162c1.293.76,2.647,1.44,3.969,2.2.658.383,1.316.771,1.947,1.208a16.159,16.159,0,0,1,1.821,1.419,10.077,10.077,0,0,1,1.535,1.754,8.09,8.09,0,0,1,1.035,2.12,9.648,9.648,0,0,1,.262,1.116c.054.4.084.773.126,1.161l.059.575v.577l-.007,1.153c-.094.76-.114,1.533-.282,2.281-.072.375-.132.754-.214,1.127l-.289,1.108c-.2.738-.444,1.458-.686,2.18-.261.716-.521,1.431-.811,2.128a5.549,5.549,0,0,0-.562,2.113,2.559,2.559,0,0,0,.863,1.9c1.076,1.024,2.552,1.557,3.8,2.418l0,0,0,0a3.7,3.7,0,0,1,.518.742,2.6,2.6,0,0,1,.168.419,2.126,2.126,0,0,1,.084.441" transform="translate(-17.262 -3.387)" fill="#352c38"/>
              <path id="Trazado_902912" data-name="Trazado 902912" d="M92.771,27.417s.184,0,.53,0a10.036,10.036,0,0,1,1.5.127,4.956,4.956,0,0,1,2.228.863,2.192,2.192,0,0,1,.818,1.349,3.064,3.064,0,0,1-.278,1.71c-.239.563-.506,1.021-.715,1.559a7.512,7.512,0,0,0-.492,1.664,3.738,3.738,0,0,0,1,3.248c.112.111.208.234.334.337l.32.28.444.285a1.552,1.552,0,0,0,.432.234,6.029,6.029,0,0,0,1.853.371,11.01,11.01,0,0,1,2.285.289,2.838,2.838,0,0,1,.587.216l.29.127.145.066.018.007.073.049.028.02.056.039a4.311,4.311,0,0,1,.9.761,5.863,5.863,0,0,1,1.3,4.6,6.355,6.355,0,0,1-.2,1.152l-.034.142-.016.072,0,.016-.024.066-.013.032-.1.247-.2.494a11.027,11.027,0,0,1-.592,1.016c-.219.3-.445.581-.666.868a16.15,16.15,0,0,0-2.348,3.04c-.093.26-.233.544-.293.772-.027.148-.066.3-.084.443l-.021.371a4.851,4.851,0,0,0,.3,1.554,23.181,23.181,0,0,0,1.289,2.665,12.085,12.085,0,0,1,.947,2.152,6.311,6.311,0,0,1,.23,1.491c.007.347.011.533.011.533s-.027-.183-.076-.522a7.5,7.5,0,0,0-.388-1.424,11.832,11.832,0,0,0-1.113-2,18.078,18.078,0,0,1-1.547-2.639,5.573,5.573,0,0,1-.463-1.786l0-.528c.014-.163.043-.3.064-.459a8.847,8.847,0,0,1,.315-.994,15.058,15.058,0,0,1,2.345-3.343c.192-.266.4-.535.581-.8.144-.279.32-.5.453-.819l.189-.5.1-.251.04-.193a5.3,5.3,0,0,0,.159-.976,6.247,6.247,0,0,0-.131-1.972,4.919,4.919,0,0,0-.348-.9l-.228-.419c-.087-.118-.186-.211-.271-.324-.115-.225-.5-.444-.769-.664l-.055-.042-.028-.02c.022.014-.068-.046.045.028l-.013,0-.107-.046-.214-.094a1.908,1.908,0,0,0-.439-.169,10.193,10.193,0,0,0-2.043-.269,6.232,6.232,0,0,1-2.323-.558,2.174,2.174,0,0,1-.486-.286l-.435-.3-.013-.01c-.1-.072-.035-.026-.061-.047l-.026-.023-.052-.048-.1-.1-.207-.191c-.139-.123-.257-.275-.386-.412A4.844,4.844,0,0,1,95.5,36.665a4.788,4.788,0,0,1-.026-2.138,11.656,11.656,0,0,1,1.463-3.351,2.558,2.558,0,0,0,.333-1.35,1.666,1.666,0,0,0-.536-1.083,4.658,4.658,0,0,0-1.983-.973,13.582,13.582,0,0,0-1.455-.29l-.526-.063" transform="translate(-16.717 -4.94)" fill="#352c38"/>
              <path id="Trazado_902913" data-name="Trazado 902913" d="M106.718,61.552c.259-1.461.488-2.486.488-2.486a10.71,10.71,0,0,0-.264,2.462c.916-.093,1.828-.208,2.738-.337a14.784,14.784,0,0,1,.877-3.928,13.955,13.955,0,0,0-.133,3.82c.986-.152,1.97-.318,2.947-.519,1.115-.23,2.408-.519,3.743-.889a19.772,19.772,0,0,1-.757-4.862,13.091,13.091,0,0,0,2.963,4.173,21.418,21.418,0,0,0,3.265-1.435c2.573-7.017-9.144-4.793-5.063-11.576,4.3-7.145,3.223-16.354-4.78-19.224-6.984-2.505-4-10.94-19.2-8.983-6.375.823-8.8,6.852-6.89,9.846,0,0,11.527-1.018,8.335,3.409s1.978,8.527,5.289,7.768,7.162,4.588,1.822,10.472c-4.238,4.671,3.006,6.531,2.3,12.486q1.158-.082,2.313-.2" transform="translate(-15.501 -3.149)" fill="#352c38"/>
              <path id="Trazado_902914" data-name="Trazado 902914" d="M86.3,53.547a6.665,6.665,0,0,1-.844,2.252,5.107,5.107,0,0,1-.78.983,6.126,6.126,0,0,1-.977.763l-.048-1a4.608,4.608,0,0,1,.748.544,5.658,5.658,0,0,1,.612.636,10.326,10.326,0,0,1,.975,1.43,4.531,4.531,0,0,1-.814-.348c-.252-.141-.5-.281-.732-.435l-.68-.431c-.225-.13-.444-.252-.661-.366l-.833-.438.785-.563c.3-.215.591-.42.855-.643.135-.11.268-.223.4-.344s.249-.254.38-.38c.256-.26.509-.54.77-.822a11.719,11.719,0,0,1,.848-.837" transform="translate(-14.823 -9.649)" fill="#a55b5b"/>
              <path id="Trazado_902915" data-name="Trazado 902915" d="M86.049,64.42a7.3,7.3,0,0,0,9.166-.363" transform="translate(-15.506 -11.543)" fill="#fff"/>
              <path id="Trazado_902916" data-name="Trazado 902916" d="M93.2,46.185s.1-.166.291-.435a3.216,3.216,0,0,1,.379-.463,4.575,4.575,0,0,1,.572-.552,6.1,6.1,0,0,1,1.713-1.047,5.562,5.562,0,0,1,1.119-.322,6.3,6.3,0,0,1,1.217-.106,6.011,6.011,0,0,1,1.216.188,2.758,2.758,0,0,1,.571.186,3.728,3.728,0,0,1,.533.238,5.018,5.018,0,0,1,.908.6,4.7,4.7,0,0,1,.683.67,4.315,4.315,0,0,1,.472.639,3.052,3.052,0,0,1,.293.531c.141.306.2.483.2.483s-.17-.1-.439-.283c-.134-.092-.29-.2-.481-.316s-.385-.255-.619-.373-.47-.263-.739-.369a6.9,6.9,0,0,0-.825-.325,6.527,6.527,0,0,0-.894-.221,7.5,7.5,0,0,0-.934-.1,8.107,8.107,0,0,0-.947.041,8.428,8.428,0,0,0-.929.145,13.377,13.377,0,0,0-1.672.5c-.252.086-.466.187-.673.264s-.389.159-.538.23c-.3.133-.485.2-.485.2" transform="translate(-16.794 -7.795)" fill="#211823"/>
              <path id="Trazado_902917" data-name="Trazado 902917" d="M86.377,45.685l-1.337-.647c-.4-.162-.829-.363-1.3-.507-.23-.082-.472-.13-.708-.2a5.046,5.046,0,0,0-.72-.1,3.476,3.476,0,0,0-.715-.009,5.426,5.426,0,0,0-.7.089c-.233.034-.448.13-.671.177a5.506,5.506,0,0,0-.617.224,4.974,4.974,0,0,0-.54.221c-.156.082-.3.143-.425.2-.246.1-.4.16-.4.16s.06-.143.192-.384a3.532,3.532,0,0,1,.671-.925,3.328,3.328,0,0,1,.583-.525,4.962,4.962,0,0,1,.78-.448,3.881,3.881,0,0,1,.947-.276,3.647,3.647,0,0,1,1.026-.043,4.375,4.375,0,0,1,1,.2,4.925,4.925,0,0,1,.875.4,4.859,4.859,0,0,1,1.263,1.048,3.876,3.876,0,0,1,.8,1.349" transform="translate(-14.099 -7.69)" fill="#211823"/>
              <path id="Trazado_902918" data-name="Trazado 902918" d="M100.269,53.187c-.109,1.322-.566,2.363-1.021,2.326s-.735-1.14-.626-2.462.566-2.363,1.021-2.326.734,1.14.625,2.462" transform="translate(-17.767 -9.14)" fill="#211823"/>
              <path id="Trazado_902919" data-name="Trazado 902919" d="M85,51.435c-.1,1.157-.5,2.068-.894,2.035s-.643-1-.547-2.154.5-2.068.894-2.036.643,1,.547,2.154" transform="translate(-15.053 -8.88)" fill="#211823"/>
              <g id="Grupo_1108369" data-name="Grupo 1108369" transform="translate(3)">
                <g id="Grupo_1108350" data-name="Grupo 1108350" transform="translate(142.311 272.477)" opacity="0.1">
                  <g id="Grupo_1108349" data-name="Grupo 1108349">
                    <g id="Grupo_1108348" data-name="Grupo 1108348" clip-path="url(#clip-path-11)">
                      <path id="Trazado_902877" data-name="Trazado 902877" d="M250.935,341.651c0,5.126-17.313,9.281-38.672,9.281s-38.671-4.155-38.671-9.281,17.313-9.281,38.671-9.281,38.672,4.155,38.672,9.281" transform="translate(-173.592 -332.37)" fill="#211823"/>
                    </g>
                  </g>
                </g>
                <path id="Trazado_902878" data-name="Trazado 902878" d="M192.765,77.212s-15.135.755-11.263,18.881l7.04,29.454s-11.263,25.678-5.28,41.16,14.457,2.509,14.457,2.509l4.2-47.823Z" transform="translate(-32.592 -13.914)" fill="#ffac9d"/>
                <path id="Trazado_902879" data-name="Trazado 902879" d="M236.817,77.659s21.348-2.152,15.557,18.5l-7.04,29.454s11.263,25.678,5.28,41.16-8.8,21.9-8.8,21.9l-9.856-67.216Z" transform="translate(-41.799 -13.982)" fill="#ffac9d"/>
                <g id="Grupo_1108353" data-name="Grupo 1108353" transform="translate(148.879 82.016)" opacity="0.7">
                  <g id="Grupo_1108352" data-name="Grupo 1108352">
                    <g id="Grupo_1108351" data-name="Grupo 1108351" clip-path="url(#clip-path-12)">
                      <path id="Trazado_902880" data-name="Trazado 902880" d="M181.6,100.044c.011.056.019.107.03.163l7.04,29.453s-11.263,25.678-5.28,41.16,12.137,14.111,12.137,14.111l6.517-59.424-4.7-22.705a78.184,78.184,0,0,1-15.742-2.758" transform="translate(-181.604 -100.044)" fill="#d18b82"/>
                    </g>
                  </g>
                </g>
                <g id="Grupo_1108356" data-name="Grupo 1108356" transform="translate(190.161 84.204)" opacity="0.7">
                  <g id="Grupo_1108355" data-name="Grupo 1108355">
                    <g id="Grupo_1108354" data-name="Grupo 1108354" clip-path="url(#clip-path-13)">
                      <path id="Trazado_902881" data-name="Trazado 902881" d="M251.891,102.712a58.953,58.953,0,0,1-12.943,2.554c-1.578.128-3.149.2-4.715.221l-2.273,20.5,9.856,67.216s2.815-6.42,8.8-21.9-5.28-41.16-5.28-41.16Z" transform="translate(-231.96 -102.712)" fill="#d18b82"/>
                    </g>
                  </g>
                </g>
                <path id="Trazado_902882" data-name="Trazado 902882" d="M214.46,16s11.464-8.707,19.546,5.062-2.631,23.286,1.316,31.386,9.585,12.149-1.127,20.654-20.46-9.808-20.46-9.808Z" transform="translate(-38.515 -2.393)" fill="#7a4342"/>
                <path id="Trazado_902883" data-name="Trazado 902883" d="M202.885,59.134s5.984,12.839-3.519,12.839-19.36,3.021-16.544,15.482,16.191,31.72,16.191,31.72-13.445,21.118-11.615,44.181c1.408,17.748,16.324,49.347,16.324,49.347s-7.855,25.86-1.871,40.21,10.889,27.5,10.889,27.5-32.382,20.014,4.224,2.644c0,0,34.141,19.635,4.928-1.511,0,0,20.548-46.188,4.709-68.467,0,0,15.082-26.684,13.535-58.394-.867-17.783-14.02-36.268-14.02-36.268s22.527-32.1,14.431-41.537-27.454,5.286-24.638-16.615-13.023-1.133-13.023-1.133" transform="translate(-32.856 -9.051)" fill="#ffac9d"/>
                <path id="Trazado_902884" data-name="Trazado 902884" d="M220.355,147.076c0,.832-.307,1.507-.685,1.507s-.685-.675-.685-1.507.307-1.507.685-1.507.685.675.685,1.507" transform="translate(-39.461 -26.231)" fill="#d18b82"/>
                <path id="Trazado_902885" data-name="Trazado 902885" d="M209.254,66.9c4.943,2.986,9.069,3.729,12.361,3.424-1.305-1.9-1.84-5-1.19-10.062,2.815-21.9-13.023-1.133-13.023-1.133a20.811,20.811,0,0,1,1.852,7.771" transform="translate(-37.374 -9.051)" fill="#d18b82"/>
                <path id="Trazado_902886" data-name="Trazado 902886" d="M217.235,236.434c0-7.734.805-49.025.805-49.025l-.032-3.182-28.327-17.272a62.783,62.783,0,0,0-1.208,17.433c1.408,17.748,16.325,49.348,16.325,49.348s-7.855,25.86-1.872,40.21,10.889,27.5,10.889,27.5-32.047,19.807,3.69,2.9c-1.858-17.293-.271-61.513-.271-67.91" transform="translate(-33.932 -30.085)" fill="#d18b82"/>
                <path id="Trazado_902887" data-name="Trazado 902887" d="M188.08,102.724s-.352,9.063,7.04,12.084c0,0,11.967-5.287,35.55,1.888,0,0,8.8-3.777,5.631-13.217,0,0-7.743-12.839-7.391-26.055h-4.575s-3.52,18.125-12.672,23.789c0,0-10.559-13.216-11.263-24.545l-4.928-.377s0,15.482-7.391,26.433" transform="translate(-33.892 -13.748)" fill="#fddec0"/>
                <path id="Trazado_902888" data-name="Trazado 902888" d="M188.511,170.2s17.247,13.217,29.566,15.482c0,0,14.431-4.909,22.526-17.37l-3.168-10.951s-17.951,6.42-46.461.378a63.166,63.166,0,0,0-2.464,12.461" transform="translate(-33.97 -28.356)" fill="#fddec0"/>
                <path id="Trazado_902889" data-name="Trazado 902889" d="M215.654,23.511s12.251.066,13.667,10.674c1.972,14.774-2.514,27.994-12.877,26.581-14.619-1.994-14.175-16.605-14.463-20.59-.422-5.858,0-16.931,13.673-16.665" transform="translate(-36.38 -4.236)" fill="#ffac9d"/>
                <path id="Trazado_902890" data-name="Trazado 902890" d="M213.292,20.543s.773,5.689-8.939,10.486,3.9,15.75,1.639,30.564c-1.466,9.594-13.781-.38-20.308,7.405,0,0-7.253-8.544-.726-15,9.707-9.6,4.617-10.684,5.469-25.848.549-9.786,17.145-24.426,22.865-7.608" transform="translate(-32.838 -2.318)" fill="#965450"/>
                <path id="Trazado_902891" data-name="Trazado 902891" d="M225.262,47.6c.262.293.475.619.705.917s.437.607.662.892a7.17,7.17,0,0,0,.7.8c.241.252.526.471.8.712l.533.468-.628.279c-.227.1-.453.214-.684.33l-.694.394a7.52,7.52,0,0,1-1.517.725,14.053,14.053,0,0,1,1.123-1.248,6.111,6.111,0,0,1,.654-.553,4.575,4.575,0,0,1,.764-.453l-.094.747a6.027,6.027,0,0,1-.887-.807,4.95,4.95,0,0,1-.693-.992,7.527,7.527,0,0,1-.746-2.211" transform="translate(-40.57 -8.577)" fill="#b56252"/>
                <path id="Trazado_902892" data-name="Trazado 902892" d="M223.593,58.181s-.12.1-.336.265l-.394.287a2.347,2.347,0,0,1-.541.326c-.219.093-.461.2-.725.292-.132.048-.267.1-.407.147s-.287.049-.435.075c-.3.039-.605.113-.921.125l-.962-.039a4.878,4.878,0,0,1-.943-.183,3.435,3.435,0,0,1-.88-.3c-.276-.124-.535-.259-.778-.384-.227-.158-.43-.326-.616-.475a2.174,2.174,0,0,1-.469-.447c-.123-.151-.221-.287-.3-.4-.161-.221-.243-.35-.243-.35l.367.224.4.262a2.939,2.939,0,0,0,.536.282c.2.093.413.2.634.308.241.073.493.148.746.239a4.076,4.076,0,0,0,.8.2,4.147,4.147,0,0,0,.841.134l.853.066.83-.042c.136-.007.269-.017.4-.017.127-.016.248-.046.368-.066.239-.049.473-.084.693-.117a3.352,3.352,0,0,0,.6-.166l.466-.139c.262-.072.415-.107.415-.107" transform="translate(-38.678 -10.293)" fill="#b56252"/>
                <path id="Trazado_902893" data-name="Trazado 902893" d="M217.709,39.9l-.416-.275c-.129-.092-.289-.2-.474-.31s-.379-.247-.614-.367-.475-.263-.747-.382c-.262-.138-.557-.231-.851-.35a7.348,7.348,0,0,0-.935-.252,6.31,6.31,0,0,0-.979-.129,5.92,5.92,0,0,0-.981.042,6.037,6.037,0,0,0-.939.185,6.749,6.749,0,0,0-.853.31,7.681,7.681,0,0,0-.744.369c-.234.116-.422.266-.61.374a5.591,5.591,0,0,0-.461.32l-.407.288s.1-.152.282-.414a3.35,3.35,0,0,1,.362-.452,4.863,4.863,0,0,1,.537-.535,5.586,5.586,0,0,1,1.641-1.006,4.24,4.24,0,0,1,.52-.171,2.463,2.463,0,0,1,.548-.122,6.585,6.585,0,0,1,1.147-.08,7.112,7.112,0,0,1,1.13.18,5.748,5.748,0,0,1,1.036.364,6.666,6.666,0,0,1,1.6,1.044,5.33,5.33,0,0,1,.543.528,3.568,3.568,0,0,1,.371.439l.3.4" transform="translate(-37.427 -6.657)" fill="#211823"/>
                <path id="Trazado_902894" data-name="Trazado 902894" d="M225.027,40.468a4.5,4.5,0,0,1,.835-1.226,5.381,5.381,0,0,1,1.2-.978,5.145,5.145,0,0,1,.807-.389,4.844,4.844,0,0,1,.914-.221,3.808,3.808,0,0,1,.946-.013,3.763,3.763,0,0,1,.89.191,4.676,4.676,0,0,1,.762.348,3.213,3.213,0,0,1,.6.423,3.926,3.926,0,0,1,.758.77c.163.2.247.321.247.321s-.137-.065-.362-.184l-.4-.221a3.829,3.829,0,0,0-.518-.248,5.207,5.207,0,0,0-.612-.253c-.225-.056-.449-.152-.692-.2a4.737,4.737,0,0,0-.744-.089,3.034,3.034,0,0,0-.765.038,3.929,3.929,0,0,0-.757.153c-.241.091-.493.156-.718.267s-.453.207-.656.329-.4.237-.578.343c-.7.461-1.166.835-1.166.835" transform="translate(-40.55 -6.779)" fill="#211823"/>
                <path id="Trazado_902895" data-name="Trazado 902895" d="M212.1,46.223c.006,1.3.374,2.359.822,2.357s.807-1.061.8-2.364-.375-2.359-.822-2.357-.807,1.061-.8,2.364" transform="translate(-38.22 -7.903)" fill="#211823"/>
                <path id="Trazado_902896" data-name="Trazado 902896" d="M227.24,45.68c0,1.142.327,2.064.72,2.063s.705-.929.7-2.07-.327-2.063-.719-2.061-.706.927-.7,2.068" transform="translate(-40.948 -7.859)" fill="#211823"/>
                <rect id="Rectángulo_404622" data-name="Rectángulo 404622" width="559.624" height="291.039" fill="none"/>
              </g>
            </g>
          </g>
        </g>
      </g>
    </g>
  </g>
</svg>
