<svg xmlns="http://www.w3.org/2000/svg" xmlns:xlink="http://www.w3.org/1999/xlink" width="294.5" height="291.04" viewBox="0 0 294.5 291.04">
  <defs>
    <clipPath id="clip-path">
      <path id="AdobeStock_143049884" d="M14,0H280.5a14,14,0,0,1,14,14V291.04a0,0,0,0,1,0,0H0a0,0,0,0,1,0,0V14A14,14,0,0,1,14,0Z" transform="translate(495 5429.994)" fill="#f4fafe"/>
    </clipPath>
    <clipPath id="clip-path-2">
      <rect id="Rectángulo_404629" data-name="Rectángulo 404629" width="299.459" height="306.099" fill="none"/>
    </clipPath>
    <clipPath id="clip-path-4">
      <rect id="Rectángulo_404627" data-name="Rectángulo 404627" width="271.376" height="173.144" fill="none"/>
    </clipPath>
    <clipPath id="clip-path-5">
      <rect id="Rectángulo_404624" data-name="Rectángulo 404624" width="50.586" height="76.658" fill="none"/>
    </clipPath>
    <clipPath id="clip-path-6">
      <rect id="Rectángulo_404625" data-name="Rectángulo 404625" width="89.725" height="147.117" fill="none"/>
    </clipPath>
    <clipPath id="clip-path-7">
      <rect id="Rectángulo_404626" data-name="Rectángulo 404626" width="94.551" height="84.875" fill="none"/>
    </clipPath>
  </defs>
  <g id="Grupo_1142952" data-name="Grupo 1142952" transform="translate(-495 -5429.994)">
    <path id="AdobeStock_143049884-2" data-name="AdobeStock_143049884" d="M14,0H280.5a14,14,0,0,1,14,14V291.04a0,0,0,0,1,0,0H0a0,0,0,0,1,0,0V14A14,14,0,0,1,14,0Z" transform="translate(495 5429.994)" fill="#e7fefe"/>
    <g id="Enmascarar_grupo_1099711" data-name="Enmascarar grupo 1099711" clip-path="url(#clip-path)">
      <g id="Grupo_1108385" data-name="Grupo 1108385" transform="translate(506.821 5406.657)">
        <g id="Grupo_1108384" data-name="Grupo 1108384" clip-path="url(#clip-path-2)">
          <g id="Grupo_1108383" data-name="Grupo 1108383">
            <g id="Grupo_1108382" data-name="Grupo 1108382" clip-path="url(#clip-path-2)">
              <path id="Trazado_902920" data-name="Trazado 902920" d="M7.082,165.219c-.281-.2-.295-.528-.389-.811a127.6,127.6,0,0,1-5.083-20.632A73.754,73.754,0,0,1,.993,130.8a26.66,26.66,0,0,1,.307-4.058c.169-1.389,1.267-1.586,2.309-1.632,1.883-.083,3.758-.34,5.64-.333,4.96.018,9.886-.484,14.825-.813,2.626-.174,5.255.064,7.883.061A89.4,89.4,0,0,0,48.326,122.9a5.362,5.362,0,0,0,2.443-.907,1.352,1.352,0,0,0,0-2.393,3.584,3.584,0,0,0-1.569-.638,64.827,64.827,0,0,0-11.214-1.334c-3.455-.111-6.905-.427-10.357-.672a35.042,35.042,0,0,0-3.943-.073c-3.738.156-7.435-.436-11.155-.568-.7-.025-1.328-.229-1.478-1.033a1.649,1.649,0,0,1,.874-1.766,3.032,3.032,0,0,1,1.391-.346c3.662-.379,7.339-.557,11.011-.786a10.89,10.89,0,0,0,3.345-.641,1.3,1.3,0,0,0,.343-2.419,4.634,4.634,0,0,0-2.46-.839c-3.226-.346-6.466-.468-9.707-.559a70.47,70.47,0,0,1-8.4-.292c-.672-.1-1.557-.019-1.158-1.181A63.058,63.058,0,0,1,16.6,87.619,98.934,98.934,0,0,1,26.759,76.075,39.809,39.809,0,0,1,31.91,72a71.19,71.19,0,0,1,17.86-8.852A67.243,67.243,0,0,1,66.006,60.07c1.924-.113,3.847-.282,5.771-.411a42.577,42.577,0,0,1,8.126.488,61.449,61.449,0,0,1,21.137,6.907A104.679,104.679,0,0,1,117.731,78c-.135.739-.764.654-1.239.649-4.518-.049-9.034.13-13.556-.141-5.729-.345-11.475-.676-17.175.439a6.311,6.311,0,0,0-1.639.478c-1.34.67-1.509,1.648-.489,2.729a4.322,4.322,0,0,0,2.449,1.178c1.207.236,2.427.41,3.613.732.752.2,1.475.532,1.359,1.489-.108.9-.816,1.145-1.611,1.265a38.188,38.188,0,0,1-6.825.01c-5.4-.143-10.79.225-16.184.334-4.7.094-9.3,1.252-13.909,2.119a5.582,5.582,0,0,0-2.276,1,2.492,2.492,0,0,0-.05,4.224,5.436,5.436,0,0,0,2.559.964,64.882,64.882,0,0,0,8.645.8q17.438.527,34.885.255c6.444-.108,12.9-.223,19.329-.563,5.592-.3,11.233-.228,16.772-1.3a1.709,1.709,0,0,1,1.389.21c1.492,1.661,2.816,3.456,4.187,5.214.549.7.572.7,1.123,0,1.375-1.756,2.689-3.558,4.193-5.209a5.331,5.331,0,0,1,2.522-.64c8.731-.75,17.462-1.436,26.172-2.486,6.178-.745,12.387-1.238,18.527-2.3a19.258,19.258,0,0,0,6.39-1.937,6.05,6.05,0,0,0,1.2-.8,1.781,1.781,0,0,0,.16-2.775,3.662,3.662,0,0,0-1.359-1.016,8.655,8.655,0,0,0-2.505-.781,68.991,68.991,0,0,0-11-.393c-3.111.161-6.228.072-9.341.034-.424-.005-.943-.026-1.075-.559-.122-.5.263-.8.6-1.085a4.88,4.88,0,0,1,1.652-.785,11.075,11.075,0,0,0,4.106-2.291,1.888,1.888,0,0,0,.82-1.946,1.921,1.921,0,0,0-1.66-1.318,26.922,26.922,0,0,0-11.221.323,16.273,16.273,0,0,1-1.667.377c-.4.041-.917.235-1.01-.453a111.3,111.3,0,0,1,11.295-6.937A64.883,64.883,0,0,1,194.805,60.5a60.968,60.968,0,0,1,15.321-.529,79.216,79.216,0,0,1,14,2.267A61.347,61.347,0,0,1,241,69.438a62.331,62.331,0,0,1,7.015,4.643A62.3,62.3,0,0,1,255.98,82.1a119.6,119.6,0,0,1,8.206,10.771,56.9,56.9,0,0,1,5.771,11.5c.3.651-.237.741-.623.876a7.064,7.064,0,0,1-2.34.3c-2.676,0-5.354-.045-8.03.01-5.96.124-11.906.6-17.864.72a130.914,130.914,0,0,1-13.679-.136c-2.275-.191-4.58.141-6.839-.114-3.633-.41-7.169.236-10.737.617a7.014,7.014,0,0,0-3.3,1.231,1.566,1.566,0,0,0-.313,2.58,3.854,3.854,0,0,0,1.873,1.165,40.056,40.056,0,0,0,8.919,1.575c4.281.37,8.579.629,12.86.664,5.249.043,10.506.4,15.762-.073a36.611,36.611,0,0,1,10.749.138c.213.044.435.053.649.108.424.108.932.194,1.023.689.106.566-.375.842-.79,1.09-.526.315-1.125.494-1.635.844a2.961,2.961,0,0,0-1.325,3.417,2.624,2.624,0,0,0,2.861,2.034c4.127-.12,8.236.357,12.36.306,1.278-.016,2.534-.235,3.8-.258.678-.013,1.443-.145,1.859.649a58.766,58.766,0,0,1,.909,9.408,81.265,81.265,0,0,1-2.556,21.2,2.877,2.877,0,0,1-.2.482.992.992,0,0,1-.647.033c-3.445-1.363-7.148-1.74-10.67-2.842a118.914,118.914,0,0,1-14.893-5.953,94.26,94.26,0,0,0-15.918-5.83c-7.18-1.9-14.084-.9-20.891,1.637-9,3.351-17.955,6.85-27,10.077a64.427,64.427,0,0,1-15.4,3.925,26.739,26.739,0,0,1-8.871-.766c-3.926-.945-7.725-2.338-11.619-3.4A47.382,47.382,0,0,0,136.957,149a33.964,33.964,0,0,0-9.509,1.106c-4.728,1.158-9.364,2.67-14.19,3.45A28.764,28.764,0,0,1,99.625,152.5c-4.683-1.509-9.208-3.428-13.792-5.2A33.435,33.435,0,0,0,73.6,145.082a53.769,53.769,0,0,0-15.24,2.649c-7.169,2.153-13.912,5.332-20.76,8.276A128.9,128.9,0,0,1,9.39,164.815a7.354,7.354,0,0,1-2.307.4" transform="translate(-0.146 -9.123)" fill="#c9ffff" fill-rule="evenodd"/>
              <path id="Trazado_902921" data-name="Trazado 902921" d="M8.19,179.354c1.058-.835,2.388-.8,3.6-1.027a129.962,129.962,0,0,0,19.513-5.621c5.661-2.03,11.042-4.691,16.571-7.016A99.1,99.1,0,0,1,66.7,159.658a25.669,25.669,0,0,1,5.726-.637c.737.019,1.48-.225,2.215-.2a38.426,38.426,0,0,1,12.571,2.324c4.568,1.781,9.087,3.693,13.767,5.172a26.352,26.352,0,0,0,9.816,1.392,43.1,43.1,0,0,0,7.5-1.167c3.643-.916,7.269-1.906,10.915-2.816a31.159,31.159,0,0,1,8.969-.948,47.189,47.189,0,0,1,10.441,1.759c4.005,1.105,7.911,2.559,11.967,3.472a25.82,25.82,0,0,0,9.106.589,56.6,56.6,0,0,0,8.442-1.809c5.514-1.6,10.856-3.69,16.22-5.716,4.546-1.718,9.1-3.412,13.649-5.116a65.484,65.484,0,0,1,9.482-3.064,28.992,28.992,0,0,1,7.789-.9,46.128,46.128,0,0,1,9.388,1.714,100.174,100.174,0,0,1,15.509,6.066,83.754,83.754,0,0,0,20.855,6.959,17.867,17.867,0,0,1,3.428,1.287A194.853,194.853,0,0,1,262.6,201.814a11.027,11.027,0,0,1-1.2,2.326,3.6,3.6,0,0,1-1.675.7,245.818,245.818,0,0,1-28.159,3.821c-5.066.4-10.148.652-15.242.61-7.461-.06-14.923.083-22.382-.042q-12.1-.2-24.2-.573c-3.552-.11-7.1-.09-10.652-.2-7.324-.217-14.655-.1-21.972-.332-6.32-.2-12.632-.173-18.947-.165-9.388.013-18.768-.4-28.146-.659-6.687-.18-13.312.2-19.963.562-4.859.265-9.715.586-14.569.9-4.46.288-8.923.583-13.381.921-4.326.33-8.657.611-12.986.9-1.836.123-3.677.208-5.508.41a3.342,3.342,0,0,1-2.3-.255c-1.369-2.134-2.417-4.441-3.565-6.693a18.359,18.359,0,0,1-1.3-2.855c-.194-1.049-.075-2.241-1.291-2.822a88.279,88.279,0,0,1-3.4-8.239c-1.2-3.279-2.351-6.577-3.506-9.873a3.51,3.51,0,0,1-.068-.907" transform="translate(-1.253 -23.258)" fill="#96e3e3" fill-rule="evenodd"/>
              <path id="Trazado_902922" data-name="Trazado 902922" d="M23.683,220.172c2.972-.2,5.945-.4,8.916-.617,4.236-.314,8.471-.654,12.708-.967,1.7-.126,3.412-.2,5.117-.312,4.153-.268,8.307-.551,12.46-.81,4.592-.285,9.19-.478,13.776-.847a98.648,98.648,0,0,1,13.531-.386c3.728.213,7.459.073,11.181.256,11.839.58,23.688.319,35.53.552,6.011.119,12.024.039,18.03.259,4.957.18,9.918.01,14.868.25,3.42.165,6.846.064,10.259.267,3.815.226,7.633.091,11.445.251,8.641.36,17.286.178,25.93.247,4.17.036,8.336-.135,12.493-.375q7.668-.443,15.3-1.448c5.211-.677,10.4-1.436,15.568-2.412.988-.186,1.981-.34,2.973-.511a57.9,57.9,0,0,1-2.947,5.869,259.489,259.489,0,0,1-18.757,29.986c-2.51,3.494-5.453,6.644-8.087,10.04A133.789,133.789,0,0,1,221.6,273.437c-1.1,1.07-1.968,2.357-3.163,3.336a2.284,2.284,0,0,1-1.9-.23,245.979,245.979,0,0,0-40.346-11.414,202.545,202.545,0,0,0-21.246-2.8c-5.331-.423-10.666-.7-16.01-.745A113.323,113.323,0,0,0,107.786,266,176.613,176.613,0,0,0,73.325,279.58c-.7.364-1.365.794-2.056,1.176a1.64,1.64,0,0,1-1.731.225c-2.056-1.917-3.879-4.057-5.809-6.1-.876-.924-1.7-1.9-2.615-2.781a113.66,113.66,0,0,1-10.351-11.742c-3.3-4.214-6.931-8.165-10-12.561A276.123,276.123,0,0,1,24.347,221.6a4.924,4.924,0,0,1-.664-1.424" transform="translate(-3.625 -32.686)" fill="#52a674" fill-rule="evenodd"/>
              <path id="Trazado_902923" data-name="Trazado 902923" d="M77.824,289.586c1.221-.041,2.049-.935,3.063-1.424,3.236-1.554,6.4-3.251,9.676-4.729,2.995-1.351,6-2.667,9.072-3.832q5.894-2.24,11.931-4.062c3.267-.989,6.561-1.856,9.877-2.651a109.08,109.08,0,0,1,11.425-2.248c2.9-.375,5.826-.517,8.757-.632,2.889-.114,5.781-.307,8.663-.155,2.493.13,4.992.086,7.476.26,2.351.165,4.713.258,7.052.52,2.728.3,5.461.582,8.187.934,3.2.411,6.4.867,9.575,1.425s6.343,1.225,9.5,1.921a266.2,266.2,0,0,1,28.842,8.373c1.945.667,3.822,1.525,5.8,2.091-.694.788-1.36,1.6-2.086,2.358-4.738,4.945-9.593,9.776-14.663,14.379-3.836,3.479-7.547,7.088-11.364,10.584-2,1.834-4.172,3.486-6.257,5.231q-2.927,2.447-5.832,4.917c-2.007,1.714-4.226,3.134-6.373,4.655-3.722,2.638-7.276,5.506-11.1,8-5.884,3.827-11.537,8-17.614,11.536a1.968,1.968,0,0,1-2.276-.008c-5.088-2.963-9.833-6.446-14.77-9.635-6.2-4-11.948-8.628-18.038-12.778a80.462,80.462,0,0,1-6.49-5.357c-2.343-1.984-4.832-3.79-7.09-5.876q-2.512-2.321-5.022-4.646c-3.757-3.5-7.53-6.975-11.259-10.5-2.963-2.8-5.9-5.635-8.657-8.644" transform="translate(-11.911 -41.292)" fill="#64b283" fill-rule="evenodd"/>
              <path id="Trazado_902924" data-name="Trazado 902924" d="M140.921,98.15l-4.257.671c-.258.04-.516.088-.776.11-2.874.24-5.758.285-8.634.484-2.964.2-5.939.364-8.923.339-4.116-.035-8.238.119-12.347.3-9.167.4-18.333.191-27.5.119-3.407-.026-6.837.03-10.24-.219a62.826,62.826,0,0,1-9.485-1.013,4.313,4.313,0,0,1-2.147-1.2,2.95,2.95,0,0,1,.568-4.6,9.074,9.074,0,0,1,3.693-1.292c2.3-.265,4.544-.819,6.817-1.217.947-.164,1.9-.213,2.853-.364,2.692-.426,5.426-.139,8.128-.327,4.161-.289,8.32-.187,12.482-.219a6.035,6.035,0,0,1,2.085.187,1.541,1.541,0,0,0,.909.027,8.46,8.46,0,0,1,2.477-.221,1.816,1.816,0,0,0,.523-.036,1.076,1.076,0,0,0,.823-.924c.054-.531-.246-.79-.739-.913-1.27-.317-2.552-.556-3.843-.772a4.841,4.841,0,0,1-3.118-1.489c-1.03-1.209-.951-2.177.346-3.077a3.049,3.049,0,0,1,1.085-.441,22.029,22.029,0,0,1,6.217-.786c1.619.093,3.215-.424,4.841-.25,2.783.3,5.594.094,8.37.5a6.548,6.548,0,0,0,.921.017c3.818.005,7.638.014,11.457.005.458,0,.977.184,1.356-.27a54.971,54.971,0,0,1,8.9,8.32c2.319,2.681,4.581,5.41,6.865,8.121a4.461,4.461,0,0,1,.289.432" transform="translate(-8.534 -12.396)" fill="#fff" fill-rule="evenodd"/>
              <path id="Trazado_902925" data-name="Trazado 902925" d="M310.628,130.888a4.826,4.826,0,0,0-2.841-.2,38.806,38.806,0,0,1-8.506-.014,12.642,12.642,0,0,0-1.446-.042c-1.888-.005-3.774.009-5.661-.011a3.065,3.065,0,0,1-2.783-2.031,3.47,3.47,0,0,1,1.877-4.474c.313-.152.661-.235.977-.381.425-.2.921-.316,1.107-.829a.693.693,0,0,0-.634-.406c-2.133-.148-4.24-.724-6.383-.545-2.044.171-4.1.1-6.133.466a5.193,5.193,0,0,1-.92.027q-4.411,0-8.821,0a4.457,4.457,0,0,1-1.561-.161,1.5,1.5,0,0,0-.777-.072c-2.926.6-5.844-.1-8.764-.1-2.691,0-5.409-.218-8.1-.484a39.114,39.114,0,0,1-8.073-1.567,4.276,4.276,0,0,1-2.1-1.494,1.845,1.845,0,0,1,.521-2.922,10.786,10.786,0,0,1,4.05-1.4c2.117-.273,4.255-.357,6.365-.694a6.424,6.424,0,0,1,2.1-.021c2.4.429,4.817.061,7.213.249a128.045,128.045,0,0,0,14.057.189c3.151-.1,6.322.054,9.447-.259,5.9-.593,11.811-.429,17.719-.466.845-.006,1.644-.22,2.469-.3.265-.025.312-.269.357-.488a75.722,75.722,0,0,1,4.741,15.47c.174.987.335,1.974.5,2.962" transform="translate(-36.822 -17.211)" fill="#fff" fill-rule="evenodd"/>
              <path id="Trazado_902926" data-name="Trazado 902926" d="M188.839,76.467c.229.314.5.234.821.142a33.258,33.258,0,0,1,10.369-1.2A14.176,14.176,0,0,1,203.5,76a1.954,1.954,0,0,1,.808,3.339,10.689,10.689,0,0,1-5.065,2.9,5.6,5.6,0,0,0-1.488.785c-.2.13-.456.324-.324.636.105.246.366.2.576.2,1.1.006,2.194,0,3.29,0,1.4,0,2.809-.03,4.212.007,1.231.032,2.467-.342,3.651-.217,3.136.33,6.307-.09,9.417.493a7,7,0,0,1,4.217,1.912c1.165,1.3.942,2.478-.07,3.312a10.772,10.772,0,0,1-4.076,2.056,68.529,68.529,0,0,1-9.121,1.661c-2.547.332-5.084.775-7.641.982a38.586,38.586,0,0,1-4.177.34,26.476,26.476,0,0,0-4.286.435q-2.33.319-4.664.6-3.176.39-6.356.754a7.4,7.4,0,0,1-1.314.031,44.8,44.8,0,0,0-6.152.345,51.145,51.145,0,0,0-6.361.692,6.025,6.025,0,0,1-1.051.033c1.857-2.494,3.962-4.784,5.966-7.156,1.187-1.4,2.371-2.818,3.664-4.123a65.324,65.324,0,0,1,5.885-5.238c1.89-1.494,3.829-2.92,5.794-4.314" transform="translate(-25.64 -11.539)" fill="#fff" fill-rule="evenodd"/>
              <path id="Trazado_902927" data-name="Trazado 902927" d="M6.356,114.918c-.038.634.293.762.883.823,3.015.31,6.04.153,9.057.261,2.747.1,5.5.157,8.237.465a13.341,13.341,0,0,1,2.587.348,2.794,2.794,0,0,1,2.023,1.53,1.476,1.476,0,0,1-.964,2.169,7.819,7.819,0,0,1-2.918.684c-1.8,0-3.577.26-5.366.348a45.415,45.415,0,0,0-5.737.451,6.585,6.585,0,0,1-1.313.041,1.484,1.484,0,0,0-1.358.889.91.91,0,0,0,.827,1.45,30.905,30.905,0,0,1,4.838.329c3.327.357,6.66.073,9.978.269,2.745.163,5.5.24,8.232.535,1.753.19,3.5.063,5.238.245a64.365,64.365,0,0,1,8.273,1.183,4.335,4.335,0,0,1,2.6,1.073c.879,1,.894,1.68-.079,2.584a3.825,3.825,0,0,1-1.855.929,51.05,51.05,0,0,1-5.29.829c-3.356.344-6.71.489-10.08.508-2.485.014-4.972.026-7.451-.07a18.225,18.225,0,0,0-4.131.271,1.979,1.979,0,0,1-.524.03,39.18,39.18,0,0,0-6.416.335c-2.413.215-4.836-.053-7.209.263-1.871.249-3.755-.016-5.613.408a2.083,2.083,0,0,0-1.466,1.11,55.7,55.7,0,0,1,.826-5.7,81.553,81.553,0,0,1,3.943-14.279,1.393,1.393,0,0,1,.224-.314" transform="translate(-0.208 -17.588)" fill="#fff" fill-rule="evenodd"/>
              <path id="Trazado_902928" data-name="Trazado 902928" d="M16.42,206.759c1.078.017,1.061.02,1.259,1.043a7.282,7.282,0,0,0,.37,1.1c.129.352.058.592-.338.676a13.517,13.517,0,0,1-1.291-2.823" transform="translate(-2.513 -31.644)" fill="#96e3e3" fill-rule="evenodd"/>
              <path id="Trazado_902929" data-name="Trazado 902929" d="M121,134.21a14.014,14.014,0,0,1-1.519-1.043,1.717,1.717,0,0,1,.449-3.067,3.247,3.247,0,0,1,1.5-.44,32.334,32.334,0,0,0,4.842-.289c1.6-.177,3.195-.425,4.791-.647a3.618,3.618,0,0,1,.641-.118c2.238.118,4.452-.274,6.685-.324a54.993,54.993,0,0,0,6.528-.436,29.237,29.237,0,0,1,3.39-.245c1.884-.047,3.767-.207,5.624-.4,1.826-.186,3.679.039,5.481-.419a4.364,4.364,0,0,1,1.049-.036c5.968,0,11.939-.021,17.908,0a22.34,22.34,0,0,1,6.04,1.052,3.08,3.08,0,0,1,.725.3,1.439,1.439,0,0,1,.4,2.243c-.334.4-.738.751-1.1,1.131-.179.186-.415.376-.295.673a.6.6,0,0,0,.639.374c1.063-.113,2.076.316,3.129.277a21.62,21.62,0,0,1,4.812.473c1.027.192,2.085.119,3.131.249,1.014.127,1.944.506,2.936.649a1.8,1.8,0,0,1,.707.339,1.293,1.293,0,0,1,.129,2.276,5.01,5.01,0,0,1-1.327.837,27.87,27.87,0,0,1-5.157,1.482c-2.193.389-4.431.4-6.642.606-4.94.463-9.891.262-14.822.535-4.21.233-8.419-.034-12.612.245-2.321.153-4.652.014-6.948.27-2.325.261-4.64.087-6.954.219-10.082.569-20.172.169-30.256.191a41.9,41.9,0,0,1-6.924-.418,11.014,11.014,0,0,0-2.759-.03c-1.787.163-2.749-.925-3.524-2.249a1.726,1.726,0,0,1,1.233-2.365,16.5,16.5,0,0,1,3.194-.672c2.377-.318,4.776-.391,7.153-.728a27.088,27.088,0,0,1,3.55-.054A11.8,11.8,0,0,0,121,134.21" transform="translate(-15.536 -19.397)" fill="#fff" fill-rule="evenodd"/>
              <path id="Trazado_902930" data-name="Trazado 902930" d="M155.836,261.574c-.264-.44-.037-.842.09-1.255a27.8,27.8,0,0,1,2.256-4.877c.186-.347.365-.7.527-1.057.133-.294.049-.509-.292-.569a2.536,2.536,0,0,0-.392-.034c-1.967-.029-3.921-.165-5.883-.357-2.4-.234-4.736-.788-7.114-1.061-3.456-.4-6.715-1.532-10.052-2.377-.338-.086-.689-.115-1.034-.171a14.794,14.794,0,0,1-5.494-1.657,34.638,34.638,0,0,1-13.038-10.578,6.236,6.236,0,0,1-1.644-3.646,37.131,37.131,0,0,1-.883-5.144c-.062-.79-.008-1.571-.032-2.355a1.021,1.021,0,0,1,.494-.867c.024-.839.676-1.19,1.264-1.552a26.212,26.212,0,0,1,10.863-3.6,35.823,35.823,0,0,1,15.124,1.689,10.6,10.6,0,0,1,3.207,1.084c1.737.724,3.543,1.255,5.3,1.917a74.048,74.048,0,0,1,11.834,5.94,52.046,52.046,0,0,1,7.8,5.539c2.963,2.607,5.924,5.221,7.634,8.9a11.187,11.187,0,0,1,.665,7.931,37.95,37.95,0,0,1-2.614,6.579c-.655,1.335-1.381,2.635-2.039,3.964-.683,1.381-1.564,2.174-3.159,1.953a1.809,1.809,0,0,1-1.835.352c-3.777-.653-7.2-2.36-10.759-3.661-.428-.156-.917-.386-.8-1.025" transform="translate(-17.271 -33.701)" fill="#50504f" fill-rule="evenodd"/>
              <path id="Trazado_902931" data-name="Trazado 902931" d="M143.811,212.428c-.3.3-.611.152-.967.076-2.657-.565-5.216-1.508-7.9-1.97a30.2,30.2,0,0,0-16.793,1.564,20.971,20.971,0,0,0-4.8,2.713.518.518,0,0,1-.429-.683c.118-.687.21-1.383.389-2.056a15.892,15.892,0,0,1,1.841-4.485c3.765-5.906,4.408-12.274,2.834-18.955-.843-3.581-1.912-7.108-2.68-10.71-.3-1.4-.568-2.814-.851-4.22a3.344,3.344,0,0,1,2.991-2.2,17.362,17.362,0,0,0,3.683.951c5.617.042,7.673-1.725,9.208-7.191a14.745,14.745,0,0,0-.117-7.4c-.941-4.081-4.677-5.876-8.465-5.02-.7.158-1.442.545-2.076-.178,1.857-1.934,3.987-3.166,6.8-2.633,1.53-.409,2.608.427,3.615,1.362a21.617,21.617,0,0,1,4.875,7.725,37.391,37.391,0,0,0,2.8,5.935c.374.573.774,1.446,1.5,1.248s.645-1.151.643-1.84a20.94,20.94,0,0,0-1.23-6.025c-.174-.573-.488-1.166.075-1.713a4.5,4.5,0,0,1,1.729,1.408,60.289,60.289,0,0,1,4.417,6.019,17.835,17.835,0,0,1,2.667,5.941,37.623,37.623,0,0,1,1.2,5.5c.049.2-.008.421.147.591l0,0c.8.645.569,1.526.434,2.31a32.244,32.244,0,0,1-1.344,5.445,15.659,15.659,0,0,0-.851,5,8.253,8.253,0,0,0-.375,3.216,8.176,8.176,0,0,1-.523,4q-.16,3.467-.6,6.911a71.369,71.369,0,0,1-1.851,9.368" transform="translate(-17.281 -22.942)" fill="#fff" fill-rule="evenodd"/>
              <path id="Trazado_902932" data-name="Trazado 902932" d="M108.633,236.418a34.556,34.556,0,0,1,2.349,3.781,21.749,21.749,0,0,0,4.046,4.26c1.683,1.455,3.525,2.733,5.345,4.02a20.123,20.123,0,0,0,6.071,2.748,5.694,5.694,0,0,1,2.366,1.072,63.49,63.49,0,0,1-5.678,8.21,99.173,99.173,0,0,1-14.81,16.171c-2.794,2.4-5.622,4.762-8.509,7.048a79.639,79.639,0,0,1-8.307,5.784,22.264,22.264,0,0,1-2.126,1.005c-.789.593-1.279.019-1.8-.456a22.185,22.185,0,0,1-4.127-5.568c-1.22-2.125-2.334-4.313-3.694-6.356a1.871,1.871,0,0,1-.4-1.477,1.633,1.633,0,0,1,.671-1.085,18.251,18.251,0,0,1,2.8-2.168c1.31-.875,2.594-1.788,3.918-2.642a18.947,18.947,0,0,0,6.124-6.893c1.86-3.284,3.3-6.765,4.877-10.18a65.607,65.607,0,0,1,6.919-11.894,58.865,58.865,0,0,1,3.976-5.382" transform="translate(-12.139 -36.183)" fill="#3c3c3b" fill-rule="evenodd"/>
              <path id="Trazado_902933" data-name="Trazado 902933" d="M113.592,172.2a14.647,14.647,0,0,0-2.964,1.889,40.436,40.436,0,0,1-9.532,3.984c-.886.965-2.214.592-3.3,1.078.984.7,2.4.218,3.193,1.284-.005,1.752-.034,3.5-.009,5.255a101.386,101.386,0,0,0,1.286,13.59,4.442,4.442,0,0,0,1.823,2.941c.7.527,1.431,1.009,2.168,1.481a6.28,6.28,0,0,1,2.939,5.93,1.87,1.87,0,0,1-.635,1.518c-.62.043-.656-.452-.791-.857a3.757,3.757,0,0,0-.827-1.481c-.589-.59-.81-.3-.755.407a22.323,22.323,0,0,0,2.071,4.527,4.459,4.459,0,0,1,.532,3.059,1.848,1.848,0,0,1-2.644,1.514,20.031,20.031,0,0,0-6.178-2.1,2.55,2.55,0,0,1-1.583-1.307,12.828,12.828,0,0,1-1.181-2.348,104,104,0,0,1-3.812-11.615c-1.545-6.075-3.124-12.142-4.657-18.22a26.914,26.914,0,0,1-.831-7.295,8.012,8.012,0,0,1,1.8-4.967,36.323,36.323,0,0,1,7.077-6.444c2.9-2.128,5.831-4.2,8.929-6.042a56.214,56.214,0,0,1,9.671-4.719c.164-.059.319-.145.479-.218,1.157-.2,2.309-.456,3.473-.6a6.921,6.921,0,0,1,6.909,3.771,14.849,14.849,0,0,1-.6,13.276c-1.438,2.758-3.937,3.68-6.815,3.921a12.07,12.07,0,0,1-1.57-.067c-.267-.512.054-.919.242-1.347a16.875,16.875,0,0,0,1.253-3.321c-1.161,1.009-2.319,1.926-3.5,2.814a3.324,3.324,0,0,1-1.652.713" transform="translate(-13.452 -23.323)" fill="#ffb59c" fill-rule="evenodd"/>
              <path id="Trazado_902934" data-name="Trazado 902934" d="M162.45,269.051a.857.857,0,0,0,.523.365c2.134.667,4.161,1.609,6.248,2.4a24.759,24.759,0,0,0,6.621,1.569c.351.316.877.033,1.228.354a2.276,2.276,0,0,1-.368.978,96.143,96.143,0,0,0-4.342,9.706,186.579,186.579,0,0,0-6.689,18.795c-.062.207-.094.424-.141.638a.75.75,0,0,1-.151.491,6.045,6.045,0,0,1-5.275,1.694,3.924,3.924,0,0,1-3.231-3.389c-.273-1.315-.6-2.623-.807-3.952a32.356,32.356,0,0,1,1-4.489,25.453,25.453,0,0,0,1.027-6.741,47.44,47.44,0,0,1,1.614-11.03,38.125,38.125,0,0,1,2-6.386c.173-.379.2-.887.742-1" transform="translate(-23.885 -41.178)" fill="#ffb59c" fill-rule="evenodd"/>
              <path id="Trazado_902935" data-name="Trazado 902935" d="M75.894,283.933a54.273,54.273,0,0,1,3.656,5.908c.816,1.5,1.716,2.95,2.594,4.412.751,1.253,1.963,2.113,2.828,3.268.263.352.6.282.949.268-.106.421-.479.611-.772.858a235.621,235.621,0,0,1-20.921,15.571,20.986,20.986,0,0,1-6.09-.285,1.772,1.772,0,0,1-1.375-2.128,19.155,19.155,0,0,1,1.627-5.072,6.368,6.368,0,0,0,.5-.6c2.565-3.909,5.388-7.654,7.613-11.778a35.578,35.578,0,0,1,7.258-8.9,9.764,9.764,0,0,1,2.128-1.519" transform="translate(-8.682 -43.455)" fill="#ffb59c" fill-rule="evenodd"/>
              <path id="Trazado_902936" data-name="Trazado 902936" d="M141.215,152.728a2.971,2.971,0,0,0,.378,1.375,18.756,18.756,0,0,1,1.322,6.782,3.153,3.153,0,0,1-.5,1.87c-.434.589-.869.628-1.42.128a9.881,9.881,0,0,1-2.088-3c-.453-.9-.863-1.821-1.226-2.758a39.7,39.7,0,0,0-3.448-6.92,12.952,12.952,0,0,0-2.4-2.767,6.216,6.216,0,0,0-2.9-1.406c.463-.1.392-.44.418-.792.047-.62-.28-1.273.147-1.861.74-1.089,2.008-1.512,2.965-2.335.739-.636,1.1-1.143.48-2.076-.88-1.335-.69-2.867-.536-4.343a2.586,2.586,0,0,1,2.3-2.485,2.93,2.93,0,0,1,2.829,1.951c.385.9.264,1.882.578,2.806a15.947,15.947,0,0,0,.652-4.331,9.208,9.208,0,0,1,1.046-5.459,6.1,6.1,0,0,1,6.237-3.229,2.626,2.626,0,0,1,2.041,1.021,16.007,16.007,0,0,1,1.431,6.217,4.385,4.385,0,0,0,1.4,3.27,2.963,2.963,0,0,1,.356.386c.911,1.136.752,1.846-.554,2.448a5.309,5.309,0,0,1-.736.277.692.692,0,0,0-.524.783c0,.656-.061,1.31-.095,1.965-.941,1.154-2.162.45-3.077.552.852.36,2-.252,3.037.272a9.541,9.541,0,0,1-.431,3.471,3.75,3.75,0,0,1-3.556,2.736,9.281,9.281,0,0,1-3.45-.547c-.939.295-1.566-.34-2.24-.783a11.6,11.6,0,0,1-1.524-1.069c.6.552,1.339,1.462,2.247,2.2a1.767,1.767,0,0,1,.744,1.447,13.639,13.639,0,0,0-.336,2.725,2.292,2.292,0,0,0,.43,1.475" transform="translate(-19.733 -18.952)" fill="#ffb59c" fill-rule="evenodd"/>
              <path id="Trazado_902937" data-name="Trazado 902937" d="M146.911,123.4a10.905,10.905,0,0,0-3.723-.412,5.7,5.7,0,0,0-4.773,4.61,9.461,9.461,0,0,0-.263,3.261,10.042,10.042,0,0,1-.309,3.246c-.225.965-.35,1.953-.517,2.915-.49.095-.584-.234-.717-.49a5.552,5.552,0,0,1-.474-2.3,3.807,3.807,0,0,0-.663-2.228,2,2,0,0,0-2.057-.867,1.856,1.856,0,0,0-1.539,1.447,5.917,5.917,0,0,0,.537,4.933c.737,1.121.72,1.143-.274,2.033a24.53,24.53,0,0,1-2.743,2.032,1.658,1.658,0,0,1-1.081.3,56.282,56.282,0,0,0-3.475-4.742,13.532,13.532,0,0,1-3.39-8.978c-.619-1.218.136-2.312.473-3.349a22.125,22.125,0,0,1,4.968-7.772c.244-.271.611-.334.9-.533a9.755,9.755,0,0,1,4.659-2.229,12.582,12.582,0,0,1,5.315.011c4.453.9,7.083,3.849,8.97,7.7a2.736,2.736,0,0,1,.177,1.411" transform="translate(-18.552 -17.447)" fill="#50504f" fill-rule="evenodd"/>
              <path id="Trazado_902938" data-name="Trazado 902938" d="M56.37,310.651a2.737,2.737,0,0,1-.108,1.925,18.916,18.916,0,0,1-.9,2.6,1.632,1.632,0,0,0,1.442,2.355,13.249,13.249,0,0,0,2.884.064,3.9,3.9,0,0,1,2.516.539,1.822,1.822,0,0,1-.091,1.877,15.315,15.315,0,0,1-1.35,2.246c-1.622,2.146-2.107,4.65-2.487,7.227-.549,3.711-.027,7.427-.189,11.138a8.7,8.7,0,0,1-.661,3.056,2.162,2.162,0,0,1-2.069,1.541c-1.853-.472-2.855-1.964-3.866-3.368-1.768-2.452-2.239-5.379-2.754-8.269-.23-1.291-.4-2.592-.546-3.9a16.647,16.647,0,0,0-2.338-6.359,20.563,20.563,0,0,1-2.2-5.88,4.322,4.322,0,0,1,.443-3.3,16.671,16.671,0,0,1,9.781-4.6,2.375,2.375,0,0,1,2.488,1.1" transform="translate(-6.661 -47.374)" fill="#50504f" fill-rule="evenodd"/>
              <path id="Trazado_902939" data-name="Trazado 902939" d="M154.711,304.057a2.046,2.046,0,0,1,1.016,1.736c.075.564.148,1.128.237,1.691.456,2.884,2.639,4.159,5.4,3.135a12.723,12.723,0,0,0,2.814-1.405c1.523-.772,2.162-.467,2.452,1.2.164.947.149,1.916.272,2.873a13.718,13.718,0,0,0,1.994,5.375,47.783,47.783,0,0,0,2.759,4,10.925,10.925,0,0,1,2.2,4.146,4.024,4.024,0,0,1-.406,3.162,2.5,2.5,0,0,1-2.476.324,21.26,21.26,0,0,1-8.1-4.465,31.5,31.5,0,0,0-7.976-5.252,21.771,21.771,0,0,1-5.158-3.362,6.679,6.679,0,0,1-2.5-5.653,6.153,6.153,0,0,1,2.915-4.171,11.84,11.84,0,0,0,2.676-2.28,2.35,2.35,0,0,1,1.882-1.052" transform="translate(-22.532 -46.535)" fill="#50504f" fill-rule="evenodd"/>
              <path id="Trazado_902940" data-name="Trazado 902940" d="M152.682,190.5a17.576,17.576,0,0,1,.9-5.153,22.707,22.707,0,0,0,1.433-7.454c.322-.521.665-1.028.96-1.564a5.119,5.119,0,0,0,.556-4.52,8.057,8.057,0,0,1-.519-3.094,5.133,5.133,0,0,1,.544-2.283c.762-1.429,1.576-2.832,2.387-4.235a1.691,1.691,0,0,1,1.938-1.01c.291.333.137.625-.047.95a16.151,16.151,0,0,0-1.111,2.914,2.2,2.2,0,0,0,.617,2.628c1.376,1.049,2.122,2.812,3.922,3.459-1.289-1.176-1.235-1.683.416-4.3a8.762,8.762,0,0,0-.714,1.249c-.319.612-.557,1.384-1.525.962a1.677,1.677,0,0,1-.867-2.091,22.209,22.209,0,0,1,.979-2.289c-.3.527-.521,1.228-.833,1.886-.181.38-.37.717-.833.713a1.121,1.121,0,0,1-.91-.667,1.714,1.714,0,0,1-.12-.232c-.521-1.151.641-4.157,1.826-4.721a6.06,6.06,0,0,1,6.213,6.417,7.673,7.673,0,0,1-2.217,5.189,10.665,10.665,0,0,0-2.347,3.754c-1.123,2.85-2.155,5.736-3.472,8.507a65.988,65.988,0,0,1-5.507,9.689c-1.448-.545-1.41-1.873-1.553-3.063a9.988,9.988,0,0,0-.111-1.646" transform="translate(-23.368 -24.662)" fill="#ffa182" fill-rule="evenodd"/>
              <path id="Trazado_902941" data-name="Trazado 902941" d="M118.754,127.514c-2,.042-3.223-1.114-4.195-2.683a8.021,8.021,0,0,1,2.572-11.137c3.261-1.88,7.447-1.167,8.973,2.526-.6,1.288-1.794,2.1-2.591,3.246a17.508,17.508,0,0,0-3.318,7.166c-.127.78-.373,1.555-1.442.881" transform="translate(-17.344 -17.247)" fill="#50504f" fill-rule="evenodd"/>
              <path id="Trazado_902942" data-name="Trazado 902942" d="M43.9,314.989a15.17,15.17,0,0,0,2.394,9.118,19.486,19.486,0,0,1,2.515,8.338,37.612,37.612,0,0,0,1.157,5.919,11.525,11.525,0,0,0,3.516,6.03c.593.516,1.119,1.107,1.675,1.663a4.275,4.275,0,0,1-4.246-1.741,20.706,20.706,0,0,1-3.96-9.753c-.141-.953-.2-1.91-.246-2.874a11.911,11.911,0,0,0-1.213-4.135c-.793-1.806-1.889-3.461-2.574-5.322a9.739,9.739,0,0,1-.667-4.113,3.954,3.954,0,0,1,1.646-3.131" transform="translate(-6.464 -48.209)" fill="#d2d2d2" fill-rule="evenodd"/>
              <path id="Trazado_902943" data-name="Trazado 902943" d="M147.172,312.916c.362.936.59,1.918,1.016,2.837a7.028,7.028,0,0,0,2.1,2.658,22.441,22.441,0,0,0,4.3,2.784,37.415,37.415,0,0,1,9.389,6.229,20.557,20.557,0,0,0,6.671,3.606,7.023,7.023,0,0,0,2.731.293,3.12,3.12,0,0,1-3.6,1.183,20.581,20.581,0,0,1-6.34-2.8,30.658,30.658,0,0,1-4.606-3.684,11.206,11.206,0,0,0-3.848-2.46,16.755,16.755,0,0,1-4.685-2.346c-3.054-2.3-4.166-4.716-3.124-8.3" transform="translate(-22.466 -47.891)" fill="#d2d2d2" fill-rule="evenodd"/>
              <path id="Trazado_902944" data-name="Trazado 902944" d="M116.989,128.152c.676.049.988-.208,1.092-.94a15.833,15.833,0,0,1,6.259-10.353l.476.083c-.727,1.135-1.7,2.074-2.479,3.174a21.284,21.284,0,0,0-3.858,8.478c-1.366,1.314-2.268,3-3.566,4.375a8.205,8.205,0,0,1-7.3,2.793,4.129,4.129,0,0,1-2.227-.92c1.062-.018,2.071.244,3.117.267a6.776,6.776,0,0,0,5.275-2.25c1.047-1.111,1.943-2.365,2.99-3.658a2.911,2.911,0,0,0-1.923.65,17.429,17.429,0,0,0-1.874,1.443c-2.534,2.414-8.611,1.919-11.176-.547.751-.054,1.264.415,1.857.594,3.118.937,6.133,1.039,8.9-1.007a14.336,14.336,0,0,1,4.445-2.181" transform="translate(-15.579 -17.885)" fill="#fbfbfb" fill-rule="evenodd"/>
              <path id="Trazado_902945" data-name="Trazado 902945" d="M162.821,161.662A10.985,10.985,0,0,0,161.328,165a1.068,1.068,0,0,0-.062.77c.175.438.231,1.092.732,1.162.576.081.5-.62.645-.98a8.83,8.83,0,0,1,1.692-2.757c.407.385.128.655.03.905-.3.776-.621,1.546-.969,2.3-.639,1.386-.624,1.475.714,2.507.9-1.156,1.29-2.7,2.675-3.783a2.386,2.386,0,0,1-.434,1.445c-.423.915-.89,1.81-1.286,2.737-.364.853-.169,1.17.741,1.387.345.083.964-.093.884.472s-.683.634-1.173.526a3.52,3.52,0,0,1-2.131-1.215,15.635,15.635,0,0,0-2.366-2.444,2.2,2.2,0,0,1-.7-2.592,24.074,24.074,0,0,1,1.7-4.249,1.3,1.3,0,0,1,.8.465" transform="translate(-24.513 -24.671)" fill="#fa887c" fill-rule="evenodd"/>
              <path id="Trazado_902946" data-name="Trazado 902946" d="M149.892,165.632a14.462,14.462,0,0,1-4.416-6.019,3.776,3.776,0,0,1,2.761,1.707,9.178,9.178,0,0,1,1.655,4.313" transform="translate(-22.265 -24.428)" fill="#ffa182" fill-rule="evenodd"/>
              <path id="Trazado_902947" data-name="Trazado 902947" d="M152.607,195.806c.52,1.226.624,2.585,1.2,3.8a3.74,3.74,0,0,0,.463.911,17.152,17.152,0,0,1-1.994,2.66,31.522,31.522,0,0,1,.329-7.369" transform="translate(-23.293 -29.968)" fill="#fa887c" fill-rule="evenodd"/>
              <path id="Trazado_902948" data-name="Trazado 902948" d="M102.533,185.071a14.028,14.028,0,0,1-4.065-.9c-.245-.1-.511-.21-.457-.536.044-.261.313-.285.514-.324a25.785,25.785,0,0,1,4.118-.607q-.056,1.183-.111,2.362" transform="translate(-14.999 -27.963)" fill="#fa877a" fill-rule="evenodd"/>
              <path id="Trazado_902949" data-name="Trazado 902949" d="M142.518,152.047c-.994-.973-2-1.937-2.98-2.924a6.356,6.356,0,0,1-1.488-2.3c.9.083,1.2.81,1.738,1.149.589.371,1.139.8,1.722,1.186s1.187.731,1.781,1.094l-.772,1.8" transform="translate(-21.128 -22.471)" fill="#fa887c" fill-rule="evenodd"/>
              <path id="Trazado_902950" data-name="Trazado 902950" d="M152.165,144.015c-1.706.384-3.334.369-4.726-.955a8.858,8.858,0,0,0,4.766.131c-.014.274-.026.549-.04.823" transform="translate(-22.565 -21.895)" fill="#fa8c80" fill-rule="evenodd"/>
              <path id="Trazado_902951" data-name="Trazado 902951" d="M149.295,129.344c-1.738.193-3.273.737-4.157,2.442a8.854,8.854,0,0,1,4.463-1.676q-.154-.381-.306-.766" transform="translate(-22.213 -19.796)" fill="#50504f" fill-rule="evenodd"/>
              <path id="Trazado_902952" data-name="Trazado 902952" d="M109.423,219.224a4.642,4.642,0,0,1-.368-1.425,1.983,1.983,0,0,1,1.525.947c.617.707.648,1.691,1.217,2.41-.617.434-.838-.03-1.015-.479a4.689,4.689,0,0,0-.808-1.6c-.256-.274-.44-.163-.551.151" transform="translate(-16.691 -33.334)" fill="#fa8a7d" fill-rule="evenodd"/>
              <path id="Trazado_902953" data-name="Trazado 902953" d="M155.4,180.815a.472.472,0,0,1-.147-.594.6.6,0,0,1,.147.594" transform="translate(-23.753 -27.582)" fill="#ffa182" fill-rule="evenodd"/>
              <path id="Trazado_902954" data-name="Trazado 902954" d="M118.236,174.924a24.827,24.827,0,0,1,2.858-2.289c.787-.695,1.606-1.351,2.361-2.082a.76.76,0,0,1,.831-.315,17.436,17.436,0,0,1-2.393,5.827,6.2,6.2,0,0,1-3.657-1.141" transform="translate(-18.096 -26.051)" fill="#fa877a" fill-rule="evenodd"/>
              <path id="Trazado_902955" data-name="Trazado 902955" d="M149.821,134.255c-.037.591-.208,1.175-.943,1.157-.615-.014-.8-.531-.78-1.082.017-.612.165-1.215.921-1.189.615.019.772.543.8,1.115" transform="translate(-22.666 -20.377)" fill="#544a43" fill-rule="evenodd"/>
              <g id="Grupo_1108381" data-name="Grupo 1108381" transform="translate(4.728 54.456)" opacity="0.3">
                <g id="Grupo_1108380" data-name="Grupo 1108380">
                  <g id="Grupo_1108379" data-name="Grupo 1108379" clip-path="url(#clip-path-4)">
                    <g id="Grupo_1108372" data-name="Grupo 1108372" transform="translate(0 26.106)" opacity="0.45">
                      <g id="Grupo_1108371" data-name="Grupo 1108371">
                        <g id="Grupo_1108370" data-name="Grupo 1108370" clip-path="url(#clip-path-5)">
                          <path id="Trazado_902956" data-name="Trazado 902956" d="M55.946,112.91a19.127,19.127,0,0,0-2.866-8.123c-9.167-14.068-29.5-11.908-36.418.832-3.642,6.7-4.059,13.387-.6,20.255a23.673,23.673,0,0,0,5.269,6.669,10.914,10.914,0,0,0-1.723,2.476c-3.8,6.421-7.358,12.975-10.525,19.736-1.243,2.654-2.4,5.348-3.5,8.066a44.892,44.892,0,0,0,.993,4.539,30.268,30.268,0,0,0,1.787,4.419A190.707,190.707,0,0,1,23.3,140.157a31.386,31.386,0,0,0,2.551-4.587c.406.16.816.31,1.217.481a20.973,20.973,0,0,0,23.254-4.9,21.724,21.724,0,0,0,5.621-18.237" transform="translate(-5.582 -95.119)" fill="#424242" fill-rule="evenodd"/>
                        </g>
                      </g>
                    </g>
                    <path id="Trazado_902957" data-name="Trazado 902957" d="M174.485,94c-.07-.169-.135-.34-.206-.508" transform="translate(-31.401 -68.765)" fill="#424242" fill-rule="evenodd"/>
                    <g id="Grupo_1108375" data-name="Grupo 1108375" transform="translate(138.959 26.028)" opacity="0.45">
                      <g id="Grupo_1108374" data-name="Grupo 1108374">
                        <g id="Grupo_1108373" data-name="Grupo 1108373" clip-path="url(#clip-path-6)">
                          <path id="Trazado_902958" data-name="Trazado 902958" d="M255.643,242.143c.037-.058.072-.119.108-.178,1.121-1.779,2.417-3.456,3.626-5.184-1.143-.11-2.284-.256-3.422-.427-11.935-1.793-22.1-7.176-30.892-15.311a73.732,73.732,0,0,1-11.1-13.323,147.644,147.644,0,0,1-10.435-18.425,181.268,181.268,0,0,1-8.36-20.462c-2.91-8.653-5.47-17.414-7.853-26.228-1.81-6.693-3.579-13.4-5.209-20.135A229.117,229.117,0,0,0,175.2,97.9c-.351-.967-.722-1.923-1.1-2.875-1.538,1.452-3.031,2.96-4.446,4.534a134.333,134.333,0,0,1,4.064,13.208c1.744,6.754,3.329,13.549,5.073,20.3,2.579,9.984,5.342,19.918,8.366,29.779a193.576,193.576,0,0,0,16.017,38.306,110.739,110.739,0,0,0,13.084,19.067,70.438,70.438,0,0,0,11.859,10.771,59.872,59.872,0,0,0,20.453,9.709c2.344.59,4.7,1.085,7.076,1.44" transform="translate(-169.652 -95.027)" fill="#424242" fill-rule="evenodd"/>
                        </g>
                      </g>
                    </g>
                    <g id="Grupo_1108378" data-name="Grupo 1108378" transform="translate(176.825)" opacity="0.45">
                      <g id="Grupo_1108377" data-name="Grupo 1108377">
                        <g id="Grupo_1108376" data-name="Grupo 1108376" clip-path="url(#clip-path-7)">
                          <path id="Trazado_902959" data-name="Trazado 902959" d="M300.851,126.875c.711-.579,1.448-1.131,2.131-1.742,1.788-1.6,2-2.673,1.019-4.878-.175-.394-.458-.764-.242-1.233,1-.87,2-1.741,2.92-2.692-.424-1.646-.9-3.279-1.4-4.9-.11.164-.215.329-.328.493a29.574,29.574,0,0,1-3.848,4.139,2.17,2.17,0,0,1-.332-.208c-1.911-1.738-2.728-1.621-4.914-.414-.152.084-.3.176-.448.271a75.8,75.8,0,0,0-6.56,4.773,10.479,10.479,0,0,0-1.5,1.459c-.644.778-1.239,1.61-.794,2.73.088.222-.058.42-.166.61h0a29.8,29.8,0,0,1-9.43,2.228,53.223,53.223,0,0,1-7.616-.32,32.474,32.474,0,0,1-16.594-6.4,50.254,50.254,0,0,1-8.2-7.944A146.08,146.08,0,0,1,230.009,91.9a110.525,110.525,0,0,1-10.1-21.8,51.3,51.3,0,0,1-1.558-5.812c-1.335.421-2.668.853-3.993,1.308a80.356,80.356,0,0,0,5.791,16.549,158.481,158.481,0,0,0,14.105,24.182,98.359,98.359,0,0,0,11.54,14,40.2,40.2,0,0,0,8.581,6.494,37.887,37.887,0,0,0,16.954,4.746,45.9,45.9,0,0,0,8.015-.082,33.561,33.561,0,0,0,9.15-2.791c.653-.053.989.449,1.413.8a4.084,4.084,0,0,0,4.366.723c.522-.2,1.031-.442,1.546-.666a63.442,63.442,0,0,0,3.534,5.7c2.886,4.556,5.648,9.178,8.21,13.906a70.805,70.805,0,0,0,1.347-9.421c-2.586-4.352-5.326-8.613-8.061-12.875" transform="translate(-214.36 -64.296)" fill="#424242" fill-rule="evenodd"/>
                        </g>
                      </g>
                    </g>
                  </g>
                </g>
              </g>
              <path id="Trazado_902960" data-name="Trazado 902960" d="M31.378,134.761a31.386,31.386,0,0,1-2.551,4.587A186.338,186.338,0,0,0,11.27,178.689a134.73,134.73,0,0,0-4.865,20.465,47.04,47.04,0,0,0-.628,9.041,21.884,21.884,0,0,0,1.242,6.567,8.951,8.951,0,0,0,2.1,3.306A5.293,5.293,0,0,0,15.5,219.28a22.994,22.994,0,0,0,5.333-3.353q.868-.7,1.722-1.426a.577.577,0,0,1,.986.143q1.145,1.846,2.264,3.706a.841.841,0,0,1-.206,1.178c-3,2.458-6.09,4.819-9.94,5.758A10.726,10.726,0,0,1,4.6,221.763a17.207,17.207,0,0,1-4.076-8.85,37.81,37.81,0,0,1-.366-9.822A118.948,118.948,0,0,1,4.913,179.8c1.657-5.738,3.626-11.369,5.83-16.918q1.8-4.528,3.861-8.94c3.167-6.76,6.721-13.315,10.525-19.736a10.914,10.914,0,0,1,1.723-2.476.764.764,0,0,1,1.071-.016c.988.729,2.015,1.4,3.062,2.043a.774.774,0,0,1,.392,1" transform="translate(0 -20.127)" fill="#424242" fill-rule="evenodd"/>
              <path id="Trazado_902961" data-name="Trazado 902961" d="M34.849,128.039a44.094,44.094,0,0,1-4.525-3.028,23.66,23.66,0,0,1-5.27-6.669c-3.456-6.868-3.039-13.552.6-20.255,6.923-12.74,27.251-14.9,36.418-.831a19.12,19.12,0,0,1,2.866,8.122,21.724,21.724,0,0,1-5.621,18.237,20.973,20.973,0,0,1-23.254,4.9c-.4-.171-.811-.321-1.217-.481" transform="translate(-3.471 -13.405)" fill="#d2d2d2" fill-rule="evenodd"/>
              <path id="Trazado_902962" data-name="Trazado 902962" d="M61.293,109.235a14.8,14.8,0,0,1-7.456,13.494,16.14,16.14,0,0,1-14.679,1.556,15.034,15.034,0,0,1-9.718-11.723A15.984,15.984,0,0,1,51.1,94.386a14.929,14.929,0,0,1,10.09,11.962,4.8,4.8,0,0,1,.1.783c.014.7.005,1.4.005,2.1" transform="translate(-4.451 -14.276)" fill="#929292" fill-rule="evenodd"/>
              <path id="Trazado_902963" data-name="Trazado 902963" d="M294.808,120.136c4.1,6.389,8.223,12.773,11.8,19.476a137.557,137.557,0,0,1,10.8,24.977,66.711,66.711,0,0,1,1.9,9.676,39.081,39.081,0,0,1-2.955,22.646,61.335,61.335,0,0,1-11.2,17.262A49.188,49.188,0,0,1,275.7,230.256,71.534,71.534,0,0,1,263.92,231.3a61.626,61.626,0,0,1-35.007-11.745,70.438,70.438,0,0,1-11.859-10.771,110.819,110.819,0,0,1-13.084-19.067,193.522,193.522,0,0,1-16.016-38.306c-3.024-9.861-5.787-19.795-8.366-29.779-1.744-6.754-3.329-13.55-5.073-20.3a111.428,111.428,0,0,0-6.787-19.771,34.613,34.613,0,0,0-7.086-10.383,14.057,14.057,0,0,0-5.174-3.057c-2.031-.721-4-.163-5.943.351a18.734,18.734,0,0,0-7.153,4.067,55.927,55.927,0,0,0-4.336,3.832.906.906,0,0,1-1.38.143c-1-.787-2.028-1.537-3-2.354-.592-.5-.6-.818-.058-1.458a14.908,14.908,0,0,1,1.558-1.6,69.444,69.444,0,0,1,6.447-5.2,23.227,23.227,0,0,1,11.187-3.911,12.773,12.773,0,0,1,6.367,1.368,23.3,23.3,0,0,1,9.554,8.414A62.23,62.23,0,0,1,176,86.459a229.146,229.146,0,0,1,6.912,24.57c1.63,6.739,3.4,13.442,5.209,20.135,2.382,8.813,4.943,17.574,7.852,26.227a181.22,181.22,0,0,0,8.361,20.462,147.7,147.7,0,0,0,10.434,18.425,73.767,73.767,0,0,0,11.1,13.323c8.789,8.135,18.956,13.518,30.891,15.311a44.656,44.656,0,0,0,9.573.562c6.546-.426,13.006-1.307,19.084-4.005a43.513,43.513,0,0,0,10.906-6.793,57.472,57.472,0,0,0,13.469-17.362A39.736,39.736,0,0,0,313.995,183a28.3,28.3,0,0,0-.259-6.693,76.093,76.093,0,0,0-1.652-9.189,85.336,85.336,0,0,0-4.208-11.627,190.088,190.088,0,0,0-14.563-26.959,63.545,63.545,0,0,1-3.534-5.7.863.863,0,0,1,.363-.912,24.969,24.969,0,0,1,3.764-2.07.669.669,0,0,1,.9.294" transform="translate(-20.386 -9.48)" fill="#424242" fill-rule="evenodd"/>
              <path id="Trazado_902964" data-name="Trazado 902964" d="M232.164,22.86a28.492,28.492,0,0,0-4.651,7.286,27.07,27.07,0,0,0-2.328,10.19c-.01,2.149-.231,4.293-.069,6.445a42.934,42.934,0,0,0,2.169,10.136,110.524,110.524,0,0,0,10.1,21.8,146.081,146.081,0,0,0,14.539,20.937,50.293,50.293,0,0,0,8.2,7.944,32.48,32.48,0,0,0,16.593,6.4,53.223,53.223,0,0,0,7.616.32,29.8,29.8,0,0,0,9.43-2.228c.741-.5,1.275-.278,1.688.46.273.487.563.965.829,1.456a.964.964,0,0,1-.412,1.506,33.536,33.536,0,0,1-9.149,2.791,45.912,45.912,0,0,1-8.016.082,37.887,37.887,0,0,1-16.954-4.746,40.2,40.2,0,0,1-8.581-6.494,98.362,98.362,0,0,1-11.54-14,158.481,158.481,0,0,1-14.105-24.182,80.255,80.255,0,0,1-5.806-16.615,33.259,33.259,0,0,1-.82-8.752,60.722,60.722,0,0,1,.376-6.828,31.953,31.953,0,0,1,7.391-16.179,2.033,2.033,0,0,1,1.015-.8c1.269.36,2.613,2.025,2.482,3.074" transform="translate(-33.803 -3.028)" fill="#d2d2d2" fill-rule="evenodd"/>
              <path id="Trazado_902965" data-name="Trazado 902965" d="M260.285,1.407A29.759,29.759,0,0,1,275.112.671a38.779,38.779,0,0,1,7.27,2.256c7.783,3.143,13.83,8.5,19.322,14.662,5.93,6.654,10.772,14.061,15.39,21.637a127.263,127.263,0,0,1,9.355,18.694,44.312,44.312,0,0,1,3.29,13.766A38.7,38.7,0,0,1,326.266,90a39.681,39.681,0,0,1-4.928,8.669,30.73,30.73,0,0,1-4.212,4.147c-1.405.287-2.914-1.4-2.655-2.963a29.516,29.516,0,0,0,3.848-4.138c4.986-7.263,7.793-15.2,7.23-24.108A39.848,39.848,0,0,0,322.5,59.263a141.675,141.675,0,0,0-12.57-23.681,114.4,114.4,0,0,0-14.559-18.641,60.173,60.173,0,0,0-4.642-4.284,30.384,30.384,0,0,0-6.867-4.363c-1.082-.484-2.133-1.032-3.214-1.515A27.214,27.214,0,0,0,262.4,5.114a2.421,2.421,0,0,0-.361.158c-.119.05-.279.123-.365.034a6.708,6.708,0,0,1-1.641-3.622c-.02-.108.143-.2.249-.276" transform="translate(-39.798 -0.011)" fill="#d2d2d2" fill-rule="evenodd"/>
              <path id="Trazado_902966" data-name="Trazado 902966" d="M321.65,117.607l1.89,2.512a1.047,1.047,0,0,0,.766.451c-.216.469.067.838.243,1.234.981,2.2.768,3.275-1.02,4.878-.683.61-1.419,1.163-2.131,1.741a41.157,41.157,0,0,0-5.03,2.687c-.515.224-1.025.464-1.547.667a4.084,4.084,0,0,1-4.366-.723c-.423-.354-.76-.855-1.413-.8.092-.195.235-.4.121-.611q-.606-1.15-1.243-2.283a1.075,1.075,0,0,0-.982-.526c.107-.19.253-.389.165-.609-.445-1.12.151-1.951.794-2.731a10.425,10.425,0,0,1,1.5-1.458,75.793,75.793,0,0,1,6.56-4.774c.147-.095.3-.186.449-.27,2.185-1.207,3-1.324,4.913.414a2.282,2.282,0,0,0,.332.208" transform="translate(-46.976 -17.767)" fill="#929292" fill-rule="evenodd"/>
              <path id="Trazado_902967" data-name="Trazado 902967" d="M258.143,1.4A33.75,33.75,0,0,1,259.9,5.261a3.852,3.852,0,0,1-2.831,3.706,19.706,19.706,0,0,1-5.753,1.24,4.283,4.283,0,0,1-3.453-1.291A6.569,6.569,0,0,1,246.1,5.468a3.734,3.734,0,0,1,2.376-3.977A18.264,18.264,0,0,1,254.163.027a5.277,5.277,0,0,1,3.981,1.37" transform="translate(-37.656 0)" fill="#424242" fill-rule="evenodd"/>
              <path id="Trazado_902968" data-name="Trazado 902968" d="M233.681,21.121a9.859,9.859,0,0,1-2.482-3.072,4.332,4.332,0,0,1,.583-4.578,20.83,20.83,0,0,1,3.573-4,3.807,3.807,0,0,1,5.425.191c2.023,2,2.352,4.087.941,6.537a18.9,18.9,0,0,1-3.464,4.26,3.76,3.76,0,0,1-4.575.666" transform="translate(-35.32 -1.289)" fill="#424242" fill-rule="evenodd"/>
            </g>
          </g>
        </g>
      </g>
    </g>
  </g>
</svg>
