<svg xmlns="http://www.w3.org/2000/svg" xmlns:xlink="http://www.w3.org/1999/xlink" width="294.5" height="291.04" viewBox="0 0 294.5 291.04">
  <defs>
    <clipPath id="clip-path">
      <path id="AdobeStock_483655014" d="M14,0H280.5a14,14,0,0,1,14,14V291.04a0,0,0,0,1,0,0H0a0,0,0,0,1,0,0V14A14,14,0,0,1,14,0Z" transform="translate(836.051 5429.994)" fill="#d5effb"/>
    </clipPath>
    <clipPath id="clip-path-2">
      <rect id="Rectángulo_404635" data-name="Rectángulo 404635" width="267.745" height="269.97" fill="none"/>
    </clipPath>
    <clipPath id="clip-path-4">
      <rect id="Rectángulo_404630" data-name="Rectángulo 404630" width="255.638" height="214.448" fill="none"/>
    </clipPath>
    <clipPath id="clip-path-6">
      <rect id="Rectángulo_404632" data-name="Rectángulo 404632" width="8.418" height="4.056" fill="none"/>
    </clipPath>
    <clipPath id="clip-path-7">
      <rect id="Rectángulo_404633" data-name="Rectángulo 404633" width="4.18" height="2.014" fill="none"/>
    </clipPath>
  </defs>
  <g id="Grupo_1142953" data-name="Grupo 1142953" transform="translate(-810.051 -5429.994)">
    <path id="AdobeStock_483655014-2" data-name="AdobeStock_483655014" d="M14,0H280.5a14,14,0,0,1,14,14V291.04a0,0,0,0,1,0,0H0a0,0,0,0,1,0,0V14A14,14,0,0,1,14,0Z" transform="translate(810.051 5429.994)" fill="#d5effb"/>
    <g id="Enmascarar_grupo_1099712" data-name="Enmascarar grupo 1099712" transform="translate(-26)" clip-path="url(#clip-path)">
      <g id="Grupo_1108400" data-name="Grupo 1108400" transform="translate(849.904 5449.064)">
        <g id="Grupo_1108399" data-name="Grupo 1108399" clip-path="url(#clip-path-2)">
          <g id="Grupo_1108390" data-name="Grupo 1108390">
            <g id="Grupo_1108389" data-name="Grupo 1108389" clip-path="url(#clip-path-2)">
              <g id="Grupo_1108388" data-name="Grupo 1108388" transform="translate(12.107 22.816)" opacity="0.2">
                <g id="Grupo_1108387" data-name="Grupo 1108387">
                  <g id="Grupo_1108386" data-name="Grupo 1108386" clip-path="url(#clip-path-4)">
                    <path id="Trazado_902969" data-name="Trazado 902969" d="M271.879,190.607a49.534,49.534,0,0,0-54.718-43.74c-1.34.149-2.654.365-3.954.616a99.072,99.072,0,1,0-38.214,62.1,49.532,49.532,0,0,0,96.887-18.98" transform="translate(-16.549 -31.187)" fill="#b7b7b7"/>
                  </g>
                </g>
              </g>
            </g>
          </g>
          <path id="Trazado_903139" data-name="Trazado 903139" d="M0,0H237.844" transform="translate(27.345 268.49)" fill="none" stroke="#b7e1f5" stroke-width="1"/>
          <g id="Grupo_1108398" data-name="Grupo 1108398">
            <g id="Grupo_1108397" data-name="Grupo 1108397" clip-path="url(#clip-path-2)">
              <path id="Trazado_902970" data-name="Trazado 902970" d="M359.152,85.558c0,12.4-3.111,22.448-6.949,22.448h-3.419V105.1c-2.109-3.856-3.531-11.161-3.531-19.542A60.416,60.416,0,0,1,346.7,71.837a24.162,24.162,0,0,1,2.081-5.821V63.11H352.2c2.239,0,4.229,3.418,5.5,8.727a60.593,60.593,0,0,1,1.446,13.721" transform="translate(-92.667 -16.939)" fill="#323232"/>
              <path id="Trazado_902971" data-name="Trazado 902971" d="M359.152,88.76c0,12.4-3.111,22.448-6.949,22.448h-3.419V108.3c-2.109-3.856-3.531-11.161-3.531-19.542A60.416,60.416,0,0,1,346.7,75.039h11a60.593,60.593,0,0,1,1.446,13.721" transform="translate(-92.667 -20.141)"/>
              <path id="Trazado_902972" data-name="Trazado 902972" d="M354.48,85.559c0,12.4-3.112,22.447-6.951,22.447s-6.95-10.05-6.95-22.447,3.111-22.447,6.95-22.447,6.951,10.05,6.951,22.447" transform="translate(-91.412 -16.939)" fill="#323232"/>
              <path id="Trazado_902973" data-name="Trazado 902973" d="M353.61,82.765c0,16.6-4.166,30.064-9.307,30.064h-4.578v-3.891C336.9,103.772,335,93.989,335,82.765a80.937,80.937,0,0,1,1.941-18.376,32.343,32.343,0,0,1,2.788-7.8V52.7H344.3c3,0,5.663,4.578,7.37,11.688a81.209,81.209,0,0,1,1.937,18.376" transform="translate(-89.914 -14.145)" fill="#323232"/>
              <path id="Trazado_902974" data-name="Trazado 902974" d="M353.61,87.053c0,16.6-4.166,30.064-9.307,30.064h-4.578v-3.891C336.9,108.06,335,98.277,335,87.053a80.938,80.938,0,0,1,1.941-18.376h14.737a81.209,81.209,0,0,1,1.937,18.376" transform="translate(-89.914 -18.433)"/>
              <path id="Trazado_902975" data-name="Trazado 902975" d="M347.354,82.765c0,16.6-4.167,30.062-9.308,30.062s-9.309-13.459-9.309-30.062S332.9,52.7,338.046,52.7s9.308,13.459,9.308,30.062" transform="translate(-88.234 -14.146)" fill="#323232"/>
              <path id="Trazado_902976" data-name="Trazado 902976" d="M346.152,80.214c0,20.443-5.129,37.014-11.459,37.014h-5.636v-4.79c-3.478-6.358-5.823-18.4-5.823-32.224a99.65,99.65,0,0,1,2.39-22.625,39.826,39.826,0,0,1,3.433-9.6V43.2h5.636c3.692,0,6.972,5.636,9.075,14.39a99.966,99.966,0,0,1,2.384,22.625" transform="translate(-86.757 -11.595)" fill="#323232"/>
              <path id="Trazado_902977" data-name="Trazado 902977" d="M346.152,85.494c0,20.443-5.129,37.014-11.459,37.014h-5.636v-4.79c-3.478-6.358-5.823-18.4-5.823-32.224a99.65,99.65,0,0,1,2.39-22.625h18.144a99.966,99.966,0,0,1,2.384,22.625" transform="translate(-86.757 -16.874)"/>
              <path id="Trazado_902978" data-name="Trazado 902978" d="M338.449,80.215c0,20.442-5.131,37.013-11.46,37.013s-11.461-16.571-11.461-37.013S320.658,43.2,326.988,43.2s11.46,16.571,11.46,37.013" transform="translate(-84.688 -11.596)" fill="#323232"/>
              <path id="Trazado_902979" data-name="Trazado 902979" d="M338.161,77.938c0,23.871-5.989,43.22-13.38,43.22H318.2v-5.594c-4.06-7.424-6.8-21.488-6.8-37.626a116.341,116.341,0,0,1,2.79-26.418A46.479,46.479,0,0,1,318.2,40.312V34.718h6.581c4.311,0,8.141,6.581,10.6,16.8a116.744,116.744,0,0,1,2.784,26.418" transform="translate(-83.581 -9.318)" fill="#323232"/>
              <path id="Trazado_902980" data-name="Trazado 902980" d="M338.161,84.1c0,23.871-5.989,43.22-13.38,43.22H318.2v-5.594c-4.06-7.424-6.8-21.488-6.8-37.626a116.341,116.341,0,0,1,2.79-26.418h21.186A116.744,116.744,0,0,1,338.161,84.1" transform="translate(-83.581 -15.483)"/>
              <path id="Trazado_902981" data-name="Trazado 902981" d="M329.166,77.939c0,23.868-5.991,43.218-13.382,43.218S302.4,101.807,302.4,77.939s5.991-43.218,13.382-43.218,13.382,19.349,13.382,43.218" transform="translate(-81.166 -9.319)" fill="#323232"/>
              <path id="Trazado_902982" data-name="Trazado 902982" d="M330.541,74.274c0,26.474-6.642,47.934-14.84,47.934h-7.3V116c-4.5-8.234-7.54-23.832-7.54-41.73a129.021,129.021,0,0,1,3.095-29.3A51.546,51.546,0,0,1,308.4,32.544v-6.2h7.3c4.781,0,9.029,7.3,11.752,18.635a129.474,129.474,0,0,1,3.087,29.3" transform="translate(-80.752 -7.07)" fill="#323232"/>
              <path id="Trazado_902983" data-name="Trazado 902983" d="M330.541,81.111c0,26.474-6.642,47.934-14.84,47.934h-7.3v-6.2c-4.5-8.234-7.54-23.833-7.54-41.73a129.021,129.021,0,0,1,3.095-29.3h23.5a129.474,129.474,0,0,1,3.087,29.3" transform="translate(-80.752 -13.906)"/>
              <path id="Trazado_902984" data-name="Trazado 902984" d="M320.565,74.275c0,26.472-6.645,47.932-14.842,47.932s-14.842-21.46-14.842-47.932,6.645-47.932,14.842-47.932,14.842,21.46,14.842,47.932" transform="translate(-78.073 -7.071)" fill="#323232"/>
              <path id="Trazado_902985" data-name="Trazado 902985" d="M321.822,70.505c0,32.149-8.066,58.208-18.02,58.208h-8.863v-7.535c-5.469-10-9.157-28.94-9.157-50.673a156.671,156.671,0,0,1,3.758-35.579,62.563,62.563,0,0,1,5.4-15.094V12.3H303.8c5.806,0,10.964,8.864,14.271,22.629a157.211,157.211,0,0,1,3.749,35.579" transform="translate(-76.705 -3.301)" fill="#323232"/>
              <path id="Trazado_902986" data-name="Trazado 902986" d="M321.822,78.807c0,32.149-8.066,58.208-18.02,58.208h-8.863V129.48c-5.469-10-9.157-28.94-9.157-50.673a156.671,156.671,0,0,1,3.758-35.579h28.532a157.211,157.211,0,0,1,3.749,35.579" transform="translate(-76.705 -11.603)"/>
              <path id="Trazado_902987" data-name="Trazado 902987" d="M309.708,70.506c0,32.146-8.069,58.205-18.023,58.205s-18.023-26.06-18.023-58.205S281.732,12.3,291.685,12.3s18.023,26.059,18.023,58.205" transform="translate(-73.452 -3.302)" fill="#323232"/>
              <path id="Trazado_902988" data-name="Trazado 902988" d="M274.392,84.579a151.28,151.28,0,0,1,13.88,6.806" transform="translate(-73.648 -22.701)" fill="none" stroke="#000" stroke-linecap="round" stroke-miterlimit="10" stroke-width="4.355"/>
              <path id="Trazado_902989" data-name="Trazado 902989" d="M75.78,84.5s51.185-22.3,88.831-19.886c22.611,1.451,43.441,8.868,56.472,14.56" transform="translate(-20.34 -17.293)" fill="none" stroke="#323232" stroke-linecap="round" stroke-linejoin="round" stroke-width="4.355"/>
              <path id="Trazado_902990" data-name="Trazado 902990" d="M78.573,70.505c0,32.149-8.066,58.208-18.02,58.208H51.69v-7.535c-5.469-10-9.157-28.94-9.157-50.673a156.672,156.672,0,0,1,3.758-35.579,62.564,62.564,0,0,1,5.4-15.094V12.3h8.863c5.806,0,10.964,8.864,14.271,22.629a157.21,157.21,0,0,1,3.749,35.579" transform="translate(-11.416 -3.301)" fill="#323232"/>
              <path id="Trazado_902991" data-name="Trazado 902991" d="M78.573,78.807c0,32.149-8.066,58.208-18.02,58.208H51.69V129.48c-5.469-10-9.157-28.94-9.157-50.673a156.672,156.672,0,0,1,3.758-35.579H74.824a157.21,157.21,0,0,1,3.749,35.579" transform="translate(-11.416 -11.603)"/>
              <path id="Trazado_902992" data-name="Trazado 902992" d="M66.459,70.506c0,32.146-8.069,58.205-18.023,58.205s-18.023-26.06-18.023-58.205S38.483,12.3,48.436,12.3,66.459,38.36,66.459,70.506" transform="translate(-8.163 -3.302)" fill="#323232"/>
              <path id="Trazado_902993" data-name="Trazado 902993" d="M64.892,74.274c0,26.474-6.642,47.934-14.84,47.934h-7.3V116c-4.5-8.234-7.54-23.832-7.54-41.73a129.019,129.019,0,0,1,3.095-29.3,51.578,51.578,0,0,1,4.445-12.431v-6.2h7.3c4.781,0,9.029,7.3,11.752,18.635a129.51,129.51,0,0,1,3.087,29.3" transform="translate(-9.451 -7.07)" fill="#323232"/>
              <path id="Trazado_902994" data-name="Trazado 902994" d="M64.892,81.111c0,26.474-6.642,47.934-14.84,47.934h-7.3v-6.2c-4.5-8.234-7.54-23.833-7.54-41.73a129.019,129.019,0,0,1,3.095-29.3H61.8a129.51,129.51,0,0,1,3.087,29.3" transform="translate(-9.451 -13.906)"/>
              <path id="Trazado_902995" data-name="Trazado 902995" d="M54.916,74.275c0,26.472-6.645,47.932-14.842,47.932s-14.842-21.46-14.842-47.932,6.645-47.932,14.842-47.932S54.916,47.8,54.916,74.275" transform="translate(-6.772 -7.071)" fill="#323232"/>
              <path id="Trazado_902996" data-name="Trazado 902996" d="M51.086,76c0,23.871-5.989,43.22-13.38,43.22H31.124V113.63c-4.06-7.424-6.8-21.488-6.8-37.626a116.341,116.341,0,0,1,2.79-26.418,46.479,46.479,0,0,1,4.008-11.208V32.784h6.581c4.311,0,8.141,6.581,10.6,16.8A116.745,116.745,0,0,1,51.086,76" transform="translate(-6.529 -8.799)" fill="#323232"/>
              <path id="Trazado_902997" data-name="Trazado 902997" d="M51.086,82.168c0,23.871-5.989,43.22-13.38,43.22H31.124v-5.594c-4.06-7.424-6.8-21.488-6.8-37.626a116.341,116.341,0,0,1,2.79-26.418H48.3a116.745,116.745,0,0,1,2.784,26.418" transform="translate(-6.529 -14.963)"/>
              <path id="Trazado_902998" data-name="Trazado 902998" d="M42.091,76c0,23.868-5.991,43.218-13.382,43.218S15.327,99.873,15.327,76s5.991-43.218,13.382-43.218S42.091,52.136,42.091,76" transform="translate(-4.114 -8.8)" fill="#323232"/>
              <path id="Trazado_902999" data-name="Trazado 902999" d="M38.631,78.28c0,20.443-5.129,37.014-11.459,37.014H21.536V110.5c-3.478-6.358-5.823-18.4-5.823-32.224A99.649,99.649,0,0,1,18.1,55.656a39.825,39.825,0,0,1,3.433-9.6v-4.79h5.636c3.692,0,6.972,5.636,9.075,14.39A99.967,99.967,0,0,1,38.631,78.28" transform="translate(-4.217 -11.076)" fill="#323232"/>
              <path id="Trazado_903000" data-name="Trazado 903000" d="M38.631,83.56c0,20.443-5.129,37.014-11.459,37.014H21.536v-4.79c-3.478-6.358-5.823-18.4-5.823-32.224A99.649,99.649,0,0,1,18.1,60.935H36.247A99.967,99.967,0,0,1,38.631,83.56" transform="translate(-4.217 -16.355)"/>
              <path id="Trazado_903001" data-name="Trazado 903001" d="M30.929,78.281c0,20.442-5.131,37.013-11.46,37.013S8.007,98.723,8.007,78.281s5.131-37.013,11.461-37.013,11.46,16.571,11.46,37.013" transform="translate(-2.149 -11.076)" fill="#323232"/>
              <path id="Trazado_903002" data-name="Trazado 903002" d="M28.383,80.831c0,16.6-4.166,30.064-9.307,30.064H14.5V107c-2.825-5.164-4.729-14.947-4.729-26.172A80.94,80.94,0,0,1,11.71,62.455a32.342,32.342,0,0,1,2.788-7.8V50.767h4.578c3,0,5.663,4.578,7.37,11.688a81.209,81.209,0,0,1,1.937,18.376" transform="translate(-2.622 -13.626)" fill="#323232"/>
              <path id="Trazado_903003" data-name="Trazado 903003" d="M28.383,85.119c0,16.6-4.166,30.064-9.307,30.064H14.5v-3.891c-2.825-5.164-4.729-14.947-4.729-26.172A80.94,80.94,0,0,1,11.71,66.743H26.446a81.209,81.209,0,0,1,1.937,18.376" transform="translate(-2.622 -17.914)"/>
              <path id="Trazado_903004" data-name="Trazado 903004" d="M22.127,80.831c0,16.6-4.168,30.062-9.308,30.062S3.51,97.434,3.51,80.831s4.167-30.062,9.309-30.062,9.308,13.459,9.308,30.062" transform="translate(-0.942 -13.627)" fill="#323232"/>
              <path id="Trazado_903005" data-name="Trazado 903005" d="M18.573,83.624c0,12.4-3.111,22.448-6.949,22.448H8.205v-2.906C6.1,99.311,4.674,92.006,4.674,83.624A60.417,60.417,0,0,1,6.123,69.9a24.13,24.13,0,0,1,2.082-5.821V61.176h3.418c2.239,0,4.229,3.419,5.5,8.727a60.641,60.641,0,0,1,1.446,13.721" transform="translate(-1.255 -16.42)" fill="#323232"/>
              <path id="Trazado_903006" data-name="Trazado 903006" d="M18.573,86.826c0,12.4-3.111,22.448-6.949,22.448H8.205v-2.906C6.1,102.513,4.674,95.208,4.674,86.826A60.416,60.416,0,0,1,6.123,73.105h11a60.641,60.641,0,0,1,1.446,13.721" transform="translate(-1.255 -19.622)"/>
              <path id="Trazado_903007" data-name="Trazado 903007" d="M13.9,83.625c0,12.4-3.112,22.447-6.951,22.447S0,96.022,0,83.625,3.111,61.178,6.95,61.178,13.9,71.228,13.9,83.625" transform="translate(0 -16.42)" fill="#323232"/>
              <path id="Trazado_903008" data-name="Trazado 903008" d="M11.686,89.189c0,4.022-1.009,7.281-2.254,7.281H8.323v-.942a14.636,14.636,0,0,1-1.145-6.339,19.6,19.6,0,0,1,.47-4.45,7.883,7.883,0,0,1,.675-1.888v-.942H9.432c.726,0,1.372,1.108,1.785,2.831a19.688,19.688,0,0,1,.469,4.45" transform="translate(-1.927 -21.984)" fill="#323232"/>
              <path id="Trazado_903009" data-name="Trazado 903009" d="M11.686,90.227c0,4.022-1.009,7.281-2.254,7.281H8.323v-.942a14.636,14.636,0,0,1-1.145-6.339,19.6,19.6,0,0,1,.47-4.45h3.569a19.688,19.688,0,0,1,.469,4.45" transform="translate(-1.927 -23.023)"/>
              <path id="Trazado_903010" data-name="Trazado 903010" d="M10.171,89.189c0,4.021-1.01,7.281-2.255,7.281s-2.254-3.26-2.254-7.281,1.01-7.281,2.254-7.281,2.255,3.26,2.255,7.281" transform="translate(-1.52 -21.984)" fill="#323232"/>
              <path id="Trazado_903011" data-name="Trazado 903011" d="M227.488,72.085a8.987,8.987,0,0,1-3.23-.636,3.054,3.054,0,0,1-1.871-2.525,3.625,3.625,0,0,1,1.648-2.747,6.239,6.239,0,0,1-.93-3.124,2.642,2.642,0,0,1,1.784-2.506,2.713,2.713,0,0,1,2.683,1.157,7.991,7.991,0,0,1,1.154,2.851c.181-1.359,1-2.956,2.371-2.877a2.159,2.159,0,0,1,1.743,1.42,6.353,6.353,0,0,1,.326,2.335c.236-1.086,1.775-1.423,2.72-.839a4.492,4.492,0,0,1,1.685,2.782,27.653,27.653,0,0,1,.638,3.174,8.292,8.292,0,0,1,.109,2.233,4.622,4.622,0,0,1-3.377,3.809c2.815,6.518,5.856,12.9,8.671,19.418,2.213,5.124,4.444,10.308,5.389,15.81a35.6,35.6,0,0,1-5.159,25.116c3.736,3.718,4.86,9.21,4.947,14.479a22.311,22.311,0,0,1-1,7.708c-1.283,3.685-3.995,6.712-7.007,9.192a40.649,40.649,0,0,1-33.92,8.209c-2.449-8.806-1.2-17.531.949-26.415.917-3.793,2.044-7.8,4.957-10.4a8.822,8.822,0,0,1-.228-7.23,4.754,4.754,0,0,1,2.959-2.9c-4.048-3.017-4.97-9.231-3.326-14.006s5.885-8.386,10.667-10C221.815,94.216,226.4,83.023,227,71.632" transform="translate(-55.162 -16.235)" fill="#ff9664"/>
              <path id="Trazado_903012" data-name="Trazado 903012" d="M136.865,142.325a17.63,17.63,0,0,1,1.817-10.714,2.651,2.651,0,0,1,1.486-1.495c1.495-.418,2.559,1.295,2.986,2.663a11.582,11.582,0,0,1,3.022-6.467,6.719,6.719,0,0,1,5.068-2.448c1.98.1,3.83,2.009,3.1,3.688a14.234,14.234,0,0,1,5.966-6.134,3.838,3.838,0,0,1,2.52-.608,2.573,2.573,0,0,1,1.888,1.967,6.649,6.649,0,0,1-.122,2.74,4.669,4.669,0,0,1,4.715-1.093c1.561.672,2.025,3.026.522,3.8,1.34-.928,3.443-.165,4.264,1.173a6.019,6.019,0,0,1,.35,4.487c-1.042,4.685-4.33,9.4-9.443,10.5" transform="translate(-36.684 -32.414)"/>
              <path id="Trazado_903013" data-name="Trazado 903013" d="M161.9,169.886s-27.957,5.383-25-7.814,9.55-23.442,20.316-23.963c8.375-.405,18.84-.086,21.532,15.7.6,3.516,2.817,5.7,2.431,10.867Z" transform="translate(-36.684 -37.045)" fill="#fe7644"/>
              <path id="Trazado_903014" data-name="Trazado 903014" d="M202.61,193.508c.285,3.9.4,7.777.688,11.676-3.68-.483-7.411.044-11.1.476a212.464,212.464,0,0,1-34.173,1.229,12.065,12.065,0,0,1-5.019-1.317c-.373-6.277-.5-12.21-.7-18.487a61.737,61.737,0,0,1-22.27-2.056c-.439-.132-.878-.271-1.31-.424a36.766,36.766,0,0,1-17.236-11.669,25.519,25.519,0,0,1-5.428-20.558,26.823,26.823,0,0,1-5.363-18.209,26.315,26.315,0,0,1,7.945-17.046c-3.636-3.929-3.263-10.052-2.114-15.276a76.679,76.679,0,0,1,7.148-19.46,10.256,10.256,0,0,0,1.653-4.836c-.044-1.749-1.024-3.307-1.888-4.821s-1.646-3.256-1.266-4.953,2.495-3.051,3.929-2.056a9.592,9.592,0,0,1,1.566-4.09c1.1-1.617,2.612.483,3.168,1.375-.271-.622-.454-1.909,1.953-2.875,3.292-1.317,1.917,4.88,1.917,4.88s4.3-.366,5.311,2.107-7.777,9.145-7.777,9.145,8.318,25.789,9.05,30.449-3.468,10.886-3.468,10.886c8.955,9.694,7.4,20.3,7.4,20.3,11.888-2.926,35.848,1.1,35.848,1.1s6.767-7.5,23.96-3.841,24.143,27.069,24.143,27.069a15.175,15.175,0,0,1-2.541,11.38Z" transform="translate(-27.006 -16.09)" fill="#ff9664"/>
              <path id="Trazado_903015" data-name="Trazado 903015" d="M185.927,306.459a75.11,75.11,0,0,1-15.422,33.675,4.392,4.392,0,0,1-1.975,1.609,4.514,4.514,0,0,1-2.765-.373c-13.842-5.026-27.515-10.718-41.869-14.01-2.239-.512-4.668-.951-6.694.366a5.736,5.736,0,0,0-1.4,1.295,6.34,6.34,0,0,0-1.295,3.153c-.439,3.482,1.353,6.577,3.5,9.152a6.188,6.188,0,0,1,1.822,3.212,2.064,2.064,0,0,1-1,2.092c-1.236.637-2.575-.439-3.519-1.427l-5-5.246a12.562,12.562,0,0,1-2.509-3.292,11.6,11.6,0,0,1-.622-5.714,71.8,71.8,0,0,1,2.934-15.729,2.088,2.088,0,0,1,2.97-1.251q1.13.6,2.3,1.1a30.191,30.191,0,0,0,21.56.775,17.116,17.116,0,0,1,4.829-1.324c2.444-.1,4.719,1.127,6.811,2.385,2.048,1.236,3.987,2.378,5.941,3.746-3.855-6.826-3.482-14.149-1.917-20.134a43.927,43.927,0,0,1,5.575-12.54c4.85,0,9.408-.5,14.23-.973s9.986-.388,14.142,2.122l.519.534a73.047,73.047,0,0,1-1.149,16.8" transform="translate(-28.745 -76.973)" fill="#fe7644"/>
              <path id="Trazado_903016" data-name="Trazado 903016" d="M202.625,306.459c-16.571,1.141-27.135-2.444-33.317-5.941a43.926,43.926,0,0,1,5.575-12.54c4.85,0,9.408-.5,14.23-.973s9.986-.388,14.142,2.122l.519.534a73.046,73.046,0,0,1-1.149,16.8" transform="translate(-45.443 -76.973)"/>
              <path id="Trazado_903017" data-name="Trazado 903017" d="M213.417,229.4c.057,1,.119,2,.192,3.005-3.68-.483-7.411.044-11.1.476a212.464,212.464,0,0,1-34.173,1.229,12.065,12.065,0,0,1-5.019-1.317c-.373-6.277-.5-12.21-.7-18.487a61.738,61.738,0,0,1-22.27-2.056c-.439-.132-.878-.271-1.31-.424a22.5,22.5,0,0,0,17.844-14.208c8.289-19.753-12.2-28.6-12.2-28.6a7.9,7.9,0,0,0,.856-3.9c11.888-2.926,35.848,1.1,35.848,1.1s6.767-7.5,23.96-3.841,24.143,27.069,24.143,27.069a15.174,15.174,0,0,1-2.541,11.38l-9,12.766a24.988,24.988,0,0,0-4.535,15.808" transform="translate(-37.318 -43.313)" fill="#e6e6e6"/>
              <path id="Trazado_903018" data-name="Trazado 903018" d="M224.112,314.066a23.08,23.08,0,0,0-2.224,7.945,10.372,10.372,0,0,0,.885,4.821,7.408,7.408,0,0,0,1.975,2.648,13.632,13.632,0,0,0,3.987,2.078,72.149,72.149,0,0,0,7.982,2.261,1.477,1.477,0,0,1-.344,2.912H207.783a1.3,1.3,0,0,1-1.068-2.049,31.615,31.615,0,0,0,2.224-3.775,36.349,36.349,0,0,0,3.973-16.885c-.212-5.524-1.946-10.9-2.239-16.432a29.8,29.8,0,0,1,1.719-12.488c-9.086,8.7-22.958,11.7-35.095,8.406a40.934,40.934,0,0,1-5.436-1.909c-1.01-.439-2-.914-2.978-1.427a45.638,45.638,0,0,1-14-11.486,15.833,15.833,0,0,1-1-18.919,1.069,1.069,0,0,1,.066-.1,15.11,15.11,0,0,1,8.772-6.438c4.616-1.024,9.313.915,13.637,2.824a6.157,6.157,0,0,0,2.458.7,6.622,6.622,0,0,0,2.136-.519,51.307,51.307,0,0,1,9.9-2.414,65.378,65.378,0,0,1,18,.044c9.335,1.258,18.37,4.192,27.12,7.7,2.334.936,4.792,2.019,6.2,4.1,2.034,3.021,1.222,7.082.073,10.535-4.426,13.293-12.583,25-18.129,37.86" transform="translate(-40.585 -67.893)" fill="#ff9664"/>
              <path id="Trazado_903019" data-name="Trazado 903019" d="M171.861,291.6q-1.514-.658-2.978-1.427a45.645,45.645,0,0,1-14-11.488,15.832,15.832,0,0,1-1-18.921l.064-.092a15.11,15.11,0,0,1,8.772-6.438c4.616-1.024,9.313.915,13.637,2.824a6.157,6.157,0,0,0,2.458.7,6.622,6.622,0,0,0,2.136-.519,51.307,51.307,0,0,1,9.9-2.414s-24.655,13.915-18.985,37.772" transform="translate(-40.585 -67.893)" fill="#363636"/>
              <path id="Trazado_903020" data-name="Trazado 903020" d="M256.651,363.837H228.06a1.3,1.3,0,0,1-1.068-2.048,31.618,31.618,0,0,0,2.224-3.775c3.453.622,9.511.79,13.835-4.075a7.407,7.407,0,0,0,1.975,2.648,13.633,13.633,0,0,0,3.987,2.078,72.157,72.157,0,0,0,7.982,2.261,1.477,1.477,0,0,1-.344,2.912" transform="translate(-60.862 -94.998)" fill="#363636"/>
              <path id="Trazado_903021" data-name="Trazado 903021" d="M118.833,356.518c-1.236.636-2.575-.439-3.519-1.427l-5-5.246a12.562,12.562,0,0,1-2.509-3.292,11.6,11.6,0,0,1-.622-5.714,71.8,71.8,0,0,1,2.934-15.729,2.088,2.088,0,0,1,2.97-1.251q1.13.6,2.3,1.1c-.358,3.519-.4,8.874,1.814,12.657a5.735,5.735,0,0,0-1.4,1.295,6.34,6.34,0,0,0-1.295,3.153c-.439,3.482,1.353,6.577,3.5,9.152a6.188,6.188,0,0,1,1.822,3.212,2.064,2.064,0,0,1-1,2.092" transform="translate(-28.745 -86.86)" fill="#363636"/>
              <path id="Trazado_903022" data-name="Trazado 903022" d="M166.887,150.738A9.1,9.1,0,0,0,164.224,146a5.479,5.479,0,0,0-5.129-1.252,3.011,3.011,0,0,0-.931.467,2.781,2.781,0,0,0-1,2.014,4.789,4.789,0,0,0,.469,2.245,7.207,7.207,0,0,0,3.384,3.541,4.8,4.8,0,0,0,3.531.376,3.05,3.05,0,0,0,2.152-2.652" transform="translate(-42.182 -38.794)" fill="#e6e6e6"/>
              <path id="Trazado_903023" data-name="Trazado 903023" d="M183.078,150.676a12.832,12.832,0,0,1-3.8-4.247,2.912,2.912,0,0,1-.388-1.014,2.057,2.057,0,0,1,1.357-2.048,3.622,3.622,0,0,1,2.585.12,6.073,6.073,0,0,1,3.79,5.128,2.375,2.375,0,0,1-.812,2.206,2.7,2.7,0,0,1-1.817.23,17.354,17.354,0,0,1-1.906-.351" transform="translate(-48.01 -38.43)" fill="#e6e6e6"/>
              <path id="Trazado_903024" data-name="Trazado 903024" d="M161.437,149.065l.345.615a.337.337,0,0,0,.254.165.359.359,0,0,0,.291-.1l.731-.575a.346.346,0,0,0,.1-.245.347.347,0,0,0-.347-.348.406.406,0,0,0-.246.1l-.731.575.546.07-.345-.615a.347.347,0,0,0-.6.35" transform="translate(-43.318 -39.869)"/>
              <path id="Trazado_903025" data-name="Trazado 903025" d="M182.914,146.383a.777.777,0,0,0-.119.39.872.872,0,0,0,.02.209.82.82,0,0,0,.07.189.725.725,0,0,0,.28.295.8.8,0,0,0,.615.082,1.012,1.012,0,0,0,.138-.054.448.448,0,0,0,.067-.036.371.371,0,0,0,.159-.208.356.356,0,0,0-.035-.268.348.348,0,0,0-.476-.124.405.405,0,0,1-.066.036l.083-.035a.438.438,0,0,1-.113.031l.092-.012a.477.477,0,0,1-.125,0l.092.012a.487.487,0,0,1-.112-.031l.083.035a.463.463,0,0,1-.094-.055l.071.054a.384.384,0,0,1-.071-.071l.054.07a.492.492,0,0,1-.053-.094l.035.083a.494.494,0,0,1-.03-.113c0,.031.008.061.012.092a.512.512,0,0,1,0-.125c0,.031-.008.061-.012.093a.5.5,0,0,1,.029-.1l-.035.083a.418.418,0,0,1,.04-.073.346.346,0,0,0-.125-.475.345.345,0,0,0-.267-.035.382.382,0,0,0-.208.159" transform="translate(-49.062 -39.243)"/>
              <path id="Trazado_903026" data-name="Trazado 903026" d="M157.263,155.781a10.2,10.2,0,0,1,3.815-2.864,9.954,9.954,0,0,1,2.835-.386,10.614,10.614,0,0,1,4.3.451,8.176,8.176,0,0,1-.554,3.351,5.24,5.24,0,0,1-5.27,2.692,7.324,7.324,0,0,1-5.46-3.3" transform="translate(-42.12 -40.933)" fill="#fe7644"/>
              <path id="Trazado_903027" data-name="Trazado 903027" d="M163.276,144.359a7.7,7.7,0,0,1-4.193.765,11.2,11.2,0,0,1-4.319-.7c.02.119.064-.052.162-.121a7.646,7.646,0,0,1,8.362-.159" transform="translate(-41.539 -38.375)" fill="#fe7644"/>
              <path id="Trazado_903028" data-name="Trazado 903028" d="M184.135,143.331c.162.025.018.271-.133.332-2.076.825-4.352,1.662-6.486,1a6.036,6.036,0,0,1,.828-1.64,3.3,3.3,0,0,1,3.942-.833,11.339,11.339,0,0,0,1.975,1.146" transform="translate(-47.646 -38.077)" fill="#fe7644"/>
              <path id="Trazado_903029" data-name="Trazado 903029" d="M188.075,149.744a4.55,4.55,0,0,0-6.448.963,4.8,4.8,0,0,0,2.308,2.212,3.564,3.564,0,0,0,3.15-.277,2.827,2.827,0,0,0,1.261-2.82.312.312,0,0,0-.118-.221c-.074-.044-.2.01-.181.094" transform="translate(-48.749 -39.943)" fill="#fe7644"/>
              <path id="Trazado_903030" data-name="Trazado 903030" d="M154.071,142.135a7.077,7.077,0,0,1,9.435,2.021c.252.366.854.018.6-.35a7.785,7.785,0,0,0-10.385-2.271.348.348,0,0,0,.35.6" transform="translate(-41.215 -37.694)"/>
              <path id="Trazado_903031" data-name="Trazado 903031" d="M169.82,141.356a5.786,5.786,0,0,1,1.66,2.791.347.347,0,0,0,.669-.184,6.452,6.452,0,0,0-1.839-3.1c-.326-.305-.819.185-.491.491" transform="translate(-45.551 -37.783)"/>
              <path id="Trazado_903032" data-name="Trazado 903032" d="M176.079,144.534a6.617,6.617,0,0,1,2.468-3.6.357.357,0,0,0,.124-.475.349.349,0,0,0-.475-.124,7.363,7.363,0,0,0-2.787,4.017.347.347,0,0,0,.669.184" transform="translate(-47.077 -37.652)"/>
              <path id="Trazado_903033" data-name="Trazado 903033" d="M174.872,146.686a19.447,19.447,0,0,1,5.8,4.783,1.19,1.19,0,0,1,.345.718,1.046,1.046,0,0,1-.2.536,3.8,3.8,0,0,1-2.923,1.729" transform="translate(-46.936 -39.371)" fill="none" stroke="#e44c1b" stroke-miterlimit="10" stroke-width="0.949"/>
              <path id="Trazado_903034" data-name="Trazado 903034" d="M180,157.534c.844.389,1.833-.288,2.268-1.108s.543-1.781.958-2.612,1.357-1.55,2.226-1.223a1.521,1.521,0,0,1,.913,1.348,2.342,2.342,0,0,1-.586,1.577.941.941,0,0,0-.252.419c-.026.163.1.36.264.331.1-.018.164-.105.235-.175a1.043,1.043,0,0,1,1.36.051,2.2,2.2,0,0,1,.637,1.32,1.452,1.452,0,0,1,.006.625c-.195.73-1.168.852-1.922.8s-1.708-.025-2.007.669a1.408,1.408,0,0,0-.071.713,3.41,3.41,0,0,0,1.807,2.622" transform="translate(-48.311 -40.934)" fill="none" stroke="#e44c1b" stroke-miterlimit="10" stroke-width="0.949"/>
              <path id="Trazado_903035" data-name="Trazado 903035" d="M161.292,161.475l5.036.342c.446.03.445-.665,0-.7l-5.036-.342c-.446-.031-.445.664,0,.694" transform="translate(-43.202 -43.154)" fill="#e44c1b"/>
              <path id="Trazado_903036" data-name="Trazado 903036" d="M158.525,155.026a1.491,1.491,0,0,1,.083-.129c.04-.054-.018.015-.015.02s.02-.025.023-.028c.018-.021.035-.041.054-.061a1.379,1.379,0,0,1,.111-.105l.028-.023c.051-.042-.053.038-.02.015s.044-.031.067-.046a1.34,1.34,0,0,1,.132-.078l.073-.036c.048-.022-.033.015-.033.014l.034-.013a1.455,1.455,0,0,1,.315-.078l-.092.012c.048-.006.1-.01.144-.011a.347.347,0,1,0,0-.694,1.8,1.8,0,0,0-1.5.89.347.347,0,0,0,.6.35" transform="translate(-42.376 -41.276)" fill="#e44c1b"/>
              <path id="Trazado_903037" data-name="Trazado 903037" d="M188.967,149.523l.694.179a.362.362,0,0,0,.267-.035.347.347,0,0,0,.125-.476.36.36,0,0,0-.208-.159l-.694-.179a.347.347,0,1,0-.184.669" transform="translate(-50.651 -39.95)" fill="#e44c1b"/>
              <path id="Trazado_903038" data-name="Trazado 903038" d="M157.258,146.2h.694a.359.359,0,0,0,.246-.1.354.354,0,0,0,.1-.246.349.349,0,0,0-.1-.245.359.359,0,0,0-.246-.1h-.694a.359.359,0,0,0-.246.1.347.347,0,0,0,0,.491.362.362,0,0,0,.246.1" transform="translate(-42.115 -39.053)" fill="#e44c1b"/>
              <path id="Trazado_903039" data-name="Trazado 903039" d="M176.659,156.1l1.563-.694a.348.348,0,0,0,.124-.476.357.357,0,0,0-.475-.124l-1.563.694a.348.348,0,0,0-.124.476.358.358,0,0,0,.475.124" transform="translate(-47.276 -41.54)" fill="#e44c1b"/>
              <path id="Trazado_903040" data-name="Trazado 903040" d="M258.72,275.535l3.9,5.367c.274.377.909.012.632-.369l-3.9-5.367c-.274-.377-.909-.012-.631.369" transform="translate(-69.423 -73.813)" fill="#e44c1b"/>
              <path id="Trazado_903041" data-name="Trazado 903041" d="M235.473,118.4a15.267,15.267,0,0,0,1.97-6.782c.023-.47-.708-.469-.732,0a14.449,14.449,0,0,1-1.87,6.412.366.366,0,0,0,.631.369" transform="translate(-63.018 -29.864)" fill="#e44c1b"/>
              <path id="Trazado_903042" data-name="Trazado 903042" d="M240.9,121.076l.463.747a.379.379,0,0,0,.219.168.372.372,0,0,0,.282-.037.367.367,0,0,0,.168-.218.377.377,0,0,0-.037-.282l-.463-.747a.382.382,0,0,0-.218-.168.366.366,0,0,0-.413.537" transform="translate(-64.646 -32.35)" fill="#e44c1b"/>
              <path id="Trazado_903043" data-name="Trazado 903043" d="M247.555,154.757a7.977,7.977,0,0,0,5.38-8.135c-.045-.465-.776-.469-.732,0a7.246,7.246,0,0,1-4.843,7.43c-.446.144-.255.851.195.705" transform="translate(-66.324 -39.26)" fill="#e44c1b"/>
              <path id="Trazado_903044" data-name="Trazado 903044" d="M126.659,172.859a31.028,31.028,0,0,1-4.783,8.13c-.3.361.219.882.517.517a32.122,32.122,0,0,0,4.971-8.453c.174-.437-.533-.628-.705-.195" transform="translate(-32.688 -46.33)" fill="#e44c1b"/>
              <path id="Trazado_903045" data-name="Trazado 903045" d="M132.611,174.6l2.195.975a.375.375,0,0,0,.5-.131.37.37,0,0,0-.131-.5l-2.195-.975a.375.375,0,0,0-.5.131.37.37,0,0,0,.131.5" transform="translate(-35.546 -46.682)" fill="#e44c1b"/>
              <path id="Trazado_903046" data-name="Trazado 903046" d="M129.1,133.736a16.955,16.955,0,0,0,3.459-9.45c.023-.471-.708-.47-.732,0a16.287,16.287,0,0,1-3.359,9.081c-.287.374.348.738.631.369" transform="translate(-34.461 -33.264)" fill="#e44c1b"/>
              <path id="Trazado_903047" data-name="Trazado 903047" d="M110.709,141.524a3.746,3.746,0,0,0,4.4,1.618.375.375,0,0,0,.255-.45.369.369,0,0,0-.45-.256,3.013,3.013,0,0,1-3.574-1.281.366.366,0,0,0-.631.369" transform="translate(-29.701 -37.839)" fill="#e44c1b"/>
              <path id="Trazado_903048" data-name="Trazado 903048" d="M111.351,145.708l2.44.481a.366.366,0,0,0,.195-.706l-2.44-.481a.366.366,0,1,0-.195.705" transform="translate(-29.816 -38.917)" fill="#e44c1b"/>
              <path id="Trazado_903049" data-name="Trazado 903049" d="M143.646,176.5a7.912,7.912,0,0,0,2.85-4.121.366.366,0,0,0-.706-.194,7.1,7.1,0,0,1-2.514,3.684.377.377,0,0,0-.131.5.368.368,0,0,0,.5.131" transform="translate(-38.408 -46.146)" fill="#e44c1b"/>
              <path id="Trazado_903050" data-name="Trazado 903050" d="M144.569,180.175a27.91,27.91,0,0,0,12.112,7.844c.448.146.641-.561.194-.705a27.185,27.185,0,0,1-11.789-7.656c-.316-.35-.832.168-.517.517" transform="translate(-38.776 -48.19)" fill="#e44c1b"/>
              <path id="Trazado_903051" data-name="Trazado 903051" d="M137.7,208.837a10.925,10.925,0,0,0,10.351-3.971c.286-.367-.228-.889-.517-.517a10.209,10.209,0,0,1-9.64,3.783c-.461-.079-.658.626-.195.705" transform="translate(-36.889 -54.814)" fill="#e44c1b"/>
              <path id="Trazado_903052" data-name="Trazado 903052" d="M145.134,213.088a14.926,14.926,0,0,0,9.74-5.254c.3-.36-.217-.88-.517-.517a14.2,14.2,0,0,1-9.223,5.04c-.462.053-.467.786,0,.732" transform="translate(-38.861 -55.611)" fill="#e44c1b"/>
              <path id="Trazado_903053" data-name="Trazado 903053" d="M153.647,216.638l3.414-1.707a.369.369,0,0,0,.131-.5.373.373,0,0,0-.5-.132l-3.414,1.708a.37.37,0,0,0-.131.5.374.374,0,0,0,.5.131" transform="translate(-41.092 -57.506)" fill="#e44c1b"/>
              <path id="Trazado_903054" data-name="Trazado 903054" d="M252.558,167.889a11.616,11.616,0,0,0,4.307-3.021c.312-.35-.2-.869-.517-.517a10.819,10.819,0,0,1-3.984,2.833.377.377,0,0,0-.255.45.368.368,0,0,0,.45.255" transform="translate(-67.663 -44.081)" fill="#e44c1b"/>
              <path id="Trazado_903055" data-name="Trazado 903055" d="M223.023,154.691a10.05,10.05,0,0,1,7.6,6.026c.175.43.883.242.706-.195a10.774,10.774,0,0,0-8.113-6.537c-.461-.076-.658.629-.195.705" transform="translate(-59.789 -41.329)" fill="#e44c1b"/>
              <path id="Trazado_903056" data-name="Trazado 903056" d="M192.706,288.873a37.435,37.435,0,0,0,21.332-1.971,36.9,36.9,0,0,0,5.475-2.755c.4-.246.034-.879-.369-.631a36.75,36.75,0,0,1-20.27,5.348,35.78,35.78,0,0,1-5.972-.7c-.459-.094-.656.612-.195.705" transform="translate(-51.652 -76.081)" fill="#e44c1b"/>
              <path id="Trazado_903057" data-name="Trazado 903057" d="M235.007,292.05l7.794-13.316a.366.366,0,0,0-.631-.37l-7.794,13.317a.366.366,0,0,0,.631.369" transform="translate(-62.893 -74.666)" fill="#e44c1b"/>
              <path id="Trazado_903058" data-name="Trazado 903058" d="M238.846,345.625q-.4,4.021-.8,8.041c-.046.468.685.465.732,0q.4-4.021.8-8.041c.047-.468-.686-.465-.732,0" transform="translate(-63.892 -92.673)" fill="#e44c1b"/>
              <path id="Trazado_903059" data-name="Trazado 903059" d="M185.378,354.96a3.637,3.637,0,0,1,3.138-2.613.375.375,0,0,0,.366-.366.369.369,0,0,0-.366-.366,4.389,4.389,0,0,0-3.843,3.15.366.366,0,0,0,.705.195" transform="translate(-49.563 -94.374)" fill="#ff9664"/>
              <path id="Trazado_903060" data-name="Trazado 903060" d="M119.8,332.945a20.265,20.265,0,0,1,7.946,1.487c.436.176.626-.531.195-.706a20.818,20.818,0,0,0-8.14-1.513.366.366,0,0,0,0,.732" transform="translate(-32.059 -89.166)" fill="#ff9664"/>
              <path id="Trazado_903061" data-name="Trazado 903061" d="M172.1,333.486a16.929,16.929,0,0,0,8.715,8.628c.428.184.8-.446.369-.631a16.336,16.336,0,0,1-8.453-8.366c-.189-.429-.82-.058-.631.369" transform="translate(-46.182 -89.358)" fill="#ff9664"/>
              <path id="Trazado_903062" data-name="Trazado 903062" d="M182.735,333.1a25.355,25.355,0,0,0,10.286-13.745.366.366,0,0,0-.706-.195,24.563,24.563,0,0,1-9.949,13.309c-.391.257-.026.891.369.631" transform="translate(-48.903 -85.595)" fill="#ff9664"/>
              <path id="Trazado_903063" data-name="Trazado 903063" d="M190.873,148.316l12.718-18.876,4.515,8.282Z" transform="translate(-51.231 -34.742)" fill="#e6e6e6"/>
              <path id="Trazado_903064" data-name="Trazado 903064" d="M206.851,129.792a5.626,5.626,0,1,1-5.626-5.626,5.626,5.626,0,0,1,5.626,5.626" transform="translate(-52.499 -33.327)" fill="#e6e6e6"/>
              <path id="Trazado_903065" data-name="Trazado 903065" d="M217.366,142.384a5.626,5.626,0,1,1-5.626-5.626,5.626,5.626,0,0,1,5.626,5.626" transform="translate(-55.322 -36.706)" fill="#e6e6e6"/>
              <path id="Trazado_903066" data-name="Trazado 903066" d="M214.445,131.7c-1.341,2.8-4.135,4.259-6.24,3.251s-2.724-4.1-1.383-6.9,4.134-4.259,6.24-3.251,2.724,4.1,1.383,6.9" transform="translate(-55.322 -33.411)" fill="#e6e6e6"/>
              <path id="Trazado_903067" data-name="Trazado 903067" d="M214.253,139.333c-3.078.424-5.832-1.107-6.15-3.419s1.919-4.529,5-4.953,5.832,1.107,6.15,3.419-1.92,4.529-5,4.953" transform="translate(-55.847 -35.131)" fill="#e6e6e6"/>
              <path id="Trazado_903068" data-name="Trazado 903068" d="M165.767,192.455a48.745,48.745,0,0,0,22.81,2.425,48.247,48.247,0,0,0,6.431-1.3.366.366,0,0,0-.195-.705,47.809,47.809,0,0,1-28.852-1.124c-.444-.159-.635.547-.195.705" transform="translate(-44.425 -51.46)" fill="#999"/>
              <path id="Trazado_903069" data-name="Trazado 903069" d="M215.394,190.7a23.369,23.369,0,0,0,18.321-1.312,22.256,22.256,0,0,0,4.38-2.964c.357-.309-.162-.824-.517-.517a22.642,22.642,0,0,1-16.95,5.235A21.455,21.455,0,0,1,215.589,190c-.444-.159-.636.548-.195.705" transform="translate(-57.745 -49.874)" fill="#999"/>
              <path id="Trazado_903070" data-name="Trazado 903070" d="M198.7,171.116a15.29,15.29,0,0,1,5.595,6.344c.2.425.833.054.632-.369a15.986,15.986,0,0,0-5.857-6.606c-.4-.254-.766.379-.369.631" transform="translate(-53.287 -45.743)" fill="#999"/>
              <path id="Trazado_903071" data-name="Trazado 903071" d="M171.753,231.776l4.4-4.872c.315-.348-.2-.868-.517-.517l-4.4,4.872c-.315.349.2.868.517.517" transform="translate(-45.934 -60.732)" fill="#999"/>
              <path id="Trazado_903072" data-name="Trazado 903072" d="M173.875,233.446l4.635-1.21a.366.366,0,0,0-.194-.705l-4.637,1.21a.366.366,0,0,0,.2.705" transform="translate(-46.547 -62.14)" fill="#999"/>
              <path id="Trazado_903073" data-name="Trazado 903073" d="M216.509,225.279q.574,5.856,1.151,11.712c.045.465.777.469.732,0q-.575-5.856-1.151-11.712c-.046-.465-.778-.469-.732,0" transform="translate(-58.111 -60.371)" fill="#999"/>
              <path id="Trazado_903074" data-name="Trazado 903074" d="M209.136,234.835l11.945-.585c.468-.023.471-.754,0-.732l-11.945.585c-.469.023-.471.755,0,.732" transform="translate(-56.038 -62.677)" fill="#999"/>
              <path id="Trazado_903075" data-name="Trazado 903075" d="M215.132,247.647h4.146a.366.366,0,0,0,0-.732h-4.146a.366.366,0,0,0,0,.732" transform="translate(-57.647 -66.273)" fill="#999"/>
              <path id="Trazado_903076" data-name="Trazado 903076" d="M112.149,323.607a2.222,2.222,0,0,0-2.6,1.524,11.534,11.534,0,0,0-.525,1.962q-.24,1.1-.462,2.2-.919,4.541-1.52,9.137c-.375,2.848-.662,5.686.477,8.405a21.761,21.761,0,0,0,4.4,6.178c1.728,1.863,4.11,4.481,6.954,3.619.449-.136.259-.843-.195-.705-2.341.71-4.388-1.452-5.831-2.99a25.131,25.131,0,0,1-4.283-5.582,10.179,10.179,0,0,1-1.076-3.425,17.336,17.336,0,0,1,.1-4c.316-2.757.75-5.5,1.253-8.233q.425-2.3.928-4.579c.225-1.016.623-3.3,2.185-2.8.451.143.643-.563.2-.705" transform="translate(-28.641 -86.834)" fill="#e6e6e6"/>
              <path id="Trazado_903077" data-name="Trazado 903077" d="M226.393,365.664c-.146,1.831,2.981,1.473,4.018,1.481l7,.059c4.6.039,9.214.135,13.818,0,1.246-.035,2.493-.081,3.736-.157a8.389,8.389,0,0,0,3.248-.708c.423-.207.053-.838-.369-.631a7.475,7.475,0,0,1-2.878.608c-1.01.061-2.023.1-3.035.135-2.09.07-4.182.086-6.273.08-4.262-.012-8.526-.066-12.788-.1l-3.635-.031c-.5,0-2.174.121-2.1-.74.037-.47-.694-.467-.732,0" transform="translate(-60.763 -98.051)" fill="#e6e6e6"/>
              <path id="Trazado_903078" data-name="Trazado 903078" d="M109.139,333.8a7.942,7.942,0,0,0,4.129,2.831.366.366,0,0,0,.195-.706,7.126,7.126,0,0,1-3.692-2.494.378.378,0,0,0-.5-.131.369.369,0,0,0-.131.5" transform="translate(-29.279 -89.446)" fill="#e6e6e6"/>
              <path id="Trazado_903079" data-name="Trazado 903079" d="M108.5,338.24a13.639,13.639,0,0,0,4.369,2.643.369.369,0,0,0,.45-.256.375.375,0,0,0-.256-.45,12.667,12.667,0,0,1-4.046-2.455c-.349-.315-.868.2-.517.517" transform="translate(-29.091 -90.62)" fill="#e6e6e6"/>
              <path id="Trazado_903080" data-name="Trazado 903080" d="M107.829,342.241A10.329,10.329,0,0,0,111.675,345a.368.368,0,0,0,.45-.255.375.375,0,0,0-.255-.45,9.545,9.545,0,0,1-3.524-2.569.366.366,0,0,0-.517.517" transform="translate(-28.914 -91.691)" fill="#e6e6e6"/>
              <path id="Trazado_903081" data-name="Trazado 903081" d="M238.161,366.437a20.488,20.488,0,0,0,2.168-3.31c.218-.417-.413-.787-.631-.369a19.57,19.57,0,0,1-2.054,3.162.376.376,0,0,0,0,.517.368.368,0,0,0,.517,0" transform="translate(-63.757 -97.316)" fill="#e6e6e6"/>
              <path id="Trazado_903082" data-name="Trazado 903082" d="M241.963,365.8a9.972,9.972,0,0,0,2.37-3.747.366.366,0,0,0-.705-.195,9.157,9.157,0,0,1-2.182,3.425.366.366,0,0,0,.517.517" transform="translate(-64.776 -97.052)" fill="#e6e6e6"/>
              <path id="Trazado_903083" data-name="Trazado 903083" d="M246.414,366.128a10.5,10.5,0,0,0,2.277-4.078.366.366,0,0,0-.705-.195,9.666,9.666,0,0,1-2.089,3.755c-.315.349.2.868.517.517" transform="translate(-65.973 -97.054)" fill="#e6e6e6"/>
              <path id="Trazado_903084" data-name="Trazado 903084" d="M116.805,342.464a5.221,5.221,0,0,1,.356,1.644c.1.809.165,1.621.263,2.43a13.29,13.29,0,0,0,.423,2.291,2.5,2.5,0,0,0,.9,1.448,1.687,1.687,0,0,0,1.5.091,1.079,1.079,0,0,0,.537-1.053,7.485,7.485,0,0,0-1.4-3.329c-.374-.608-.775-1.2-1.2-1.773a5.352,5.352,0,0,0-.812-.974c-.362-.294-.883.22-.517.517a3.812,3.812,0,0,1,.566.652c.328.427.638.87.935,1.32a11.529,11.529,0,0,1,1.6,3.093,2,2,0,0,1,.094.577.366.366,0,0,1-.02.163c-.014.048-.05.105-.043.1a.392.392,0,0,1-.307.1,1.082,1.082,0,0,1-.55-.105,2.067,2.067,0,0,1-.645-1.226,14.264,14.264,0,0,1-.363-2.108c-.094-.813-.161-1.631-.267-2.443a5.483,5.483,0,0,0-.428-1.786c-.213-.42-.844-.05-.631.369" transform="translate(-31.333 -91.769)" fill="#363636"/>
              <path id="Trazado_903085" data-name="Trazado 903085" d="M117.372,343.935c-.115-.045.059.04.1.064a.864.864,0,0,1,.161.123c.18.153.353.314.524.477.45.429.887.872,1.339,1.3A16.644,16.644,0,0,0,121,347.191a4.206,4.206,0,0,0,1.439.764,1.377,1.377,0,0,0,1.328-.295,1.363,1.363,0,0,0,.405-1.345,2.427,2.427,0,0,0-1-1.155,11.276,11.276,0,0,0-1.741-.964c-.7-.333-1.418-.637-2.117-.977a3.732,3.732,0,0,1-1.343-.871c-.288-.372-.8.149-.517.517a3.263,3.263,0,0,0,1.081.777c.552.293,1.127.544,1.7.8.6.269,1.193.541,1.768.854a4.518,4.518,0,0,1,1.285.919.938.938,0,0,1,.206.38.561.561,0,0,1-.119.391.59.59,0,0,1-.74.26,3.843,3.843,0,0,1-1.288-.708,15.544,15.544,0,0,1-1.358-1.181c-.468-.444-.92-.9-1.388-1.347a3.43,3.43,0,0,0-1.033-.784c-.439-.171-.629.536-.195.705" transform="translate(-31.437 -91.853)" fill="#363636"/>
              <path id="Trazado_903086" data-name="Trazado 903086" d="M249.715,354.79a3.74,3.74,0,0,0,1-2.869,13.376,13.376,0,0,1,.186-3.375,1.7,1.7,0,0,1,.784-1.054c.261-.141.344-.111.45.162a4.221,4.221,0,0,1-.035,2.4,7.071,7.071,0,0,1-1.024,1.96,10.98,10.98,0,0,0-1.262,2.337c-.116.334.382.642.611.356.532-.661,1.059-1.326,1.648-1.938.477-.5,1.206-1.324,1.953-1.367.711-.04.912,1.227.759,1.729-.217.706-1.1.912-1.735,1.043a21.211,21.211,0,0,0-2.719.5c-.442.154-.252.861.195.705a22.305,22.305,0,0,1,2.754-.5,2.679,2.679,0,0,0,2.182-1.46,2.331,2.331,0,0,0-.863-2.625c-.861-.418-1.817.333-2.427.871a19.994,19.994,0,0,0-2.263,2.532l.612.356c.529-1.528,1.833-2.682,2.272-4.246a5.137,5.137,0,0,0,.058-2.809,1.082,1.082,0,0,0-.74-.792,1.517,1.517,0,0,0-1.271.53c-.854.833-.854,2.193-.852,3.3,0,1.19.23,2.886-.792,3.749-.361.3.16.819.517.517" transform="translate(-66.853 -93.048)" fill="#363636"/>
              <path id="Trazado_903087" data-name="Trazado 903087" d="M120.15,86q4.033-.013,8.048-.366c2.792-.248,2.818-4.64,0-4.39q-4.018.357-8.048.366c-2.824.009-2.83,4.4,0,4.39" transform="translate(-31.68 -21.803)" fill="#ac7b6b"/>
              <path id="Trazado_903088" data-name="Trazado 903088" d="M230.888,79.938c3.213,2.743,7.2,2.825,11.07,3.986,2.711.814,3.87-3.422,1.167-4.232-2.937-.881-6.7-.784-9.133-2.858-2.138-1.825-5.257,1.266-3.1,3.1" transform="translate(-61.776 -20.473)" fill="#ac7b6b"/>
              <path id="Trazado_903089" data-name="Trazado 903089" d="M87.9,186.242s4.621,45.709-37.445,80.73" transform="translate(-13.541 -49.988)" fill="none" stroke="#e6e6e6" stroke-linecap="round" stroke-miterlimit="10" stroke-width="1"/>
              <path id="Trazado_903090" data-name="Trazado 903090" d="M118.8,220.29s-.638,27.229-31.158,58.593" transform="translate(-23.524 -59.126)" fill="none" stroke="#e6e6e6" stroke-linecap="round" stroke-miterlimit="10" stroke-width="1"/>
              <path id="Trazado_903091" data-name="Trazado 903091" d="M282.543,175.593a40.985,40.985,0,0,1-7.635,27.193" transform="translate(-73.786 -47.13)" fill="none" stroke="#e6e6e6" stroke-linecap="round" stroke-miterlimit="10" stroke-width="1"/>
              <path id="Trazado_903092" data-name="Trazado 903092" d="M300.26,182.062S301.6,213.091,280.225,238" transform="translate(-75.213 -48.866)" fill="none" stroke="#e6e6e6" stroke-linecap="round" stroke-miterlimit="10" stroke-width="1"/>
              <path id="Trazado_903093" data-name="Trazado 903093" d="M327.489,178.154s3.316,24.884-16.885,48.4" transform="translate(-83.367 -47.817)" fill="none" stroke="#e6e6e6" stroke-linecap="round" stroke-miterlimit="10" stroke-width="1"/>
              <path id="Trazado_903094" data-name="Trazado 903094" d="M36.892,8.785a11.83,11.83,0,0,1,2.926-3.571,6.227,6.227,0,0,1,4.439-1c.467.05.465-.683,0-.732a6.835,6.835,0,0,0-4.809,1.1A12.656,12.656,0,0,0,36.26,8.416c-.247.4.386.771.631.369" transform="translate(-9.717 -0.92)" fill="#323232"/>
              <path id="Trazado_903095" data-name="Trazado 903095" d="M35.427,5.217a6.4,6.4,0,0,1,2.154-2.97A9.27,9.27,0,0,1,41.024.717c.457-.11.263-.816-.195-.705a9.851,9.851,0,0,0-3.754,1.708,7.176,7.176,0,0,0-2.354,3.3c-.159.444.548.636.705.195" transform="translate(-9.313 0)" fill="#323232"/>
              <path id="Trazado_903096" data-name="Trazado 903096" d="M320.916,4.967c2.1.474,3.564,2.53,4.134,4.5a.366.366,0,0,0,.705-.195c-.639-2.206-2.3-4.481-4.645-5.011-.459-.1-.655.6-.195.705" transform="translate(-86.064 -1.141)" fill="#323232"/>
              <path id="Trazado_903097" data-name="Trazado 903097" d="M324.325,2.432A7.871,7.871,0,0,1,328.18,6.6c.158.44.865.25.706-.195A8.613,8.613,0,0,0,324.694,1.8c-.416-.219-.786.412-.369.631" transform="translate(-87.001 -0.471)" fill="#323232"/>
              <path id="Trazado_903098" data-name="Trazado 903098" d="M111.15,61.666c.451-3.158,2.891-5.457,5.685-6.731.428-.2.056-.826-.369-.632-2.944,1.343-5.546,3.846-6.021,7.169-.066.461.639.66.705.195" transform="translate(-29.642 -14.565)" fill="#323232"/>
              <path id="Trazado_903099" data-name="Trazado 903099" d="M109.108,56.824c1.1-1.775,3.114-2.688,4.7-3.95a.368.368,0,0,0,0-.517.374.374,0,0,0-.517,0c-1.651,1.315-3.667,2.245-4.812,4.1-.249.4.384.77.631.369" transform="translate(-29.1 -14.025)" fill="#323232"/>
              <path id="Trazado_903100" data-name="Trazado 903100" d="M242.476,56.3c1.433-.661,2.7-.043,3.97.673a6.77,6.77,0,0,0,4.259,1.206c.459-.061.466-.793,0-.732-1.667.222-2.981-.617-4.381-1.38a6.193,6.193,0,0,0-1.96-.756,3.86,3.86,0,0,0-2.258.358c-.427.2-.056.827.369.631" transform="translate(-64.931 -14.834)" fill="#323232"/>
              <path id="Trazado_903101" data-name="Trazado 903101" d="M244.3,52.967c2.284-.27,4.306,1.184,6.584,1.1.469-.018.472-.75,0-.732-2.275.087-4.286-1.369-6.584-1.1-.462.055-.467.787,0,.732" transform="translate(-65.477 -14.011)" fill="#323232"/>
              <path id="Trazado_903102" data-name="Trazado 903102" d="M131.3,66.429c-2.187.476-5.443,1.56-5.434,4.3a5.947,5.947,0,0,0,.338,1.7,7.619,7.619,0,0,0,.729,1.74,1.974,1.974,0,0,0,1.192,1,1.353,1.353,0,0,0,1.323-.47c.713-.879.556-2.358.349-3.389-.092-.462-.8-.266-.705.194a4.536,4.536,0,0,1-.046,2.442.689.689,0,0,1-.756.513c-.417-.075-.685-.565-.862-.9a7.827,7.827,0,0,1-.557-1.449,5.026,5.026,0,0,1-.274-1.384,2.829,2.829,0,0,1,1.49-2.334,10.376,10.376,0,0,1,3.407-1.263c.459-.1.265-.805-.194-.705" transform="translate(-33.783 -17.827)" fill="#e44c1b"/>
              <path id="Trazado_903103" data-name="Trazado 903103" d="M130.444,73.265a5.01,5.01,0,0,0,3.208.281.366.366,0,0,0-.195-.705,4.193,4.193,0,0,1-2.644-.207.375.375,0,0,0-.5.131.369.369,0,0,0,.131.5" transform="translate(-34.964 -19.483)" fill="#e44c1b"/>
              <path id="Trazado_903104" data-name="Trazado 903104" d="M119.365,75.633c3.054.554,2.974-3.632,2.723-5.591a10.914,10.914,0,0,0-.322-1.687.366.366,0,0,0-.706.194,11.512,11.512,0,0,1,.409,2.9,4.815,4.815,0,0,1-.617,3.057,1.281,1.281,0,0,1-1.292.419c-.46-.083-.658.621-.195.705" transform="translate(-31.967 -18.278)" fill="#e44c1b"/>
              <path id="Trazado_903105" data-name="Trazado 903105" d="M122.7,74.965a2.4,2.4,0,0,0,2.354.085.375.375,0,0,0,.131-.5.37.37,0,0,0-.5-.131,1.178,1.178,0,0,1-.236.139c.072-.031-.053.014-.067.018-.041.012-.083.02-.124.029.089-.018-.042,0-.06,0-.042,0-.084,0-.127,0s-.086-.006-.128-.01c.088.008-.047-.008-.062-.011a5.6,5.6,0,0,1-.985-.328.367.367,0,0,0-.451.255.377.377,0,0,0,.256.45" transform="translate(-32.861 -19.927)" fill="#e44c1b"/>
              <path id="Trazado_903106" data-name="Trazado 903106" d="M127.44,64.211a7.128,7.128,0,0,1,.353,2.951.368.368,0,0,0,.366.366.374.374,0,0,0,.366-.366,7.654,7.654,0,0,0-.379-3.146.374.374,0,0,0-.45-.255.369.369,0,0,0-.255.45" transform="translate(-34.201 -17.11)" fill="#e44c1b"/>
              <path id="Trazado_903107" data-name="Trazado 903107" d="M230.811,68.139c1.589-.827,4.192-1.332,5.3.509A9.558,9.558,0,0,1,237,71.49a1.871,1.871,0,0,1-.252,1.285,1.373,1.373,0,0,1-1.149.522c-.424-.059-.677-.517-.868-.85a9.825,9.825,0,0,0-.8-1.315.368.368,0,0,0-.612.161,4.183,4.183,0,0,1-.814,1.345c-.279.38.356.746.631.369a4.62,4.62,0,0,0,.888-1.52l-.612.162c.6.749.829,1.966,1.836,2.31a1.94,1.94,0,0,0,1.682-.356,2.008,2.008,0,0,0,.79-1.42,7.039,7.039,0,0,0-.73-3.4,3.347,3.347,0,0,0-2.649-2.065,6.5,6.5,0,0,0-3.9.788c-.418.217-.048.849.369.631" transform="translate(-61.802 -17.893)" fill="#e44c1b"/>
              <path id="Trazado_903108" data-name="Trazado 903108" d="M236.428,65.948v.732a.381.381,0,0,0,.107.259.367.367,0,0,0,.518,0,.384.384,0,0,0,.107-.259v-.732a.381.381,0,0,0-.107-.259.367.367,0,0,0-.518,0,.384.384,0,0,0-.107.259" transform="translate(-63.458 -17.602)" fill="#e44c1b"/>
              <path id="Trazado_903109" data-name="Trazado 903109" d="M242.738,67.618c-.005,1.94-.324,4.064.493,5.894.477,1.07,1.642,2.233,2.921,1.963a2.379,2.379,0,0,0,1.572-1.664c.166-.441-.541-.631-.706-.195-.219.584-.643,1.243-1.356,1.16a2.3,2.3,0,0,1-1.486-1.067,5.306,5.306,0,0,1-.74-2.7c-.063-1.13.029-2.26.032-3.389a.366.366,0,0,0-.732,0" transform="translate(-65.134 -18.054)" fill="#e44c1b"/>
              <path id="Trazado_903110" data-name="Trazado 903110" d="M238.7,75.828a2.441,2.441,0,0,0,1.908.776,2.063,2.063,0,0,0,1.836-.972c.222-.415-.409-.784-.632-.369a1.222,1.222,0,0,1-.109.174c.043-.056-.019.018-.029.029-.027.029-.055.056-.083.083-.01.008-.082.067-.053.046s-.05.032-.059.039c-.058.037-.118.068-.178.1l-.047.021c.029-.012.031-.014.007,0s-.076.028-.115.04c-.068.02-.136.038-.206.052-.034.007-.07.013-.105.019.064-.01-.031,0-.046,0-.072.007-.145.01-.217.01s-.146,0-.219-.01c0,0-.118-.013-.046,0-.037-.005-.073-.012-.108-.018a2.482,2.482,0,0,1-.413-.116c-.079-.029.029.015-.041-.018-.031-.014-.062-.029-.093-.045a1.836,1.836,0,0,1-.175-.1l-.054-.038c.026.02.03.023.009.007s-.05-.042-.074-.064a1.457,1.457,0,0,1-.141-.152.367.367,0,0,0-.517,0,.372.372,0,0,0,0,.517" transform="translate(-64.041 -20.152)" fill="#e44c1b"/>
              <path id="Trazado_903111" data-name="Trazado 903111" d="M286.605,292.618a22.233,22.233,0,0,0,2.963-7.4c.11-.458-.595-.653-.705-.195a21.649,21.649,0,0,1-2.889,7.228c-.265.391.369.758.631.369" transform="translate(-76.739 -76.43)" fill="#e44c1b"/>
              <path id="Trazado_903112" data-name="Trazado 903112" d="M291.054,295.263a9.574,9.574,0,0,0,2.289-4.551.379.379,0,0,0-.256-.45.368.368,0,0,0-.45.256,8.849,8.849,0,0,1-2.1,4.228.377.377,0,0,0,0,.517.369.369,0,0,0,.517,0" transform="translate(-77.953 -77.904)" fill="#e44c1b"/>
              <path id="Trazado_903113" data-name="Trazado 903113" d="M142.985,285.8a24.281,24.281,0,0,0,1.476,3.045,9.232,9.232,0,0,0,2.313,2.573.368.368,0,0,0,.5-.131.374.374,0,0,0-.131-.5c-1.78-1.35-2.664-3.364-3.527-5.356-.186-.431-.816-.059-.631.369" transform="translate(-38.368 -76.558)" fill="#e44c1b"/>
              <path id="Trazado_903114" data-name="Trazado 903114" d="M141.438,289.217a8.7,8.7,0,0,0,3.46,4.243c.391.265.756-.369.369-.632a7.878,7.878,0,0,1-3.124-3.805c-.152-.443-.859-.252-.705.195" transform="translate(-37.957 -77.507)" fill="#e44c1b"/>
              <path id="Trazado_903115" data-name="Trazado 903115" d="M151.818,107.8c1.009,2.338,2.264,4.682,2.645,7.229.07.464.775.266.706-.195-.391-2.606-1.688-5.011-2.72-7.4-.186-.431-.816-.059-.631.369" transform="translate(-40.739 -28.782)" fill="#e6e6e6"/>
              <path id="Trazado_903116" data-name="Trazado 903116" d="M166.4,104.287c-.236,2.521.235,5.038.244,7.56a.366.366,0,0,0,.732,0c-.009-2.521-.48-5.038-.244-7.56.044-.468-.688-.465-.732,0" transform="translate(-44.645 -27.897)" fill="#e6e6e6"/>
              <path id="Trazado_903117" data-name="Trazado 903117" d="M179.394,115.367a45.963,45.963,0,0,0,4.2-6.9c.221-.415-.41-.785-.632-.369a45,45,0,0,1-4.088,6.754c-.288.367.227.887.517.517" transform="translate(-47.988 -28.964)" fill="#e6e6e6"/>
              <path id="Trazado_903118" data-name="Trazado 903118" d="M188.386,122.526c1.459-1.174,2.757-2.552,4.316-3.6.388-.261.023-.9-.369-.631-1.611,1.084-2.956,2.5-4.463,3.715a.367.367,0,0,0,0,.517.374.374,0,0,0,.517,0" transform="translate(-50.396 -31.733)" fill="#e6e6e6"/>
              <path id="Trazado_903119" data-name="Trazado 903119" d="M144.277,117.6a27.7,27.7,0,0,1,3.828,3.113c.33.337.847-.18.517-.517a28.757,28.757,0,0,0-3.976-3.227.369.369,0,0,0-.5.131.373.373,0,0,0,.131.5" transform="translate(-38.676 -31.38)" fill="#e6e6e6"/>
              <g id="Grupo_1108393" data-name="Grupo 1108393" transform="translate(116.399 112.234)" opacity="0.5">
                <g id="Grupo_1108392" data-name="Grupo 1108392">
                  <g id="Grupo_1108391" data-name="Grupo 1108391" clip-path="url(#clip-path-6)">
                    <path id="Trazado_903120" data-name="Trazado 903120" d="M167.5,154.345c-.247-.944-2.32-1.22-4.631-.616s-3.986,1.858-3.739,2.8,2.32,1.22,4.631.616,3.986-1.857,3.739-2.8" transform="translate(-159.103 -153.409)" fill="#e44c1b"/>
                  </g>
                </g>
              </g>
              <g id="Grupo_1108396" data-name="Grupo 1108396" transform="translate(133.83 109.257)" opacity="0.5">
                <g id="Grupo_1108395" data-name="Grupo 1108395">
                  <g id="Grupo_1108394" data-name="Grupo 1108394" clip-path="url(#clip-path-7)">
                    <path id="Trazado_903121" data-name="Trazado 903121" d="M187.1,149.806c-.122-.468-1.152-.606-2.3-.306s-1.979.922-1.857,1.391,1.152.605,2.3.306,1.979-.923,1.857-1.391" transform="translate(-182.928 -149.341)" fill="#e44c1b"/>
                  </g>
                </g>
              </g>
              <path id="Trazado_903122" data-name="Trazado 903122" d="M184.645,262.608c.7-1.675,2.221-2.848,3.256-4.3.273-.384-.361-.75-.632-.369-1.085,1.525-2.592,2.716-3.329,4.477a.367.367,0,0,0,.255.45.376.376,0,0,0,.45-.255" transform="translate(-49.365 -69.188)"/>
              <path id="Trazado_903123" data-name="Trazado 903123" d="M182.553,260.2a10,10,0,0,1,2.765-1.735.379.379,0,0,0,.256-.45.368.368,0,0,0-.45-.256,11.074,11.074,0,0,0-3.088,1.923.366.366,0,0,0,.517.517" transform="translate(-48.831 -69.178)"/>
              <path id="Trazado_903124" data-name="Trazado 903124" d="M53.939,182.006s-2.877,36.245-27.193,56.018" transform="translate(-7.179 -48.851)" fill="none" stroke="#e6e6e6" stroke-linecap="round" stroke-miterlimit="10" stroke-width="0.731"/>
              <path id="Trazado_903125" data-name="Trazado 903125" d="M264.457,270.136c1.676.129,2.681,2.04,3.47,3.3,1.494,2.391,5.293.189,3.79-2.215-1.752-2.8-3.752-5.207-7.26-5.477a2.214,2.214,0,0,0-2.195,2.195,2.238,2.238,0,0,0,2.195,2.195" transform="translate(-70.392 -71.326)" fill="#fdccb1"/>
              <path id="Trazado_903126" data-name="Trazado 903126" d="M215.817,260.071c5.507-.069,11.23-1.116,16.451,1.163,2.564,1.12,4.8-2.661,2.215-3.79-6.1-2.665-12.2-1.844-18.666-1.763-2.822.035-2.831,4.425,0,4.39" transform="translate(-57.357 -68.577)" fill="#fdccb1"/>
              <path id="Trazado_903127" data-name="Trazado 903127" d="M134.267,147.467c1.7,1.968,4.44,5.82,3.071,8.558-1.261,2.52,2.525,4.745,3.79,2.215,2.419-4.835-.562-10.179-3.757-13.878-1.85-2.141-4.943.975-3.1,3.1" transform="translate(-35.886 -38.554)" fill="#fdccb1"/>
              <path id="Trazado_903128" data-name="Trazado 903128" d="M243.579,144.96c3.949-2.372,5.387-7.262,4.989-11.65-.253-2.79-4.646-2.817-4.39,0,.253,2.784-.2,6.287-2.814,7.86-2.419,1.453-.215,5.25,2.215,3.79" transform="translate(-64.501 -35.216)" fill="#fdccb1"/>
              <path id="Trazado_903129" data-name="Trazado 903129" d="M247.789,163.284a4.421,4.421,0,0,0,3.059-.787,2.381,2.381,0,0,0,1.008-1.312,2.243,2.243,0,0,0-.221-1.691,2.22,2.22,0,0,0-3-.787c-.083.061-.167.12-.255.173-.179.107-.346.087.151-.037a5.822,5.822,0,0,1-.571.143l.583-.078a3.3,3.3,0,0,1-.75-.014,2.183,2.183,0,0,0-1.552.643,2.194,2.194,0,0,0,0,3.1,2.571,2.571,0,0,0,1.552.643" transform="translate(-65.918 -42.511)" fill="#fdccb1"/>
              <path id="Trazado_903130" data-name="Trazado 903130" d="M116.01,181.247a10.847,10.847,0,0,0,3.491-5.358c.842-2.7-3.394-3.859-4.233-1.167a6.733,6.733,0,0,1-2.362,3.421,2.208,2.208,0,0,0,0,3.1,2.25,2.25,0,0,0,3.1,0" transform="translate(-30.133 -46.485)" fill="#fdccb1"/>
              <path id="Trazado_903131" data-name="Trazado 903131" d="M217.706,282.682a41.969,41.969,0,0,1,4.878-1.951c2.752-.63,1.588-4.863-1.167-4.232a41.673,41.673,0,0,0-4.878,1.95,2.253,2.253,0,0,0-1.533,2.7,2.213,2.213,0,0,0,2.7,1.533" transform="translate(-57.687 -74.196)" fill="#fdccb1"/>
              <path id="Trazado_903132" data-name="Trazado 903132" d="M243.235,113.328q.244-.732.488-1.463a2.211,2.211,0,0,0-1.533-2.7,2.246,2.246,0,0,0-2.7,1.533q-.244.732-.488,1.463a2.211,2.211,0,0,0,1.533,2.7,2.246,2.246,0,0,0,2.7-1.533" transform="translate(-64.125 -29.283)" fill="#fdccb1"/>
              <path id="Trazado_903133" data-name="Trazado 903133" d="M128.353,126.334a7.515,7.515,0,0,0,.787-3.059,2.212,2.212,0,0,0-2.195-2.195,2.24,2.24,0,0,0-2.195,2.195c-.007.181-.02.358-.044.538l.078-.583a5.011,5.011,0,0,1-.144.656c-.026.086-.057.171-.085.257-.149.455.216-.459.007-.023a2.352,2.352,0,0,0-.221,1.691,2.2,2.2,0,0,0,4.011.525" transform="translate(-33.354 -32.498)" fill="#fdccb1"/>
              <path id="Trazado_903134" data-name="Trazado 903134" d="M329.675,51.811s7.18,48.162-5.53,76.938" transform="translate(-87.001 -13.906)" fill="none" stroke="#323232" stroke-linecap="round" stroke-miterlimit="10" stroke-width="1"/>
              <path id="Trazado_903135" data-name="Trazado 903135" d="M336,57.685s6.846,45.582-6.7,69.636" transform="translate(-88.386 -15.483)" fill="none" stroke="#323232" stroke-linecap="round" stroke-miterlimit="10" stroke-width="1"/>
              <path id="Trazado_903136" data-name="Trazado 903136" d="M343.567,62.869s6.159,38.16-4.67,59.639" transform="translate(-90.961 -16.874)" fill="none" stroke="#323232" stroke-linecap="round" stroke-miterlimit="10" stroke-width="1"/>
              <path id="Trazado_903137" data-name="Trazado 903137" d="M351.215,68.677s4.518,30.129-3.5,48.439" transform="translate(-93.328 -18.433)" fill="none" stroke="#323232" stroke-linecap="round" stroke-miterlimit="10" stroke-width="1"/>
              <path id="Trazado_903138" data-name="Trazado 903138" d="M358.252,75.039s2.727,21.614-2.153,35.94" transform="translate(-95.578 -20.141)" fill="none" stroke="#323232" stroke-linecap="round" stroke-miterlimit="10" stroke-width="1"/>
            </g>
          </g>
        </g>
      </g>
    </g>
  </g>
</svg>
