<svg xmlns="http://www.w3.org/2000/svg" width="49.052" height="48.93" viewBox="0 0 49.052 48.93">
  <g id="aprobado_2_" data-name="aprobado (2)" transform="translate(-23 -23.573)">
    <path id="Trazado_903230" data-name="Trazado 903230" d="M53.3,72.51H23.842A.842.842,0,0,1,23,71.667V24.422a.842.842,0,0,1,.842-.842H52.314a.842.842,0,0,1,0,1.684H24.684V70.825H53.3a.842.842,0,1,1,0,1.684Z" transform="translate(0 -0.006)" fill="#4a6b7a"/>
    <path id="Trazado_903231" data-name="Trazado 903231" d="M381.9,124.087a.842.842,0,0,1-.842-.842V111.982a.842.842,0,1,1,1.684,0v11.263A.842.842,0,0,1,381.9,124.087Z" transform="translate(-320.37 -78.349)" fill="#4a6b7a"/>
    <path id="Trazado_903232" data-name="Trazado 903232" d="M303.55,34.475h-9.218a.842.842,0,0,1-.842-.842V24.416a.842.842,0,0,1,1.438-.6l9.217,9.218a.842.842,0,0,1-.595,1.437Zm-8.376-1.684h6.342l-6.342-6.342Z" transform="translate(-242.018 0)" fill="#4a6b7a"/>
    <path id="Trazado_903233" data-name="Trazado 903233" d="M81.16,69.044H64.122a.842.842,0,1,1,0-1.684H81.16a.842.842,0,1,1,0,1.684Z" transform="translate(-36.04 -39.178)" fill="#4a6b7a"/>
    <path id="Trazado_903234" data-name="Trazado 903234" d="M81.16,112.824H64.122a.842.842,0,1,1,0-1.684H81.16a.842.842,0,0,1,0,1.684Z" transform="translate(-36.04 -78.349)" fill="#4a6b7a"/>
    <path id="Trazado_903235" data-name="Trazado 903235" d="M93.332,156.6H64.122a.842.842,0,1,1,0-1.684h29.21a.842.842,0,1,1,0,1.684Z" transform="translate(-36.04 -117.521)" fill="#4a6b7a"/>
    <path id="Trazado_903236" data-name="Trazado 903236" d="M93.332,200.384H64.122a.842.842,0,1,1,0-1.684h29.21a.842.842,0,1,1,0,1.684Z" transform="translate(-36.04 -156.693)" fill="#4a6b7a"/>
    <path id="Trazado_903237" data-name="Trazado 903237" d="M130.407,275.7a9.047,9.047,0,1,1,9.047-9.047A9.047,9.047,0,0,1,130.407,275.7Zm0-16.41a7.363,7.363,0,1,0,7.363,7.363A7.363,7.363,0,0,0,130.407,259.294Z" transform="translate(-88.007 -209.402)" fill="#4a6b7a"/>
    <path id="Trazado_903238" data-name="Trazado 903238" d="M164.9,313.632a.842.842,0,0,1-.6-.246l-1.4-1.4a.842.842,0,1,1,1.191-1.191l.8.8,5.7-5.7a.842.842,0,0,1,1.192,1.19l-6.291,6.293a.842.842,0,0,1-.6.248Z" transform="translate(-124.941 -252.389)" fill="#4a6b7a"/>
    <path id="Trazado_903239" data-name="Trazado 903239" d="M336.861,235.492a.859.859,0,0,1-.269-.044.842.842,0,0,1-.526-1.067,14.055,14.055,0,0,0,.392-5.674,7.145,7.145,0,0,0-.713-2.327,5.677,5.677,0,1,1,10.167-.024,7.213,7.213,0,0,0-.711,2.25,14,14,0,0,0,.386,5.78.842.842,0,0,1-1.6.526,15.776,15.776,0,0,1-.458-6.526,8.887,8.887,0,0,1,.872-2.78,3.993,3.993,0,1,0-7.153.018,8.832,8.832,0,0,1,.879,2.876,15.861,15.861,0,0,1-.467,6.421A.842.842,0,0,1,336.861,235.492Z" transform="translate(-279.288 -174.108)" fill="#4a6b7a"/>
    <path id="Trazado_903240" data-name="Trazado 903240" d="M320.181,372.579H303.722a.842.842,0,0,1-.842-.842v-1.684a3.263,3.263,0,0,1,3.263-3.263h11.615a3.263,3.263,0,0,1,3.263,3.263v1.684A.842.842,0,0,1,320.181,372.579ZM304.564,370.9h14.774v-.842a1.579,1.579,0,0,0-1.579-1.579H306.145a1.579,1.579,0,0,0-1.579,1.579Z" transform="translate(-250.42 -307.089)" fill="#4a6b7a"/>
    <path id="Trazado_903241" data-name="Trazado 903241" d="M309.318,411.243H289.962a.842.842,0,0,1-.842-.842v-3.768a.842.842,0,0,1,.842-.842h19.355a.842.842,0,0,1,.842.842V410.4A.842.842,0,0,1,309.318,411.243ZM290.8,409.558h17.671v-2.084H290.8Z" transform="translate(-238.108 -341.984)" fill="#4a6b7a"/>
    <path id="Trazado_903242" data-name="Trazado 903242" d="M320.181,446.519H303.722a.842.842,0,0,1-.842-.842v-3.245a.842.842,0,0,1,.842-.842h16.459a.842.842,0,0,1,.842.842v3.245A.842.842,0,0,1,320.181,446.519Zm-15.617-1.684h14.774v-1.561H304.564Z" transform="translate(-250.42 -374.016)" fill="#4a6b7a"/>
  </g>
</svg>
