<svg xmlns="http://www.w3.org/2000/svg" xmlns:xlink="http://www.w3.org/1999/xlink" width="81" height="81" viewBox="0 0 81 81">
  <defs>
    <filter id="Trazado_874925" x="0" y="0" width="81" height="81" filterUnits="userSpaceOnUse">
      <feOffset dy="3" input="SourceAlpha"/>
      <feGaussianBlur stdDeviation="3" result="blur"/>
      <feFlood flood-opacity="0.161"/>
      <feComposite operator="in" in2="blur"/>
      <feComposite in="SourceGraphic"/>
    </filter>
  </defs>
  <g id="Grupo_1107985" data-name="Grupo 1107985" transform="translate(9 6)">
    <g transform="matrix(1, 0, 0, 1, -9, -6)" filter="url(#Trazado_874925)">
      <g id="Trazado_874925-2" data-name="Trazado 874925" transform="translate(9 6)" fill="#f6d530" opacity="0.859">
        <path d="M 31.49975204467773 61.49986267089844 C 27.44915199279785 61.49986267089844 23.52051162719727 60.70688247680664 19.82295227050781 59.14295196533203 C 16.25078201293945 57.63205337524414 13.04233169555664 55.46875381469727 10.28672218322754 52.71314239501953 C 7.531112194061279 49.95753479003906 5.367812156677246 46.74908447265625 3.856912136077881 43.17691421508789 C 2.29298210144043 39.47936248779297 1.500002026557922 35.55071258544922 1.500002026557922 31.50011253356934 C 1.500002026557922 27.44915390014648 2.29298210144043 23.5205135345459 3.856912136077881 19.82295417785645 C 5.367812156677246 16.25078392028809 7.531112194061279 13.04233360290527 10.28672218322754 10.28672313690186 C 13.04233169555664 7.531113147735596 16.25078201293945 5.367813110351562 19.82295227050781 3.856913328170776 C 23.52051162719727 2.292983293533325 27.44915199279785 1.500003218650818 31.49975204467773 1.500003218650818 C 35.55035018920898 1.500003218650818 39.47900390625 2.292983293533325 43.17655181884766 3.856913328170776 C 46.74872207641602 5.367813110351562 49.95717239379883 7.531113147735596 52.71278381347656 10.28672313690186 C 55.46839141845703 13.04233360290527 57.63169097900391 16.25078392028809 59.14259338378906 19.82295417785645 C 60.70652389526367 23.5205135345459 61.4995002746582 27.44915390014648 61.4995002746582 31.49975395202637 C 61.4995002746582 35.55071258544922 60.70652389526367 39.47936248779297 59.14259338378906 43.17691421508789 C 57.63169097900391 46.74908447265625 55.46839141845703 49.95753479003906 52.71278381347656 52.71314239501953 C 49.95717239379883 55.46875381469727 46.74872207641602 57.63205337524414 43.17655181884766 59.14295196533203 C 39.47900390625 60.70688247680664 35.55035018920898 61.49986267089844 31.49975204467773 61.49986267089844 Z" stroke="none"/>
        <path d="M 31.49975204467773 3 C 27.65098571777344 3 23.91894149780273 3.75311279296875 20.40728378295898 5.238422393798828 C 17.01390838623047 6.673686981201172 13.96571731567383 8.729045867919922 11.34738540649414 11.34737777709961 C 8.729042053222656 13.96572113037109 6.673694610595703 17.01391220092773 5.238418579101562 20.40727615356445 C 3.753108978271484 23.9189453125 2.999996185302734 27.6509895324707 2.999996185302734 31.5001106262207 C 2.999996185302734 35.348876953125 3.753108978271484 39.08092498779297 5.238418579101562 42.59259033203125 C 6.673694610595703 45.98595428466797 8.729042053222656 49.03414535522461 11.34738540649414 51.65248870849609 C 13.96571731567383 54.27082061767578 17.01390838623047 56.32617950439453 20.40728378295898 57.76144409179688 C 23.91894149780273 59.24675369262695 27.65098571777344 59.9998664855957 31.49975204467773 59.9998664855957 C 35.34851837158203 59.9998664855957 39.08056259155273 59.24675369262695 42.59221649169922 57.76144409179688 C 45.985595703125 56.32617950439453 49.03378677368164 54.27082061767578 51.65211868286133 51.65248870849609 C 54.27046203613281 49.03414535522461 56.3258056640625 45.98595428466797 57.76108551025391 42.59259033203125 C 59.24639511108398 39.08092498779297 59.99950790405273 35.348876953125 59.99950790405273 31.499755859375 C 59.99950790405273 27.6509895324707 59.24639511108398 23.9189453125 57.76108551025391 20.40727615356445 C 56.3258056640625 17.01391220092773 54.27046203613281 13.96572113037109 51.65211868286133 11.34737777709961 C 49.03378677368164 8.729045867919922 45.985595703125 6.673686981201172 42.59221649169922 5.238422393798828 C 39.08056259155273 3.75311279296875 35.34851837158203 3 31.49975204467773 3 M 31.49975204467773 0 C 48.89658355712891 0 62.99950790405273 14.10291290283203 62.99950790405273 31.499755859375 L 62.99950790405273 31.5001106262207 C 62.99950790405273 48.89695739746094 48.89658355712891 62.9998664855957 31.49975204467773 62.9998664855957 C 14.10292053222656 62.9998664855957 -3.814697265625e-06 48.89695739746094 -3.814697265625e-06 31.5001106262207 L -3.814697265625e-06 31.499755859375 C -3.814697265625e-06 14.10291290283203 14.10292053222656 0 31.49975204467773 0 Z" stroke="none" fill="#fff"/>
      </g>
    </g>
    <g id="Trazado_874923" data-name="Trazado 874923" fill="none">
      <path d="M31.5,0A31.5,31.5,0,0,1,63,31.5h0a31.5,31.5,0,0,1-63,0H0A31.5,31.5,0,0,1,31.5,0Z" stroke="none"/>
      <path d="M 31.49975204467773 3 C 27.65098571777344 3 23.91894149780273 3.75311279296875 20.40728378295898 5.238422393798828 C 17.01390838623047 6.673686981201172 13.96571731567383 8.729045867919922 11.34738540649414 11.34737777709961 C 8.729042053222656 13.96572113037109 6.673694610595703 17.01391220092773 5.238418579101562 20.40727615356445 C 3.753108978271484 23.9189453125 2.999996185302734 27.6509895324707 2.999996185302734 31.5001106262207 C 2.999996185302734 35.348876953125 3.753108978271484 39.08092498779297 5.238418579101562 42.59259033203125 C 6.673694610595703 45.98595428466797 8.729042053222656 49.03414535522461 11.34738540649414 51.65248870849609 C 13.96571731567383 54.27082061767578 17.01390838623047 56.32617950439453 20.40728378295898 57.76144409179688 C 23.91894149780273 59.24675369262695 27.65098571777344 59.9998664855957 31.49975204467773 59.9998664855957 C 35.34851837158203 59.9998664855957 39.08056259155273 59.24675369262695 42.59221649169922 57.76144409179688 C 45.985595703125 56.32617950439453 49.03378677368164 54.27082061767578 51.65211868286133 51.65248870849609 C 54.27046203613281 49.03414535522461 56.3258056640625 45.98595428466797 57.76108551025391 42.59259033203125 C 59.24639511108398 39.08092498779297 59.99950790405273 35.348876953125 59.99950790405273 31.499755859375 C 59.99950790405273 27.6509895324707 59.24639511108398 23.9189453125 57.76108551025391 20.40727615356445 C 56.3258056640625 17.01391220092773 54.27046203613281 13.96572113037109 51.65211868286133 11.34737777709961 C 49.03378677368164 8.729045867919922 45.985595703125 6.673686981201172 42.59221649169922 5.238422393798828 C 39.08056259155273 3.75311279296875 35.34851837158203 3 31.49975204467773 3 M 31.49975204467773 0 C 48.89658355712891 0 62.99950790405273 14.10291290283203 62.99950790405273 31.499755859375 L 62.99950790405273 31.5001106262207 C 62.99950790405273 48.89695739746094 48.89658355712891 62.9998664855957 31.49975204467773 62.9998664855957 C 14.10292053222656 62.9998664855957 -3.814697265625e-06 48.89695739746094 -3.814697265625e-06 31.5001106262207 L -3.814697265625e-06 31.499755859375 C -3.814697265625e-06 14.10291290283203 14.10292053222656 0 31.49975204467773 0 Z" stroke="none" fill="#fff"/>
    </g>
    <g id="fitness_11011186" transform="translate(15.433 13.644)">
      <rect id="Rectángulo_402625" data-name="Rectángulo 402625" width="9.565" height="3.507" transform="translate(25.451 10.695)" fill="#7491aa"/>
      <path id="Trazado_897908" data-name="Trazado 897908" d="M451.393,135.378h0a2.1,2.1,0,0,0-2.1,2.1v3.071a2.1,2.1,0,0,0,2.1,2.1h0a2.1,2.1,0,0,0,2.1-2.1v-3.071A2.1,2.1,0,0,0,451.393,135.378Z" transform="translate(-414.275 -126.565)" fill="#7491aa"/>
      <path id="Trazado_897909" data-name="Trazado 897909" d="M278.684,135.378h0a2.1,2.1,0,0,0-2.1,2.1v3.071a2.1,2.1,0,0,0,2.1,2.1h0a2.1,2.1,0,0,0,2.1-2.1v-3.071A2.1,2.1,0,0,0,278.684,135.378Z" transform="translate(-255.333 -126.565)" fill="#7491aa"/>
      <g id="Grupo_1107821" data-name="Grupo 1107821" transform="translate(1.226 0)">
        <path id="Trazado_897910" data-name="Trazado 897910" d="M34.848,36.826a4.809,4.809,0,0,1-9.464-.325,4.808,4.808,0,0,0,3.291-5.737A4.808,4.808,0,1,1,38.02,28.5Z" transform="translate(-25.384 -24.821)" fill="#f8ce7d"/>
      </g>
      <g id="Grupo_1107823" data-name="Grupo 1107823" transform="translate(0 14.202)">
        <g id="Grupo_1107822" data-name="Grupo 1107822" transform="translate(9.91 4.875)">
          <path id="Trazado_897911" data-name="Trazado 897911" d="M140.694,264.489v-.335h-4.472v.335a2.016,2.016,0,0,1-1.9,2.013v2.464a4.134,4.134,0,0,0,4.134,4.134h0a4.134,4.134,0,0,0,4.134-4.134V266.5A2.016,2.016,0,0,1,140.694,264.489Z" transform="translate(-134.324 -264.154)" fill="#f8d2c9"/>
        </g>
        <path id="Trazado_897912" data-name="Trazado 897912" d="M292.813,202.993v7.227h-6.367v4.207a3.209,3.209,0,0,0,.557,1.782h0l5.687-.774a4.792,4.792,0,0,0,4.146-4.749v-7.693h-4.022Z" transform="translate(-264.41 -202.993)" fill="#f8d2c9"/>
        <path id="Trazado_897913" data-name="Trazado 897913" d="M14.718,303.928h0a4.6,4.6,0,0,1,.778-2.568,3.209,3.209,0,0,0,.557-1.782V295.52a7.549,7.549,0,0,0-6.052,7.4V310.8h4.3l.89-4.824h0A4.6,4.6,0,0,1,14.718,303.928Z" transform="translate(-10 -288.144)" fill="#f8d2c9"/>
      </g>
      <path id="Trazado_897914" data-name="Trazado 897914" d="M70.519,293.661v4.207a3.209,3.209,0,0,1-.557,1.782,4.6,4.6,0,0,0-.778,2.568h0a4.606,4.606,0,0,0,1.051,2.935,6.265,6.265,0,0,1,1.422,3.934H85.364a6.265,6.265,0,0,1,1.422-3.934,4.606,4.606,0,0,0,1.051-2.935h0a4.6,4.6,0,0,0-.778-2.568,3.209,3.209,0,0,1-.557-1.782v-4.207H82.645v2.461a4.134,4.134,0,0,1-4.134,4.134h0a4.134,4.134,0,0,1-4.134-4.134v-2.461Z" transform="translate(-64.466 -272.231)" fill="#f18798"/>
      <path id="Trazado_897915" data-name="Trazado 897915" d="M361.28,128.778h-1.9a1.559,1.559,0,0,1-1.56-1.559h0a1.629,1.629,0,0,1,1.629-1.629h1.759a1.629,1.629,0,0,1,1.629,1.629h0A1.559,1.559,0,0,1,361.28,128.778Z" transform="translate(-330.097 -117.558)" fill="#f8d2c9"/>
      <path id="Trazado_897916" data-name="Trazado 897916" d="M116.836,69.426h0a6.007,6.007,0,0,0-6.007,6.007v3.86a6.007,6.007,0,0,0,6.007,6.007h0a6.007,6.007,0,0,0,6.007-6.007v-3.86A6.007,6.007,0,0,0,116.836,69.426Z" transform="translate(-102.792 -65.87)" fill="#f8d2c9"/>
      <path id="Trazado_897917" data-name="Trazado 897917" d="M118.816,73.15h0a20.172,20.172,0,0,1,5.835.858h0a6.008,6.008,0,0,0-5.835-4.582h0a6.008,6.008,0,0,0-5.835,4.582h0A20.172,20.172,0,0,1,118.816,73.15Z" transform="translate(-104.772 -65.87)" fill="#f8ce7d"/>
      <path id="Trazado_897918" data-name="Trazado 897918" d="M116.836,116.141A20.173,20.173,0,0,0,111,117a6.018,6.018,0,0,0-.172,1.425v1.819a20.17,20.17,0,0,1,6.007-.909h0a20.17,20.17,0,0,1,6.007.909v-1.819a6.019,6.019,0,0,0-.172-1.425,20.174,20.174,0,0,0-5.835-.858Z" transform="translate(-102.792 -108.862)" fill="#f18798"/>
      <g id="Grupo_1107824" data-name="Grupo 1107824" transform="translate(1.226)">
        <path id="Trazado_897919" data-name="Trazado 897919" d="M73.153,27.212a4.808,4.808,0,0,1,8.794,1.151" transform="translate(-69.345 -24.821)" fill="none" stroke="#000" stroke-linecap="round" stroke-linejoin="round" stroke-miterlimit="10" stroke-width="1"/>
        <path id="Trazado_897920" data-name="Trazado 897920" d="M32.428,149.625a4.81,4.81,0,0,1-7.045-3.555,4.794,4.794,0,0,0,2.774-2.189" transform="translate(-25.383 -134.391)" fill="none" stroke="#000" stroke-linecap="round" stroke-linejoin="round" stroke-miterlimit="10" stroke-width="1"/>
      </g>
      <path id="Trazado_897921" data-name="Trazado 897921" d="M451.393,135.378h0a2.1,2.1,0,0,0-2.1,2.1v3.071a2.1,2.1,0,0,0,2.1,2.1h0a2.1,2.1,0,0,0,2.1-2.1v-3.071A2.1,2.1,0,0,0,451.393,135.378Z" transform="translate(-414.275 -126.565)" fill="none" stroke="#000" stroke-linecap="round" stroke-linejoin="round" stroke-miterlimit="10" stroke-width="1"/>
      <path id="Trazado_897922" data-name="Trazado 897922" d="M278.684,135.378h0a2.1,2.1,0,0,0-2.1,2.1v3.071a2.1,2.1,0,0,0,2.1,2.1h0a2.1,2.1,0,0,0,2.1-2.1v-3.071A2.1,2.1,0,0,0,278.684,135.378Z" transform="translate(-255.333 -126.565)" fill="none" stroke="#000" stroke-linecap="round" stroke-linejoin="round" stroke-miterlimit="10" stroke-width="1"/>
      <line id="Línea_587" data-name="Línea 587" x2="9.36" transform="translate(25.554 14.202)" fill="none" stroke="#000" stroke-linecap="round" stroke-linejoin="round" stroke-miterlimit="10" stroke-width="1"/>
      <line id="Línea_588" data-name="Línea 588" x1="2.355" transform="translate(25.554 10.695)" fill="none" stroke="#000" stroke-linecap="round" stroke-linejoin="round" stroke-miterlimit="10" stroke-width="1"/>
      <line id="Línea_589" data-name="Línea 589" x1="2.355" transform="translate(32.446 10.695)" fill="none" stroke="#000" stroke-linecap="round" stroke-linejoin="round" stroke-miterlimit="10" stroke-width="1"/>
      <path id="Trazado_897923" data-name="Trazado 897923" d="M361.28,128.778h-1.9a1.559,1.559,0,0,1-1.56-1.559h0a1.629,1.629,0,0,1,1.629-1.629h1.759a1.629,1.629,0,0,1,1.629,1.629h0A1.559,1.559,0,0,1,361.28,128.778Z" transform="translate(-330.097 -117.558)" fill="none" stroke="#000" stroke-linecap="round" stroke-linejoin="round" stroke-miterlimit="10" stroke-width="1"/>
      <path id="Trazado_897924" data-name="Trazado 897924" d="M226.361,205.59v7.02H216.255a2.017,2.017,0,0,1-2.017-2.017v-.335" transform="translate(-197.958 -191.181)" fill="none" stroke="#000" stroke-linecap="round" stroke-linejoin="round" stroke-miterlimit="10" stroke-width="1"/>
      <path id="Trazado_897925" data-name="Trazado 897925" d="M293.429,218.6l5.687-.774a4.792,4.792,0,0,0,4.146-4.749V205.59" transform="translate(-270.836 -191.181)" fill="none" stroke="#000" stroke-linecap="round" stroke-linejoin="round" stroke-miterlimit="10" stroke-width="1"/>
      <path id="Trazado_897926" data-name="Trazado 897926" d="M116.836,69.426h0a6.007,6.007,0,0,0-6.007,6.007v3.86a6.007,6.007,0,0,0,6.007,6.007h0a6.007,6.007,0,0,0,6.007-6.007v-3.86A6.007,6.007,0,0,0,116.836,69.426Z" transform="translate(-102.792 -65.87)" fill="none" stroke="#000" stroke-linecap="round" stroke-linejoin="round" stroke-miterlimit="10" stroke-width="1"/>
      <path id="Trazado_897927" data-name="Trazado 897927" d="M134.324,295.431v2.32a4.134,4.134,0,0,0,4.134,4.134h0a4.134,4.134,0,0,0,4.134-4.134v-2.32" transform="translate(-124.414 -273.86)" fill="none" stroke="#000" stroke-linecap="round" stroke-linejoin="round" stroke-miterlimit="10" stroke-width="1"/>
      <path id="Trazado_897928" data-name="Trazado 897928" d="M70.519,295.645V299.5a3.209,3.209,0,0,1-.557,1.782,4.6,4.6,0,0,0-.778,2.568h0a4.606,4.606,0,0,0,1.051,2.935,6.265,6.265,0,0,1,1.422,3.934H85.364a6.265,6.265,0,0,1,1.422-3.934,4.606,4.606,0,0,0,1.051-2.935h0a4.6,4.6,0,0,0-.778-2.568A3.209,3.209,0,0,1,86.5,299.5v-4.065" transform="translate(-64.466 -273.86)" fill="none" stroke="#000" stroke-linecap="round" stroke-linejoin="round" stroke-miterlimit="10" stroke-width="1"/>
      <path id="Trazado_897929" data-name="Trazado 897929" d="M15.195,277.108l-.89,4.824H10v-7.879a7.547,7.547,0,0,1,7.547-7.547h2.245a2.017,2.017,0,0,0,2.017-2.017v-.335" transform="translate(-10 -245.076)" fill="none" stroke="#000" stroke-linecap="round" stroke-linejoin="round" stroke-miterlimit="10" stroke-width="1"/>
      <path id="Trazado_897930" data-name="Trazado 897930" d="M111.486,157.093a20.171,20.171,0,0,1,5.955-.893h0a20.173,20.173,0,0,1,5.934.887" transform="translate(-103.396 -145.728)" fill="none" stroke="#000" stroke-linecap="round" stroke-linejoin="round" stroke-miterlimit="10" stroke-width="1"/>
      <path id="Trazado_897931" data-name="Trazado 897931" d="M125.367,117a20.176,20.176,0,0,0-5.824-.855h0a20.175,20.175,0,0,0-5.772.839" transform="translate(-105.499 -108.862)" fill="none" stroke="#000" stroke-linecap="round" stroke-linejoin="round" stroke-miterlimit="10" stroke-width="1"/>
      <line id="Línea_590" data-name="Línea 590" transform="translate(4.508 5.94)" fill="none" stroke="#000" stroke-linecap="round" stroke-linejoin="round" stroke-miterlimit="10" stroke-width="1"/>
    </g>
  </g>
</svg>
