<svg xmlns="http://www.w3.org/2000/svg" width="43.15" height="32.362" viewBox="0 0 43.15 32.362">
  <g id="frecuencia_2_" data-name="frecuencia (2)" transform="translate(0 0.001)">
    <path id="Trazado_902562" data-name="Trazado 902562" d="M154.788,101.39A5.394,5.394,0,1,1,149.394,96,5.394,5.394,0,0,1,154.788,101.39Zm0,0" transform="translate(-127.819 -85.21)" fill="#4dd0e1"/>
    <g id="Grupo_1108196" data-name="Grupo 1108196" transform="translate(0 -0.001)">
      <path id="Trazado_902563" data-name="Trazado 902563" d="M8.091,32.362a1.8,1.8,0,0,0,1.271-3.069A19.422,19.422,0,0,1,3.6,16.181,19.42,19.42,0,0,1,9.362,3.068,1.8,1.8,0,1,0,6.819.527,22.811,22.811,0,0,0,0,16.181,22.813,22.813,0,0,0,6.819,31.835a1.789,1.789,0,0,0,1.271.527Zm0,0" transform="translate(0 0)" fill="#012e52"/>
      <path id="Trazado_902564" data-name="Trazado 902564" d="M70.662,48.518a1.8,1.8,0,0,0-2.542.006,14.83,14.83,0,0,0,0,20.516A1.8,1.8,0,1,0,70.668,66.5a11.24,11.24,0,0,1,0-15.443,1.8,1.8,0,0,0-.005-2.542Zm0,0" transform="translate(-56.808 -42.6)" fill="#012e52"/>
      <path id="Trazado_902565" data-name="Trazado 902565" d="M296.53.526a1.8,1.8,0,0,0,0,2.542A19.42,19.42,0,0,1,302.3,16.18a19.422,19.422,0,0,1-5.766,13.113,1.8,1.8,0,1,0,2.542,2.542,22.813,22.813,0,0,0,6.82-15.655A22.811,22.811,0,0,0,299.072.526a1.8,1.8,0,0,0-2.542,0Zm0,0" transform="translate(-262.741 0.001)" fill="#012e52"/>
      <path id="Trazado_902566" data-name="Trazado 902566" d="M257.8,69.571a1.79,1.79,0,0,0,1.274-.529,14.83,14.83,0,0,0,0-20.516,1.8,1.8,0,1,0-2.548,2.537,11.24,11.24,0,0,1,0,15.443,1.8,1.8,0,0,0,1.274,3.066Zm0,0" transform="translate(-227.233 -42.603)" fill="#012e52"/>
      <path id="Trazado_902567" data-name="Trazado 902567" d="M135.192,94.379A7.192,7.192,0,1,0,128,87.188,7.2,7.2,0,0,0,135.192,94.379Zm0-10.788a3.6,3.6,0,1,1-3.6,3.6A3.6,3.6,0,0,1,135.192,83.592Zm0,0" transform="translate(-113.617 -71.007)" fill="#012e52"/>
    </g>
  </g>
</svg>
