<svg xmlns="http://www.w3.org/2000/svg" width="45.965" height="34.811" viewBox="0 0 45.965 34.811">
  <g id="sensorial" transform="translate(0 -62.122)">
    <path id="Trazado_902568" data-name="Trazado 902568" d="M244.173,235.552l5.667-12.467a.449.449,0,0,0-.594-.594l-12.467,5.667Z" transform="translate(-215.521 -145.933)" fill="#024c67"/>
    <path id="Trazado_902569" data-name="Trazado 902569" d="M439.106,304.121a22.2,22.2,0,0,1-2.759,10.621.45.45,0,0,1-.619.173l-2.847-1.643a.448.448,0,0,1-.169-.6,18.04,18.04,0,0,0,2.211-8.524q0-.08,0-.16l2.789-1.394,1.394,1.394Q439.106,304.054,439.106,304.121Z" transform="translate(-393.815 -218.882)" fill="#ca2c2c"/>
    <path id="Trazado_902570" data-name="Trazado 902570" d="M367.141,111.163l-1.186,1.39-2.439.7a18.325,18.325,0,0,0-6.629-6.631l.7-2.438,1.39-1.186A22.512,22.512,0,0,1,367.141,111.163Z" transform="translate(-324.846 -37.208)" fill="#fe7701"/>
    <path id="Trazado_902571" data-name="Trazado 902571" d="M437.352,205.076h-4.183a17.988,17.988,0,0,0-2.439-9.057l3.625-2.093A22.157,22.157,0,0,1,437.352,205.076Z" transform="translate(-392.06 -119.971)" fill="#e94444"/>
    <path id="Trazado_902572" data-name="Trazado 902572" d="M253.01,72.619l-2.093,3.625A17.976,17.976,0,0,0,241.9,73.8h-.04l-1.394-2.789,1.394-1.394A22.151,22.151,0,0,1,253.01,72.619Z" transform="translate(-218.878 -6.827)" fill="#fe9738"/>
    <path id="Trazado_902573" data-name="Trazado 902573" d="M7.5,304.12a22.205,22.205,0,0,0,2.759,10.621.45.45,0,0,0,.619.173l2.847-1.643a.448.448,0,0,0,.169-.6,18.04,18.04,0,0,1-2.211-8.524q0-.08,0-.16L8.891,302.59,7.5,303.984q0,.068,0,.135Z" transform="translate(-6.824 -218.88)" fill="#80d261"/>
    <path id="Trazado_902574" data-name="Trazado 902574" d="M40.882,111.163l1.186,1.39,2.439.7a18.325,18.325,0,0,1,6.629-6.631l-.7-2.438L49.044,103a22.512,22.512,0,0,0-8.162,8.163Z" transform="translate(-37.212 -37.208)" fill="#ffc344"/>
    <path id="Trazado_902575" data-name="Trazado 902575" d="M7.5,205.076H11.68a17.988,17.988,0,0,1,2.439-9.057l-3.625-2.093a22.157,22.157,0,0,0-3,11.15Z" transform="translate(-6.824 -119.971)" fill="#02c7dd"/>
    <path id="Trazado_902576" data-name="Trazado 902576" d="M131.8,72.619l2.093,3.625a17.976,17.976,0,0,1,9.017-2.438h.04V69.622A22.152,22.152,0,0,0,131.8,72.619Z" transform="translate(-119.964 -6.827)" fill="#feb237"/>
    <circle id="Elipse_14891" data-name="Elipse 14891" cx="7.669" cy="7.669" r="7.669" transform="translate(15.313 80.922)" fill="#017297"/>
    <path id="Trazado_902577" data-name="Trazado 902577" d="M211.944,273.982a7.671,7.671,0,0,1-6.358,13.64,7.67,7.67,0,1,0,6.358-13.64Z" transform="translate(-187.129 -192.84)" fill="#025f80"/>
    <path id="Trazado_902578" data-name="Trazado 902578" d="M226.935,302.681l-3.289,5.262a.192.192,0,0,0,.162.293h1.277a.673.673,0,0,1,.673.673v3.25a.192.192,0,0,0,.354.1L229.4,307a.192.192,0,0,0-.162-.293h-1.277a.673.673,0,0,1-.673-.673v-3.25A.192.192,0,0,0,226.935,302.681Z" transform="translate(-203.542 -218.88)" fill="#fe9738"/>
    <path id="Trazado_902579" data-name="Trazado 902579" d="M22.982,62.122a23.006,23.006,0,0,0-4.768.5.673.673,0,0,0,.28,1.317,21.625,21.625,0,0,1,3.815-.459v2.838a18.731,18.731,0,0,0-8.132,2.189l-1.42-2.46a21.607,21.607,0,0,1,2.789-1.258.673.673,0,1,0-.465-1.264A22.99,22.99,0,0,0,2.843,96.186a1.123,1.123,0,0,0,1.545.431l2.847-1.643a1.128,1.128,0,0,0,.424-1.509,17.453,17.453,0,1,1,30.648,0,1.128,1.128,0,0,0,.424,1.509l2.847,1.643a1.123,1.123,0,0,0,1.545-.431A22.989,22.989,0,0,0,22.982,62.122Zm8.806,6.384a18.731,18.731,0,0,0-8.132-2.189V63.479a21.575,21.575,0,0,1,9.552,2.567ZM6.372,93.917,3.914,95.336a21.662,21.662,0,0,1-2.557-9.558H4.195a18.832,18.832,0,0,0,2.177,8.139ZM4.195,84.431H1.357a21.58,21.58,0,0,1,2.568-9.552l2.46,1.42A18.74,18.74,0,0,0,4.195,84.431Zm2.866-9.3L4.6,73.714a21.847,21.847,0,0,1,6.991-6.992l1.42,2.46A19,19,0,0,0,7.061,75.135Zm25.891-5.953,1.42-2.46a21.848,21.848,0,0,1,6.991,6.992L38.9,75.135A19.007,19.007,0,0,0,32.952,69.182Zm9.088,5.7a21.58,21.58,0,0,1,2.568,9.552H41.769A18.738,18.738,0,0,0,39.58,76.3Zm.011,20.457-2.458-1.419a18.831,18.831,0,0,0,2.177-8.139h2.838A21.661,21.661,0,0,1,42.051,95.336Z"/>
    <path id="Trazado_902580" data-name="Trazado 902580" d="M220.514,295.118a.858.858,0,0,0-.972.373l-3.289,5.262a.865.865,0,0,0,.734,1.323h1.277v3.25a.865.865,0,0,0,1.6.458l3.289-5.262a.865.865,0,0,0-.734-1.323H221.14v-3.25A.858.858,0,0,0,220.514,295.118Zm1.034,5.428-1.938,3.1v-1.57a1.348,1.348,0,0,0-1.347-1.347h-.407l1.938-3.1v1.57a1.348,1.348,0,0,0,1.347,1.347Z" transform="translate(-196.72 -212.048)"/>
    <path id="Trazado_902581" data-name="Trazado 902581" d="M112.177,419.34h-2.789a.673.673,0,0,0,0,1.347h2.789a.673.673,0,0,0,0-1.347Z" transform="translate(-98.955 -325.148)"/>
    <path id="Trazado_902582" data-name="Trazado 902582" d="M360.678,405.2h-.721v-.721a.673.673,0,1,0-1.347,0v.721h-.721a.673.673,0,1,0,0,1.347h.721v.721a.673.673,0,0,0,1.347,0v-.721h.721a.673.673,0,1,0,0-1.347Z" transform="translate(-325.147 -311.012)"/>
    <path id="Trazado_902583" data-name="Trazado 902583" d="M183.366,216.535a1.122,1.122,0,0,0-1.486-1.486l-4.63,2.1a.673.673,0,0,0,.557,1.226l4.085-1.857-3.214,7.07a8.392,8.392,0,0,0-4.25-3.677l.587-.267a.673.673,0,0,0-.557-1.226l-2.151.977a8.346,8.346,0,0,0-9.233,8.295,8.293,8.293,0,0,0,.639,3.207.673.673,0,1,0,1.243-.518,7,7,0,1,1,1.637,2.378.673.673,0,0,0-.929.975,8.343,8.343,0,0,0,13.734-8.472Z" transform="translate(-148.435 -139.105)"/>
  </g>
</svg>
